<?xml version="1.0" encoding="UTF-8" standalone="no"?>
<svg
   xmlns:dc="http://purl.org/dc/elements/1.1/"
   xmlns:cc="http://creativecommons.org/ns#"
   xmlns:rdf="http://www.w3.org/1999/02/22-rdf-syntax-ns#"
   xmlns:svg="http://www.w3.org/2000/svg"
   xmlns="http://www.w3.org/2000/svg"
   xmlns:xlink="http://www.w3.org/1999/xlink"
   xmlns:sodipodi="http://sodipodi.sourceforge.net/DTD/sodipodi-0.dtd"
   xmlns:inkscape="http://www.inkscape.org/namespaces/inkscape"
   version="1.1"
   width="32"
   height="32"
   id="svg3658"
   sodipodi:docname="atom.svg"
   inkscape:version="0.92.4 5da689c313, 2019-01-14">
  <sodipodi:namedview
     pagecolor="#ffffff"
     bordercolor="#666666"
     borderopacity="1"
     objecttolerance="10"
     gridtolerance="10"
     guidetolerance="10"
     inkscape:pageopacity="0"
     inkscape:pageshadow="2"
     inkscape:window-width="1366"
     inkscape:window-height="738"
     id="namedview27"
     showgrid="false"
     inkscape:zoom="8.4910601"
     inkscape:cx="12.884247"
     inkscape:cy="8.7877406"
     inkscape:window-x="0"
     inkscape:window-y="30"
     inkscape:window-maximized="1"
     inkscape:current-layer="svg3658" />
  <defs
     id="defs3660">
    <linearGradient
       id="linearGradient4011">
      <stop
         id="stop4013"
         style="stop-color:#ffffff;stop-opacity:1"
         offset="0" />
      <stop
         id="stop4015"
         style="stop-color:#ffffff;stop-opacity:0.23529412"
         offset="0.507761" />
      <stop
         id="stop4017"
         style="stop-color:#ffffff;stop-opacity:0.15686275"
         offset="0.83456558" />
      <stop
         id="stop4019"
         style="stop-color:#ffffff;stop-opacity:0.39215687"
         offset="1" />
    </linearGradient>
    <linearGradient
       id="linearGradient3820-7-2-2">
      <stop
         id="stop3822-2-6-36"
         style="stop-color:#3d3d3d;stop-opacity:1"
         offset="0" />
      <stop
         id="stop3864-8-7-6"
         style="stop-color:#686868;stop-opacity:0.49803922"
         offset="0.5" />
      <stop
         id="stop3824-1-2-4"
         style="stop-color:#686868;stop-opacity:0"
         offset="1" />
    </linearGradient>
    <radialGradient
       xlink:href="#linearGradient3820-7-2-2"
       id="radialGradient4048"
       gradientUnits="userSpaceOnUse"
       gradientTransform="matrix(0.17524541,0,0,0.05575992,-1.3768101,18.11895)"
       cx="99.157013"
       cy="186.17059"
       fx="99.157013"
       fy="186.17059"
       r="62.769119" />
    <linearGradient
       gradientTransform="matrix(0.72973007,0,0,0.72973007,-36.346113,-2.5039328)"
       gradientUnits="userSpaceOnUse"
       xlink:href="#linearGradient4011"
       id="linearGradient12398-3"
       y2="44.340794"
       x2="71.204407"
       y1="6.2375584"
       x1="71.204407" />
    <linearGradient
       gradientTransform="matrix(1.1113759,0,0,0.83086027,-2249.8942,-2663.1587)"
       gradientUnits="userSpaceOnUse"
       xlink:href="#linearGradient947-5"
       id="linearGradient11527-6-5"
       y2="3241.9966"
       x2="2035.1652"
       y1="3208.0737"
       x1="2035.1652" />
    <linearGradient
       id="linearGradient947-5">
      <stop
         offset="0"
         style="stop-color:#9bdb4d;stop-opacity:1"
         id="stop943-6" />
      <stop
         offset="1"
         style="stop-color:#68b723;stop-opacity:1"
         id="stop945-2" />
    </linearGradient>
  </defs>
  <metadata
     id="metadata3663">
    <rdf:RDF>
      <cc:Work
         rdf:about="">
        <dc:format>image/svg+xml</dc:format>
        <dc:type
           rdf:resource="http://purl.org/dc/dcmitype/StillImage" />
        <dc:title></dc:title>
      </cc:Work>
    </rdf:RDF>
  </metadata>
  <path
     d="m 27.000001,28.499804 a 11,3.4999999 0 1 1 -21.9999997,0 11,3.4999999 0 1 1 21.9999997,0 z"
     id="path3818-0-2"
     style="fill:url(#radialGradient4048);fill-opacity:1;stroke:none" />
  <path
     style="color:#000000;display:inline;overflow:visible;visibility:visible;opacity:0.98999999;fill:url(#linearGradient11527-6-5);fill-opacity:1.0;fill-rule:nonzero;stroke:none;stroke-width:0.99999982;marker:none;enable-background:accumulate"
     id="path2555-7-8-5-0-9"
     d="m 15.999999,1.4999997 c -8.000603,0 -14.5,6.4993973 -14.5,14.5000003 0,8.000603 6.499397,14.5 14.5,14.5 C 24.000603,30.5 30.500014,24.000603 30.5,16 30.5,7.999397 24.000603,1.4999997 15.999999,1.4999997 Z" />
  <path
     style="color:#000000;display:inline;overflow:visible;visibility:visible;opacity:0.5;fill:none;stroke:url(#linearGradient12398-3);stroke-width:0.99999988;stroke-linecap:round;stroke-linejoin:round;stroke-miterlimit:4;stroke-dasharray:none;stroke-dashoffset:0;stroke-opacity:1;marker:none;enable-background:accumulate"
     id="path8655-6-0-9-5-0"
     d="m 29.5,15.999517 c 0,7.456096 -6.044607,13.500489 -13.499837,13.500489 -7.455912,0 -13.5001626,-6.044464 -13.5001626,-13.500489 0,-7.4557408 6.0442506,-13.4995231 13.5001626,-13.4995231 7.45523,0 13.499837,6.0437824 13.499837,13.4995231 z" />
  <path
     style="fill:none;fill-opacity:1;stroke:#206b00;stroke-width:0.99999988;stroke-linecap:round;stroke-linejoin:round;stroke-miterlimit:4;stroke-opacity:1;stroke-dasharray:none;stroke-dashoffset:0;opacity:0.8;color:#000000;marker:none;visibility:visible;display:inline;overflow:visible;enable-background:accumulate;font-variant-east_asian:normal;vector-effect:none;clip-rule:nonzero;isolation:auto;mix-blend-mode:normal;color-interpolation:sRGB;color-interpolation-filters:linearRGB;solid-color:#000000;solid-opacity:1;fill-rule:nonzero;filter-blend-mode:normal;filter-gaussianBlur-deviation:0;color-rendering:auto;image-rendering:auto;shape-rendering:auto;text-rendering:auto"
     id="path2555-4"
     d="m 16.000001,1.5017981 c -7.9996071,0 -14.4982031,6.4985937 -14.4982031,14.4982009 0,7.999609 6.498596,14.498206 14.4982031,14.498203 7.999605,0 14.498209,-6.498594 14.498201,-14.498203 0,-7.9996072 -6.498596,-14.4982009 -14.498201,-14.4982009 z" />
  <path
     id="path29-1-4-3-6"
     style="display:inline;opacity:0.15;fill-opacity:1;stroke-width:1;stroke:#fafafa"
     d="m 13.314163,10.17258 c -0.170729,-0.0057 -0.332229,0.01073 -0.439511,0.04726 -0.524879,0.182135 -0.854227,0.57399 -1.036492,1.228113 -0.157464,0.569962 -0.153425,1.595707 0.01154,2.488352 0.02885,0.155019 0.05826,0.295661 0.06518,0.318702 0.0087,0.03232 -0.0473,0.05184 -0.295316,0.108934 -1.212987,0.280063 -2.098358,0.697865 -2.630735,1.240148 -0.238789,0.241427 -0.371452,0.452365 -0.448164,0.719175 -0.05422,0.184992 -0.05422,0.55151 0,0.733599 0.148812,0.502006 0.568137,0.972778 1.230291,1.390017 0.4597,0.286995 0.596975,0.319262 0.745788,0.168834 0.06978,-0.0703 0.08536,-0.104296 0.08536,-0.18902 0,-0.163636 -0.0496,-0.230513 -0.265901,-0.35556 -1.356608,-0.772235 -1.595398,-1.546721 -0.689262,-2.235406 0.4597,-0.348626 1.10282,-0.624664 1.968003,-0.838459 0.378951,-0.09338 0.464316,-0.105473 0.464316,-0.05536 0,0.06801 0.279167,0.971044 0.423363,1.360604 l 0.148813,0.40745 -0.196108,0.383802 c -0.783858,1.531172 -1.286816,3.091708 -1.34738,4.233319 -0.04959,0.879954 0.107861,1.509254 0.491424,1.898814 0.418747,0.424124 1.009382,0.515216 1.768435,0.269105 0.286086,-0.09333 0.854224,-0.385532 1.185302,-0.613144 0.238791,-0.161341 0.291855,-0.209202 0.323579,-0.293879 0.03173,-0.08473 0.03173,-0.111842 0,-0.200588 -0.0473,-0.132538 -0.146506,-0.206864 -0.281474,-0.206864 -0.08767,0 -0.148236,0.02811 -0.37376,0.183261 -0.511612,0.350969 -0.9915,0.569916 -1.390061,0.637919 -0.551987,0.09568 -0.90556,-0.150383 -1.068215,-0.733599 -0.06979,-0.252948 -0.06576,-1.063775 0.01154,-1.48331 0.117087,-0.667328 0.321849,-1.359995 0.614859,-2.088957 0.173612,-0.432786 0.50469,-1.15833 0.549677,-1.205632 0.02251,-0.02529 0.05191,0.01546 0.126318,0.189065 0.378951,0.860941 0.957471,1.91207 1.5233,2.76205 1.350265,2.026763 2.827999,3.345309 3.966581,3.534376 h -0.01211 c 0.500076,0.08182 0.922863,-0.04308 1.249325,-0.373496 0.265899,-0.27374 0.441245,-0.658664 0.541028,-1.194064 0.06057,-0.334812 0.06057,-1.272981 0,-1.72881 -0.184574,-1.365146 -0.677152,-2.928585 -1.413712,-4.487483 -0.114785,-0.24377 -0.178805,-0.303668 -0.327615,-0.303668 -0.166693,0 -0.301661,0.127338 -0.301661,0.291584 0,0.05703 0.05652,0.210939 0.151118,0.414336 0.907866,1.957075 1.395829,3.850691 1.346226,5.221083 -0.03057,0.815979 -0.231868,1.308151 -0.613126,1.49717 -0.200146,0.09967 -0.453935,0.09624 -0.787318,-0.01312 -1.530799,-0.523832 -3.603779,-3.144162 -4.939623,-6.243364 l -0.132662,-0.309474 0.193802,-0.334251 c 0.218603,-0.380335 0.77059,-1.230361 1.024954,-1.57899 l 0.171307,-0.231683 h 0.451624 c 2.738597,0 5.448928,0.626397 6.886288,1.58592 0.293009,0.19595 0.64658,0.553803 0.752711,0.763008 0.07671,0.145794 0.08363,0.184385 0.08363,0.378041 0,0.189582 -0.0069,0.235149 -0.06978,0.350969 -0.175921,0.341744 -0.63966,0.696741 -1.237213,0.94969 -0.27686,0.118159 -0.351265,0.196511 -0.351265,0.3579 0,0.136566 0.08825,0.250652 0.22091,0.291585 0.08594,0.02529 0.114785,0.02061 0.268207,-0.04027 0.964392,-0.385533 1.627122,-0.984298 1.76209,-1.590511 0.03807,-0.16373 0.03576,-0.472034 -0.0023,-0.631643 -0.07209,-0.312941 -0.32992,-0.71346 -0.625236,-0.982564 -1.316234,-1.194066 -4.107894,-1.963959 -7.420394,-2.044093 l -0.236484,-0.007 0.27686,-0.314065 c 0.148832,-0.175742 0.41358,-0.467326 0.595844,-0.654051 0.941896,-0.968142 1.816886,-1.602032 2.581132,-1.865985 0.243405,-0.0865 0.292432,-0.09685 0.545066,-0.09685 0.234751,0 0.291855,0.007 0.39337,0.05994 0.137854,0.06571 0.292431,0.227656 0.372029,0.380379 0.155157,0.312333 0.207644,0.859815 0.13266,1.442985 -0.02481,0.200541 -0.04499,0.432226 -0.04499,0.512311 0,0.134833 0.0045,0.15558 0.08132,0.22185 0.06288,0.05939 0.105554,0.07437 0.186879,0.07437 0.130932,0 0.252057,-0.06974 0.288395,-0.165416 0.107862,-0.282358 0.164384,-1.283378 0.09459,-1.705206 -0.108415,-0.647704 -0.382967,-1.085174 -0.820172,-1.296673 -0.7729,-0.378039 -1.895331,-0.008 -3.205219,1.053516 -0.684649,0.556101 -1.587323,1.499466 -2.209102,2.305095 l -0.06057,0.07203 -0.367415,0.02154 c -0.308582,0.0178 -0.810965,0.06801 -1.394677,0.138297 l -0.12633,0.01546 -0.05537,-0.311771 c -0.105554,-0.621806 -0.113631,-0.715146 -0.113631,-1.309885 0,-0.5221 0.0069,-0.622369 0.05651,-0.831527 0.121705,-0.528468 0.362803,-0.857004 0.680612,-0.925005 0.437207,-0.09333 0.979967,0.127387 1.741905,0.69908 0.243405,0.184992 0.539874,0.02716 0.503537,-0.264514 -0.01558,-0.127382 -0.131507,-0.236877 -0.51911,-0.498489 -0.324732,-0.221334 -0.689262,-0.403423 -0.986886,-0.492172 -0.146505,-0.04449 -0.327039,-0.06913 -0.497769,-0.07433 z m 0.582559,4.485237 c 0,0.01171 -0.103246,0.173471 -0.231869,0.364785 -0.128625,0.189021 -0.310891,0.467352 -0.405485,0.624665 -0.09228,0.152724 -0.18284,0.291632 -0.200722,0.31177 -0.0248,0.02716 -0.06114,-0.04541 -0.171305,-0.40052 -0.157464,-0.489829 -0.224949,-0.753736 -0.204761,-0.776778 0.03345,-0.03466 1.214142,-0.158485 1.214142,-0.123922 z m 2.391368,1.85273 a 0.86518388,0.86442008 0 0 0 -0.865185,0.864452 0.86518388,0.86442008 0 0 0 0.865185,0.864405 0.86518388,0.86442008 0 0 0 0.865183,-0.864405 0.86518388,0.86442008 0 0 0 -0.865183,-0.864452 z"
     inkscape:connector-curvature="0" />
  <path
     id="path29-1-4"
     style="display:inline;opacity:1;fill:#206b00;fill-opacity:1;stroke-width:0.72772986"
     d="m 13.314163,9.1725792 c -0.170729,-0.0057 -0.332229,0.01073 -0.439511,0.04726 -0.524879,0.182135 -0.854227,0.5739901 -1.036492,1.2281138 -0.157464,0.569962 -0.153425,1.595707 0.01154,2.488352 0.02885,0.155019 0.05826,0.295661 0.06518,0.318702 0.0087,0.03232 -0.0473,0.05184 -0.295316,0.108934 -1.212987,0.280063 -2.098358,0.697865 -2.630735,1.240148 -0.238789,0.241427 -0.371452,0.452365 -0.448164,0.719175 -0.05422,0.184992 -0.05422,0.55151 0,0.733599 0.148812,0.502006 0.568137,0.972778 1.230291,1.390017 0.4597,0.286995 0.596975,0.319262 0.745788,0.168834 0.06978,-0.0703 0.08536,-0.104296 0.08536,-0.18902 0,-0.163636 -0.0496,-0.230513 -0.265901,-0.35556 -1.356608,-0.772235 -1.595398,-1.546721 -0.689262,-2.235406 0.4597,-0.348626 1.10282,-0.624664 1.968003,-0.838459 0.378951,-0.09338 0.464316,-0.105473 0.464316,-0.05536 0,0.06801 0.279167,0.971044 0.423363,1.360604 l 0.148813,0.40745 -0.196108,0.383802 c -0.783858,1.531172 -1.286816,3.091709 -1.34738,4.23332 -0.04959,0.879954 0.107861,1.509254 0.491424,1.898814 0.418747,0.424124 1.009382,0.515216 1.768435,0.269105 0.286086,-0.09333 0.854224,-0.385532 1.185302,-0.613144 0.238791,-0.161341 0.291855,-0.209202 0.323579,-0.293879 0.03173,-0.08473 0.03173,-0.111842 0,-0.200588 -0.0473,-0.132538 -0.146506,-0.206864 -0.281474,-0.206864 -0.08767,0 -0.148236,0.02811 -0.37376,0.183261 -0.511612,0.350969 -0.9915,0.569916 -1.390061,0.637919 -0.551987,0.09568 -0.90556,-0.150383 -1.068215,-0.733599 -0.06979,-0.252948 -0.06576,-1.063775 0.01154,-1.48331 0.117087,-0.667329 0.321849,-1.359996 0.614859,-2.088958 0.173612,-0.432786 0.50469,-1.15833 0.549677,-1.205632 0.02251,-0.02529 0.05191,0.01546 0.126318,0.189065 0.378951,0.860941 0.957471,1.91207 1.5233,2.762051 1.350265,2.026763 2.827999,3.345309 3.966581,3.534376 h -0.01211 c 0.500076,0.08182 0.922863,-0.04308 1.249325,-0.373496 0.265899,-0.27374 0.441245,-0.658664 0.541028,-1.194064 0.06057,-0.334812 0.06057,-1.272981 0,-1.72881 -0.184574,-1.365147 -0.677152,-2.928586 -1.413712,-4.487484 -0.114785,-0.24377 -0.178805,-0.303668 -0.327615,-0.303668 -0.166693,0 -0.301661,0.127338 -0.301661,0.291584 0,0.05703 0.05652,0.210939 0.151118,0.414336 0.907866,1.957075 1.395829,3.850692 1.346226,5.221084 -0.03057,0.815979 -0.231868,1.308151 -0.613126,1.49717 -0.200146,0.09967 -0.453935,0.09624 -0.787318,-0.01312 -1.530799,-0.523832 -3.603779,-3.144163 -4.939623,-6.243365 l -0.132662,-0.309474 0.193802,-0.334251 c 0.218603,-0.380335 0.77059,-1.230361 1.024954,-1.57899 l 0.171307,-0.231683 h 0.451624 c 2.738597,0 5.448928,0.626397 6.886288,1.58592 0.293009,0.19595 0.64658,0.553803 0.752711,0.763008 0.07671,0.145794 0.08363,0.184385 0.08363,0.378041 0,0.189582 -0.0069,0.235149 -0.06978,0.350969 -0.175921,0.341744 -0.63966,0.696741 -1.237213,0.94969 -0.27686,0.118159 -0.351265,0.196511 -0.351265,0.3579 0,0.136566 0.08825,0.250652 0.22091,0.291585 0.08594,0.02529 0.114785,0.02061 0.268207,-0.04027 0.964392,-0.385533 1.627122,-0.984298 1.76209,-1.590511 0.03807,-0.16373 0.03576,-0.472034 -0.0023,-0.631643 -0.07209,-0.312941 -0.32992,-0.71346 -0.625236,-0.982564 -1.316234,-1.194066 -4.107894,-1.963959 -7.420394,-2.044093 l -0.236484,-0.007 0.27686,-0.314065 c 0.148832,-0.175742 0.41358,-0.467326 0.595844,-0.654051 0.941896,-0.968142 1.816886,-1.602032 2.581132,-1.865985 0.243405,-0.0865 0.292432,-0.09685 0.545066,-0.09685 0.234751,0 0.291855,0.007 0.39337,0.05994 0.137854,0.06571 0.292431,0.227656 0.372029,0.380379 0.155157,0.312333 0.207644,0.859815 0.13266,1.442985 -0.02481,0.200541 -0.04499,0.432226 -0.04499,0.512311 0,0.134833 0.0045,0.15558 0.08132,0.22185 0.06288,0.05939 0.105554,0.07437 0.186879,0.07437 0.130932,0 0.252057,-0.06974 0.288395,-0.165416 0.107862,-0.282358 0.164384,-1.283378 0.09459,-1.705206 -0.108415,-0.647704 -0.382967,-1.0851747 -0.820172,-1.2966737 -0.7729,-0.3780391 -1.895331,-0.008 -3.205219,1.0535167 -0.684649,0.556101 -1.587323,1.499466 -2.209102,2.305095 l -0.06057,0.07203 -0.367415,0.02154 c -0.308582,0.0178 -0.810965,0.06801 -1.394677,0.138297 l -0.12633,0.01546 -0.05537,-0.311771 c -0.105554,-0.621806 -0.113631,-0.715146 -0.113631,-1.309885 0,-0.5221 0.0069,-0.622369 0.05651,-0.831527 0.121705,-0.528468 0.362803,-0.8570047 0.680612,-0.9250057 0.437207,-0.09333 0.979967,0.127387 1.741905,0.6990807 0.243405,0.184992 0.539874,0.02716 0.503537,-0.264514 -0.01558,-0.127382 -0.131507,-0.236877 -0.51911,-0.4984897 -0.324732,-0.221334 -0.689262,-0.4034231 -0.986886,-0.4921721 -0.146505,-0.04449 -0.327039,-0.06913 -0.497769,-0.07433 z m 0.582559,4.4852378 c 0,0.01171 -0.103246,0.173471 -0.231869,0.364785 -0.128625,0.189021 -0.310891,0.467352 -0.405485,0.624665 -0.09228,0.152724 -0.18284,0.291632 -0.200722,0.31177 -0.0248,0.02716 -0.06114,-0.04541 -0.171305,-0.40052 -0.157464,-0.489829 -0.224949,-0.753736 -0.204761,-0.776778 0.03345,-0.03466 1.214142,-0.158485 1.214142,-0.123922 z m 2.391368,1.85273 a 0.86518388,0.86442008 0 0 0 -0.865185,0.864452 0.86518388,0.86442008 0 0 0 0.865185,0.864405 0.86518388,0.86442008 0 0 0 0.865183,-0.864405 0.86518388,0.86442008 0 0 0 -0.865183,-0.864452 z"
     inkscape:connector-curvature="0" />
</svg>
