<?xml version="1.0" encoding="UTF-8" standalone="no"?>
<svg
   version="1.1"
   width="32"
   height="32"
   id="svg3182"
   sodipodi:docname="libreoffice-writer.svg"
   inkscape:version="1.1 (c4e8f9ed74, 2021-05-24)"
   xmlns:inkscape="http://www.inkscape.org/namespaces/inkscape"
   xmlns:sodipodi="http://sodipodi.sourceforge.net/DTD/sodipodi-0.dtd"
   xmlns:xlink="http://www.w3.org/1999/xlink"
   xmlns="http://www.w3.org/2000/svg"
   xmlns:svg="http://www.w3.org/2000/svg"
   xmlns:rdf="http://www.w3.org/1999/02/22-rdf-syntax-ns#"
   xmlns:cc="http://creativecommons.org/ns#"
   xmlns:dc="http://purl.org/dc/elements/1.1/">
  <sodipodi:namedview
     pagecolor="#ffffff"
     bordercolor="#666666"
     borderopacity="1"
     objecttolerance="10"
     gridtolerance="10"
     guidetolerance="10"
     inkscape:pageopacity="0"
     inkscape:pageshadow="2"
     inkscape:window-width="1366"
     inkscape:window-height="717"
     id="namedview39"
     showgrid="true"
     inkscape:zoom="13.236155"
     inkscape:cx="4.6463644"
     inkscape:cy="13.750217"
     inkscape:window-x="0"
     inkscape:window-y="25"
     inkscape:window-maximized="1"
     inkscape:current-layer="svg3182"
     inkscape:pagecheckerboard="0">
    <inkscape:grid
       type="xygrid"
       id="grid904" />
  </sodipodi:namedview>
  <defs
     id="defs3184">
    <linearGradient
       id="linearGradient3977">
      <stop
         id="stop3979"
         style="stop-color:#ffffff;stop-opacity:1"
         offset="0" />
      <stop
         id="stop3981"
         style="stop-color:#ffffff;stop-opacity:0.23529412"
         offset="0" />
      <stop
         id="stop3983"
         style="stop-color:#ffffff;stop-opacity:0.15686275"
         offset="0.99999994" />
      <stop
         id="stop3985"
         style="stop-color:#ffffff;stop-opacity:0.39215687"
         offset="1" />
    </linearGradient>
    <linearGradient
       id="linearGradient3600-4">
      <stop
         id="stop3602-7"
         style="stop-color:#f4f4f4;stop-opacity:1"
         offset="0" />
      <stop
         id="stop3604-6"
         style="stop-color:#dbdbdb;stop-opacity:1"
         offset="1" />
    </linearGradient>
    <linearGradient
       id="linearGradient5060">
      <stop
         id="stop5062"
         style="stop-color:#000000;stop-opacity:1"
         offset="0" />
      <stop
         id="stop5064"
         style="stop-color:#000000;stop-opacity:0"
         offset="1" />
    </linearGradient>
    <linearGradient
       id="linearGradient5048">
      <stop
         id="stop5050"
         style="stop-color:#000000;stop-opacity:0"
         offset="0" />
      <stop
         id="stop5056"
         style="stop-color:#000000;stop-opacity:1"
         offset="0.5" />
      <stop
         id="stop5052"
         style="stop-color:#000000;stop-opacity:0"
         offset="1" />
    </linearGradient>
    <linearGradient
       x1="23.99999"
       y1="6.1851754"
       x2="23.99999"
       y2="41.814808"
       id="linearGradient3013"
       xlink:href="#linearGradient3977"
       gradientUnits="userSpaceOnUse"
       gradientTransform="matrix(0.56756757,0,0,0.72972971,2.378382,-2.5135063)" />
    <linearGradient
       x1="25.132275"
       y1="0.98520643"
       x2="25.132275"
       y2="47.013336"
       id="linearGradient3016"
       xlink:href="#linearGradient3600-4"
       gradientUnits="userSpaceOnUse"
       gradientTransform="matrix(0.62856997,0,0,0.60839392,0.91431981,-0.5347905)" />
    <radialGradient
       cx="605.71429"
       cy="486.64789"
       r="117.14286"
       fx="605.71429"
       fy="486.64789"
       id="radialGradient3021"
       xlink:href="#linearGradient5060"
       gradientUnits="userSpaceOnUse"
       gradientTransform="matrix(0.01566318,0,0,0.00823529,17.610433,25.980565)" />
    <radialGradient
       cx="605.71429"
       cy="486.64789"
       r="117.14286"
       fx="605.71429"
       fy="486.64789"
       id="radialGradient3024"
       xlink:href="#linearGradient5060"
       gradientUnits="userSpaceOnUse"
       gradientTransform="matrix(-0.01566318,0,0,0.00823529,14.389566,25.980565)" />
    <linearGradient
       x1="302.85715"
       y1="366.64789"
       x2="302.85715"
       y2="609.50507"
       id="linearGradient3027"
       xlink:href="#linearGradient5048"
       gradientUnits="userSpaceOnUse"
       gradientTransform="matrix(0.04576928,0,0,0.00823529,-0.5423243,25.980548)" />
    <linearGradient
       id="linearGradient3104-6">
      <stop
         offset="0"
         style="stop-color:#000000;stop-opacity:0.31782946"
         id="stop3106-3" />
      <stop
         offset="1"
         style="stop-color:#000000;stop-opacity:0.24031007"
         id="stop3108-9" />
    </linearGradient>
    <linearGradient
       xlink:href="#linearGradient3104-6"
       id="linearGradient3148"
       gradientUnits="userSpaceOnUse"
       gradientTransform="matrix(0.53064141,0,0,0.58970049,39.269607,-1.791918)"
       x1="-51.786404"
       y1="50.786446"
       x2="-51.786404"
       y2="2.9062471" />
    <linearGradient
       inkscape:collect="always"
       xlink:href="#SVGID_1_-5"
       id="linearGradient967"
       gradientUnits="userSpaceOnUse"
       x1="80"
       y1="25"
       x2="135"
       y2="100"
       gradientTransform="matrix(0.24615384,0,0,0.24615384,-18.461538,-0.38461463)" />
    <linearGradient
       id="SVGID_1_-5"
       gradientUnits="userSpaceOnUse"
       x1="167.2057"
       y1="1420.9117"
       x2="795.29431"
       y2="333.08829"
       gradientTransform="matrix(0.0831168,0,0,-0.0831168,153.33453,112.8934)">
      <stop
         offset="0"
         style="stop-color:#2368C4"
         id="stop20-3" />
      <stop
         offset="0.5"
         style="stop-color:#1A5DBE"
         id="stop22-5" />
      <stop
         offset="1"
         style="stop-color:#1146AC"
         id="stop24" />
    </linearGradient>
  </defs>
  <metadata
     id="metadata3187">
    <rdf:RDF>
      <cc:Work
         rdf:about="">
        <dc:format>image/svg+xml</dc:format>
        <dc:type
           rdf:resource="http://purl.org/dc/dcmitype/StillImage" />
        <dc:title />
      </cc:Work>
    </rdf:RDF>
  </metadata>
  <path
     id="rect875-36-7"
     style="fill:#103f91;stroke-width:0.509617"
     d="M 28,23 H 4 v 5.525391 C 4,29.341812 4.697323,30 5.564453,30 H 26.433594 C 27.300724,30 28,29.341812 28,28.525391 Z" />
  <path
     id="path1650"
     style="fill:#185abd;stroke-width:0.509617"
     d="M 28,16 H 4 v 7 h 24 z" />
  <path
     id="path1648"
     style="fill:#2b7cd3;stroke-width:0.509617"
     d="m 4,9 v 7 H 28 V 9 Z" />
  <path
     id="path1672"
     style="fill:#41a5ee;stroke-width:0.509617"
     d="M 4,9 H 28 V 3.4746094 C 28,2.6581883 27.300724,2 26.433594,2 H 5.564453 C 4.697323,2 4,2.6581883 4,3.4746094 Z" />
  <rect
     width="22.100021"
     height="2"
     x="4.9499893"
     y="29"
     id="rect2879"
     style="opacity:0.15;fill:url(#linearGradient3027);fill-opacity:1;fill-rule:nonzero;stroke:none;stroke-width:1;marker:none;visibility:visible;display:inline;overflow:visible" />
  <path
     d="m 4.9499887,29.000086 c 0,0 0,1.99989 0,1.99989 -0.806615,0.0038 -1.950002,-0.448074 -1.950002,-1.000074 0,-0.552 0.900121,-0.999816 1.950002,-0.999816 z"
     id="path2881"
     style="opacity:0.15;fill:url(#radialGradient3024);fill-opacity:1;fill-rule:nonzero;stroke:none;stroke-width:1;marker:none;visibility:visible;display:inline;overflow:visible" />
  <path
     d="m 27.050011,29.000086 c 0,0 0,1.99989 0,1.99989 0.806614,0.0038 1.950002,-0.448074 1.950002,-1.000074 0,-0.552 -0.900122,-0.999816 -1.950002,-0.999816 z"
     id="path2883"
     style="opacity:0.15;fill:url(#radialGradient3021);fill-opacity:1;fill-rule:nonzero;stroke:none;stroke-width:1;marker:none;visibility:visible;display:inline;overflow:visible" />
  <path
     id="rect956"
     style="fill:url(#linearGradient967);fill-opacity:1;stroke-width:0.492308"
     d="M 1.4769229,7 H 14.523076 C 15.341292,7 16,7.658708 16,8.4769229 V 21.523078 c 0,0.818215 -0.658708,1.476923 -1.476924,1.476923 H 1.4769229 C 0.65870706,23.000001 0,22.341293 0,21.523078 V 8.4769229 C 0,7.658708 0.65870706,7 1.4769229,7 Z" />
  <g
     aria-label="W"
     id="text931"
     style="font-weight:bold;font-size:53.3333px;line-height:1.25;font-family:Carlito;-inkscape-font-specification:'Carlito Bold'"
     transform="matrix(0.23132544,0,0,0.23132544,-14.950501,-3.957859)">
    <path
       d="m 75.234375,60.416687 h 5.729163 q 0.911458,0 1.484374,0.416667 0.598958,0.416666 0.807291,1.093749 l 5.104164,19.973946 q 0.442708,1.5625 0.833333,3.61979 0.208333,-1.015624 0.416666,-1.927082 0.208334,-0.9375 0.494792,-1.718749 l 6.041663,-19.947905 q 0.208333,-0.598958 0.807291,-1.041666 0.598958,-0.46875 1.432291,-0.46875 h 2.005207 q 0.91146,0 1.45833,0.416667 0.57292,0.390624 0.80729,1.093749 l 6.04167,19.973946 q 0.26041,0.755208 0.46875,1.666666 0.23437,0.885416 0.4427,1.874999 0.1823,-0.989583 0.36459,-1.874999 0.20833,-0.885416 0.41666,-1.640624 l 5.10417,-19.999988 q 0.18229,-0.598958 0.78125,-1.041666 0.625,-0.46875 1.45833,-0.46875 h 5.36458 L 112.83852,95 h -6.19791 L 99.791652,72.005222 q -0.15625,-0.442708 -0.3125,-0.989583 -0.130208,-0.546874 -0.260416,-1.145832 -0.130209,0.598958 -0.286459,1.145832 -0.15625,0.546875 -0.286458,0.989583 L 91.666657,95 h -6.171872 z"
       style="fill:#fafafa"
       id="path933" />
  </g>
</svg>
