<?xml version="1.0" encoding="UTF-8" standalone="no"?>
<!-- Generator: Adobe Illustrator 19.0.0, SVG Export Plug-In . SVG Version: 6.00 Build 0)  -->

<svg
   xmlns:dc="http://purl.org/dc/elements/1.1/"
   xmlns:cc="http://creativecommons.org/ns#"
   xmlns:rdf="http://www.w3.org/1999/02/22-rdf-syntax-ns#"
   xmlns:svg="http://www.w3.org/2000/svg"
   xmlns="http://www.w3.org/2000/svg"
   xmlns:xlink="http://www.w3.org/1999/xlink"
   xmlns:sodipodi="http://sodipodi.sourceforge.net/DTD/sodipodi-0.dtd"
   xmlns:inkscape="http://www.inkscape.org/namespaces/inkscape"
   version="1.1"
   id="Capa_1"
   x="0px"
   y="0px"
   viewBox="0 0 32 32"
   xml:space="preserve"
   sodipodi:docname="m64py.svg"
   width="32"
   height="32"
   inkscape:version="0.92.4 5da689c313, 2019-01-14"><metadata
   id="metadata81"><rdf:RDF><cc:Work
       rdf:about=""><dc:format>image/svg+xml</dc:format><dc:type
         rdf:resource="http://purl.org/dc/dcmitype/StillImage" /><dc:title></dc:title></cc:Work></rdf:RDF></metadata><defs
   id="defs79"><linearGradient
   inkscape:collect="always"
   id="linearGradient870"><stop
     style="stop-color:#ed5353;stop-opacity:1;"
     offset="0"
     id="stop866" /><stop
     style="stop-color:#ed5353;stop-opacity:0;"
     offset="1"
     id="stop868" /></linearGradient><linearGradient
   inkscape:collect="always"
   xlink:href="#SVGID_1_"
   id="linearGradient960"
   gradientUnits="userSpaceOnUse"
   gradientTransform="matrix(21.3333,0,0,-21.3333,996.3334,13791.667)"
   x1="-38.169998"
   y1="631.93408"
   x2="-29.916"
   y2="623.68018" /><linearGradient
   inkscape:collect="always"
   xlink:href="#SVGID_2_"
   id="linearGradient962"
   gradientUnits="userSpaceOnUse"
   gradientTransform="matrix(21.3333,0,0,-21.3333,996.33338,13791.668)"
   x1="-45.6828"
   y1="639.33148"
   x2="-24.058901"
   y2="629.24847" /><linearGradient
   inkscape:collect="always"
   xlink:href="#linearGradient870"
   id="linearGradient872"
   x1="28.61829"
   y1="206.72382"
   x2="484.64752"
   y2="206.72382"
   gradientUnits="userSpaceOnUse" />
	
	
</defs><sodipodi:namedview
   pagecolor="#ffffff"
   bordercolor="#666666"
   borderopacity="1"
   objecttolerance="10"
   gridtolerance="10"
   guidetolerance="10"
   inkscape:pageopacity="0"
   inkscape:pageshadow="2"
   inkscape:window-width="1366"
   inkscape:window-height="743"
   id="namedview77"
   showgrid="true"
   inkscape:zoom="10.705399"
   inkscape:cx="8.9931699"
   inkscape:cy="15.761035"
   inkscape:window-x="0"
   inkscape:window-y="-1"
   inkscape:window-maximized="1"
   inkscape:current-layer="g944"><inkscape:grid
     type="xygrid"
     id="grid862" /></sodipodi:namedview>







<linearGradient
   id="SVGID_1_"
   gradientUnits="userSpaceOnUse"
   x1="-38.169998"
   y1="631.93408"
   x2="-29.916"
   y2="623.68018"
   gradientTransform="matrix(21.3333,0,0,-21.3333,996.3334,13791.667)">
	<stop
   offset="0"
   style="stop-color:#000000;stop-opacity:0.1"
   id="stop20" />
	<stop
   offset="1"
   style="stop-color:#000000;stop-opacity:0"
   id="stop22" />
</linearGradient>


<linearGradient
   id="SVGID_2_"
   gradientUnits="userSpaceOnUse"
   x1="-45.6828"
   y1="639.33148"
   x2="-24.058901"
   y2="629.24847"
   gradientTransform="matrix(21.3333,0,0,-21.3333,996.33342,13791.668)">
	<stop
   offset="0"
   style="stop-color:#FFFFFF;stop-opacity:0.2"
   id="stop33" />
	<stop
   offset="1"
   style="stop-color:#FFFFFF;stop-opacity:0"
   id="stop35" />
</linearGradient>


















<g
   id="g922"
   transform="matrix(0.125,0,0,0.125,0,-32)"><g
     id="g958"
     transform="matrix(0.96875,0,0,0.96875,8,8)"><g
       id="g907"
       transform="matrix(1.0847458,0,0,1.0847458,-21.694915,-21.694931)"><path
         id="path2-3-3-3"
         d="m 243.00111,377.80646 c 0,-59.99547 -48.80742,-108.80757 -108.80757,-108.80757 -60.000154,0 -108.807585,48.8121 -108.807585,108.80757 0,29.63606 12.882226,51.63345 38.100084,65.5587 5.009398,35.12573 20.292617,43.24889 70.707501,43.24889 49.00675,0 64.84505,-7.60037 70.29353,-40.28772 25.48986,-13.18186 38.51404,-36.16237 38.51404,-68.51987 z"
         style="fill:#1a1a1a;fill-opacity:1;stroke:none;stroke-width:3.68254089;stroke-miterlimit:4;stroke-dasharray:none;stroke-opacity:1"
         inkscape:connector-curvature="0" /><path
         id="path2-3"
         d="m 244.58077,377.80639 c 0,-60.86645 -49.51597,-110.38715 -110.38716,-110.38715 -60.871184,0 -110.387159,49.5207 -110.387159,110.38715 0,30.06629 13.069238,52.38303 38.653187,66.51042 5.082114,35.63566 20.587212,43.87674 71.733972,43.87674 49.7182,0 65.78643,-7.7107 71.31398,-40.87256 25.85992,-13.37324 39.07318,-36.68734 39.07318,-69.5146 z"
         style="fill:none;stroke:#000000;stroke-width:7.61290312;stroke-miterlimit:4;stroke-dasharray:none;stroke-opacity:0.5"
         inkscape:connector-curvature="0" /><g
         id="g944"
         transform="matrix(0.46366804,0,0,0.46382996,15.494524,259.02799)"><path
           inkscape:connector-curvature="0"
           id="SVGCleanerId_0"
           style="fill:#f2f2f2"
           d="M 488.715,285.333 C 463.018,261.271 448,227.522 448,192 c 0,-18.168 3.918,-36.04 11.402,-52.533 19.776,34.38 31.264,74.103 31.264,116.533 10e-4,10.32 -0.771,19.995 -1.951,29.333 z" /><circle
           id="circle5"
           r="106.667"
           cy="149.33299"
           cx="256"
           style="fill:#fafafa" /><path
           id="path7"
           d="M 52.598,139.467 C 60.082,155.96 64,173.832 64,192 64,227.251 49.156,260.836 23.742,284.868 22.314,275.621 21.333,266.104 21.333,256 c 0,-42.43 11.489,-82.152 31.265,-116.533 z"
           style="fill:#fafafa"
           inkscape:connector-curvature="0" /><path
           inkscape:connector-curvature="0"
           style="fill:#fee4d0"
           d="m 256,490.667 c -124.896,0 -140.979,-20.281 -147.854,-106.24 30.708,-33.25 86.833,-53.76 147.854,-53.76 61.021,0 117.146,20.51 147.854,53.76 -6.875,85.958 -22.958,106.24 -147.854,106.24 z"
           id="path11" /><path
           inkscape:connector-curvature="0"
           id="SVGCleanerId_1"
           style="fill:#d32f2f"
           d="m 424.6,390.984 c 0.292,-3.152 0.632,-6.142 0.879,-9.453 0.208,-2.802 -0.708,-5.573 -2.521,-7.719 C 389.02,334.041 325.041,309.333 256,309.333 c -69.041,0 -133.021,24.708 -166.958,64.479 -1.813,2.146 -2.729,4.917 -2.521,7.719 0.057,0.76 0.143,1.418 0.202,2.169 C 58.082,364.572 38.994,339.233 29.198,308.186 64.376,279.922 85.333,237.188 85.333,192 85.333,166.392 78.39,141.44 65.803,119.089 106.053,63.334 170.054,26.041 242.925,21.997 178.461,28.566 128,83.163 128,149.333 c 0,70.583 57.417,128 128,128 70.583,0 128,-57.417 128,-128 0,-66.171 -50.461,-120.767 -114.926,-127.337 72.871,4.044 136.872,41.337 177.122,97.092 -12.587,22.352 -19.53,47.303 -19.53,72.911 0,45.802 21.447,88.967 57.414,117.219 -9.359,35.352 -29.006,62.456 -59.48,81.766 z" /><g
           style="fill:#fafafa"
           id="g15">
	<path
   inkscape:connector-curvature="0"
   id="SVGCleanerId_0_1_"
   style="fill:#fafafa"
   d="M 488.715,285.333 C 463.018,261.271 448,227.522 448,192 c 0,-18.168 3.918,-36.04 11.402,-52.533 19.776,34.38 31.264,74.103 31.264,116.533 10e-4,10.32 -0.771,19.995 -1.951,29.333 z" />
</g><g
           style="fill:#ed5353"
           id="g18">
	<path
   inkscape:connector-curvature="0"
   id="SVGCleanerId_1_1_"
   style="fill:#ed5353;fill-opacity:1;stroke:#000000;stroke-opacity:0.2"
   d="m 424.6,390.984 c 0.292,-3.152 0.632,-6.142 0.879,-9.453 0.208,-2.802 -0.708,-5.573 -2.521,-7.719 C 389.02,334.041 325.041,309.333 256,309.333 c -69.041,0 -133.021,24.708 -166.958,64.479 -1.813,2.146 -2.729,4.917 -2.521,7.719 0.057,0.76 0.143,1.418 0.202,2.169 C 58.082,364.572 38.994,339.233 29.198,308.186 64.376,279.922 85.333,237.188 85.333,192 85.333,166.392 78.39,141.44 65.803,119.089 106.053,63.334 170.054,26.041 242.925,21.997 178.461,28.566 128,83.163 128,149.333 c 0,70.583 57.417,128 128,128 70.583,0 128,-57.417 128,-128 0,-66.171 -50.461,-120.767 -114.926,-127.337 72.871,4.044 136.872,41.337 177.122,97.092 -12.587,22.352 -19.53,47.303 -19.53,72.911 0,45.802 21.447,88.967 57.414,117.219 -9.359,35.352 -29.006,62.456 -59.48,81.766 z" />
</g><path
           inkscape:connector-curvature="0"
           style="fill:url(#linearGradient960)"
           d="m 256,490.667 c 124.896,0 140.979,-20.281 147.854,-106.24 -30.708,-33.25 -86.833,-53.76 -147.854,-53.76 -61.021,0 -117.146,20.51 -147.854,53.76 l 105.138,105.138 c 12.616,0.758 26.752,1.102 42.716,1.102 z"
           id="path25" /><g
           id="g31"
           transform="matrix(0.98952539,0,0,0.98952539,2.6815027,9.7311477)">
	<path
   inkscape:connector-curvature="0"
   style="fill:#303c42"
   d="m 197.333,362.667 c -8.313,0 -16,5.167 -16,42.667 0,37.5 7.688,42.667 16,42.667 8.312,0 16,-5.167 16,-42.667 0,-37.5 -7.687,-42.667 -16,-42.667 z"
   id="path27" />
	<path
   inkscape:connector-curvature="0"
   style="fill:#303c42"
   d="m 314.667,448 c 8.313,0 16,-5.167 16,-42.667 0,-37.5 -7.688,-42.667 -16,-42.667 -8.312,0 -16,5.167 -16,42.667 0,37.5 7.687,42.667 16,42.667 z"
   id="path29" />
</g><path
           inkscape:connector-curvature="0"
           style="opacity:0.1;enable-background:new"
           d="m 23.742,284.868 c 3.85,-3.642 7.37,-7.566 10.72,-11.618 -4.297,-1.536 -8.4,-3.263 -12.57,-4.923 0.422,5.63 1.018,11.156 1.85,16.541 z"
           id="path40" /><path
           inkscape:connector-curvature="0"
           style="opacity:0.1;enable-background:new"
           d="m 449.07,207.586 c 3.703,29.678 17.746,57.241 39.645,77.747 1.18,-9.339 1.952,-19.013 1.952,-29.333 0,-28.292 -5.501,-55.197 -14.768,-80.301 -7.464,11.19 -16.491,21.837 -26.829,31.887 z"
           id="path42" /><g
           id="g46">
</g><g
           id="g48">
</g><g
           id="g50">
</g><g
           id="g52">
</g><g
           id="g54">
</g><g
           id="g56">
</g><g
           id="g58">
</g><g
           id="g60">
</g><g
           id="g62">
</g><g
           id="g64">
</g><g
           id="g66">
</g><g
           id="g68">
</g><g
           id="g70">
</g><g
           id="g72">
</g><g
           id="g74">
</g><path
           inkscape:connector-curvature="0"
           style="opacity:0.1;fill:#7a0000;enable-background:new"
           d="m 55.904,280.103 c -7.65,10.348 -16.496,19.88 -26.706,28.083 9.796,31.047 28.884,56.387 57.525,75.514 -0.059,-0.751 -0.145,-1.409 -0.202,-2.169 -0.208,-2.802 0.708,-5.573 2.521,-7.719 33.938,-39.771 97.917,-64.479 166.958,-64.479 69.041,0 133.021,24.708 166.958,64.479 1.813,2.146 2.729,4.917 2.521,7.719 -0.247,3.311 -0.587,6.301 -0.879,9.453 30.474,-19.31 50.121,-46.414 59.48,-81.766 -27.411,-21.531 -46.306,-51.745 -53.784,-85.165 -57.753,45.495 -145.493,74.613 -243.63,74.613 -46.687,10e-4 -90.877,-6.761 -130.762,-18.563 z"
           id="path44" /></g><path
         id="path2-3-3"
         d="m 241.19048,377.45548 c 0,-58.99712 -47.99524,-106.99695 -106.99694,-106.99695 -59.001712,0 -106.996955,47.99983 -106.996955,106.99695 0,29.14287 12.66786,50.77424 37.466069,64.46774 4.926037,34.54122 19.95494,42.52921 69.530886,42.52921 48.19125,0 63.76599,-7.47391 69.12379,-39.6173 25.0657,-12.96251 37.87315,-35.56061 37.87315,-67.37965 z"
         style="fill:none;stroke:#fafafa;stroke-width:3.80645148;stroke-miterlimit:4;stroke-dasharray:none;stroke-opacity:0.2"
         inkscape:connector-curvature="0" /></g></g></g>
</svg>