<?xml version="1.0" encoding="UTF-8" standalone="no"?>
<svg
   xmlns:dc="http://purl.org/dc/elements/1.1/"
   xmlns:cc="http://creativecommons.org/ns#"
   xmlns:rdf="http://www.w3.org/1999/02/22-rdf-syntax-ns#"
   xmlns:svg="http://www.w3.org/2000/svg"
   xmlns="http://www.w3.org/2000/svg"
   xmlns:xlink="http://www.w3.org/1999/xlink"
   xmlns:sodipodi="http://sodipodi.sourceforge.net/DTD/sodipodi-0.dtd"
   xmlns:inkscape="http://www.inkscape.org/namespaces/inkscape"
   width="32"
   height="32"
   version="1"
   id="svg18"
   sodipodi:docname="multimedia-volume-control.svg"
   inkscape:version="0.92.4 5da689c313, 2019-01-14">
  <metadata
     id="metadata24">
    <rdf:RDF>
      <cc:Work
         rdf:about="">
        <dc:format>image/svg+xml</dc:format>
        <dc:type
           rdf:resource="http://purl.org/dc/dcmitype/StillImage" />
        <dc:title></dc:title>
      </cc:Work>
    </rdf:RDF>
  </metadata>
  <defs
     id="defs22">
    <linearGradient
       gradientTransform="translate(31.755143,22.055813)"
       gradientUnits="userSpaceOnUse"
       y2="29.61026"
       x2="1.4480815"
       y1="2.6024418"
       x1="1.4480815"
       id="linearGradient4487"
       xlink:href="#linearGradient4481" />
    <linearGradient
       id="linearGradient4481">
      <stop
         id="stop4483"
         offset="0"
         style="stop-color:#000000;stop-opacity:0.22" />
      <stop
         id="stop4485"
         offset="1"
         style="stop-color:#000000;stop-opacity:0.37" />
    </linearGradient>
    <linearGradient
       gradientTransform="translate(20.935826,-12.167321)"
       gradientUnits="userSpaceOnUse"
       y2="29.61026"
       x2="1.4480815"
       y1="2.6024418"
       x1="1.4480815"
       id="linearGradient4487-5"
       xlink:href="#linearGradient4481" />
    <linearGradient
       inkscape:collect="always"
       xlink:href="#linearGradient4481"
       id="linearGradient1038"
       x1="0.80429357"
       y1="18.000008"
       x2="31.799999"
       y2="18.000008"
       gradientUnits="userSpaceOnUse"
       gradientTransform="translate(-0.3042936,-0.5)" />
  </defs>
  <sodipodi:namedview
     pagecolor="#ffffff"
     bordercolor="#666666"
     borderopacity="1"
     objecttolerance="10"
     gridtolerance="10"
     guidetolerance="10"
     inkscape:pageopacity="0"
     inkscape:pageshadow="2"
     inkscape:window-width="1366"
     inkscape:window-height="743"
     id="namedview20"
     showgrid="true"
     inkscape:pagecheckerboard="true"
     inkscape:zoom="22.627417"
     inkscape:cx="17.753339"
     inkscape:cy="19.344425"
     inkscape:current-layer="svg18"
     inkscape:window-x="0"
     inkscape:window-y="-1"
     inkscape:window-maximized="1"
     showguides="true"
     inkscape:guide-bbox="true">
    <inkscape:grid
       type="xygrid"
       id="grid826" />
  </sodipodi:namedview>
  <path
     style="fill:#00c0ff;stroke-width:0.74831712"
     d="M 28.963428,5.5030418 C 27.811275,5.5806438 27.068839,6.5918915 26.157863,7.1836205 17.974539,13.510939 9.7797316,19.823992 1.6035882,26.16023 c -1.30826903,1.080793 -0.3211474,3.445075 1.3504459,3.33613 8.7554209,-0.0071 17.5116029,0.01426 26.2665489,-0.0107 1.216641,-0.104134 1.922108,-1.367146 1.755119,-2.497572 -0.007,-6.598368 0.01408,-13.197491 -0.01055,-19.7953881 -0.08967,-0.981806 -1.017709,-1.7391475 -1.988136,-1.690483 z"
     id="path4"
     inkscape:connector-curvature="0"
     sodipodi:nodetypes="ccccccccc" />
  <path
     style="opacity:0.1;fill:#ffffff;stroke-width:0.72530591"
     d="m 29.056728,5.9810692 c -0.410369,0.01179 -0.80565,0.1524945 -1.126205,0.4009022 L 2.7020965,25.927012 C 2.0863377,26.317065 1.5841273,26.828513 1.7234048,27.5 2.2724526,27.015751 2.3564569,26.920393 2.7020965,26.652319 L 27.930523,7.1072776 C 28.251078,6.8588699 28.646359,6.7181594 29.056728,6.7063754 30.122506,6.6760754 30.499119,7.5040708 30.5,8.5366429 V 7.8113357 C 30.499099,6.7787636 30,6 29.056728,5.9810692 Z"
     id="path14"
     inkscape:connector-curvature="0"
     sodipodi:nodetypes="cccccccccc" />
  <path
     style="opacity:0.2;stroke-width:0.74865699"
     d="M 19,12.724609 V 29.5 h 6 V 8.0917969 Z"
     id="path995"
     inkscape:connector-curvature="0" />
  <path
     style="opacity:0.3;stroke-width:0.74865699"
     d="M 13,17.357422 V 29.5 h 6 V 12.724609 Z"
     id="path986"
     inkscape:connector-curvature="0" />
  <path
     style="opacity:0.4;stroke-width:0.74865699"
     d="M 7,21.990234 V 29.5 h 6 V 17.357422 Z"
     id="path959"
     inkscape:connector-curvature="0" />
  <path
     style="opacity:0.5;stroke-width:0.74865699"
     d="M 2.9597158,29.5 H 7.0007314 V 21.990234 L 1.7370596,26.054688 C 0.29451527,27.170209 1.1112977,29.499431 2.9597158,29.5 Z"
     id="path4-6"
     inkscape:connector-curvature="0" />
  <path
     style="opacity:1;fill:none;stroke:url(#linearGradient1038);stroke-opacity:1"
     d="m 28.982095,5.5008221 c -0.424613,0.01192 -0.833672,0.156906 -1.165372,0.413049 L 1.732757,26.055028 C 0.290213,27.17055 1.107025,29.499431 2.955443,29.5 H 29.039409 C 30.119798,29.499896 30.999892,28.571784 31,27.528985 L 30.9957,7.3878251 C 30.995342,6.3235201 30.102199,5.468927 29,5.5 Z"
     id="path4-7"
     inkscape:connector-curvature="0"
     sodipodi:nodetypes="ccccccccc" />
</svg>
