<?xml version="1.0" encoding="UTF-8" standalone="no"?>
<svg
   version="1.1"
   width="32"
   height="32"
   id="svg3658"
   sodipodi:docname="org.xfce.settings.editor.svg"
   inkscape:version="1.1 (c4e8f9ed74, 2021-05-24)"
   xmlns:inkscape="http://www.inkscape.org/namespaces/inkscape"
   xmlns:sodipodi="http://sodipodi.sourceforge.net/DTD/sodipodi-0.dtd"
   xmlns:xlink="http://www.w3.org/1999/xlink"
   xmlns="http://www.w3.org/2000/svg"
   xmlns:svg="http://www.w3.org/2000/svg"
   xmlns:rdf="http://www.w3.org/1999/02/22-rdf-syntax-ns#"
   xmlns:cc="http://creativecommons.org/ns#"
   xmlns:dc="http://purl.org/dc/elements/1.1/">
  <sodipodi:namedview
     id="namedview47"
     pagecolor="#ffffff"
     bordercolor="#666666"
     borderopacity="1.0"
     inkscape:pageshadow="2"
     inkscape:pageopacity="0.0"
     inkscape:pagecheckerboard="0"
     showgrid="false"
     inkscape:zoom="8.703125"
     inkscape:cx="-7.4685817"
     inkscape:cy="5.6876122"
     inkscape:window-width="1366"
     inkscape:window-height="717"
     inkscape:window-x="0"
     inkscape:window-y="25"
     inkscape:window-maximized="1"
     inkscape:current-layer="svg3658" />
  <defs
     id="defs3660">
    <linearGradient
       id="linearGradient4011">
      <stop
         id="stop4013"
         style="stop-color:#ffffff;stop-opacity:1"
         offset="0" />
      <stop
         id="stop4015"
         style="stop-color:#ffffff;stop-opacity:0.23529412"
         offset="0.507761" />
      <stop
         id="stop4017"
         style="stop-color:#ffffff;stop-opacity:0.15686275"
         offset="0.83456558" />
      <stop
         id="stop4019"
         style="stop-color:#ffffff;stop-opacity:0.39215687"
         offset="1" />
    </linearGradient>
    <linearGradient
       id="linearGradient3820-7-2-2">
      <stop
         id="stop3822-2-6-36"
         style="stop-color:#3d3d3d;stop-opacity:1"
         offset="0" />
      <stop
         id="stop3864-8-7-6"
         style="stop-color:#686868;stop-opacity:0.49803922"
         offset="0.5" />
      <stop
         id="stop3824-1-2-4"
         style="stop-color:#686868;stop-opacity:0"
         offset="1" />
    </linearGradient>
    <radialGradient
       xlink:href="#linearGradient3820-7-2-2"
       id="radialGradient4048"
       gradientUnits="userSpaceOnUse"
       gradientTransform="matrix(0.17524541,0,0,0.05575992,-1.3768101,18.11895)"
       cx="99.157013"
       cy="186.17059"
       fx="99.157013"
       fy="186.17059"
       r="62.769119" />
    <linearGradient
       id="linearGradient3881">
      <stop
         id="stop3883"
         offset="0"
         style="stop-color:#2d2d2d;stop-opacity:1" />
      <stop
         id="stop3885"
         offset="1"
         style="stop-color:#3f3f3f;stop-opacity:1" />
    </linearGradient>
    <linearGradient
       xlink:href="#linearGradient3907-3"
       id="linearGradient3932-9"
       gradientUnits="userSpaceOnUse"
       gradientTransform="rotate(90,23.000001,16)"
       x1="6.6574788"
       y1="23"
       x2="39.441502"
       y2="23" />
    <linearGradient
       id="linearGradient3907-3">
      <stop
         style="stop-color:#fafafa;stop-opacity:1"
         offset="0"
         id="stop3909-6" />
      <stop
         style="stop-color:#d4d4d4;stop-opacity:1"
         offset="1"
         id="stop3911-7" />
    </linearGradient>
    <linearGradient
       xlink:href="#linearGradient4011"
       id="linearGradient3111-7"
       gradientUnits="userSpaceOnUse"
       gradientTransform="matrix(0.72972969,0,0,0.7297297,-36.346079,-2.5039306)"
       x1="71.204407"
       y1="7.6175823"
       x2="71.204407"
       y2="43.282776" />
    <linearGradient
       y2="44.340794"
       x2="71.204407"
       y1="6.2375584"
       x1="71.204407"
       gradientTransform="matrix(0.62162159,0,0,-0.6216216,-28.591103,31.762608)"
       gradientUnits="userSpaceOnUse"
       id="linearGradient3993-0-6-0-8-5"
       xlink:href="#linearGradient4011" />
    <linearGradient
       xlink:href="#linearGradient992"
       id="linearGradient2842"
       gradientUnits="userSpaceOnUse"
       gradientTransform="matrix(0,-1.7460316,-1.7460315,0,56.158726,56.158726)"
       x1="6.6574788"
       y1="23"
       x2="37.554001"
       y2="23" />
    <linearGradient
       id="linearGradient992">
      <stop
         id="stop988"
         offset="0"
         style="stop-color:#fafafa;stop-opacity:1" />
      <stop
         id="stop990"
         offset="1"
         style="stop-color:#abacae;stop-opacity:1" />
    </linearGradient>
    <linearGradient
       xlink:href="#linearGradient3881"
       id="linearGradient1733"
       gradientUnits="userSpaceOnUse"
       gradientTransform="matrix(0.99999963,0,0,1.0909091,60.000009,-2.1818185)"
       x1="24"
       y1="14"
       x2="24"
       y2="33" />
    <linearGradient
       xlink:href="#linearGradient3881"
       id="linearGradient1731"
       gradientUnits="userSpaceOnUse"
       gradientTransform="matrix(0.99999963,0,0,1.0909091,60.000009,-2.1818185)"
       x1="881.00031"
       y1="-244.23959"
       x2="881.00031"
       y2="-233.92709" />
    <clipPath
       clipPathUnits="userSpaceOnUse"
       id="clipPath3865-7-7-8-6">
      <path
         d="m 32,24 a 8,8 0 1 1 -16,0 8,8 0 1 1 16,0 z"
         id="path3867-9-4-4-4"
         style="opacity:0.2;fill:#000000;fill-opacity:1;stroke:none" />
    </clipPath>
    <linearGradient
       gradientTransform="matrix(1,0,0,-1,0,33.003591)"
       gradientUnits="userSpaceOnUse"
       xlink:href="#linearGradient4687"
       id="linearGradient3453"
       y2="17.313972"
       x2="19.868132"
       y1="13.067885"
       x1="19.868132" />
    <linearGradient
       id="linearGradient4687">
      <stop
         offset="0"
         style="stop-color:#000000;stop-opacity:1"
         id="stop4689" />
      <stop
         offset="1"
         style="stop-color:#000000;stop-opacity:0"
         id="stop4691" />
    </linearGradient>
    <clipPath
       id="clipPath8125"
       clipPathUnits="userSpaceOnUse">
      <path
         d="m 15,7.9999995 c -0.277,0 -0.5,0.223 -0.5,0.5 V 10.1875 c -0.548639,0.140741 -1.055018,0.37601 -1.53125,0.65625 L 11.75,9.625 c -0.195869,-0.19587 -0.491631,-0.19587 -0.6875,0 L 9.625,11.0625 c -0.1958686,0.195869 -0.1958686,0.491631 0,0.6875 l 1.21875,1.21875 C 10.56351,13.444982 10.328241,13.951361 10.1875,14.5 H 8.5 C 8.223,14.5 8,14.723 8,15 v 2 c 0,0.277 0.223,0.5 0.5,0.5 h 1.6875 c 0.140741,0.548639 0.37601,1.055018 0.65625,1.53125 L 9.625,20.25 c -0.1958686,0.195869 -0.1958686,0.491631 0,0.6875 l 1.4375,1.4375 c 0.195869,0.195869 0.491631,0.195869 0.6875,0 l 1.21875,-1.21875 c 0.476232,0.28024 0.982611,0.515509 1.53125,0.65625 V 23.5 c 0,0.277 0.223,0.5 0.5,0.5 h 2 c 0.277,0 0.5,-0.223 0.5,-0.5 v -1.6875 c 0.548639,-0.140741 1.055018,-0.37601 1.53125,-0.65625 L 20.25,22.375 c 0.195869,0.195869 0.491631,0.195869 0.6875,0 l 1.4375,-1.4375 c 0.195869,-0.195869 0.195869,-0.491631 0,-0.6875 L 21.15625,19.03125 C 21.43649,18.555018 21.671759,18.048639 21.8125,17.5 H 23.5 c 0.277,0 0.5,-0.223 0.5,-0.5 v -2 c 0,-0.277 -0.223,-0.5 -0.5,-0.5 H 21.8125 C 21.671759,13.951361 21.43649,13.444982 21.15625,12.96875 L 22.375,11.75 c 0.195869,-0.19587 0.195869,-0.491631 0,-0.6875 L 20.9375,9.625 c -0.195869,-0.19587 -0.491631,-0.19587 -0.6875,0 l -1.21875,1.21875 C 18.555018,10.56351 18.048639,10.328241 17.5,10.1875 V 8.4999995 c 0,-0.277 -0.223,-0.5 -0.5,-0.5 z M 16,13 c 1.656854,0 3,1.343146 3,3 0,1.656854 -1.343146,3 -3,3 -1.656854,0 -3,-1.343146 -3,-3 0,-1.656854 1.343146,-3 3,-3 z"
         id="path8127"
         style="color:#000000;display:inline;overflow:visible;visibility:visible;fill:#000000;fill-opacity:1;fill-rule:nonzero;stroke:none;stroke-width:2;stroke-miterlimit:4;stroke-dasharray:none;stroke-opacity:1;marker:none;enable-background:accumulate" />
    </clipPath>
    <clipPath
       id="clipPath1022"
       clipPathUnits="userSpaceOnUse">
      <path
         d="m 15,7.9999995 c -0.277,0 -0.5,0.223 -0.5,0.5 V 10.1875 c -0.548639,0.140741 -1.055018,0.37601 -1.53125,0.65625 L 11.75,9.625 c -0.195869,-0.19587 -0.491631,-0.19587 -0.6875,0 L 9.625,11.0625 c -0.1958686,0.195869 -0.1958686,0.491631 0,0.6875 l 1.21875,1.21875 C 10.56351,13.444982 10.328241,13.951361 10.1875,14.5 H 8.5 C 8.223,14.5 8,14.723 8,15 v 2 c 0,0.277 0.223,0.5 0.5,0.5 h 1.6875 c 0.140741,0.548639 0.37601,1.055018 0.65625,1.53125 L 9.625,20.25 c -0.1958686,0.195869 -0.1958686,0.491631 0,0.6875 l 1.4375,1.4375 c 0.195869,0.195869 0.491631,0.195869 0.6875,0 l 1.21875,-1.21875 c 0.476232,0.28024 0.982611,0.515509 1.53125,0.65625 V 23.5 c 0,0.277 0.223,0.5 0.5,0.5 h 2 c 0.277,0 0.5,-0.223 0.5,-0.5 v -1.6875 c 0.548639,-0.140741 1.055018,-0.37601 1.53125,-0.65625 L 20.25,22.375 c 0.195869,0.195869 0.491631,0.195869 0.6875,0 l 1.4375,-1.4375 c 0.195869,-0.195869 0.195869,-0.491631 0,-0.6875 L 21.15625,19.03125 C 21.43649,18.555018 21.671759,18.048639 21.8125,17.5 H 23.5 c 0.277,0 0.5,-0.223 0.5,-0.5 v -2 c 0,-0.277 -0.223,-0.5 -0.5,-0.5 H 21.8125 C 21.671759,13.951361 21.43649,13.444982 21.15625,12.96875 L 22.375,11.75 c 0.195869,-0.19587 0.195869,-0.491631 0,-0.6875 L 20.9375,9.625 c -0.195869,-0.19587 -0.491631,-0.19587 -0.6875,0 l -1.21875,1.21875 C 18.555018,10.56351 18.048639,10.328241 17.5,10.1875 V 8.4999995 c 0,-0.277 -0.223,-0.5 -0.5,-0.5 z M 16,13 c 1.656854,0 3,1.343146 3,3 0,1.656854 -1.343146,3 -3,3 -1.656854,0 -3,-1.343146 -3,-3 0,-1.656854 1.343146,-3 3,-3 z"
         id="path1020"
         style="color:#000000;display:inline;overflow:visible;visibility:visible;fill:#000000;fill-opacity:1;fill-rule:nonzero;stroke:none;stroke-width:2;stroke-miterlimit:4;stroke-dasharray:none;stroke-opacity:1;marker:none;enable-background:accumulate" />
    </clipPath>
  </defs>
  <metadata
     id="metadata3663">
    <rdf:RDF>
      <cc:Work
         rdf:about="">
        <dc:format>image/svg+xml</dc:format>
        <dc:type
           rdf:resource="http://purl.org/dc/dcmitype/StillImage" />
      </cc:Work>
    </rdf:RDF>
  </metadata>
  <path
     d="m 27.000001,28.499804 a 11,3.4999999 0 1 1 -21.9999997,0 11,3.4999999 0 1 1 21.9999997,0 z"
     id="path3818-0-2"
     style="fill:url(#radialGradient4048);fill-opacity:1;stroke:none" />
  <path
     style="fill:url(#linearGradient3932-9);fill-opacity:1;fill-rule:nonzero;stroke:none;stroke-width:1"
     id="path3902-8"
     d="M 16.000494,2.0000008 C 8.2682641,2.0000008 2,8.2684763 2,15.999823 2,23.731879 8.2683314,30 16.000494,30 23.732376,30 30,23.731879 30,15.999823 30,8.2684763 23.732376,2.0000008 16.000494,2.0000008 Z" />
  <path
     style="color:#000000;display:inline;overflow:visible;visibility:visible;opacity:1;fill:none;stroke:url(#linearGradient3111-7);stroke-width:1;stroke-linecap:round;stroke-linejoin:round;stroke-miterlimit:4;stroke-dasharray:none;stroke-dashoffset:0;stroke-opacity:1;marker:none;enable-background:accumulate"
     id="path8655-9"
     d="M 29.5,15.999522 C 29.5,23.455607 23.455399,29.5 16.000171,29.5 8.5442601,29.5 2.5,23.455538 2.5,15.999522 2.5,8.5437821 8.5442601,2.5000009 16.000171,2.5000009 23.455399,2.5000009 29.5,8.5437821 29.5,15.999522 Z" />
  <path
     style="color:#000000;display:inline;overflow:visible;visibility:visible;opacity:0.5;fill:none;stroke:url(#linearGradient3993-0-6-0-8-5);stroke-width:0.99999994;stroke-linecap:round;stroke-linejoin:round;stroke-miterlimit:4;stroke-dasharray:none;stroke-dashoffset:0;stroke-opacity:1;marker:none;enable-background:accumulate"
     id="path8655-1-6-9-4-8-2"
     d="M 27.5,16.000408 C 27.5,9.64893 22.350897,4.5000002 16.000147,4.5000002 9.6488154,4.5000002 4.5,9.6489871 4.5,16.000408 4.5,22.351594 9.6488154,27.5 16.000147,27.5 22.350897,27.5 27.5,22.351594 27.5,16.000408 Z" />
  <path
     style="color:#000000;display:inline;overflow:visible;visibility:visible;opacity:0.5;fill:none;stroke:#555761;stroke-width:1;stroke-linecap:round;stroke-linejoin:round;stroke-miterlimit:4;stroke-dasharray:none;stroke-dashoffset:0;stroke-opacity:1;marker:none;enable-background:accumulate"
     id="path2555-6-6"
     d="M 16.000002,1.4999984 C 7.999402,1.4999984 1.5,7.9993979 1.5,15.999999 1.5,24.000599 7.999402,30.500002 16.000002,30.5 24.000598,30.5 30.500008,24.000599 30.5,15.999999 30.5,7.9993979 24.000598,1.4999984 16.000002,1.4999984 Z" />
  <g
     id="g854-6-8"
     transform="matrix(0.94308941,0,0,0.94308941,-871.44704,264.38617)"
     style="opacity:1;vector-effect:none;fill:none;fill-opacity:1;stroke:none;stroke-width:1.06034482;stroke-linecap:butt;stroke-linejoin:miter;stroke-miterlimit:4;stroke-dasharray:none;stroke-dashoffset:0;stroke-opacity:1">
    <path
       id="path852-1-60"
       style="color:#000000;overflow:visible;vector-effect:none;fill:none;fill-opacity:1;stroke:none;stroke-width:1.06034482;stroke-linecap:butt;stroke-linejoin:miter;stroke-miterlimit:4;stroke-dasharray:none;stroke-dashoffset:0;stroke-opacity:1;marker:none"
       overflow="visible"
       d="m 941,-269 a 3,3 0 0 0 -3,3 c 0,1.243 0.745,2.304 1.822,2.759 L 938,-257 h 6 l -1.821,-6.241 A 2.984,2.984 0 0 0 944,-266 a 3,3 0 0 0 -3,-3 z" />
  </g>
  <g
     transform="translate(-653.73339,94.999675)"
     id="g999" />
  <path
     d="m 15,9.0000005 c -0.277,0 -0.5,0.2230005 -0.5,0.5000005 v 1.687501 c -0.548639,0.140741 -1.055018,0.376009 -1.53125,0.656249 L 11.75,10.625002 c -0.195869,-0.195871 -0.491631,-0.195871 -0.6875,0 l -1.4374996,1.437499 c -0.195869,0.195869 -0.195869,0.491631 0,0.6875 l 1.2187496,1.21875 c -0.28024,0.476232 -0.515509,0.982611 -0.65625,1.53125 H 8.5000004 c -0.277,0 -0.5,0.223 -0.5,0.499999 v 2 c 0,0.277001 0.223,0.5 0.5,0.5 H 10.1875 c 0.140741,0.54864 0.37601,1.055018 0.65625,1.53125 L 9.6250004,21.25 c -0.195869,0.195869 -0.195869,0.491632 0,0.6875 L 11.0625,23.375 c 0.195869,0.195869 0.491631,0.195869 0.6875,0 l 1.21875,-1.21875 c 0.476232,0.28024 0.982611,0.51551 1.53125,0.65625 V 24.5 c 0,0.277 0.223,0.5 0.5,0.5 h 2 c 0.277,0 0.5,-0.223 0.5,-0.5 v -1.6875 c 0.548639,-0.14074 1.055018,-0.37601 1.53125,-0.65625 L 20.25,23.375 c 0.195869,0.195869 0.491631,0.195869 0.6875,0 l 1.4375,-1.4375 c 0.195869,-0.195868 0.195869,-0.491631 0,-0.6875 L 21.15625,20.03125 C 21.43649,19.555018 21.671759,19.04864 21.8125,18.5 H 23.5 c 0.277,0 0.5,-0.222999 0.5,-0.5 v -2 c 0,-0.276999 -0.223,-0.499999 -0.5,-0.499999 h -1.6875 c -0.140741,-0.548639 -0.37601,-1.055018 -0.65625,-1.53125 l 1.21875,-1.21875 c 0.195869,-0.195871 0.195869,-0.491631 0,-0.6875 l -1.4375,-1.437499 c -0.195869,-0.195871 -0.491631,-0.195871 -0.6875,0 l -1.21875,1.218749 C 18.555018,11.563511 18.048639,11.328243 17.5,11.187502 V 9.500001 c 0,-0.277 -0.223,-0.5000005 -0.5,-0.5000005 z M 16,14 c 1.656854,0 3,1.343147 3,3 0,1.656854 -1.343146,3 -3,3 -1.656854,0 -3,-1.343146 -3,-3 0,-1.656853 1.343146,-2.999999 3,-2.999999 z"
     id="path3575-5-3"
     style="color:#000000;display:inline;overflow:visible;visibility:visible;opacity:0.1;fill:#ffffff;fill-opacity:1;fill-rule:nonzero;stroke:none;stroke-width:1;marker:none;enable-background:accumulate" />
  <path
     d="m 15,8.0000005 c -0.277,0 -0.5,0.223 -0.5,0.5 v 1.6875015 c -0.548639,0.140741 -1.055018,0.37601 -1.53125,0.65625 L 11.75,9.625001 c -0.195869,-0.19587 -0.491631,-0.19587 -0.6875,0 l -1.4374996,1.437501 c -0.195869,0.195869 -0.195869,0.49163 0,0.687499 l 1.2187496,1.21875 c -0.28024,0.476232 -0.515509,0.982611 -0.65625,1.53125 H 8.5000004 c -0.277,0 -0.5,0.223 -0.5,0.5 V 17 c 0,0.277 0.223,0.5 0.5,0.5 H 10.1875 c 0.140741,0.54864 0.37601,1.055018 0.65625,1.53125 L 9.6250004,20.25 c -0.195869,0.195869 -0.195869,0.491632 0,0.6875 L 11.0625,22.375 c 0.195869,0.195869 0.491631,0.195869 0.6875,0 l 1.21875,-1.21875 c 0.476232,0.28024 0.982611,0.51551 1.53125,0.65625 V 23.5 c 0,0.277001 0.223,0.5 0.5,0.5 h 2 c 0.277,0 0.5,-0.222999 0.5,-0.5 v -1.6875 c 0.548639,-0.14074 1.055018,-0.37601 1.53125,-0.65625 L 20.25,22.375 c 0.195869,0.195869 0.491631,0.195869 0.6875,0 l 1.4375,-1.4375 c 0.195869,-0.195868 0.195869,-0.491631 0,-0.6875 L 21.15625,19.03125 C 21.43649,18.555018 21.671759,18.04864 21.8125,17.5 H 23.5 c 0.277,0 0.5,-0.223 0.5,-0.5 v -1.999999 c 0,-0.277 -0.223,-0.5 -0.5,-0.5 h -1.6875 c -0.140741,-0.548639 -0.37601,-1.055018 -0.65625,-1.53125 l 1.21875,-1.21875 c 0.195869,-0.195871 0.195869,-0.49163 0,-0.687499 L 20.9375,9.625001 c -0.195869,-0.19587 -0.491631,-0.19587 -0.6875,0 l -1.21875,1.218751 C 18.555018,10.563512 18.048639,10.328243 17.5,10.187502 V 8.5000005 c 0,-0.277 -0.223,-0.5 -0.5,-0.5 z M 16,13 c 1.656854,0 3,1.343147 3,3 0,1.656855 -1.343146,3 -3,3 -1.656854,0 -3,-1.343145 -3,-3 0,-1.656853 1.343146,-2.999999 3,-2.999999 z"
     id="path3575-5"
     style="color:#000000;display:inline;overflow:visible;visibility:visible;fill:#323232;fill-opacity:0.57999998;fill-rule:nonzero;stroke:none;stroke-width:1;marker:none;enable-background:accumulate" />
  <path
     d="m 16,19.56609 c 1.937369,0.05315 3.663354,-1.720097 3.561336,-3.654451 0.004,-1.938938 -1.81466,-3.616278 -3.744666,-3.465913 -1.939185,0.04516 -3.567078,1.907377 -3.368782,3.831972 0.104132,1.811371 1.739,3.322901 3.552112,3.288392 z"
     id="path4685"
     style="color:#000000;display:inline;overflow:visible;visibility:visible;opacity:0.05;fill:none;stroke:url(#linearGradient3453);stroke-width:1;stroke-linejoin:round;stroke-miterlimit:4;stroke-dasharray:none;stroke-opacity:1;marker:none;enable-background:accumulate" />
  <path
     clip-path="url(#clipPath8125)"
     style="color:#000000;display:inline;overflow:visible;visibility:visible;opacity:0.05;fill:none;fill-opacity:1;fill-rule:nonzero;stroke:#000000;stroke-width:2;stroke-miterlimit:4;stroke-dasharray:none;stroke-opacity:1;marker:none;enable-background:accumulate"
     id="path8121"
     d="m 15,7.9999995 c -0.277,0 -0.5,0.223 -0.5,0.5 V 10.1875 c -0.548639,0.140741 -1.055018,0.37601 -1.53125,0.65625 L 11.75,9.625 c -0.195869,-0.19587 -0.491631,-0.19587 -0.6875,0 L 9.625,11.0625 c -0.1958686,0.195869 -0.1958686,0.491631 0,0.6875 l 1.21875,1.21875 C 10.56351,13.444982 10.328241,13.951361 10.1875,14.5 H 8.5 C 8.223,14.5 8,14.723 8,15 v 2 c 0,0.277 0.223,0.5 0.5,0.5 h 1.6875 c 0.140741,0.548639 0.37601,1.055018 0.65625,1.53125 L 9.625,20.25 c -0.1958686,0.195869 -0.1958686,0.491631 0,0.6875 l 1.4375,1.4375 c 0.195869,0.195869 0.491631,0.195869 0.6875,0 l 1.21875,-1.21875 c 0.476232,0.28024 0.982611,0.515509 1.53125,0.65625 V 23.5 c 0,0.277 0.223,0.5 0.5,0.5 h 2 c 0.277,0 0.5,-0.223 0.5,-0.5 v -1.6875 c 0.548639,-0.140741 1.055018,-0.37601 1.53125,-0.65625 L 20.25,22.375 c 0.195869,0.195869 0.491631,0.195869 0.6875,0 l 1.4375,-1.4375 c 0.195869,-0.195869 0.195869,-0.491631 0,-0.6875 L 21.15625,19.03125 C 21.43649,18.555018 21.671759,18.048639 21.8125,17.5 H 23.5 c 0.277,0 0.5,-0.223 0.5,-0.5 v -2 c 0,-0.277 -0.223,-0.5 -0.5,-0.5 H 21.8125 C 21.671759,13.951361 21.43649,13.444982 21.15625,12.96875 L 22.375,11.75 c 0.195869,-0.19587 0.195869,-0.491631 0,-0.6875 L 20.9375,9.625 c -0.195869,-0.19587 -0.491631,-0.19587 -0.6875,0 l -1.21875,1.21875 C 18.555018,10.56351 18.048639,10.328241 17.5,10.1875 V 8.4999995 c 0,-0.277 -0.223,-0.5 -0.5,-0.5 z M 16,13 c 1.656854,0 3,1.343146 3,3 0,1.656854 -1.343146,3 -3,3 -1.656854,0 -3,-1.343146 -3,-3 0,-1.656854 1.343146,-3 3,-3 z" />
  <path
     d="m 15,7.9999995 c -0.277,0 -0.5,0.223 -0.5,0.5 V 10.1875 c -0.548639,0.140741 -1.055018,0.37601 -1.53125,0.65625 L 11.75,9.625 c -0.195869,-0.19587 -0.491631,-0.19587 -0.6875,0 L 9.625,11.0625 c -0.1958686,0.195869 -0.1958686,0.491631 0,0.6875 l 1.21875,1.21875 C 10.56351,13.444982 10.328241,13.951361 10.1875,14.5 H 8.5 C 8.223,14.5 8,14.723 8,15 v 2 c 0,0.277 0.223,0.5 0.5,0.5 h 1.6875 c 0.140741,0.548639 0.37601,1.055018 0.65625,1.53125 L 9.625,20.25 c -0.1958686,0.195869 -0.1958686,0.491631 0,0.6875 l 1.4375,1.4375 c 0.195869,0.195869 0.491631,0.195869 0.6875,0 l 1.21875,-1.21875 c 0.476232,0.28024 0.982611,0.515509 1.53125,0.65625 V 23.5 c 0,0.277 0.223,0.5 0.5,0.5 h 2 c 0.277,0 0.5,-0.223 0.5,-0.5 v -1.6875 c 0.548639,-0.140741 1.055018,-0.37601 1.53125,-0.65625 L 20.25,22.375 c 0.195869,0.195869 0.491631,0.195869 0.6875,0 l 1.4375,-1.4375 c 0.195869,-0.195869 0.195869,-0.491631 0,-0.6875 L 21.15625,19.03125 C 21.43649,18.555018 21.671759,18.048639 21.8125,17.5 H 23.5 c 0.277,0 0.5,-0.223 0.5,-0.5 v -2 c 0,-0.277 -0.223,-0.5 -0.5,-0.5 H 21.8125 C 21.671759,13.951361 21.43649,13.444982 21.15625,12.96875 L 22.375,11.75 c 0.195869,-0.19587 0.195869,-0.491631 0,-0.6875 L 20.9375,9.625 c -0.195869,-0.19587 -0.491631,-0.19587 -0.6875,0 l -1.21875,1.21875 C 18.555018,10.56351 18.048639,10.328241 17.5,10.1875 V 8.4999995 c 0,-0.277 -0.223,-0.5 -0.5,-0.5 z M 16,13 c 1.656854,0 3,1.343146 3,3 0,1.656854 -1.343146,3 -3,3 -1.656854,0 -3,-1.343146 -3,-3 0,-1.656854 1.343146,-3 3,-3 z"
     id="path8129"
     style="color:#000000;display:inline;overflow:visible;visibility:visible;opacity:0.1;fill:none;fill-opacity:1;fill-rule:nonzero;stroke:#000000;stroke-width:1;stroke-miterlimit:4;stroke-dasharray:none;stroke-opacity:1;marker:none;enable-background:accumulate"
     clip-path="url(#clipPath8125)" />
</svg>
