<?xml version="1.0" encoding="UTF-8" standalone="no"?>
<svg
   xmlns:dc="http://purl.org/dc/elements/1.1/"
   xmlns:cc="http://creativecommons.org/ns#"
   xmlns:rdf="http://www.w3.org/1999/02/22-rdf-syntax-ns#"
   xmlns:svg="http://www.w3.org/2000/svg"
   xmlns="http://www.w3.org/2000/svg"
   xmlns:xlink="http://www.w3.org/1999/xlink"
   xmlns:sodipodi="http://sodipodi.sourceforge.net/DTD/sodipodi-0.dtd"
   xmlns:inkscape="http://www.inkscape.org/namespaces/inkscape"
   id="svg4279"
   height="32"
   width="32"
   version="1.1"
   sodipodi:docname="org.gnome.clocks.svg"
   inkscape:version="0.92.4 5da689c313, 2019-01-14">
  <sodipodi:namedview
     pagecolor="#ffffff"
     bordercolor="#666666"
     borderopacity="1"
     objecttolerance="10"
     gridtolerance="10"
     guidetolerance="10"
     inkscape:pageopacity="0"
     inkscape:pageshadow="2"
     inkscape:window-width="1366"
     inkscape:window-height="743"
     id="namedview53"
     showgrid="false"
     inkscape:zoom="10.179036"
     inkscape:cx="22.349089"
     inkscape:cy="23.214071"
     inkscape:window-x="0"
     inkscape:window-y="-1"
     inkscape:window-maximized="1"
     inkscape:current-layer="svg4279" />
  <defs
     id="defs4281">
    <linearGradient
       id="linearGradient4119">
      <stop
         offset="0"
         style="stop-color:#ffffff;stop-opacity:1"
         id="stop4121" />
      <stop
         offset="0.53996283"
         style="stop-color:#afaba5;stop-opacity:1"
         id="stop4148" />
      <stop
         offset="0.61988848"
         style="stop-color:#837874;stop-opacity:1"
         id="stop4146" />
      <stop
         offset="1"
         style="stop-color:#b4b2aa;stop-opacity:1"
         id="stop4123" />
    </linearGradient>
    <linearGradient
       gradientTransform="matrix(1.0992946,0,0,1.0992878,-63.342717,-14.633741)"
       gradientUnits="userSpaceOnUse"
       xlink:href="#linearGradient4806-9"
       id="linearGradient3221"
       y2="40.495617"
       x2="71.204407"
       y1="15.369057"
       x1="71.204407" />
    <linearGradient
       id="linearGradient4806-9">
      <stop
         offset="0"
         style="stop-color:#ffffff;stop-opacity:1"
         id="stop4808-49" />
      <stop
         offset="0.42447853"
         style="stop-color:#ffffff;stop-opacity:0.23529412"
         id="stop4810-05" />
      <stop
         offset="0.82089913"
         style="stop-color:#ffffff;stop-opacity:0.15686275"
         id="stop4812-6" />
      <stop
         offset="1"
         style="stop-color:#ffffff;stop-opacity:0.39215687"
         id="stop4814-7" />
    </linearGradient>
    <radialGradient
       gradientTransform="matrix(-4.6357511e-8,0.7618077,-0.71773799,-5.2472206e-8,22.064896,2.0248558)"
       gradientUnits="userSpaceOnUse"
       xlink:href="#linearGradient2867-449-88-871-390-598-476-591-434-148-57-177-641-289-620-227-114-444-680-744-4-8-69-5-4-8-426-2-9-1-4-965"
       id="radialGradient3228"
       fy="8.625761"
       fx="0.3035326"
       r="19.99999"
       cy="8.6257601"
       cx="15.026252" />
    <linearGradient
       id="linearGradient2867-449-88-871-390-598-476-591-434-148-57-177-641-289-620-227-114-444-680-744-4-8-69-5-4-8-426-2-9-1-4-965">
      <stop
         offset="0"
         style="stop-color:#f4f4f4;stop-opacity:1"
         id="stop4036" />
      <stop
         offset="1"
         style="stop-color:#dadada;stop-opacity:1"
         id="stop4040" />
    </linearGradient>
    <linearGradient
       id="linearGradient3820-7-2-2">
      <stop
         offset="0"
         style="stop-color:#3d3d3d;stop-opacity:1"
         id="stop3822-2-6-36" />
      <stop
         offset="0.5"
         style="stop-color:#686868;stop-opacity:0.49803922"
         id="stop3864-8-7-6" />
      <stop
         offset="1"
         style="stop-color:#686868;stop-opacity:0"
         id="stop3824-1-2-4" />
    </linearGradient>
    <radialGradient
       gradientTransform="matrix(0.15750466,0,0,0.0501148,0.38230749,18.024439)"
       gradientUnits="userSpaceOnUse"
       xlink:href="#linearGradient3820-7-2-2"
       id="radialGradient4277"
       fy="186.17059"
       fx="99.157013"
       r="62.769119"
       cy="186.17059"
       cx="99.157013" />
    <radialGradient
       gradientTransform="matrix(0,1.5745159,-1.5787999,0,40.277654,-9.6166252)"
       gradientUnits="userSpaceOnUse"
       xlink:href="#linearGradient4119"
       id="radialGradient3139"
       fy="15.377224"
       fx="16"
       r="0.62612247"
       cy="15.377224"
       cx="16" />
    <radialGradient
       gradientTransform="matrix(0,0.95936489,-1.0436697,0,87.757589,-35.865792)"
       gradientUnits="userSpaceOnUse"
       xlink:href="#linearGradient3242-7-3-8-0-4-58-06"
       id="radialGradient3343"
       fy="48.744953"
       fx="65.59787"
       r="31.000002"
       cy="48.744953"
       cx="65.59787" />
    <linearGradient
       id="linearGradient3242-7-3-8-0-4-58-06">
      <stop
         id="stop3244-5-8-5-6-4-3-8"
         style="stop-color:#cdf87e;stop-opacity:1"
         offset="0" />
      <stop
         id="stop3246-9-5-1-5-3-0-7"
         style="stop-color:#a2e34f;stop-opacity:1"
         offset="0.26238" />
      <stop
         id="stop3248-7-2-0-7-5-35-9"
         style="stop-color:#68b723;stop-opacity:1"
         offset="0.66093999" />
      <stop
         id="stop3250-8-2-8-5-6-40-4"
         style="stop-color:#1d7e0d;stop-opacity:1"
         offset="1" />
    </linearGradient>
    <linearGradient
       gradientTransform="matrix(0.70448868,0,0,0.59520312,21.241407,23.219131)"
       gradientUnits="userSpaceOnUse"
       xlink:href="#linearGradient4154"
       id="linearGradient3030-44"
       y2="36.594009"
       x2="24.138529"
       y1="9.712431"
       x1="24.138529" />
    <linearGradient
       id="linearGradient4154">
      <stop
         offset="0"
         style="stop-color:#ffffff;stop-opacity:1"
         id="stop4156" />
      <stop
         offset="0"
         style="stop-color:#ffffff;stop-opacity:0.23529412"
         id="stop4158" />
      <stop
         offset="1"
         style="stop-color:#ffffff;stop-opacity:0.15686275"
         id="stop4160" />
      <stop
         offset="1"
         style="stop-color:#ffffff;stop-opacity:0.39215687"
         id="stop4162" />
    </linearGradient>
    <linearGradient
       gradientTransform="matrix(0.60015241,0,0,0.69748032,23.556108,20.861165)"
       gradientUnits="userSpaceOnUse"
       xlink:href="#linearGradient4154"
       id="linearGradient3030-1"
       y2="26.006231"
       x2="24.138529"
       y1="20.271303"
       x1="24.138529" />
  </defs>
  <metadata
     id="metadata4284">
    <rdf:RDF>
      <cc:Work
         rdf:about="">
        <dc:format>image/svg+xml</dc:format>
        <dc:type
           rdf:resource="http://purl.org/dc/dcmitype/StillImage" />
        <dc:title></dc:title>
      </cc:Work>
    </rdf:RDF>
  </metadata>
  <path
     d="M 16.000095,1.8452395 C 8.1899342,1.8452395 1.8452392,8.1898915 1.8452392,16 c 0,7.810108 6.344695,14.154763 14.1548558,14.154761 7.810159,0 14.154859,-6.344653 14.154855,-14.154761 0,-7.8101085 -6.344696,-14.1547605 -14.154855,-14.1547605 z"
     id="path2555-7-65"
     style="color:#000000;display:inline;overflow:visible;visibility:visible;fill:url(#radialGradient3228);fill-opacity:1;fill-rule:nonzero;stroke:none;stroke-width:0.6904785;marker:none;enable-background:accumulate"
     inkscape:connector-curvature="0" />
  <path
     d="m 16.000095,1.8452395 c -7.8101615,0 -14.1548558,6.3446499 -14.1548558,14.1547595 0,7.81011 6.3446943,14.154764 14.1548558,14.154762 7.81016,0 14.154864,-6.344652 14.154855,-14.154762 0,-7.8101096 -6.344695,-14.1547595 -14.154855,-14.1547595 z"
     id="path2555-7-1-7"
     style="color:#000000;display:inline;overflow:visible;visibility:visible;opacity:0.4;fill:none;stroke:#000000;stroke-width:0.69047844;stroke-linecap:round;stroke-linejoin:round;stroke-miterlimit:4;stroke-dasharray:none;stroke-dashoffset:0;stroke-opacity:1;marker:none;enable-background:accumulate"
     inkscape:connector-curvature="0" />
  <path
     d="M 15.171517,16.912474 23.043301,7.9214297"
     id="path2312"
     style="fill:none;stroke:#333333;stroke-width:0.41428706;stroke-linecap:round;stroke-linejoin:miter;stroke-miterlimit:4;stroke-dasharray:none;stroke-opacity:1"
     inkscape:connector-curvature="0" />
  <path
     d="M 16.888685,16.121384 9.992912,15.673745"
     id="path2314"
     style="fill:#0000ff;fill-opacity:1;stroke:#333333;stroke-width:0.41428706;stroke-linecap:round;stroke-linejoin:miter;stroke-miterlimit:4;stroke-dasharray:none;stroke-opacity:1"
     inkscape:connector-curvature="0" />
  <path
     d="m 15.171517,13.980657 3.732508,10.097914"
     id="path2316"
     style="fill:none;stroke:#eb5c3a;stroke-width:0.41428706;stroke-linecap:round;stroke-linejoin:miter;stroke-miterlimit:4;stroke-dasharray:none;stroke-opacity:1"
     inkscape:connector-curvature="0" />
  <path
     d="m 17.055926,3.631762 c -0.120987,3.1e-6 -0.234013,0.026871 -0.331832,0.060332 -0.09525,0.030894 -0.169256,0.049311 -0.241333,0.090504 -0.0695,0.041192 -0.137239,0.1096469 -0.181,0.150832 -0.04376,0.041192 -0.07505,0.04489 -0.09049,0.060332 l 0.180999,0.2111644 c 0.01802,-0.023163 0.05703,-0.054455 0.0905,-0.090493 0.03604,-0.038615 0.06918,-0.087204 0.120665,-0.1206658 0.05148,-0.033461 0.114069,-0.06733 0.181001,-0.090504 0.06951,-0.02574 0.156382,-0.030161 0.241332,-0.030171 0.08237,2.1e-6 0.149385,0.00702 0.211168,0.030171 0.06435,0.023173 0.109643,0.051889 0.150833,0.090504 0.04376,0.038615 0.0699,0.1019228 0.0905,0.150832 0.02316,0.048913 0.03017,0.071762 0.03017,0.1206658 -2e-6,0.077231 -0.014,0.1545343 -0.06033,0.2111654 -0.04377,0.056634 -0.111497,0.1045 -0.180999,0.150832 -0.0695,0.046336 -0.128794,0.08205 -0.211168,0.1206658 -0.07981,0.036038 -0.17183,0.084627 -0.241332,0.1206658 -0.131287,0.06951 -0.216718,0.1313651 -0.301667,0.2111644 -0.08237,0.077231 -0.162257,0.1563833 -0.211166,0.2413316 -0.04634,0.084951 -0.07247,0.1788275 -0.09049,0.2714978 -0.01544,0.090095 -0.03017,0.2064186 -0.03017,0.3016639 H 17.84028 V 5.6529218 h -1.357499 c 0.01027,-0.079797 0.03716,-0.1493842 0.06033,-0.2111654 0.02575,-0.061778 0.07175,-0.129514 0.120667,-0.1809982 0.04891,-0.05148 0.103767,-0.1019228 0.181001,-0.150833 0.07723,-0.048913 0.185824,-0.099346 0.301666,-0.150832 0.0489,-0.023163 0.106346,-0.054455 0.180999,-0.090493 0.07723,-0.036038 0.139087,-0.094202 0.211167,-0.150833 0.07207,-0.056634 0.132087,-0.1037667 0.181,-0.1809982 0.05148,-0.079797 0.0905,-0.1935465 0.0905,-0.301664 -2e-6,-0.082374 -0.02686,-0.1390861 -0.06033,-0.2111654 C 17.716313,3.9492859 17.663314,3.8694081 17.59895,3.8127738 17.534595,3.7561395 17.450287,3.7230033 17.357616,3.692108 17.267521,3.658647 17.17179,3.6317756 17.05595,3.6317756 Z m -1.900498,0.030161 c -0.0051,0.012875 -0.04673,0.051889 -0.0905,0.090504 -0.04376,0.038615 -0.08647,0.076906 -0.150834,0.1206658 -0.06179,0.043759 -0.139088,0.087204 -0.211165,0.1206658 -0.0695,0.033472 -0.121795,0.060332 -0.181002,0.060332 v 0.2413316 c 0.04891,1.1e-6 0.08647,-0.00953 0.150834,-0.030161 0.06436,-0.020596 0.15196,-0.05961 0.211167,-0.090504 0.06179,-0.030884 0.101923,-0.054455 0.150834,-0.090504 0.04891,-0.036038 0.09749,-0.05961 0.120665,-0.090504 v 1.659154 h -0.542999 v 0.2413315 h 1.297165 V 5.6529134 h -0.48266 V 3.6619292 Z M 4.5367731,14.642511 c -0.1364346,2e-6 -0.2737531,0.01143 -0.3921664,0.06033 -0.1184146,0.04891 -0.2141434,0.126218 -0.3016663,0.211165 -0.084948,0.08495 -0.1596823,0.185827 -0.2111664,0.301664 -0.04891,0.113267 -0.060333,0.230714 -0.060333,0.361998 -2e-7,0.128711 0.011422,0.248734 0.060333,0.361997 0.048909,0.113266 0.1262169,0.216716 0.2111664,0.301664 0.084948,0.08237 0.1884001,0.132089 0.3016663,0.180998 0.115839,0.04634 0.2307136,0.0905 0.3619996,0.0905 0.1750457,0 0.3160646,-0.06074 0.4524996,-0.150832 0.139006,-0.09009 0.2450318,-0.210119 0.3016664,-0.361996 -1.8e-6,0.19049 -0.021721,0.363526 -0.060333,0.512828 -0.03604,0.14673 -0.083905,0.261604 -0.1508333,0.361998 -0.064356,0.10297 -0.1486626,0.187273 -0.2413331,0.241331 -0.092673,0.05406 -0.1884019,0.09049 -0.3016663,0.09049 -0.1441572,0 -0.273753,-0.04087 -0.3921662,-0.120664 -0.1184141,-0.07722 -0.1898487,-0.200546 -0.2413325,-0.33183 l -0.1810003,0.180999 c 0.074651,0.159599 0.1876763,0.271899 0.331833,0.361996 0.1441557,0.0901 0.30247,0.120665 0.4826661,0.120666 0.1518778,-10e-7 0.298769,-0.02357 0.422333,-0.0905 0.1235609,-0.06693 0.2141411,-0.162657 0.3016663,-0.301664 0.090096,-0.136432 0.1622544,-0.306894 0.2111664,-0.512829 0.048908,-0.20851 0.090499,-0.44598 0.090501,-0.723995 -2.2e-6,-0.177619 -0.041592,-0.34108 -0.090501,-0.482662 C 5.3928598,15.162018 5.3181271,15.041997 5.2306056,14.944175 5.1456542,14.846359 5.0499259,14.75433 4.9289393,14.702844 4.8079496,14.648787 4.6809281,14.642511 4.5367731,14.642511 Z m 23.0171429,0 c -0.09267,2e-6 -0.183977,0.007 -0.2715,0.03017 -0.08753,0.0206 -0.169255,0.05189 -0.241333,0.09049 -0.07208,0.03862 -0.124367,0.0942 -0.181,0.150832 -0.05663,0.05406 -0.119942,0.114072 -0.150833,0.180999 l 0.181001,0.150832 c 0.05663,-0.115837 0.130641,-0.20714 0.241331,-0.271497 0.113267,-0.06693 0.245435,-0.0905 0.392167,-0.0905 0.07981,2e-6 0.174402,0.0095 0.241333,0.03017 0.0695,0.0206 0.132089,0.04932 0.181,0.0905 0.05148,0.03862 0.09235,0.09163 0.120666,0.150831 0.02832,0.05663 0.03017,0.103777 0.03017,0.180999 -10e-7,0.146731 -0.0453,0.269326 -0.150833,0.361997 -0.105543,0.09267 -0.254285,0.150833 -0.452498,0.150832 h -0.120671 v 0.211162 h 0.0905 c 0.218808,1e-6 0.396992,0.04787 0.512832,0.150832 0.115838,0.10297 0.180999,0.24471 0.181001,0.42233 -2e-6,0.175045 -0.07032,0.329659 -0.181001,0.422331 -0.110692,0.09525 -0.259433,0.120665 -0.452499,0.120665 -0.167324,0 -0.311641,-0.02357 -0.422333,-0.0905 -0.110692,-0.06693 -0.187274,-0.158234 -0.241332,-0.271498 l -0.181002,0.180998 c 0.07465,0.139007 0.185104,0.224439 0.331835,0.301664 0.146728,0.07981 0.317191,0.120666 0.512832,0.120667 0.133858,-1e-6 0.253881,-0.02172 0.362,-0.06033 0.11069,-0.03604 0.19427,-0.08133 0.2715,-0.150832 0.0798,-0.06693 0.13981,-0.143512 0.180999,-0.24133 0.04376,-0.09525 0.0905,-0.215993 0.0905,-0.331831 -2e-6,-0.185343 -0.04788,-0.326361 -0.150833,-0.452496 -0.100394,-0.126136 -0.252438,-0.213016 -0.422333,-0.241332 0.0798,-0.01027 0.149383,-0.02429 0.211165,-0.06033 0.06435,-0.03862 0.137237,-0.09677 0.181,-0.150832 0.04376,-0.05662 0.06733,-0.111494 0.09049,-0.180999 0.02316,-0.07207 0.03017,-0.133937 0.03017,-0.211165 -1e-6,-0.10297 -0.01915,-0.216713 -0.06033,-0.301664 -0.03862,-0.08494 -0.108924,-0.151955 -0.181001,-0.211163 -0.07208,-0.06179 -0.14094,-0.117365 -0.241333,-0.150832 -0.09782,-0.03346 -0.21342,-0.03017 -0.331833,-0.03017 z M 4.5367731,14.853676 c 0.097819,2e-6 0.1865492,0.02172 0.2714996,0.06033 0.087522,0.03604 0.1468094,0.0839 0.2111664,0.150832 0.066928,0.06436 0.1423848,0.153811 0.1809999,0.241332 0.038611,0.08495 0.060331,0.176253 0.060333,0.271497 -1.8e-6,0.09783 -0.021721,0.183976 -0.060333,0.271497 -0.03604,0.08495 -0.083904,0.146812 -0.1508332,0.211166 -0.064356,0.06436 -0.1538111,0.142386 -0.2413331,0.180998 -0.087525,0.03604 -0.1736805,0.03017 -0.2714996,0.03017 -0.097822,10e-7 -0.1839772,0.0059 -0.2714997,-0.03017 C 4.1803234,16.202718 4.0882951,16.124687 4.0239402,16.060332 3.9595842,15.995972 3.9117199,15.934117 3.873107,15.849166 3.834494,15.761636 3.812774,15.67549 3.812774,15.577669 c -4e-7,-0.09782 0.024293,-0.186547 0.060333,-0.271497 0.038612,-0.08752 0.086478,-0.176975 0.1508332,-0.241332 0.06693,-0.06435 0.156383,-0.114791 0.2413332,-0.150833 0.087523,-0.03862 0.1736783,-0.06033 0.2714997,-0.06033 z M 16.211261,25.562759 c -0.151879,3e-6 -0.298771,0.05374 -0.422333,0.120666 -0.123563,0.06693 -0.211568,0.162659 -0.301667,0.301665 -0.08753,0.136434 -0.162257,0.30432 -0.211166,0.512828 -0.04891,0.205938 -0.06033,0.445982 -0.06033,0.723995 0,0.177621 0.014,0.338508 0.06033,0.482663 0.04891,0.141582 0.123643,0.264177 0.211166,0.361998 0.08753,0.09782 0.180679,0.157106 0.301667,0.211164 0.120987,0.05148 0.248009,0.0905 0.392166,0.0905 0.136433,0 0.273751,-0.01142 0.392166,-0.06033 0.118413,-0.04891 0.216715,-0.126217 0.301667,-0.211165 0.08753,-0.08495 0.162253,-0.188398 0.211167,-0.301664 0.05148,-0.115838 0.06033,-0.230713 0.06033,-0.361997 -2e-6,-0.12871 -0.01143,-0.248731 -0.06033,-0.361998 -0.04891,-0.113263 -0.126219,-0.219288 -0.211167,-0.301664 -0.08495,-0.08495 -0.185829,-0.134661 -0.301667,-0.180999 -0.113267,-0.0489 -0.230714,-0.09049 -0.361999,-0.09049 -0.175047,2e-6 -0.313493,0.06074 -0.4525,0.150832 -0.136434,0.0901 -0.245033,0.21012 -0.301666,0.361997 0,-0.187915 0.02429,-0.363525 0.06033,-0.512829 0.03862,-0.149303 0.08647,-0.291768 0.150833,-0.392164 0.06693,-0.10297 0.148661,-0.157105 0.241333,-0.211165 0.09267,-0.05406 0.1884,-0.0905 0.301666,-0.0905 0.144156,3e-6 0.273751,0.04087 0.392167,0.120666 0.118412,0.07723 0.220014,0.170381 0.271499,0.301664 l 0.150834,-0.150831 c -0.07465,-0.159607 -0.187678,-0.271906 -0.331832,-0.362005 -0.144159,-0.09009 -0.302473,-0.15083 -0.482666,-0.150832 z m -0.03017,1.146325 c 0.09525,2e-6 0.183974,0.02172 0.2715,0.06033 0.08753,0.03604 0.176976,0.08647 0.241332,0.150833 0.06436,0.06435 0.112218,0.153809 0.150833,0.241331 0.03862,0.08495 0.06033,0.173679 0.06033,0.271497 -2e-6,0.09782 -0.02172,0.183977 -0.06033,0.271498 -0.03604,0.08495 -0.0839,0.146812 -0.150833,0.211166 -0.06435,0.06435 -0.153811,0.142386 -0.241332,0.180998 -0.08495,0.03604 -0.173681,0.03017 -0.2715,0.03017 -0.09782,0 -0.183978,0.0059 -0.2715,-0.03017 -0.08495,-0.03862 -0.144237,-0.116643 -0.211167,-0.180998 -0.06435,-0.06693 -0.142387,-0.126216 -0.180999,-0.211166 -0.03862,-0.08495 -0.03017,-0.173677 -0.03017,-0.271498 -10e-7,-0.09782 -0.0059,-0.186547 0.03017,-0.271497 0.03862,-0.08753 0.08647,-0.176976 0.150833,-0.241331 0.06692,-0.06435 0.153809,-0.114792 0.241333,-0.150833 0.08753,-0.03862 0.173678,-0.06033 0.2715,-0.06033 z"
     id="text4045"
     style="font-style:normal;font-variant:normal;font-weight:normal;font-stretch:normal;font-size:4px;line-height:125%;font-family:Raleway;-inkscape-font-specification:Raleway;letter-spacing:0px;word-spacing:0px;opacity:0.4;fill:#000000;fill-opacity:1;stroke:none;stroke-width:0.6904785"
     inkscape:connector-curvature="0" />
  <path
     d="m 29.464468,16 c 0,7.43612 -6.028219,13.464284 -13.464374,13.464284 C 8.5639394,29.464284 2.5357198,23.43612 2.5357198,16 c 0,-7.4361181 6.0282196,-13.4642842 13.4643742,-13.4642842 7.436155,0 13.464374,6.0281661 13.464374,13.4642842 z"
     id="path3421"
     style="color:#000000;display:inline;overflow:visible;visibility:visible;fill:none;stroke:url(#linearGradient3221);stroke-width:0.69047844;stroke-linecap:round;stroke-linejoin:round;stroke-miterlimit:4;stroke-dasharray:none;stroke-dashoffset:0;stroke-opacity:1;marker:none;enable-background:accumulate"
     inkscape:connector-curvature="0" />
  <path
     d="m 16.516789,16.088171 a 0.51669463,0.51529338 0 1 1 -1.033389,0 0.51669463,0.51529338 0 1 1 1.033389,0 z"
     id="path4117"
     style="color:#000000;display:inline;overflow:visible;visibility:visible;fill:url(#radialGradient3139);fill-opacity:1;fill-rule:nonzero;stroke:none;stroke-width:0.86464816;marker:none;enable-background:accumulate"
     inkscape:connector-curvature="0" />
</svg>
