<?xml version="1.0" encoding="UTF-8" standalone="no"?>
<svg
   xmlns:dc="http://purl.org/dc/elements/1.1/"
   xmlns:cc="http://creativecommons.org/ns#"
   xmlns:rdf="http://www.w3.org/1999/02/22-rdf-syntax-ns#"
   xmlns:svg="http://www.w3.org/2000/svg"
   xmlns="http://www.w3.org/2000/svg"
   xmlns:xlink="http://www.w3.org/1999/xlink"
   xmlns:sodipodi="http://sodipodi.sourceforge.net/DTD/sodipodi-0.dtd"
   xmlns:inkscape="http://www.inkscape.org/namespaces/inkscape"
   inkscape:version="1.0 (4035a4fb49, 2020-05-01)"
   sodipodi:docname="com.github.johnfactotum.Foliate.svg"
   version="1.1"
   width="48"
   height="48"
   id="svg4045">
  <sodipodi:namedview
     inkscape:guide-bbox="true"
     showguides="true"
     inkscape:document-rotation="0"
     inkscape:current-layer="svg4045"
     inkscape:window-maximized="1"
     inkscape:window-y="30"
     inkscape:window-x="0"
     inkscape:cy="5.5906149"
     inkscape:cx="41.849789"
     inkscape:zoom="57.255394"
     showgrid="true"
     id="namedview62"
     inkscape:window-height="738"
     inkscape:window-width="1366"
     inkscape:pageshadow="2"
     inkscape:pageopacity="0"
     guidetolerance="10"
     gridtolerance="10"
     objecttolerance="10"
     borderopacity="1"
     bordercolor="#666666"
     pagecolor="#ffffff">
    <inkscape:grid
       id="grid867"
       type="xygrid" />
    <sodipodi:guide
       inkscape:color="rgb(0,0,255)"
       inkscape:locked="false"
       inkscape:label=""
       id="guide887"
       orientation="0,1"
       position="7.5,43.5" />
    <sodipodi:guide
       inkscape:color="rgb(0,0,255)"
       inkscape:locked="false"
       inkscape:label=""
       id="guide889"
       orientation="-1,0"
       position="7.5,44.5" />
  </sodipodi:namedview>
  <defs
     id="defs4047">
    <linearGradient
       id="linearGradient4405">
      <stop
         offset="0"
         style="stop-color:#ffffff;stop-opacity:1"
         id="stop4407" />
      <stop
         offset="0"
         style="stop-color:#ffffff;stop-opacity:0.23529412"
         id="stop4409" />
      <stop
         offset="1"
         style="stop-color:#ffffff;stop-opacity:0.15686275"
         id="stop4411" />
      <stop
         offset="1"
         style="stop-color:#ffffff;stop-opacity:0.39215687"
         id="stop4413" />
    </linearGradient>
    <linearGradient
       id="linearGradient2867-449-88-871-390-598-476-591-434-148-57-177-641-289-620-227-114-444-680-744-8">
      <stop
         id="stop5430-8"
         style="stop-color:#5f5f5f;stop-opacity:1"
         offset="0" />
      <stop
         id="stop5432-3"
         style="stop-color:#4f4f4f;stop-opacity:1"
         offset="0.26238" />
      <stop
         id="stop5434-1"
         style="stop-color:#3b3b3b;stop-opacity:1"
         offset="0.704952" />
      <stop
         id="stop5436-8"
         style="stop-color:#2b2b2b;stop-opacity:1"
         offset="1" />
    </linearGradient>
    <linearGradient
       id="linearGradient3707-319-631-407-324-616-674-812-821-107-178-392-400-6">
      <stop
         id="stop5440-4"
         style="stop-color:#272727;stop-opacity:1"
         offset="0" />
      <stop
         id="stop5442-3"
         style="stop-color:#454545;stop-opacity:1"
         offset="1" />
    </linearGradient>
    <linearGradient
       id="linearGradient2346">
      <stop
         id="stop2348"
         style="stop-color:#eeeeee;stop-opacity:1"
         offset="0" />
      <stop
         id="stop2350"
         style="stop-color:#d9d9da;stop-opacity:1"
         offset="1" />
    </linearGradient>
    <linearGradient
       id="linearGradient3707-319-631-407-324-616-674-812-821-107-178-392-400-6-2">
      <stop
         id="stop5440-4-8"
         style="stop-color:#272727;stop-opacity:1"
         offset="0" />
      <stop
         id="stop5442-3-8"
         style="stop-color:#454545;stop-opacity:1"
         offset="1" />
    </linearGradient>
    <radialGradient
       cx="4.9929786"
       cy="43.5"
       r="2.5"
       fx="4.9929786"
       fy="43.5"
       id="radialGradient3013"
       xlink:href="#linearGradient3688-166-749"
       gradientUnits="userSpaceOnUse"
       gradientTransform="matrix(2.003784,0,0,1.4,27.98813,-17.4)" />
    <linearGradient
       id="linearGradient3688-166-749">
      <stop
         id="stop2883"
         style="stop-color:#181818;stop-opacity:1"
         offset="0" />
      <stop
         id="stop2885"
         style="stop-color:#181818;stop-opacity:0"
         offset="1" />
    </linearGradient>
    <radialGradient
       cx="4.9929786"
       cy="43.5"
       r="2.5"
       fx="4.9929786"
       fy="43.5"
       id="radialGradient3015"
       xlink:href="#linearGradient3688-464-309"
       gradientUnits="userSpaceOnUse"
       gradientTransform="matrix(2.003784,0,0,1.4,-20.01187,-104.4)" />
    <linearGradient
       id="linearGradient3688-464-309">
      <stop
         id="stop2889"
         style="stop-color:#181818;stop-opacity:1"
         offset="0" />
      <stop
         id="stop2891"
         style="stop-color:#181818;stop-opacity:0"
         offset="1" />
    </linearGradient>
    <linearGradient
       id="linearGradient3702-501-757">
      <stop
         id="stop2895"
         style="stop-color:#181818;stop-opacity:0"
         offset="0" />
      <stop
         id="stop2897"
         style="stop-color:#181818;stop-opacity:1"
         offset="0.5" />
      <stop
         id="stop2899"
         style="stop-color:#181818;stop-opacity:0"
         offset="1" />
    </linearGradient>
    <linearGradient
       x1="25.058096"
       y1="47.027729"
       x2="25.058096"
       y2="39.999443"
       id="linearGradient4043"
       xlink:href="#linearGradient3702-501-757"
       gradientUnits="userSpaceOnUse" />
    <linearGradient
       x1="23.99999"
       y1="5.9743481"
       x2="23.99999"
       y2="42.025627"
       id="linearGradient3072"
       xlink:href="#linearGradient4405"
       gradientUnits="userSpaceOnUse"
       gradientTransform="matrix(0.89189189,0,0,1.0540541,2.5945964,-1.2972859)" />
    <radialGradient
       cx="7.4956832"
       cy="8.4497671"
       r="19.99999"
       fx="7.4956832"
       fy="8.4497671"
       id="radialGradient3075"
       xlink:href="#linearGradient2867-449-88-871-390-598-476-591-434-148-57-177-641-289-620-227-114-444-680-744-8"
       gradientUnits="userSpaceOnUse"
       gradientTransform="matrix(1.9428467e-8,2.4568358,-2.4722567,-4.5264291e-8,46.890103,-14.303252)" />
    <linearGradient
       x1="24"
       y1="44"
       x2="24"
       y2="3.8990016"
       id="linearGradient3077"
       xlink:href="#linearGradient3707-319-631-407-324-616-674-812-821-107-178-392-400-6"
       gradientUnits="userSpaceOnUse"
       gradientTransform="matrix(1,0,0,1.0512821,2.0000013,-1.2307699)" />
    <linearGradient
       x1="10.654308"
       y1="1"
       x2="10.654308"
       y2="3"
       id="linearGradient3085"
       xlink:href="#linearGradient2346"
       gradientUnits="userSpaceOnUse" />
    <linearGradient
       x1="24"
       y1="44"
       x2="24"
       y2="3.8990016"
       id="linearGradient3087"
       xlink:href="#linearGradient3707-319-631-407-324-616-674-812-821-107-178-392-400-6-2"
       gradientUnits="userSpaceOnUse"
       gradientTransform="matrix(1,0,0,0.10256346,2.0002611,0.03848905)" />
    <linearGradient
       id="linearGradient4280">
      <stop
         offset="0"
         style="stop-color:#9bdb4d;stop-opacity:1"
         id="stop4282" />
      <stop
         offset="1"
         style="stop-color:#68b723;stop-opacity:1"
         id="stop4284" />
    </linearGradient>
    <linearGradient
       id="linearGradient4323">
      <stop
         offset="0"
         style="stop-color:#fafafa;stop-opacity:1"
         id="stop4325" />
      <stop
         offset="1"
         style="stop-color:#d4d4d4;stop-opacity:1"
         id="stop4327" />
    </linearGradient>
    <linearGradient
       xlink:href="#linearGradient4280"
       id="linearGradient4336"
       gradientUnits="userSpaceOnUse"
       gradientTransform="translate(-63.839543,-9.1317816)"
       x1="86.432671"
       y1="12.492837"
       x2="86.432671"
       y2="53.684814" />
    <linearGradient
       xlink:href="#linearGradient4323"
       id="linearGradient4361"
       gradientUnits="userSpaceOnUse"
       gradientTransform="matrix(1.3484995,0,0,2.0418357,-62.554774,-14.650115)"
       x1="61.306068"
       y1="7.6589384"
       x2="61.306068"
       y2="8.5424805" />
  </defs>
  <metadata
     id="metadata4050">
    <rdf:RDF>
      <cc:Work
         rdf:about="">
        <dc:format>image/svg+xml</dc:format>
        <dc:type
           rdf:resource="http://purl.org/dc/dcmitype/StillImage" />
        <dc:title></dc:title>
      </cc:Work>
    </rdf:RDF>
  </metadata>
  <g
     transform="matrix(1.0526316,0,0,0.57142859,-1.2631579,19.142856)"
     id="g3712"
     style="opacity:0.4">
    <rect
       width="5"
       height="7"
       x="38"
       y="40"
       id="rect2801"
       style="fill:url(#radialGradient3013);fill-opacity:1;stroke:none" />
    <rect
       width="5"
       height="7"
       x="-10"
       y="-47"
       transform="scale(-1,-1)"
       id="rect3696"
       style="fill:url(#radialGradient3015);fill-opacity:1;stroke:none" />
    <rect
       width="28"
       height="7.0000005"
       x="10"
       y="40"
       id="rect3700"
       style="fill:url(#linearGradient4043);fill-opacity:1;stroke:none" />
  </g>
  <path
     sodipodi:nodetypes="cccc"
     d="M 40.838991,3.5 C 40.543588,2.5087814 40.727705,1.4453462 40.56455,0.49999976 H 10.324787 l 0.178478,3.00000004"
     id="path2723"
     style="color:#000000;clip-rule:nonzero;display:inline;overflow:visible;visibility:visible;opacity:1;isolation:auto;mix-blend-mode:normal;color-interpolation:sRGB;color-interpolation-filters:linearRGB;solid-color:#000000;solid-opacity:1;fill:url(#linearGradient4361);fill-opacity:1;fill-rule:nonzero;stroke:#206b00;stroke-width:1.0174;stroke-linecap:butt;stroke-linejoin:round;stroke-miterlimit:0;stroke-dasharray:none;stroke-dashoffset:0;stroke-opacity:0.498039;color-rendering:auto;image-rendering:auto;shape-rendering:auto;text-rendering:auto;enable-background:accumulate" />
  <path
     d="m 11.50026,4.4999996 -4.0000002,0 c -0.5708481,0 -1,-0.042333 -1,-0.09756 l 0,-2.7964211 c 0,-0.88791952 0.5590322,-1.10599346 1.2908943,-1.10599346 l 3.7091059,0"
     id="rect5505-21-3-9"
     style="color:#000000;fill:url(#linearGradient3085);fill-opacity:1;fill-rule:nonzero;stroke:url(#linearGradient3087);stroke-width:0.99999994;stroke-linecap:round;stroke-linejoin:round;stroke-miterlimit:4;stroke-opacity:1;stroke-dasharray:none;stroke-dashoffset:0;marker:none;visibility:visible;display:inline;overflow:visible;enable-background:accumulate" />
  <rect
     width="33.977596"
     height="40.980957"
     rx="1"
     ry="1"
     x="7.5128837"
     y="3.5095203"
     id="rect2719"
     style="fill:url(#linearGradient4336);fill-opacity:1;stroke:#206b00;stroke-width:1.01904094;stroke-linecap:round;stroke-linejoin:round;stroke-miterlimit:0;stroke-opacity:0.49803922;stroke-dasharray:none;stroke-dashoffset:0;display:inline;color:#000000;clip-rule:nonzero;overflow:visible;visibility:visible;opacity:1;isolation:auto;mix-blend-mode:normal;color-interpolation:sRGB;color-interpolation-filters:linearRGB;solid-color:#000000;solid-opacity:1;fill-rule:nonzero;filter-blend-mode:normal;filter-gaussianBlur-deviation:0;color-rendering:auto;image-rendering:auto;shape-rendering:auto;text-rendering:auto;enable-background:accumulate" />
  <path
     inkscape:connector-curvature="0"
     d="m 27,36 v -7.199994 l 2.017475,-4.247629 2.123777,-1.865023 2.131129,-0.65997 1.400043,0.385303 0.587231,0.640108 0.61769,0.238333 -0.61769,-0.238333 -0.587231,-0.640108 0.952032,-0.399379 0.849451,0.04111 0.519156,0.332016 -0.519156,-0.332016 0.709368,-0.275239 0.596,0.08407 -0.596,-0.08407 -0.709368,0.275239 -0.849451,-0.04111 0.460439,-0.681868 -0.460439,0.681868 -0.952032,0.399379 -1.400043,-0.385303 0.822408,-1.087917 0.942667,-0.223125 0.589176,-0.525369 -0.589176,0.525369 -0.942667,0.223125 0.07696,-0.748266 -0.07696,0.748266 -0.822408,1.087917 -2.131129,0.65997 0.867389,-1.819982 1.297587,-0.606835 0.78485,-9e-4 0.57734,0.275495 -0.57734,-0.275495 0.587526,-0.305158 -0.587526,0.305158 -0.78485,9e-4 0.413417,-0.828234 -0.413417,0.828234 -1.297587,0.606835 0.02725,-1.782178 0.977712,-1.133358 0.786228,-0.230805 -0.786228,0.230805 0.311078,-1.305528 0.697767,-0.571905 0.687958,-0.0021 -0.687958,0.0021 -0.697767,0.571905 -0.310167,-0.670325 0.310167,0.670325 -0.311078,1.305528 -0.977712,1.133358 -0.433282,-0.996506 -0.663901,-0.349599 0.663901,0.349599 0.433282,0.996506 -0.02725,1.782178 -0.867389,1.819982 -2.123777,1.865023 -0.391055,-2.371026 0.362428,-1.504254 0.723216,-0.744137 0.608502,-0.273042 -0.608502,0.273042 0.324951,-0.851364 0.649647,-0.434434 0.693359,0.07062 -0.693359,-0.07062 -0.649647,0.434434 -0.227621,-0.727377 0.227621,0.727377 -0.324951,0.851364 -0.723216,0.744137 -0.403422,-1.243295 0.240629,-1.039354 0.668476,-0.683009 -0.668476,0.683009 -0.09266,-0.647347 0.09266,0.647347 -0.240629,1.039354 -0.79008,-0.822854 -0.395088,-0.909521 0.173811,-0.813362 -0.173811,0.813362 0.395088,0.909521 -0.693106,-0.15897 0.693106,0.15897 0.79008,0.822854 0.403422,1.243295 -0.362428,1.504254 -1.060382,-1.291426 -0.236444,-0.808694 0.236444,0.808694 -1.077806,-0.614514 -0.280751,-0.661147 0.280751,0.661147 -0.90135,-0.102794 -0.532613,-0.365486 0.532613,0.365486 -0.540572,0.273923 0.540572,-0.273923 0.90135,0.102794 1.077806,0.614514 1.060382,1.291426 0.391055,2.371026 L 27,28.800006 25.028001,25.14999 l -0.428918,-3.2339 1.018192,-2.465949 1.183222,-1.059438 1.211924,-0.419646 0.623709,0.210531 -0.623709,-0.210531 0.80962,-0.75617 0.621878,-0.256448 -0.621878,0.256448 0.238169,-0.611059 -0.238169,0.611059 -0.80962,0.75617 -1.211924,0.419646 0.202142,-0.849412 -0.202142,0.849412 -1.183222,1.059438 -0.411468,-1.714461 0.466224,-1.095504 0.529344,-0.378371 -0.529344,0.378371 -0.03551,-0.664907 0.03551,0.664907 -0.466224,1.095504 -0.769003,-0.757968 -0.06827,-0.688544 0.06827,0.688544 -0.745772,-0.145283 -0.562015,0.242576 0.562015,-0.242576 0.745772,0.145283 0.769003,0.757968 0.411468,1.714461 -1.018192,2.465949 -1.581491,-1.961819 -0.254999,-1.638732 0.275122,-0.880608 0.499086,-0.557596 -0.499086,0.557596 -0.05813,-0.696304 0.277008,-0.548837 -0.277008,0.548837 0.05813,0.696304 -0.275122,0.880608 -0.928203,-0.827301 -0.334406,-0.708809 0.334406,0.708809 -0.898457,-0.273667 -0.804777,0.143229 -0.551172,0.372911 0.551172,-0.372911 0.804777,-0.143229 0.898457,0.273667 0.928203,0.827301 0.254999,1.638732 -2.178396,-0.482553 -1.037681,-1.042407 -0.264602,-1.012775 0.214076,-0.811893 0.49651,-0.458537 -0.49651,0.458537 -0.214076,0.811893 -0.538894,-0.520374 -0.09092,-0.60396 0.09092,0.60396 0.538894,0.520374 0.264602,1.012775 -0.783221,-0.351221 -0.397618,-0.567283 0.397618,0.567283 -0.637035,0.102646 0.637035,-0.102646 0.783221,0.351221 1.037681,1.042407 -1.618226,0.465974 -0.938238,-0.3913 -0.3592,-0.511182 0.3592,0.511182 0.938238,0.3913 -0.681196,0.535576 -0.75372,0.12963 0.75372,-0.12963 -0.192788,0.708665 0.192788,-0.708665 0.681196,-0.535576 1.618226,-0.465974 2.178396,0.482553 1.581491,1.961819 0.428918,3.2339 -2.922877,-1.663096 -1.049529,-2.74686 0.448921,-1.541105 0.690384,-0.798149 0.682709,-0.257401 0.594279,0.103045 -0.594279,-0.103045 -0.682709,0.257401 0.240997,-0.888246 0.412672,-0.516015 -0.412672,0.516015 -0.197051,-0.748814 0.197051,0.748814 -0.240997,0.888246 -0.690384,0.798149 -0.200614,-1.083541 -0.55464,-0.59207 -0.147901,-0.676314 0.147901,0.676314 -0.591898,-0.298324 0.591898,0.298324 0.55464,0.59207 0.200614,1.083541 -0.448921,1.541105 -1.534008,-1.301466 -0.64553,-1.432736 0.173125,-1.034614 -0.356956,-0.814014 -0.60004,-0.38002 -0.238949,-0.562273 0.238949,0.562273 0.60004,0.38002 0.356956,0.814014 -0.173125,1.034614 -0.793562,-0.464114 -0.338381,-0.74151 0.02432,-0.680137 0.40182,-0.448598 -0.40182,0.448598 -0.02432,0.680137 0.338381,0.74151 -0.630628,-0.06982 0.630628,0.06982 0.793562,0.464114 0.64553,1.432736 -1.748305,-0.336195 -0.869192,-0.750426 -0.416025,-0.788657 0.416025,0.788657 -0.710193,-0.123558 0.710193,0.123558 0.869192,0.750426 -0.971679,0.291291 -0.768756,-0.08401 0.768756,0.08401 -0.369746,0.500043 0.369746,-0.500043 0.971679,-0.291291 1.748305,0.336195 1.534008,1.301466 1.049529,2.74686 -2.259578,-0.345077 -1.139918,-0.749952 -0.553339,-0.980258 -0.007,-0.699585 0.007,0.699585 -0.545419,-0.371079 0.545419,0.371079 0.553339,0.980258 -0.909637,-0.06592 -0.473239,-0.379016 0.473239,0.379016 0.909637,0.06592 1.139918,0.749952 -1.430503,0.570525 -1.170846,-0.173521 -0.747423,-0.485524 -0.742075,0.06715 0.742075,-0.06715 0.747423,0.485524 -0.768783,0.33909 -0.662254,-0.0061 0.662254,0.0061 0.768783,-0.33909 1.170846,0.173521 -0.566619,0.905483 -0.690621,0.485197 0.690621,-0.485197 0.566619,-0.905483 1.430503,-0.570525 2.259578,0.345077 2.922877,1.663096 L 27,28.800006 V 36"
     style="opacity:0.3;fill:none;fill-opacity:1;stroke:#206b00;stroke-width:2;stroke-linecap:butt;stroke-linejoin:miter;stroke-opacity:1"
     id="path879" />
  <path
     d="m 11.5,3.4999998 c 0,0 0,28.5091172 0,41.0000002 l -4,0 c -0.5708481,0 -1,-0.43395 -1,-1 l 0,-40.0000002 z"
     id="rect5505-21-3"
     style="color:#000000;fill:url(#radialGradient3075);fill-opacity:1;fill-rule:nonzero;stroke:url(#linearGradient3077);stroke-width:1;stroke-linecap:round;stroke-linejoin:round;stroke-miterlimit:4;stroke-opacity:1;stroke-dasharray:none;stroke-dashoffset:0;marker:none;visibility:visible;display:inline;overflow:visible;enable-background:accumulate" />
  <rect
     width="33"
     height="39"
     x="7.5"
     y="4.5"
     id="rect6741-0"
     style="opacity:0.3;fill:none;stroke:url(#linearGradient3072);stroke-width:1;stroke-linecap:round;stroke-linejoin:round;stroke-miterlimit:4;stroke-dasharray:none;stroke-dashoffset:0;stroke-opacity:1" />
  <path
     id="path875"
     style="fill:none;fill-opacity:1;stroke:#d1ff82;stroke-width:1;stroke-linecap:butt;stroke-linejoin:miter;stroke-opacity:1"
     d="m 27,36 v -7.199994 l 2.017475,-4.247629 2.123777,-1.865023 2.131129,-0.65997 1.400043,0.385303 0.587231,0.640108 0.61769,0.238333 -0.61769,-0.238333 -0.587231,-0.640108 0.952032,-0.399379 0.849451,0.04111 0.519156,0.332016 -0.519156,-0.332016 0.709368,-0.275239 0.596,0.08407 -0.596,-0.08407 -0.709368,0.275239 -0.849451,-0.04111 0.460439,-0.681868 -0.460439,0.681868 -0.952032,0.399379 -1.400043,-0.385303 0.822408,-1.087917 0.942667,-0.223125 0.589176,-0.525369 -0.589176,0.525369 -0.942667,0.223125 0.07696,-0.748266 -0.07696,0.748266 -0.822408,1.087917 -2.131129,0.65997 0.867389,-1.819982 1.297587,-0.606835 0.78485,-9e-4 0.57734,0.275495 -0.57734,-0.275495 0.587526,-0.305158 -0.587526,0.305158 -0.78485,9e-4 0.413417,-0.828234 -0.413417,0.828234 -1.297587,0.606835 0.02725,-1.782178 0.977712,-1.133358 0.786228,-0.230805 -0.786228,0.230805 0.311078,-1.305528 0.697767,-0.571905 0.687958,-0.0021 -0.687958,0.0021 -0.697767,0.571905 -0.310167,-0.670325 0.310167,0.670325 -0.311078,1.305528 -0.977712,1.133358 -0.433282,-0.996506 -0.663901,-0.349599 0.663901,0.349599 0.433282,0.996506 -0.02725,1.782178 -0.867389,1.819982 -2.123777,1.865023 -0.391055,-2.371026 0.362428,-1.504254 0.723216,-0.744137 0.608502,-0.273042 -0.608502,0.273042 0.324951,-0.851364 0.649647,-0.434434 0.693359,0.07062 -0.693359,-0.07062 -0.649647,0.434434 -0.227621,-0.727377 0.227621,0.727377 -0.324951,0.851364 -0.723216,0.744137 -0.403422,-1.243295 0.240629,-1.039354 0.668476,-0.683009 -0.668476,0.683009 -0.09266,-0.647347 0.09266,0.647347 -0.240629,1.039354 -0.79008,-0.822854 -0.395088,-0.909521 0.173811,-0.813362 -0.173811,0.813362 0.395088,0.909521 -0.693106,-0.15897 0.693106,0.15897 0.79008,0.822854 0.403422,1.243295 -0.362428,1.504254 -1.060382,-1.291426 -0.236444,-0.808694 0.236444,0.808694 -1.077806,-0.614514 -0.280751,-0.661147 0.280751,0.661147 -0.90135,-0.102794 -0.532613,-0.365486 0.532613,0.365486 -0.540572,0.273923 0.540572,-0.273923 0.90135,0.102794 1.077806,0.614514 1.060382,1.291426 0.391055,2.371026 L 27,28.800006 25.028001,25.14999 l -0.428918,-3.2339 1.018192,-2.465949 1.183222,-1.059438 1.211924,-0.419646 0.623709,0.210531 -0.623709,-0.210531 0.80962,-0.75617 0.621878,-0.256448 -0.621878,0.256448 0.238169,-0.611059 -0.238169,0.611059 -0.80962,0.75617 -1.211924,0.419646 0.202142,-0.849412 -0.202142,0.849412 -1.183222,1.059438 -0.411468,-1.714461 0.466224,-1.095504 0.529344,-0.378371 -0.529344,0.378371 -0.03551,-0.664907 0.03551,0.664907 -0.466224,1.095504 -0.769003,-0.757968 -0.06827,-0.688544 0.06827,0.688544 -0.745772,-0.145283 -0.562015,0.242576 0.562015,-0.242576 0.745772,0.145283 0.769003,0.757968 0.411468,1.714461 -1.018192,2.465949 -1.581491,-1.961819 -0.254999,-1.638732 0.275122,-0.880608 0.499086,-0.557596 -0.499086,0.557596 -0.05813,-0.696304 0.277008,-0.548837 -0.277008,0.548837 0.05813,0.696304 -0.275122,0.880608 -0.928203,-0.827301 -0.334406,-0.708809 0.334406,0.708809 -0.898457,-0.273667 -0.804777,0.143229 -0.551172,0.372911 0.551172,-0.372911 0.804777,-0.143229 0.898457,0.273667 0.928203,0.827301 0.254999,1.638732 -2.178396,-0.482553 -1.037681,-1.042407 -0.264602,-1.012775 0.214076,-0.811893 0.49651,-0.458537 -0.49651,0.458537 -0.214076,0.811893 -0.538894,-0.520374 -0.09092,-0.60396 0.09092,0.60396 0.538894,0.520374 0.264602,1.012775 -0.783221,-0.351221 -0.397618,-0.567283 0.397618,0.567283 -0.637035,0.102646 0.637035,-0.102646 0.783221,0.351221 1.037681,1.042407 -1.618226,0.465974 -0.938238,-0.3913 -0.3592,-0.511182 0.3592,0.511182 0.938238,0.3913 -0.681196,0.535576 -0.75372,0.12963 0.75372,-0.12963 -0.192788,0.708665 0.192788,-0.708665 0.681196,-0.535576 1.618226,-0.465974 2.178396,0.482553 1.581491,1.961819 0.428918,3.2339 -2.922877,-1.663096 -1.049529,-2.74686 0.448921,-1.541105 0.690384,-0.798149 0.682709,-0.257401 0.594279,0.103045 -0.594279,-0.103045 -0.682709,0.257401 0.240997,-0.888246 0.412672,-0.516015 -0.412672,0.516015 -0.197051,-0.748814 0.197051,0.748814 -0.240997,0.888246 -0.690384,0.798149 -0.200614,-1.083541 -0.55464,-0.59207 -0.147901,-0.676314 0.147901,0.676314 -0.591898,-0.298324 0.591898,0.298324 0.55464,0.59207 0.200614,1.083541 -0.448921,1.541105 -1.534008,-1.301466 -0.64553,-1.432736 0.173125,-1.034614 -0.356956,-0.814014 -0.60004,-0.38002 -0.238949,-0.562273 0.238949,0.562273 0.60004,0.38002 0.356956,0.814014 -0.173125,1.034614 -0.793562,-0.464114 -0.338381,-0.74151 0.02432,-0.680137 0.40182,-0.448598 -0.40182,0.448598 -0.02432,0.680137 0.338381,0.74151 -0.630628,-0.06982 0.630628,0.06982 0.793562,0.464114 0.64553,1.432736 -1.748305,-0.336195 -0.869192,-0.750426 -0.416025,-0.788657 0.416025,0.788657 -0.710193,-0.123558 0.710193,0.123558 0.869192,0.750426 -0.971679,0.291291 -0.768756,-0.08401 0.768756,0.08401 -0.369746,0.500043 0.369746,-0.500043 0.971679,-0.291291 1.748305,0.336195 1.534008,1.301466 1.049529,2.74686 -2.259578,-0.345077 -1.139918,-0.749952 -0.553339,-0.980258 -0.007,-0.699585 0.007,0.699585 -0.545419,-0.371079 0.545419,0.371079 0.553339,0.980258 -0.909637,-0.06592 -0.473239,-0.379016 0.473239,0.379016 0.909637,0.06592 1.139918,0.749952 -1.430503,0.570525 -1.170846,-0.173521 -0.747423,-0.485524 -0.742075,0.06715 0.742075,-0.06715 0.747423,0.485524 -0.768783,0.33909 -0.662254,-0.0061 0.662254,0.0061 0.768783,-0.33909 1.170846,0.173521 -0.566619,0.905483 -0.690621,0.485197 0.690621,-0.485197 0.566619,-0.905483 1.430503,-0.570525 2.259578,0.345077 2.922877,1.663096 L 27,28.800006 V 36"
     inkscape:connector-curvature="0" />
  <path
     id="path877"
     style="fill:none;fill-opacity:1;stroke:#206b00;stroke-width:1;stroke-linecap:butt;stroke-linejoin:miter;stroke-opacity:1"
     d="m 27,35 v -7.199994 l 2.017475,-4.247629 2.123777,-1.865023 2.131129,-0.65997 1.400043,0.385303 0.587231,0.640108 0.61769,0.238333 -0.61769,-0.238333 -0.587231,-0.640108 0.952032,-0.399379 0.849451,0.04111 0.519156,0.332016 -0.519156,-0.332016 0.709368,-0.275239 0.596,0.08407 -0.596,-0.08407 -0.709368,0.275239 -0.849451,-0.04111 0.460439,-0.681868 -0.460439,0.681868 -0.952032,0.399379 -1.400043,-0.385303 0.822408,-1.087917 0.942667,-0.223125 0.589176,-0.525369 -0.589176,0.525369 -0.942667,0.223125 0.07696,-0.748266 -0.07696,0.748266 -0.822408,1.087917 -2.131129,0.65997 0.867389,-1.819982 1.297587,-0.606835 0.78485,-9e-4 0.57734,0.275495 -0.57734,-0.275495 0.587526,-0.305158 -0.587526,0.305158 -0.78485,9e-4 0.413417,-0.828234 -0.413417,0.828234 -1.297587,0.606835 0.02725,-1.782178 0.977712,-1.133358 0.786228,-0.230805 -0.786228,0.230805 0.311078,-1.305528 0.697767,-0.571905 0.687958,-0.0021 -0.687958,0.0021 -0.697767,0.571905 -0.310167,-0.670325 0.310167,0.670325 -0.311078,1.305528 -0.977712,1.133358 -0.433282,-0.996506 -0.663901,-0.349599 0.663901,0.349599 0.433282,0.996506 -0.02725,1.782178 -0.867389,1.819982 -2.123777,1.865023 -0.391055,-2.371026 0.362428,-1.504254 0.723216,-0.744137 0.608502,-0.273042 -0.608502,0.273042 0.324951,-0.851364 0.649647,-0.434434 0.693359,0.07062 -0.693359,-0.07062 -0.649647,0.434434 -0.227621,-0.727377 0.227621,0.727377 -0.324951,0.851364 -0.723216,0.744137 -0.403422,-1.243295 0.240629,-1.039354 0.668476,-0.683009 -0.668476,0.683009 -0.09266,-0.647347 0.09266,0.647347 -0.240629,1.039354 -0.79008,-0.822854 -0.395088,-0.909521 0.173811,-0.813362 -0.173811,0.813362 0.395088,0.909521 -0.693106,-0.15897 0.693106,0.15897 0.79008,0.822854 0.403422,1.243295 -0.362428,1.504254 -1.060382,-1.291426 -0.236444,-0.808694 0.236444,0.808694 -1.077806,-0.614514 -0.280751,-0.661147 0.280751,0.661147 -0.90135,-0.102794 -0.532613,-0.365486 0.532613,0.365486 -0.540572,0.273923 0.540572,-0.273923 0.90135,0.102794 1.077806,0.614514 1.060382,1.291426 0.391055,2.371026 L 27,27.800006 25.028001,24.14999 l -0.428918,-3.2339 1.018192,-2.465949 1.183222,-1.059438 1.211924,-0.419646 0.623709,0.210531 -0.623709,-0.210531 0.80962,-0.75617 0.621878,-0.256448 -0.621878,0.256448 0.238169,-0.611059 -0.238169,0.611059 -0.80962,0.75617 -1.211924,0.419646 0.202142,-0.849412 -0.202142,0.849412 -1.183222,1.059438 -0.411468,-1.714461 0.466224,-1.095504 0.529344,-0.378371 -0.529344,0.378371 -0.03551,-0.664907 0.03551,0.664907 -0.466224,1.095504 -0.769003,-0.757968 -0.06827,-0.688544 0.06827,0.688544 -0.745772,-0.145283 -0.562015,0.242576 0.562015,-0.242576 0.745772,0.145283 0.769003,0.757968 0.411468,1.714461 -1.018192,2.465949 -1.581491,-1.961819 -0.254999,-1.638732 0.275122,-0.880608 0.499086,-0.557596 -0.499086,0.557596 -0.05813,-0.696304 0.277008,-0.548837 -0.277008,0.548837 0.05813,0.696304 -0.275122,0.880608 -0.928203,-0.827301 -0.334406,-0.708809 0.334406,0.708809 -0.898457,-0.273667 -0.804777,0.143229 -0.551172,0.372911 0.551172,-0.372911 0.804777,-0.143229 0.898457,0.273667 0.928203,0.827301 0.254999,1.638732 -2.178396,-0.482553 -1.037681,-1.042407 -0.264602,-1.012775 0.214076,-0.811893 0.49651,-0.458537 -0.49651,0.458537 -0.214076,0.811893 -0.538894,-0.520374 -0.09092,-0.60396 0.09092,0.60396 0.538894,0.520374 0.264602,1.012775 -0.783221,-0.351221 -0.397618,-0.567283 0.397618,0.567283 -0.637035,0.102646 0.637035,-0.102646 0.783221,0.351221 1.037681,1.042407 -1.618226,0.465974 -0.938238,-0.3913 -0.3592,-0.511182 0.3592,0.511182 0.938238,0.3913 -0.681196,0.535576 -0.75372,0.12963 0.75372,-0.12963 -0.192788,0.708665 0.192788,-0.708665 0.681196,-0.535576 1.618226,-0.465974 2.178396,0.482553 1.581491,1.961819 0.428918,3.2339 -2.922877,-1.663096 -1.049529,-2.74686 0.448921,-1.541105 0.690384,-0.798149 0.682709,-0.257401 0.594279,0.103045 -0.594279,-0.103045 -0.682709,0.257401 0.240997,-0.888246 0.412672,-0.516015 -0.412672,0.516015 -0.197051,-0.748814 0.197051,0.748814 -0.240997,0.888246 -0.690384,0.798149 -0.200614,-1.083541 -0.55464,-0.59207 -0.147901,-0.676314 0.147901,0.676314 -0.591898,-0.298324 0.591898,0.298324 0.55464,0.59207 0.200614,1.083541 -0.448921,1.541105 -1.534008,-1.301466 -0.64553,-1.432736 0.173125,-1.034614 -0.356956,-0.814014 -0.60004,-0.38002 -0.238949,-0.562273 0.238949,0.562273 0.60004,0.38002 0.356956,0.814014 -0.173125,1.034614 -0.793562,-0.464114 -0.338381,-0.74151 0.02432,-0.680137 0.40182,-0.448598 -0.40182,0.448598 -0.02432,0.680137 0.338381,0.74151 -0.630628,-0.06982 0.630628,0.06982 0.793562,0.464114 0.64553,1.432736 -1.748305,-0.336195 -0.869192,-0.750426 -0.416025,-0.788657 0.416025,0.788657 -0.710193,-0.123558 0.710193,0.123558 0.869192,0.750426 -0.971679,0.291291 -0.768756,-0.08401 0.768756,0.08401 -0.369746,0.500043 0.369746,-0.500043 0.971679,-0.291291 1.748305,0.336195 1.534008,1.301466 1.049529,2.74686 -2.259578,-0.345077 -1.139918,-0.749952 -0.553339,-0.980258 -0.007,-0.699585 0.007,0.699585 -0.545419,-0.371079 0.545419,0.371079 0.553339,0.980258 -0.909637,-0.06592 -0.473239,-0.379016 0.473239,0.379016 0.909637,0.06592 1.139918,0.749952 -1.430503,0.570525 -1.170846,-0.173521 -0.747423,-0.485524 -0.742075,0.06715 0.742075,-0.06715 0.747423,0.485524 -0.768783,0.33909 -0.662254,-0.0061 0.662254,0.0061 0.768783,-0.33909 1.170846,0.173521 -0.566619,0.905483 -0.690621,0.485197 0.690621,-0.485197 0.566619,-0.905483 1.430503,-0.570525 2.259578,0.345077 2.922877,1.663096 L 27,27.800006 V 35"
     inkscape:connector-curvature="0" />
</svg>
