<?xml version="1.0" encoding="UTF-8" standalone="no"?>
<!-- Created with Inkscape (http://www.inkscape.org/) -->

<svg
   xmlns:dc="http://purl.org/dc/elements/1.1/"
   xmlns:cc="http://creativecommons.org/ns#"
   xmlns:rdf="http://www.w3.org/1999/02/22-rdf-syntax-ns#"
   xmlns:svg="http://www.w3.org/2000/svg"
   xmlns="http://www.w3.org/2000/svg"
   xmlns:xlink="http://www.w3.org/1999/xlink"
   xmlns:sodipodi="http://sodipodi.sourceforge.net/DTD/sodipodi-0.dtd"
   xmlns:inkscape="http://www.inkscape.org/namespaces/inkscape"
   width="48px"
   height="48px"
   id="svg4951"
   version="1.1"
   inkscape:version="0.92.4 5da689c313, 2019-01-14"
   sodipodi:docname="deepin-picker.svg">
  <defs
     id="defs4953">
    <linearGradient
       id="linearGradient6088-6-1-0">
      <stop
         style="stop-color:#ff54d2;stop-opacity:0;"
         offset="0"
         id="stop6090-2-0-4" />
      <stop
         id="stop6257-4-6-1"
         offset="0.32368398"
         style="stop-color:#ff54d2;stop-opacity:0;" />
      <stop
         id="stop6255-3-6-7"
         offset="0.56140333"
         style="stop-color:#ff54d2;stop-opacity:0.2521739;" />
      <stop
         style="stop-color:#ff54d2;stop-opacity:0.47826087;"
         offset="1"
         id="stop6092-9-6-8" />
    </linearGradient>
    <linearGradient
       id="linearGradient6191-8-3-4">
      <stop
         id="stop6193-75-7-6"
         offset="0"
         style="stop-color:#ffffff;stop-opacity:0;" />
      <stop
         style="stop-color:#ffffff;stop-opacity:0"
         offset="0.40531859"
         id="stop6197-3-4-1" />
      <stop
         id="stop6195-7-2-5"
         offset="1"
         style="stop-color:#ffffff;stop-opacity:0.47826087;" />
    </linearGradient>
    <linearGradient
       id="linearGradient6191-7-9-4">
      <stop
         id="stop6193-7-3-6"
         offset="0"
         style="stop-color:#ffffff;stop-opacity:0;" />
      <stop
         style="stop-color:#ffffff;stop-opacity:0"
         offset="0.40531859"
         id="stop6197-2-2-0" />
      <stop
         id="stop6195-2-1-9"
         offset="1"
         style="stop-color:#ffffff;stop-opacity:0.47826087;" />
    </linearGradient>
    <linearGradient
       id="linearGradient6191-9-9">
      <stop
         id="stop6193-8-1"
         offset="0"
         style="stop-color:#ffffff;stop-opacity:0;" />
      <stop
         style="stop-color:#ffffff;stop-opacity:0"
         offset="0.40531859"
         id="stop6197-8-8" />
      <stop
         id="stop6195-9-3"
         offset="1"
         style="stop-color:#ffffff;stop-opacity:0.47826087;" />
    </linearGradient>
    <linearGradient
       id="linearGradient3990-3-1-7">
      <stop
         id="stop3992-0-0-1"
         style="stop-color:#ffffff;stop-opacity:1"
         offset="0" />
      <stop
         id="stop3994-2-1-8"
         style="stop-color:#ffffff;stop-opacity:0"
         offset="1" />
    </linearGradient>
    <linearGradient
       id="linearGradient4316-4-6-6-4">
      <stop
         offset="0"
         style="stop-color:#ffffff;stop-opacity:1"
         id="stop4318-4-4-6-5" />
      <stop
         offset="0.33799788"
         style="stop-color:#ffffff;stop-opacity:0.23529412"
         id="stop4320-2-2-6-59" />
      <stop
         offset="0.61996669"
         style="stop-color:#ffffff;stop-opacity:0.15686275"
         id="stop4322-4-5-5-0" />
      <stop
         offset="1"
         style="stop-color:#ffffff;stop-opacity:0.39215687"
         id="stop4324-4-1-5-5" />
    </linearGradient>
    <linearGradient
       id="linearGradient6088-74-4">
      <stop
         style="stop-color:#ff54d2;stop-opacity:0;"
         offset="0"
         id="stop6090-5-66" />
      <stop
         id="stop6257-5-4"
         offset="0.32368398"
         style="stop-color:#f62b68;stop-opacity:1" />
      <stop
         id="stop6255-6-7"
         offset="0.56140333"
         style="stop-color:#ff0105;stop-opacity:1" />
      <stop
         style="stop-color:#ff54d2;stop-opacity:0.47826087;"
         offset="1"
         id="stop6092-0-22" />
    </linearGradient>
    <linearGradient
       id="linearGradient4316-4-0-7">
      <stop
         offset="0"
         style="stop-color:#ffffff;stop-opacity:1"
         id="stop4318-4-5-3" />
      <stop
         offset="0.33799788"
         style="stop-color:#ffffff;stop-opacity:0.23529412"
         id="stop4320-2-9-4" />
      <stop
         offset="0.61996669"
         style="stop-color:#ffffff;stop-opacity:0.15686275"
         id="stop4322-4-1-3" />
      <stop
         offset="1"
         style="stop-color:#ffffff;stop-opacity:0.39215687"
         id="stop4324-4-8-66" />
    </linearGradient>
    <linearGradient
       id="linearGradient4278-3-5">
      <stop
         id="stop4280-6-90"
         style="stop-color:#000000;stop-opacity:0"
         offset="0" />
      <stop
         id="stop4286-1-9"
         style="stop-color:#000000;stop-opacity:0"
         offset="0.5" />
      <stop
         id="stop4282-24-4"
         style="stop-color:#000000;stop-opacity:1"
         offset="1" />
    </linearGradient>
    <linearGradient
       id="linearGradient2867-449-88-871-390-598-476-591-434-148-57-177-691-4-22">
      <stop
         id="stop7191-4-6"
         style="stop-color:#612f91;stop-opacity:1"
         offset="0" />
      <stop
         id="stop7197-2-8"
         style="stop-color:#1a4aa2;stop-opacity:1"
         offset="1" />
    </linearGradient>
    <linearGradient
       x1="7.0776"
       y1="3.0816"
       x2="7.0776"
       y2="45.368999"
       id="linearGradient3087-408-5-3"
       gradientUnits="userSpaceOnUse"
       gradientTransform="matrix(0.22110724,0,0,0.22110728,6.6934256,6.693263)">
      <stop
         id="stop7201-5-71"
         style="stop-color:#170418;stop-opacity:1"
         offset="0" />
      <stop
         id="stop7203-2-8"
         style="stop-color:#50386b;stop-opacity:1"
         offset="1" />
    </linearGradient>
    <linearGradient
       id="linearGradient6042-1-7">
      <stop
         id="stop6044-9-6"
         offset="0"
         style="stop-color:#07132d;stop-opacity:1" />
      <stop
         id="stop6046-9-5"
         offset="1"
         style="stop-color:#425479;stop-opacity:1;" />
    </linearGradient>
    <linearGradient
       id="linearGradient4507-6-5">
      <stop
         style="stop-color:#2d3955;stop-opacity:1"
         offset="0"
         id="stop4509-3-8" />
      <stop
         id="stop5959-4-45"
         offset="0.72468865"
         style="stop-color:#2b3853;stop-opacity:1" />
      <stop
         style="stop-color:#192640;stop-opacity:1;"
         offset="0.75"
         id="stop5961-1-7" />
      <stop
         style="stop-color:#08142e;stop-opacity:1"
         offset="1"
         id="stop4511-1-0" />
    </linearGradient>
    <linearGradient
       id="linearGradient4316-5-3">
      <stop
         offset="0"
         style="stop-color:#ffffff;stop-opacity:1"
         id="stop4318-1-6" />
      <stop
         offset="0.33799788"
         style="stop-color:#ffffff;stop-opacity:0.23529412"
         id="stop4320-9-8" />
      <stop
         offset="0.61996669"
         style="stop-color:#ffffff;stop-opacity:0.15686275"
         id="stop4322-42-31" />
      <stop
         offset="1"
         style="stop-color:#ffffff;stop-opacity:0.39215687"
         id="stop4324-9-9" />
    </linearGradient>
    <linearGradient
       id="linearGradient4164-9">
      <stop
         style="stop-color:#b6b6b6;stop-opacity:1;"
         offset="0"
         id="stop4166-3" />
      <stop
         id="stop4216-6"
         offset="0.33095336"
         style="stop-color:#a4a4a4;stop-opacity:1;" />
      <stop
         style="stop-color:#c5c5c5;stop-opacity:1;"
         offset="1"
         id="stop4168-0" />
    </linearGradient>
    <linearGradient
       inkscape:collect="always"
       xlink:href="#linearGradient4806-2"
       id="linearGradient3177"
       gradientUnits="userSpaceOnUse"
       gradientTransform="matrix(1.6169806,0,0,1.6169806,-92.707374,-21.060237)"
       x1="71.204407"
       y1="15.369057"
       x2="71.204407"
       y2="40.495617" />
    <linearGradient
       id="linearGradient4806-2">
      <stop
         id="stop4808-4"
         style="stop-color:#ffffff;stop-opacity:1"
         offset="0" />
      <stop
         id="stop4810-0"
         style="stop-color:#ffffff;stop-opacity:0.23529412"
         offset="0.42447853" />
      <stop
         id="stop4812-8"
         style="stop-color:#ffffff;stop-opacity:0.15686275"
         offset="0.82089913" />
      <stop
         id="stop4814-0"
         style="stop-color:#ffffff;stop-opacity:0.39215687"
         offset="1" />
    </linearGradient>
    <radialGradient
       r="20.396999"
       fy="3.99"
       fx="23.896"
       cy="3.99"
       cx="23.896"
       gradientTransform="matrix(0,2.8885219,-3.8127977,0,39.21344,-65.949504)"
       gradientUnits="userSpaceOnUse"
       id="radialGradient4201"
       xlink:href="#radialGradient3093-0-3-6-6"
       inkscape:collect="always" />
    <radialGradient
       gradientTransform="matrix(0,1.2316483,-1.625754,0,18.486966,-28.721977)"
       gradientUnits="userSpaceOnUse"
       id="radialGradient3093-0-3-6-6"
       r="20.396999"
       cy="3.99"
       cx="23.896">
      <stop
         offset="0"
         style="stop-color:#ffffff;stop-opacity:1"
         id="stop3244-9-33-7-0-9" />
      <stop
         offset="0.26238"
         style="stop-color:#dddddd;stop-opacity:1"
         id="stop3246-3-5-0-8-5" />
      <stop
         offset="0.66093999"
         style="stop-color:#abacae;stop-opacity:1"
         id="stop3248-1-7-8-8-1" />
      <stop
         offset="1"
         style="stop-color:#89898b;stop-opacity:1"
         id="stop3250-9-3-0-5-1" />
    </radialGradient>
    <linearGradient
       id="linearGradient3820-7-2-1">
      <stop
         id="stop3822-2-6-3"
         style="stop-color:#3d3d3d;stop-opacity:1"
         offset="0" />
      <stop
         id="stop3864-8-7-7"
         style="stop-color:#686868;stop-opacity:0.49803922"
         offset="0.5" />
      <stop
         id="stop3824-1-2-5"
         style="stop-color:#686868;stop-opacity:0"
         offset="1" />
    </linearGradient>
    <radialGradient
       r="62.769119"
       fy="186.17059"
       fx="99.157013"
       cy="186.17059"
       cx="99.157013"
       gradientTransform="matrix(0.27083381,0,0,0.08762273,-2.85507,25.187228)"
       gradientUnits="userSpaceOnUse"
       id="radialGradient4949"
       xlink:href="#linearGradient3820-7-2-1"
       inkscape:collect="always" />
  </defs>
  <sodipodi:namedview
     id="base"
     pagecolor="#ffffff"
     bordercolor="#666666"
     borderopacity="1.0"
     inkscape:pageopacity="0.0"
     inkscape:pageshadow="2"
     inkscape:zoom="4.9497475"
     inkscape:cx="39.685646"
     inkscape:cy="18.519483"
     inkscape:current-layer="layer1"
     showgrid="true"
     inkscape:grid-bbox="true"
     inkscape:document-units="px"
     inkscape:window-width="1280"
     inkscape:window-height="754"
     inkscape:window-x="0"
     inkscape:window-y="24"
     inkscape:window-maximized="1" />
  <metadata
     id="metadata4956">
    <rdf:RDF>
      <cc:Work
         rdf:about="">
        <dc:format>image/svg+xml</dc:format>
        <dc:type
           rdf:resource="http://purl.org/dc/dcmitype/StillImage" />
        <dc:title></dc:title>
      </cc:Work>
    </rdf:RDF>
  </metadata>
  <g
     id="layer1"
     inkscape:label="Layer 1"
     inkscape:groupmode="layer">
    <path
       inkscape:connector-curvature="0"
       style="fill:url(#radialGradient4949);fill-opacity:1;stroke:none"
       id="path3818-0-5"
       d="m 41,41.5 a 17,5.4999999 0 0 1 -34,0 17,5.4999999 0 1 1 34,0 z" />
    <path
       d="M 24,3.5000009 C 12.68881,3.5000009 3.5,12.688807 3.5,24 3.5,35.311193 12.68881,44.500003 24,44.5 35.31119,44.5 44.50001,35.311193 44.5,24 44.5,12.688807 35.31119,3.5000009 24,3.5000009 z"
       inkscape:connector-curvature="0"
       id="path2555-7-2"
       style="color:#000000;fill:url(#radialGradient4201);fill-opacity:1;fill-rule:nonzero;stroke:none;stroke-width:0.99999994;marker:none;visibility:visible;display:inline;overflow:visible;enable-background:accumulate" />
    <path
       inkscape:connector-curvature="0"
       style="opacity:0.8;color:#000000;fill:none;stroke:url(#linearGradient3177);stroke-width:1;stroke-linecap:round;stroke-linejoin:round;stroke-miterlimit:4;stroke-opacity:1;stroke-dasharray:none;stroke-dashoffset:0;marker:none;visibility:visible;display:inline;overflow:visible;enable-background:accumulate"
       d="M 43.5,24.000001 C 43.5,34.76955 34.76954,43.5 23.99999,43.5 13.23045,43.5 4.5,34.76955 4.5,24.000001 4.5,13.23045 13.23045,4.5000019 23.99999,4.5000019 34.76954,4.5000019 43.5,13.23045 43.5,24.000001 z"
       id="path4176" />
    <path
       inkscape:connector-curvature="0"
       style="opacity:0.29999999999999999;color:#000000;fill:none;stroke:#000000;stroke-width:1;marker:none;visibility:visible;display:inline;overflow:visible;enable-background:accumulate;stroke-opacity:1"
       d="M 24,3.4999999 C 12.68881,3.4999999 3.5,12.688806 3.5,23.999999 3.5,35.31119 12.68881,44.5 24,44.5 35.31119,44.5 44.50001,35.31119 44.5,23.999999 44.5,12.688806 35.31119,3.4999999 24,3.4999999 z"
       id="path3871" />
    <g
       id="g933"
       transform="matrix(0.88635904,0,0,0.88635904,2.8042371,2.4936942)">
      <g
         transform="matrix(1.6923077,0,0,1.6923077,-16.615237,-16.738532)"
         id="g47"
         style="stroke-width:0.59090912">
        <path
           d="m 18,16.01 c -0.752,0.566 -1.42,1.235 -1.984,1.988 l 3.984,2 c 0,0 -2,-4 -2,-3.988 z"
           style="fill:#0f436d;stroke-width:0.59090912"
           id="path29"
           inkscape:connector-curvature="0" />
        <path
           d="m 22,14.213 c -1.45,0.296 -2.816,0.911 -4,1.799 V 18 h -1.984 c -0.893,1.183 -1.512,2.549 -1.813,4 L 27,27 c 0,0 -4.242,-11.408 -5,-12.787 z"
           style="fill:#114d7d;stroke-width:0.59090912"
           id="path31"
           inkscape:connector-curvature="0" />
        <path
           d="m 24,14 c -0.672,0.002 -1.342,0.075 -2,0.213 V 18 h -4 v 4 h -3.797 c -0.135,0.658 -0.205,1.328 -0.203,2 0.002,0.672 0.075,1.342 0.213,2 L 30,30 26,14.203 C 25.342,14.068 24.672,13.998 24,14"
           style="fill:#145a92;stroke-width:0.59090912"
           id="path33"
           inkscape:connector-curvature="0" />
        <path
           d="M 26,14.203 V 18 h -4 v 4 h -4 v 4 h -3.787 c 0.296,1.45 0.911,2.816 1.799,4 L 31,31 30,16.016 c -1.183,-0.893 -2.549,-1.512 -4,-1.813 z"
           style="fill:#186db2;stroke-width:0.59090912"
           id="path35"
           inkscape:connector-curvature="0" />
        <path
           d="m 30,16.02 v 1.984 h -4 v 4 h -4 v 4 h -4 v 4 h -1.988 c 0.566,0.752 1.235,1.42 1.988,1.984 l 12,-1.984 1.988,-12 C 31.422,17.252 30.753,16.584 30,16.02"
           style="fill:#1a77c2;stroke-width:0.59090912"
           id="path37"
           inkscape:connector-curvature="0" />
        <path
           d="m 30,18 v 4 h -4 v 4 h -4 v 4 h -4 v 1.984 c 1.183,0.893 2.549,1.512 4,1.813 L 31,31 33.787,22 c -0.296,-1.45 -0.911,-2.816 -1.799,-4"
           style="fill:#579ed6;stroke-width:0.59090912"
           id="path39"
           inkscape:connector-curvature="0" />
        <path
           d="m 30,22 v 4 h -4 v 4 h -4 v 3.797 c 0.658,0.135 1.328,0.205 2,0.203 0.672,-0.002 1.342,-0.075 2,-0.213 L 30.5,30.5 33.797,26 C 33.932,25.342 34.002,24.672 34,24 33.998,23.328 33.925,22.658 33.787,22 Z"
           style="fill:#6baadd;stroke-width:0.59090912"
           id="path41"
           inkscape:connector-curvature="0" />
        <path
           d="m 30,26 v 4 h -4 v 3.787 c 1.45,-0.296 2.816,-0.911 4,-1.799 L 30.5,30.5 31.984,30 c 0.893,-1.183 1.512,-2.549 1.813,-4 z"
           style="fill:#90c2e9;stroke-width:0.59090912"
           id="path43"
           inkscape:connector-curvature="0" />
        <path
           d="m 30,30 v 1.988 A 10,10 0 0 0 31.984,30 Z"
           style="fill:#a0ccef;stroke-width:0.59090912"
           id="path45"
           inkscape:connector-curvature="0" />
      </g>
      <path
         d="m 24.00018,6.9541767 c -1.13723,0.0034 -2.271076,0.126737 -3.384614,0.360276 -2.453847,0.500923 -4.765539,1.541405 -6.769231,3.0441233 v -0.0034 c -1.272616,0.957848 -2.403754,2.090509 -3.358215,3.364817 l 0.0066,0.0034 h -0.0066 c -1.5112314,2.001998 -2.5579242,4.313691 -3.0673088,6.769229 -0.2284608,1.113538 -0.3471253,2.247384 -0.3437408,3.384615 4.041e-4,0.135825 0.019325,0.270854 0.023135,0.406543 0.024339,-0.989357 0.1216597,-1.975261 0.3206069,-2.944954 0.5093846,-2.455538 1.5560774,-4.76723 3.0673087,-6.76923 h 0.0066 l -0.0066,-0.0034 c 0.954462,-1.274307 2.0856,-2.406967 3.358215,-3.364814 v 0.0034 c 2.003692,-1.5027713 4.315384,-2.5432023 6.769231,-3.0441253 1.113538,-0.233538 2.247384,-0.356891 3.384614,-0.360275 1.137231,-0.0034 2.271077,0.115297 3.384615,0.343741 2.455538,0.509385 4.767231,1.556077 6.769231,3.0673083 v 0.0066 c 1.27182,0.9526 2.401554,2.082047 3.358215,3.351616 h 0.0066 c 1.502769,2.003691 2.5432,4.315384 3.044123,6.76923 0.20565,0.98054 0.30905,1.977631 0.337142,2.978123 0.0036,-0.146706 0.02358,-0.292736 0.02313,-0.439611 -0.0034,-1.13723 -0.126737,-2.271076 -0.360276,-3.384616 -0.500923,-2.453845 -1.541404,-4.765538 -3.044122,-6.76923 h -0.0066 c -0.95666,-1.269569 -2.086275,-2.399016 -3.358213,-3.351616 v -0.0066 C 32.152026,8.8540977 29.840333,7.8074047 27.384795,7.2980197 26.271257,7.0695587 25.137411,6.9508937 24.00018,6.9542787 Z"
         style="opacity:0.1;stroke-width:1"
         id="path49"
         inkscape:connector-curvature="0" />
      <path
         d="m 24.000149,40.799407 c 1.13723,-0.0034 2.271076,-0.126737 3.384614,-0.360276 2.453847,-0.500923 4.765539,-1.541405 6.769231,-3.044124 v 0.0034 c 1.272616,-0.957848 2.403754,-2.090509 3.358215,-3.364817 l -0.0066,-0.0034 h 0.0066 c 1.511232,-2.001998 2.557925,-4.31369 3.067309,-6.769228 0.228461,-1.113538 0.347126,-2.247384 0.343741,-3.384615 -4.04e-4,-0.135825 -0.01932,-0.270854 -0.02313,-0.406543 -0.02434,0.989357 -0.121659,1.975261 -0.320607,2.944954 -0.509384,2.455538 -1.556077,4.767229 -3.067309,6.769229 h -0.0066 l 0.0066,0.0034 c -0.954462,1.274307 -2.0856,2.406967 -3.358215,3.364814 v -0.0034 c -2.003692,1.502772 -4.315384,2.543203 -6.769231,3.044126 -1.113538,0.233538 -2.247384,0.356891 -3.384614,0.360275 -1.137231,0.0034 -2.271077,-0.115297 -3.384614,-0.343741 -2.455538,-0.509385 -4.767231,-1.556077 -6.769231,-3.067309 v -0.0066 c -1.27182,-0.9526 -2.401554,-2.082047 -3.358215,-3.351616 h -0.0066 C 8.9787188,31.180245 7.9382878,28.868553 7.4373648,26.414707 c -0.20565,-0.98054 -0.30905,-1.977631 -0.337142,-2.978123 -0.0036,0.146706 -0.02358,0.292736 -0.02313,0.439611 0.0034,1.13723 0.126737,2.271076 0.360276,3.384616 0.500923,2.453845 1.541404,4.765537 3.0441222,6.769229 h 0.0066 c 0.95666,1.269569 2.086275,2.399016 3.358213,3.351616 v 0.0066 c 2.002,1.51123 4.313693,2.557923 6.769231,3.067308 1.113537,0.228461 2.247383,0.347126 3.384614,0.343741 z"
         style="opacity:0.1;stroke-width:1"
         id="path49-5"
         inkscape:connector-curvature="0" />
    </g>
  </g>
</svg>
