<?xml version="1.0" encoding="UTF-8" standalone="no"?>
<svg
   xmlns:dc="http://purl.org/dc/elements/1.1/"
   xmlns:cc="http://creativecommons.org/ns#"
   xmlns:rdf="http://www.w3.org/1999/02/22-rdf-syntax-ns#"
   xmlns:svg="http://www.w3.org/2000/svg"
   xmlns="http://www.w3.org/2000/svg"
   xmlns:xlink="http://www.w3.org/1999/xlink"
   xmlns:sodipodi="http://sodipodi.sourceforge.net/DTD/sodipodi-0.dtd"
   xmlns:inkscape="http://www.inkscape.org/namespaces/inkscape"
   id="svg4045"
   height="48"
   width="48"
   version="1.1"
   sodipodi:docname="FBReader.svg"
   inkscape:version="0.92.5 (2060ec1f9f, 2020-04-08)">
  <sodipodi:namedview
     pagecolor="#ffffff"
     bordercolor="#666666"
     borderopacity="1"
     objecttolerance="10"
     gridtolerance="10"
     guidetolerance="10"
     inkscape:pageopacity="0"
     inkscape:pageshadow="2"
     inkscape:window-width="1366"
     inkscape:window-height="738"
     id="namedview62"
     showgrid="false"
     inkscape:zoom="7.7335653"
     inkscape:cx="22.939707"
     inkscape:cy="27.655489"
     inkscape:window-x="0"
     inkscape:window-y="30"
     inkscape:window-maximized="1"
     inkscape:current-layer="g882" />
  <defs
     id="defs4047">
    <linearGradient
       id="linearGradient4405">
      <stop
         id="stop4407"
         style="stop-color:#ffffff;stop-opacity:1"
         offset="0" />
      <stop
         id="stop4409"
         style="stop-color:#ffffff;stop-opacity:0.23529412"
         offset="0" />
      <stop
         id="stop4411"
         style="stop-color:#ffffff;stop-opacity:0.15686275"
         offset="1" />
      <stop
         id="stop4413"
         style="stop-color:#ffffff;stop-opacity:0.39215687"
         offset="1" />
    </linearGradient>
    <linearGradient
       id="linearGradient2867-449-88-871-390-598-476-591-434-148-57-177-641-289-620-227-114-444-680-744-8">
      <stop
         offset="0"
         style="stop-color:#5f5f5f;stop-opacity:1"
         id="stop5430-8" />
      <stop
         offset="0.26238"
         style="stop-color:#4f4f4f;stop-opacity:1"
         id="stop5432-3" />
      <stop
         offset="0.704952"
         style="stop-color:#3b3b3b;stop-opacity:1"
         id="stop5434-1" />
      <stop
         offset="1"
         style="stop-color:#2b2b2b;stop-opacity:1"
         id="stop5436-8" />
    </linearGradient>
    <linearGradient
       id="linearGradient3707-319-631-407-324-616-674-812-821-107-178-392-400-6">
      <stop
         offset="0"
         style="stop-color:#272727;stop-opacity:1"
         id="stop5440-4" />
      <stop
         offset="1"
         style="stop-color:#454545;stop-opacity:1"
         id="stop5442-3" />
    </linearGradient>
    <linearGradient
       id="linearGradient2346">
      <stop
         offset="0"
         style="stop-color:#eeeeee;stop-opacity:1"
         id="stop2348" />
      <stop
         offset="1"
         style="stop-color:#d9d9da;stop-opacity:1"
         id="stop2350" />
    </linearGradient>
    <linearGradient
       id="linearGradient3707-319-631-407-324-616-674-812-821-107-178-392-400-6-2">
      <stop
         offset="0"
         style="stop-color:#272727;stop-opacity:1"
         id="stop5440-4-8" />
      <stop
         offset="1"
         style="stop-color:#454545;stop-opacity:1"
         id="stop5442-3-8" />
    </linearGradient>
    <radialGradient
       gradientTransform="matrix(2.003784,0,0,1.4,27.98813,-17.4)"
       gradientUnits="userSpaceOnUse"
       xlink:href="#linearGradient3688-166-749"
       id="radialGradient3013"
       fy="43.5"
       fx="4.9929786"
       r="2.5"
       cy="43.5"
       cx="4.9929786" />
    <linearGradient
       id="linearGradient3688-166-749">
      <stop
         offset="0"
         style="stop-color:#181818;stop-opacity:1"
         id="stop2883" />
      <stop
         offset="1"
         style="stop-color:#181818;stop-opacity:0"
         id="stop2885" />
    </linearGradient>
    <radialGradient
       gradientTransform="matrix(2.003784,0,0,1.4,-20.01187,-104.4)"
       gradientUnits="userSpaceOnUse"
       xlink:href="#linearGradient3688-464-309"
       id="radialGradient3015"
       fy="43.5"
       fx="4.9929786"
       r="2.5"
       cy="43.5"
       cx="4.9929786" />
    <linearGradient
       id="linearGradient3688-464-309">
      <stop
         offset="0"
         style="stop-color:#181818;stop-opacity:1"
         id="stop2889" />
      <stop
         offset="1"
         style="stop-color:#181818;stop-opacity:0"
         id="stop2891" />
    </linearGradient>
    <linearGradient
       id="linearGradient3702-501-757">
      <stop
         offset="0"
         style="stop-color:#181818;stop-opacity:0"
         id="stop2895" />
      <stop
         offset="0.5"
         style="stop-color:#181818;stop-opacity:1"
         id="stop2897" />
      <stop
         offset="1"
         style="stop-color:#181818;stop-opacity:0"
         id="stop2899" />
    </linearGradient>
    <linearGradient
       gradientUnits="userSpaceOnUse"
       xlink:href="#linearGradient3702-501-757"
       id="linearGradient4043"
       y2="39.999443"
       x2="25.058096"
       y1="47.027729"
       x1="25.058096" />
    <linearGradient
       gradientTransform="matrix(0.89189189,0,0,1.0540541,2.5945964,-1.2972859)"
       gradientUnits="userSpaceOnUse"
       xlink:href="#linearGradient4405"
       id="linearGradient3072"
       y2="42.025627"
       x2="23.99999"
       y1="5.9743481"
       x1="23.99999" />
    <radialGradient
       gradientTransform="matrix(1.9428467e-8,2.4568358,-2.4722567,-4.5264291e-8,46.890103,-14.303252)"
       gradientUnits="userSpaceOnUse"
       xlink:href="#linearGradient2867-449-88-871-390-598-476-591-434-148-57-177-641-289-620-227-114-444-680-744-8"
       id="radialGradient3075"
       fy="8.4497671"
       fx="7.4956832"
       r="19.99999"
       cy="8.4497671"
       cx="7.4956832" />
    <linearGradient
       gradientTransform="matrix(1,0,0,1.0512821,2.0000013,-1.2307699)"
       gradientUnits="userSpaceOnUse"
       xlink:href="#linearGradient3707-319-631-407-324-616-674-812-821-107-178-392-400-6"
       id="linearGradient3077"
       y2="3.8990016"
       x2="24"
       y1="44"
       x1="24" />
    <linearGradient
       gradientUnits="userSpaceOnUse"
       xlink:href="#linearGradient2346"
       id="linearGradient3085"
       y2="3"
       x2="10.654308"
       y1="1"
       x1="10.654308" />
    <linearGradient
       gradientTransform="matrix(1,0,0,0.10256346,2.0002611,0.03848905)"
       gradientUnits="userSpaceOnUse"
       xlink:href="#linearGradient3707-319-631-407-324-616-674-812-821-107-178-392-400-6-2"
       id="linearGradient3087"
       y2="3.8990016"
       x2="24"
       y1="44"
       x1="24" />
    <linearGradient
       id="linearGradient4280">
      <stop
         id="stop4282"
         style="stop-color:#d48e15;stop-opacity:1"
         offset="0" />
      <stop
         id="stop4284"
         style="stop-color:#f9c440;stop-opacity:1"
         offset="1" />
    </linearGradient>
    <linearGradient
       id="linearGradient4323">
      <stop
         id="stop4325"
         style="stop-color:#fafafa;stop-opacity:1"
         offset="0" />
      <stop
         id="stop4327"
         style="stop-color:#d4d4d4;stop-opacity:1"
         offset="1" />
    </linearGradient>
    <linearGradient
       y2="53.684814"
       x2="86.432671"
       y1="12.492837"
       x1="86.432671"
       gradientTransform="translate(-63.839543,-9.1317816)"
       gradientUnits="userSpaceOnUse"
       id="linearGradient4336"
       xlink:href="#linearGradient4280" />
    <linearGradient
       y2="8.5424805"
       x2="61.306068"
       y1="7.6589384"
       x1="61.306068"
       gradientTransform="matrix(1.3484995,0,0,2.0418357,-62.554774,-14.650115)"
       gradientUnits="userSpaceOnUse"
       id="linearGradient4361"
       xlink:href="#linearGradient4323" />
  </defs>
  <metadata
     id="metadata4050">
    <rdf:RDF>
      <cc:Work
         rdf:about="">
        <dc:format>image/svg+xml</dc:format>
        <dc:type
           rdf:resource="http://purl.org/dc/dcmitype/StillImage" />
        <dc:title></dc:title>
      </cc:Work>
    </rdf:RDF>
  </metadata>
  <g
     id="g882"
     transform="matrix(1,0,0,-1,0.00952015,45)">
    <path
       d="M 40.838991,3.217154 C 40.543588,2.2259354 40.727705,1.4453462 40.56455,0.49999976 H 10.324787 l 0.178478,3.00000004"
       id="path2723"
       style="color:#000000;clip-rule:nonzero;display:inline;overflow:visible;visibility:visible;opacity:1;isolation:auto;mix-blend-mode:normal;color-interpolation:sRGB;color-interpolation-filters:linearRGB;solid-color:#000000;solid-opacity:1;fill:url(#linearGradient4361);fill-opacity:1;fill-rule:nonzero;stroke:#ad5e00;stroke-width:1;stroke-linecap:butt;stroke-linejoin:round;stroke-miterlimit:0;stroke-dasharray:none;stroke-dashoffset:0;stroke-opacity:0.78431374;color-rendering:auto;image-rendering:auto;shape-rendering:auto;text-rendering:auto;enable-background:accumulate"
       inkscape:connector-curvature="0" />
    <path
       d="M 11.50026,4.4999996 H 7.5002598 c -0.5708481,0 -1,-0.042333 -1,-0.09756 V 1.6060185 c 0,-0.88791952 0.5590322,-1.10599346 1.2908943,-1.10599346 H 11.50026"
       id="rect5505-21-3-9"
       style="color:#000000;display:inline;overflow:visible;visibility:visible;fill:url(#linearGradient3085);fill-opacity:1;fill-rule:nonzero;stroke:url(#linearGradient3087);stroke-width:0.99999994;stroke-linecap:round;stroke-linejoin:round;stroke-miterlimit:4;stroke-dasharray:none;stroke-dashoffset:0;stroke-opacity:1;marker:none;enable-background:accumulate"
       inkscape:connector-curvature="0" />
    <rect
       width="33.977596"
       height="40.980957"
       rx="1"
       ry="1"
       x="7.5128837"
       y="3.5095203"
       id="rect2719"
       style="color:#000000;clip-rule:nonzero;display:inline;overflow:visible;visibility:visible;opacity:1;isolation:auto;mix-blend-mode:normal;color-interpolation:sRGB;color-interpolation-filters:linearRGB;solid-color:#000000;solid-opacity:1;fill:url(#linearGradient4336);fill-opacity:1;fill-rule:nonzero;stroke:#ad5f00;stroke-width:1.01904094;stroke-linecap:round;stroke-linejoin:round;stroke-miterlimit:0;stroke-dasharray:none;stroke-dashoffset:0;stroke-opacity:0.49803922;color-rendering:auto;image-rendering:auto;shape-rendering:auto;text-rendering:auto;enable-background:accumulate" />
    <path
       d="m 11.5,3.4999998 c 0,0 0,28.5091172 0,41.0000002 h -4 c -0.5708481,0 -1,-0.43395 -1,-1 V 3.4999998 Z"
       id="rect5505-21-3"
       style="color:#000000;display:inline;overflow:visible;visibility:visible;fill:url(#radialGradient3075);fill-opacity:1;fill-rule:nonzero;stroke:url(#linearGradient3077);stroke-width:1;stroke-linecap:round;stroke-linejoin:round;stroke-miterlimit:4;stroke-dasharray:none;stroke-dashoffset:0;stroke-opacity:1;marker:none;enable-background:accumulate"
       inkscape:connector-curvature="0" />
    <rect
       width="33"
       height="39"
       x="7.5"
       y="4.5000005"
       id="rect6741-0"
       style="opacity:0.3;fill:none;stroke:url(#linearGradient3072);stroke-width:1;stroke-linecap:round;stroke-linejoin:round;stroke-miterlimit:4;stroke-dasharray:none;stroke-dashoffset:0;stroke-opacity:1" />
    <path
       inkscape:connector-curvature="0"
       d="m 25.381949,36.145582 c -0.261334,-0.0093 -0.328272,-0.03447 -0.358057,-0.06349 -0.06148,-0.05995 -0.03256,-0.843454 -0.03256,-13.309456 0,-10.657238 -0.0075,-13.5023511 0.03256,-13.5414911 0.0746,-0.07276 3.966601,-0.05417 3.966601,-0.05417 0,0 0,0.324815 0,0.70471 0,0.4426211 0,0.5709301 0,0.5709301 0,0 0.105518,-0.158526 0.232438,-0.300842 0.479551,-0.5377211 1.381798,-0.9451721 2.00903,-1.1111051 1.476912,-0.227145 3.381457,0.515185 3.758532,1.7777731 0.07192,0.258086 0.09766,0.457016 0.09766,9.192306 0,8.735293 -0.02572,9.297421 -0.09766,9.555508 -0.881818,1.705941 -2.246085,1.918367 -3.986386,1.746025 -0.598257,-0.208556 -1.362732,-0.615782 -1.813727,-1.142852 -0.149554,-0.17478 -0.149595,-0.317459 -0.167954,-0.317459 -0.01836,0 -0.0651,1.054237 -0.0651,2.896809 0,3.269028 0.01638,3.322479 -0.0651,3.365063 -0.05378,0.02808 -0.859165,0.03175 -2.012932,0.03175 -0.786493,0 -1.23599,0.0093 -1.497325,0 z m 4.680556,-8.176422 c 0.498571,0.002 0.829531,-0.305542 0.911415,-0.920631 0.0554,-0.416218 0.05559,-13.728233 0,-14.144662 -0.0228,-0.17131 -0.0735,-0.418868 -0.130202,-0.53968 -0.378018,-0.393169 -0.816245,-0.252066 -1.3604,-0.18068 -0.299027,0.17045 -0.45306,0.372551 -0.499981,0.666664 l 0.0052,7.065332 c -0.0081,5.086552 -0.02947,7.116557 0.002,7.261473 0.0965,0.444539 0.626265,0.790286 1.072012,0.792184 z"
       id="path4095-2"
       style="opacity:0.2;fill:#000000;fill-opacity:1;stroke:none" />
    <path
       inkscape:connector-curvature="0"
       d="m 25.381949,37.145236 c -0.261334,-0.0093 -0.328272,-0.03447 -0.358057,-0.06349 -0.06148,-0.05995 -0.03256,-0.843454 -0.03256,-13.309456 0,-10.657238 -0.0075,-13.502351 0.03256,-13.541491 0.0746,-0.07276 3.966601,-0.05417 3.966601,-0.05417 0,0 0,0.324815 0,0.70471 0,0.442621 0,0.57093 0,0.57093 0,0 0.105518,-0.158526 0.232438,-0.300842 0.479551,-0.537721 1.381798,-0.945172 2.00903,-1.111105 1.476912,-0.2271451 3.381457,0.515185 3.758532,1.777773 0.07192,0.258086 0.09766,0.457016 0.09766,9.192306 0,8.735293 -0.02572,9.297421 -0.09766,9.555508 -0.881818,1.705943 -2.260318,2.027164 -3.986386,1.746027 -0.625327,-0.101851 -1.362732,-0.615782 -1.813727,-1.142852 -0.149554,-0.17478 -0.149595,-0.317459 -0.167954,-0.317459 -0.01836,0 -0.0651,1.054237 -0.0651,2.896809 0,3.269028 0.01638,3.322479 -0.0651,3.365063 -0.05378,0.02808 -0.859165,0.03175 -2.012932,0.03175 -0.786493,0 -1.23599,0.0093 -1.497325,0 z m 4.680556,-8.176422 c 0.498571,0.002 0.829531,-0.305542 0.911415,-0.920631 0.0554,-0.416218 0.05559,-13.728233 0,-14.144662 -0.0228,-0.17131 -0.0735,-0.418868 -0.130202,-0.53968 -0.378018,-0.393169 -0.816245,-0.252066 -1.3604,-0.18068 -0.299027,0.17045 -0.45306,0.372551 -0.499981,0.666664 l 0.0052,7.065332 c -0.0081,5.086552 -0.02947,7.116557 0.002,7.261473 0.0965,0.444539 0.626265,0.790286 1.072012,0.792184 z"
       id="path4095"
       style="fill:#ffffff;fill-opacity:1;stroke:none" />
    <path
       inkscape:connector-curvature="0"
       d="m 22.019614,36.154809 c -1.121421,-3.8e-5 -1.817739,-0.03923 -2.227836,-0.142476 -0.83833,-0.211058 -1.494917,-0.72072 -1.728245,-1.496001 -0.06537,-0.217194 -0.07304,-0.476203 -0.07304,-2.030288 v -1.309068 l -0.990213,-0.0075 -0.0098,-2.9925 h 1 v -9.632297 c 0.006,-5.2751 0,-9.3677021 0,-9.3677021 h 4 v 9.3477081 9.65277 h 0.503936 c 0.392118,0.0084 0.496077,-4.79e-4 0.496077,-4.79e-4 0,0 0.008,0.530994 0,1.532101 v 1.467899 l -0.459542,-0.0075 -0.540458,0.0075 v 0.248 c -0.01282,0.772388 -0.04687,1.284549 0.102194,1.452893 0.129137,0.145835 0.300514,0.256373 0.693917,0.284953 l 0.203889,0.03563 0.03654,1.424763 c 0.0081,1.019038 -0.0014,1.419216 -0.03654,1.460382 -0.03908,0.04593 -0.140943,0.07127 -0.97085,0.07124 z"
       id="path4071-2"
       style="opacity:0.2;fill:#000000;fill-opacity:1;stroke:none" />
    <path
       inkscape:connector-curvature="0"
       d="m 22.019614,37.154463 c -1.121421,-3.8e-5 -1.817739,-0.03923 -2.227836,-0.142476 -0.83833,-0.211058 -1.494917,-0.72072 -1.728245,-1.496001 -0.06537,-0.217194 -0.07304,-0.476203 -0.07304,-2.030288 V 32.17663 l -0.990213,-0.0075 -0.0098,-2.9925 h 1 v -9.632297 c 0.006,-5.2751 0,-9.367702 0,-9.367702 h 4 v 9.347708 9.65277 h 0.503936 c 0.392105,0.0084 0.496064,-4.79e-4 0.496064,-4.79e-4 0,0 0.008,0.530994 0,1.532101 v 1.467899 l -0.459542,-0.0075 -0.540458,0.0075 v 0.248 c -0.01282,0.772388 -0.04687,1.284549 0.102194,1.452893 0.129137,0.145835 0.175706,0.256373 0.569109,0.284953 l 0.328697,0.03563 0.03654,1.424763 c 0.0081,1.019038 -0.0014,1.419216 -0.03654,1.460382 -0.03908,0.04593 -0.140943,0.07127 -0.97085,0.07124 z"
       id="path4071"
       style="fill:#ffffff;fill-opacity:1;stroke:none" />
  </g>
  <g
     inkscape:groupmode="layer"
     id="layer1"
     inkscape:label="Layer 1" />
  <g
     inkscape:groupmode="layer"
     id="layer2"
     inkscape:label="Layer 2"
     style="display:none">
    <g
       style="opacity:0.4"
       id="g3712"
       transform="matrix(1.0526316,0,0,0.57142859,-1.2631579,19.142856)">
      <rect
         style="fill:url(#radialGradient3013);fill-opacity:1;stroke:none"
         id="rect2801"
         y="40"
         x="38"
         height="7"
         width="5" />
      <rect
         style="fill:url(#radialGradient3015);fill-opacity:1;stroke:none"
         id="rect3696"
         transform="scale(-1)"
         y="-47"
         x="-10"
         height="7"
         width="5" />
      <rect
         style="fill:url(#linearGradient4043);fill-opacity:1;stroke:none"
         id="rect3700"
         y="40"
         x="10"
         height="7.0000005"
         width="28" />
    </g>
  </g>
</svg>
