<?xml version="1.0" encoding="UTF-8" standalone="no"?>
<!-- Created with Inkscape (http://www.inkscape.org/) -->

<svg
   xmlns:dc="http://purl.org/dc/elements/1.1/"
   xmlns:cc="http://creativecommons.org/ns#"
   xmlns:rdf="http://www.w3.org/1999/02/22-rdf-syntax-ns#"
   xmlns:svg="http://www.w3.org/2000/svg"
   xmlns="http://www.w3.org/2000/svg"
   xmlns:xlink="http://www.w3.org/1999/xlink"
   xmlns:sodipodi="http://sodipodi.sourceforge.net/DTD/sodipodi-0.dtd"
   xmlns:inkscape="http://www.inkscape.org/namespaces/inkscape"
   version="1.1"
   width="48"
   height="48"
   id="svg6955"
   sodipodi:docname="org.gnome.Polari.svg"
   inkscape:version="0.92.4 5da689c313, 2019-01-14">
  <sodipodi:namedview
     pagecolor="#ffffff"
     bordercolor="#666666"
     borderopacity="1"
     objecttolerance="10"
     gridtolerance="10"
     guidetolerance="10"
     inkscape:pageopacity="0"
     inkscape:pageshadow="2"
     inkscape:window-width="1366"
     inkscape:window-height="742"
     id="namedview39"
     showgrid="false"
     inkscape:zoom="6.9532167"
     inkscape:cx="29.726999"
     inkscape:cy="11.342105"
     inkscape:current-layer="layer1"
     showguides="false"
     inkscape:window-x="0"
     inkscape:window-y="0"
     inkscape:window-maximized="1" />
  <defs
     id="defs6957">
    <linearGradient
       x1="22.642942"
       y1="26.966721"
       x2="22.642942"
       y2="30.98424"
       id="linearGradient6883"
       xlink:href="#linearGradient3922"
       gradientUnits="userSpaceOnUse"
       gradientTransform="translate(-0.2938755,2.5949995)" />
    <linearGradient
       id="linearGradient3922">
      <stop
         id="stop3924"
         style="stop-color:#000000;stop-opacity:1"
         offset="0" />
      <stop
         id="stop3926-9"
         style="stop-color:#000000;stop-opacity:0"
         offset="1" />
    </linearGradient>
    <linearGradient
       x1="22.642942"
       y1="26.966721"
       x2="22.642942"
       y2="30.98424"
       id="linearGradient6886"
       xlink:href="#linearGradient3922"
       gradientUnits="userSpaceOnUse"
       gradientTransform="translate(-0.2938755,2.5949995)" />
    <linearGradient
       x1="132.3414"
       y1="2.2922528"
       x2="132.3414"
       y2="33.33271"
       id="linearGradient6784"
       xlink:href="#linearGradient6786"
       gradientUnits="userSpaceOnUse"
       gradientTransform="matrix(0.89189031,0,0,1.0580283,-94.605571,3.1181196)" />
    <linearGradient
       id="linearGradient6786">
      <stop
         id="stop6788"
         style="stop-color:#ffffff;stop-opacity:1"
         offset="0" />
      <stop
         id="stop6790"
         style="stop-color:#ffffff;stop-opacity:0.23529412"
         offset="0.46352294" />
      <stop
         id="stop6792"
         style="stop-color:#ffffff;stop-opacity:0.15686275"
         offset="0.76175833" />
      <stop
         id="stop6794"
         style="stop-color:#ffffff;stop-opacity:0.39215687"
         offset="1" />
    </linearGradient>
    <linearGradient
       x1="-51.786404"
       y1="53.514328"
       x2="-51.786404"
       y2="3.6336823"
       id="linearGradient3394-3"
       xlink:href="#linearGradient3104-8-8-97-9"
       gradientUnits="userSpaceOnUse"
       gradientTransform="matrix(0.80749834,0,0,0.83374395,59.410297,-0.3364531)" />
    <linearGradient
       id="linearGradient3104-8-8-97-9">
      <stop
         id="stop3106-5-4-3-6"
         style="stop-color:#000000;stop-opacity:0.32173914"
         offset="0" />
      <stop
         id="stop3108-4-3-7-0"
         style="stop-color:#000000;stop-opacity:0.27826086"
         offset="1" />
    </linearGradient>
    <linearGradient
       id="linearGradient3600-8-3">
      <stop
         id="stop3828-7-6"
         style="stop-color:#f4f4f4;stop-opacity:1"
         offset="0" />
      <stop
         id="stop3794"
         style="stop-color:#e9e9e9;stop-opacity:1"
         offset="0.6956892" />
      <stop
         id="stop3604-2-5"
         style="stop-color:#dbdbdb;stop-opacity:1"
         offset="1" />
    </linearGradient>
    <linearGradient
       id="linearGradient8838-561-565">
      <stop
         id="stop4621"
         style="stop-color:#0a0a0a;stop-opacity:1"
         offset="0" />
      <stop
         id="stop4623"
         style="stop-color:#0a0a0a;stop-opacity:0"
         offset="1" />
    </linearGradient>
    <radialGradient
       cx="62.625"
       cy="4.625"
       r="10.625"
       fx="62.625"
       fy="4.625"
       id="radialGradient6953"
       xlink:href="#linearGradient8838-561-565"
       gradientUnits="userSpaceOnUse"
       gradientTransform="matrix(2.1647059,0,0,0.7529402,-111.56471,34.517647)" />
    <radialGradient
       cx="24.003401"
       cy="3.0403864"
       r="20.984106"
       fx="24.003401"
       fy="3.0403864"
       id="radialGradient3792"
       xlink:href="#linearGradient3600-8-3"
       gradientUnits="userSpaceOnUse"
       gradientTransform="matrix(0,1.7177641,-1.500366,0,28.565093,-35.624161)" />
  </defs>
  <metadata
     id="metadata6960">
    <rdf:RDF>
      <cc:Work
         rdf:about="">
        <dc:format>image/svg+xml</dc:format>
        <dc:type
           rdf:resource="http://purl.org/dc/dcmitype/StillImage" />
        <dc:title />
      </cc:Work>
    </rdf:RDF>
  </metadata>
  <g
     id="layer1">
    <path
       d="m 46.99999,38 c 0,4.418278 -10.29745,8 -23,8 -12.70255,0 -23,-3.581722 -23,-8 0,-4.418278 10.29745,-8 23,-8 12.70255,0 23,3.581722 23,8 l 0,0 z"
       inkscape:connector-curvature="0"
       id="path8836"
       style="opacity:0.2;fill:url(#radialGradient6953);fill-opacity:1;fill-rule:evenodd;stroke:none;stroke-width:0.99999988;marker:none;visibility:visible;display:inline;overflow:visible" />
    <path
       d="M 23.968895,5.0131008 C 16.592218,5.2883273 8.9089718,8.65097 5.0069774,15.173361 c -2.913726,4.663635 -2.6136853,11.049914 0.8318021,15.356816 1.2447772,1.726207 2.953728,3.041003 4.6440115,4.276023 0.79625,2.494722 -0.9422838,4.881171 -2.4027468,6.759819 0.9337718,0.381889 3.5369218,-0.52824 5.0411008,-1.104402 1.804057,-0.683727 3.449549,-1.735641 5.100049,-2.691806 8.324488,1.587231 17.732495,-0.910817 23.282092,-7.556259 C 45.077045,26.097114 46.150325,19.84052 43.550228,14.948139 40.262468,8.5733208 32.977576,5.3105154 26.0636,5.0301303 25.365888,5.001382 24.666939,4.988438 23.968895,5.0131008 z"
       inkscape:connector-curvature="0"
       id="path6603"
       style="color:#000000;fill:url(#radialGradient3792);fill-opacity:1;fill-rule:nonzero;stroke:none;stroke-width:0.98542732;marker:none;visibility:visible;display:inline;overflow:visible;enable-background:accumulate" />
    <path
       d="M 23.943288,4.5668725 C 23.394511,4.5876982 22.853792,4.6284659 22.298574,4.6805624 10.453616,5.791918 1.6167679,14.31164 2.5619989,23.665688 c 0.471882,4.669741 3.306144,8.667634 7.4862871,11.368337 l 0,0.113694 c 0,0 1.300746,2.200631 -3.1192861,7.105211 0,0 4.7867951,0.298017 11.2861441,-4.035759 2.375957,0.454105 4.883383,0.585264 7.486286,0.341051 11.844976,-1.11135 20.681789,-9.574234 19.736573,-18.928286 -0.856611,-8.477105 -9.429707,-14.7867411 -19.85,-15.0630472 -0.538977,-0.014369 -1.095957,-0.020825 -1.644715,0 z"
       inkscape:connector-curvature="0"
       id="path4111-6"
       style="color:#000000;fill:none;stroke:url(#linearGradient3394-3);stroke-width:0.99992168;stroke-linecap:butt;stroke-linejoin:round;stroke-miterlimit:4;stroke-opacity:1;stroke-dasharray:none;stroke-dashoffset:0;marker:none;visibility:visible;display:inline;overflow:visible;enable-background:accumulate" />
    <path
       d="M 23.96875,5.5624998 C 16.771183,5.8495969 9.2786372,9.0832639 5.4510532,15.432873 2.6299371,19.909659 2.9069357,26.051826 6.2246441,30.196166 c 1.2257345,1.798425 3.09854,2.987858 4.7113519,4.353929 0.96352,2.283505 -0.504078,4.594178 -1.779746,6.418655 3.190523,-0.439229 6.073426,-2.057483 8.771796,-3.723483 1.616151,0.02179 3.247226,0.492268 4.891123,0.427047 7.470476,0.1032 15.390909,-3.040369 19.538078,-9.497143 C 45.31235,23.745272 45.191535,17.55286 41.949374,13.305912 37.876835,7.7448955 30.662696,5.3347036 23.96875,5.5624998 z"
       inkscape:connector-curvature="0"
       id="path6779"
       style="color:#000000;fill:none;stroke:url(#linearGradient6784);stroke-width:1.00000012;stroke-linecap:round;stroke-linejoin:miter;stroke-miterlimit:4;stroke-opacity:1;stroke-dasharray:none;stroke-dashoffset:0;marker:none;visibility:visible;display:inline;overflow:visible;enable-background:accumulate" />
    <path
       d="m 10.493698,34.807261 c 1.648283,1.200601 3.613829,1.493814 3.613829,1.493814 0,0 -1.565036,3.012603 -5.4628278,4.621112 3.3058148,-4.842178 1.8489988,-6.114926 1.8489988,-6.114926 z"
       inkscape:connector-curvature="0"
       id="path3796"
       style="opacity:0.3;fill:#ffffff;fill-opacity:1;stroke:none" />
    <g
       aria-label="#"
       style="font-style:normal;font-weight:normal;font-size:40px;line-height:1.25;font-family:sans-serif;letter-spacing:0px;word-spacing:0px;opacity:0.15;fill:#000000;fill-opacity:1;stroke:#000000;stroke-width:1.40799999;stroke-miterlimit:4;stroke-dasharray:none;stroke-opacity:1"
       id="text843"
       transform="matrix(0.71022726,0,0,0.71022726,24.308118,13.586527)">
      <path
         d="m -6.6418297,22.544155 h 3.712 v -5.312 h 5.088 v 5.312 h 3.712 v -5.312 h 3.552 v -3.008 h -3.552 V 8.5921551 h 3.552 v -3.04 h -3.552 V 0.33615512 h -3.712 V 5.5521551 h -5.088 V 0.33615512 h -3.712 V 5.5521551 H -10.28983 v 3.04 h 3.6480003 V 14.224155 H -10.28983 v 3.008 h 3.6480003 z m 3.712,-8.32 V 8.5921551 h 5.088 v 5.6319999 z"
         style="font-style:normal;font-variant:normal;font-weight:bold;font-stretch:normal;font-size:32px;font-family:Cantarell;-inkscape-font-specification:'Cantarell Bold';stroke:#000000;stroke-width:1.40799999;stroke-miterlimit:4;stroke-dasharray:none;stroke-opacity:1"
         id="path845"
         inkscape:connector-curvature="0" />
    </g>
    <g
       aria-label="#"
       style="font-style:normal;font-weight:normal;font-size:40px;line-height:1.25;font-family:sans-serif;letter-spacing:0px;word-spacing:0px;opacity:1;fill:#ffffff;fill-opacity:1;stroke:none"
       id="text843-0"
       transform="matrix(0.71022726,0,0,0.71022726,24.308118,13.586527)">
      <path
         d="m -6.6418297,22.544155 h 3.712 v -5.312 h 5.088 v 5.312 h 3.712 v -5.312 h 3.552 v -3.008 h -3.552 V 8.5921551 h 3.552 v -3.04 h -3.552 V 0.33615512 h -3.712 V 5.5521551 h -5.088 V 0.33615512 h -3.712 V 5.5521551 H -10.28983 v 3.04 h 3.6480003 V 14.224155 H -10.28983 v 3.008 h 3.6480003 z m 3.712,-8.32 V 8.5921551 h 5.088 v 5.6319999 z"
         style="font-style:normal;font-variant:normal;font-weight:bold;font-stretch:normal;font-size:32px;font-family:Cantarell;-inkscape-font-specification:'Cantarell Bold';fill:#ffffff"
         id="path845-9"
         inkscape:connector-curvature="0" />
    </g>
  </g>
</svg>
