<?xml version="1.0" encoding="UTF-8" standalone="no"?>
<svg
   xmlns:dc="http://purl.org/dc/elements/1.1/"
   xmlns:cc="http://creativecommons.org/ns#"
   xmlns:rdf="http://www.w3.org/1999/02/22-rdf-syntax-ns#"
   xmlns:svg="http://www.w3.org/2000/svg"
   xmlns="http://www.w3.org/2000/svg"
   xmlns:xlink="http://www.w3.org/1999/xlink"
   xmlns:sodipodi="http://sodipodi.sourceforge.net/DTD/sodipodi-0.dtd"
   xmlns:inkscape="http://www.inkscape.org/namespaces/inkscape"
   version="1.1"
   width="48"
   height="48"
   id="svg3901"
   inkscape:version="1.0.2 (e86c870879, 2021-01-15)"
   sodipodi:docname="texstudio.svg">
  <sodipodi:namedview
     pagecolor="#ffffff"
     bordercolor="#666666"
     borderopacity="1"
     objecttolerance="10"
     gridtolerance="10"
     guidetolerance="10"
     inkscape:pageopacity="0"
     inkscape:pageshadow="2"
     inkscape:window-width="1366"
     inkscape:window-height="713"
     id="namedview40"
     showgrid="true"
     inkscape:zoom="1"
     inkscape:cx="27.491212"
     inkscape:cy="13.242629"
     inkscape:window-x="0"
     inkscape:window-y="27"
     inkscape:window-maximized="1"
     inkscape:current-layer="svg3901"
     inkscape:document-rotation="0"
     showguides="true"
     inkscape:guide-bbox="true">
    <inkscape:grid
       type="xygrid"
       id="grid891" />
  </sodipodi:namedview>
  <defs
     id="defs3903">
    <linearGradient
       id="linearGradient3403">
      <stop
         offset="0"
         style="stop-color:#ffffff;stop-opacity:1"
         id="stop3405" />
      <stop
         offset="0"
         style="stop-color:#ffffff;stop-opacity:0.23529412"
         id="stop3407" />
      <stop
         offset="1"
         style="stop-color:#ffffff;stop-opacity:0.15686275"
         id="stop3409" />
      <stop
         offset="1"
         style="stop-color:#ffffff;stop-opacity:0.39215687"
         id="stop3411" />
    </linearGradient>
    <linearGradient
       id="linearGradient3600">
      <stop
         id="stop3602"
         style="stop-color:#f4679d;stop-opacity:1"
         offset="0" />
      <stop
         id="stop3604"
         style="stop-color:#7239b3;stop-opacity:1"
         offset="1" />
    </linearGradient>
    <linearGradient
       id="linearGradient5060">
      <stop
         id="stop5062"
         style="stop-color:#000000;stop-opacity:1"
         offset="0" />
      <stop
         id="stop5064"
         style="stop-color:#000000;stop-opacity:0"
         offset="1" />
    </linearGradient>
    <linearGradient
       id="linearGradient5048">
      <stop
         id="stop5050"
         style="stop-color:#000000;stop-opacity:0"
         offset="0" />
      <stop
         id="stop5056"
         style="stop-color:#000000;stop-opacity:1"
         offset="0.5" />
      <stop
         id="stop5052"
         style="stop-color:#000000;stop-opacity:0"
         offset="1" />
    </linearGradient>
    <linearGradient
       id="linearGradient3104-6">
      <stop
         offset="0"
         style="stop-color:#000000;stop-opacity:0.31782946"
         id="stop3106-3" />
      <stop
         offset="1"
         style="stop-color:#000000;stop-opacity:0.24031007"
         id="stop3108-9" />
    </linearGradient>
    <linearGradient
       xlink:href="#linearGradient3403"
       id="linearGradient3106"
       gradientUnits="userSpaceOnUse"
       gradientTransform="matrix(0.89189189,0,0,1.1351351,2.5945999,-4.7432314)"
       x1="23.99999"
       y1="5.9404659"
       x2="23.99999"
       y2="42.110645" />
    <linearGradient
       xlink:href="#linearGradient3600"
       id="linearGradient3109"
       gradientUnits="userSpaceOnUse"
       gradientTransform="matrix(0.97142632,0,0,0.93431938,0.68576678,-1.3569996)"
       x1="25.132275"
       y1="0.98520643"
       x2="25.132275"
       y2="47.013336" />
    <radialGradient
       xlink:href="#linearGradient5060"
       id="radialGradient3112"
       gradientUnits="userSpaceOnUse"
       gradientTransform="matrix(0.02303995,0,0,0.01470022,26.360882,37.040176)"
       cx="605.71429"
       cy="486.64789"
       fx="605.71429"
       fy="486.64789"
       r="117.14286" />
    <radialGradient
       xlink:href="#linearGradient5060"
       id="radialGradient3115"
       gradientUnits="userSpaceOnUse"
       gradientTransform="matrix(-0.02303994,0,0,0.01470022,21.62311,37.040176)"
       cx="605.71429"
       cy="486.64789"
       fx="605.71429"
       fy="486.64789"
       r="117.14286" />
    <linearGradient
       xlink:href="#linearGradient5048"
       id="linearGradient3118"
       gradientUnits="userSpaceOnUse"
       gradientTransform="matrix(0.06732488,0,0,0.01470022,-0.3411391,37.040146)"
       x1="302.85715"
       y1="366.64789"
       x2="302.85715"
       y2="609.50507" />
    <linearGradient
       xlink:href="#linearGradient3104-6"
       id="linearGradient3170"
       gradientUnits="userSpaceOnUse"
       gradientTransform="matrix(0.80749686,0,0,0.89471714,59.410232,-2.9773433)"
       x1="-51.786404"
       y1="50.786446"
       x2="-51.786404"
       y2="2.9062471" />
    <linearGradient
       x1="22.004084"
       y1="47.813133"
       x2="22.004084"
       y2="3.3638515"
       id="linearGradient3052"
       xlink:href="#linearGradient3104-5"
       gradientUnits="userSpaceOnUse"
       gradientTransform="translate(-1.982096,-3.047074)" />
    <linearGradient
       id="linearGradient3104-5">
      <stop
         id="stop3106-2"
         style="stop-color:#aaaaaa;stop-opacity:1"
         offset="0" />
      <stop
         id="stop3108-5"
         style="stop-color:#c8c8c8;stop-opacity:1"
         offset="1" />
    </linearGradient>
    <linearGradient
       gradientTransform="matrix(1.1494007,0,0,1.1463445,-104.44326,50.38926)"
       gradientUnits="userSpaceOnUse"
       xlink:href="#linearGradient4011-6-3"
       id="linearGradient4488"
       y2="44.340794"
       x2="71.204407"
       y1="5.0080671"
       x1="71.204407" />
    <linearGradient
       id="linearGradient4011-6-3">
      <stop
         offset="0"
         style="stop-color:#ffffff;stop-opacity:1"
         id="stop4013-0-0" />
      <stop
         offset="0.507761"
         style="stop-color:#ffffff;stop-opacity:0.23529412"
         id="stop4015-7-9" />
      <stop
         offset="0.83456558"
         style="stop-color:#ffffff;stop-opacity:0.15686275"
         id="stop4017-6-8" />
      <stop
         offset="1"
         style="stop-color:#ffffff;stop-opacity:0.39215687"
         id="stop4019-8-2" />
    </linearGradient>
    <linearGradient
       x1="27.083811"
       y1="2.7114925"
       x2="49.414146"
       y2="25.041828"
       id="linearGradient3275-0"
       xlink:href="#linearGradient3846"
       gradientUnits="userSpaceOnUse"
       gradientTransform="matrix(1.9236372,1.9151088,-1.9236372,1.9151088,-71.235238,-14.055026)" />
    <linearGradient
       id="linearGradient3846">
      <stop
         offset="0"
         style="stop-color:#fff3cb;stop-opacity:1"
         id="stop3848" />
      <stop
         offset="0.26238"
         style="stop-color:#fdde76;stop-opacity:1"
         id="stop3850" />
      <stop
         offset="0.66093999"
         style="stop-color:#f9c440;stop-opacity:1"
         id="stop3852" />
      <stop
         offset="1"
         style="stop-color:#e48b20;stop-opacity:1"
         id="stop3854" />
    </linearGradient>
    <radialGradient
       xlink:href="#linearGradient4304"
       id="radialGradient4310"
       cx="10"
       cy="73"
       fx="10"
       fy="73"
       r="30.5"
       gradientUnits="userSpaceOnUse"
       gradientTransform="matrix(0.9109268,1.4743681e-8,-1.4475741e-8,0.8909721,-31.005092,14.756787)" />
    <linearGradient
       id="linearGradient4304">
      <stop
         style="stop-color:#ffe6ab;stop-opacity:1"
         offset="0"
         id="stop4306" />
      <stop
         id="stop4312"
         offset="0.82044184"
         style="stop-color:#ffea8a;stop-opacity:0.63921571" />
      <stop
         style="stop-color:#e6ff4d;stop-opacity:0"
         offset="1"
         id="stop4308" />
    </linearGradient>
    <linearGradient
       gradientTransform="matrix(1.1494007,0,0,1.1463445,-83.494111,-19.983621)"
       gradientUnits="userSpaceOnUse"
       xlink:href="#linearGradient4011-6-3"
       id="linearGradient4488-3"
       y2="44.340794"
       x2="71.204407"
       y1="5.0080671"
       x1="71.204407" />
    <linearGradient
       x1="27.083811"
       y1="2.7114925"
       x2="49.414146"
       y2="25.041828"
       id="linearGradient3275-0-5"
       xlink:href="#linearGradient3846"
       gradientUnits="userSpaceOnUse"
       gradientTransform="matrix(1.9236372,1.9151088,-1.9236372,1.9151088,-49.182144,-85.554521)" />
    <radialGradient
       xlink:href="#linearGradient4304"
       id="radialGradient4310-2"
       cx="10"
       cy="73"
       fx="10"
       fy="73"
       r="30.5"
       gradientUnits="userSpaceOnUse"
       gradientTransform="matrix(0.9109268,1.4743681e-8,-1.4475741e-8,0.8909721,-10.05594,-55.616094)" />
  </defs>
  <metadata
     id="metadata3906">
    <rdf:RDF>
      <cc:Work
         rdf:about="">
        <dc:format>image/svg+xml</dc:format>
        <dc:type
           rdf:resource="http://purl.org/dc/dcmitype/StillImage" />
        <dc:title />
      </cc:Work>
    </rdf:RDF>
  </metadata>
  <rect
     style="opacity:0.3;fill:url(#linearGradient3118);fill-opacity:1;fill-rule:nonzero;stroke:none;stroke-width:1;marker:none;visibility:visible;display:inline;overflow:visible"
     id="rect2879"
     y="42.429947"
     x="7.7378473"
     height="3.5700529"
     width="32.508301" />
  <path
     style="opacity:0.3;fill:url(#radialGradient3115);fill-opacity:1;fill-rule:nonzero;stroke:none;stroke-width:1;marker:none;visibility:visible;display:inline;overflow:visible"
     id="path2881"
     d="m 7.7378475,42.430102 c 0,0 0,3.569856 0,3.569856 -1.1865002,0.0067 -2.8683795,-0.799823 -2.8683795,-1.785158 0,-0.985333 1.3240446,-1.784697 2.8683795,-1.784698 z" />
  <path
     style="opacity:0.3;fill:url(#radialGradient3112);fill-opacity:1;fill-rule:nonzero;stroke:none;stroke-width:1;marker:none;visibility:visible;display:inline;overflow:visible"
     id="path2883"
     d="m 40.246148,42.430102 c 0,0 0,3.569856 0,3.569856 1.1865,0.0067 2.86838,-0.799823 2.86838,-1.785158 0,-0.985333 -1.324045,-1.784697 -2.86838,-1.784698 z" />
  <path
     style="fill:url(#linearGradient3109);fill-opacity:1;stroke:none;display:inline"
     id="path4160"
     d="m 7,1.0000001 c 7.791126,0 33.999959,0.00274 33.999959,0.00274 L 41,44 C 41,44 18.333334,44 7,44 7,29.666666 7,15.333333 7,1 z" />
  <path
     style="fill:none;stroke:#fafafa;stroke-width:1;stroke-linecap:round;stroke-linejoin:miter;stroke-miterlimit:4;stroke-opacity:1;stroke-dasharray:none;stroke-dashoffset:0;opacity:0.3"
     id="rect6741-1"
     d="m 40.5,43.5 -33,0 0,-41.9999998 33,0 z" />
  <path
     style="fill:none;stroke:#000000;stroke-width:0.99992192;stroke-linecap:butt;stroke-linejoin:round;stroke-miterlimit:4;stroke-opacity:1;stroke-dasharray:none;stroke-dashoffset:0;display:inline;opacity:0.7"
     id="path4160-6-1"
     d="m 6.4999605,0.4999623 c 8.0202885,0 35.0000415,0.00298 35.0000415,0.00298 l 3.7e-5,43.9970957 c 0,0 -23.333385,0 -35.0000785,0 0,-14.666738 0,-29.333326 0,-43.9998923 z" />
  <path
     inkscape:connector-curvature="0"
     style="font-style:normal;font-variant:normal;font-weight:normal;font-stretch:normal;font-size:15.12844849px;line-height:125%;font-family:'Latin Modern Roman';-inkscape-font-specification:'Latin Modern Roman';text-align:start;letter-spacing:0px;word-spacing:0px;writing-mode:lr-tb;text-anchor:start;opacity:1;fill:#fafafa;fill-opacity:1;stroke:none"
     d="m 27.62963,15.5 0,0.555555 0.37037,0 c 0.986149,0 1.325997,0.127591 1.666667,0.62963 l 3.296296,5 L 30,26.018518 c -0.25102,0.358601 -0.781663,1.185185 -2.592593,1.185185 l 0,0.555557 2,-0.07407 c 0.66341,0 1.650816,0.02028 2.296296,0.07407 l 0,-0.555557 c -0.824779,-0.01793 -1.148148,-0.529111 -1.148148,-0.851851 0,-0.16137 0.05969,-0.210177 0.185185,-0.407407 l 2.555557,-3.777778 2.814813,4.296296 c 0.03586,0.07171 0.111112,0.131395 0.111112,0.185185 0,0.21516 -0.414194,0.537625 -1.185185,0.555555 l 0,0.555557 c 0.627551,-0.05379 1.948289,-0.07407 2.62963,-0.07407 L 40,27.75926 l 0,-0.555557 -0.333333,0 c -0.932361,0 -1.327175,-0.110838 -1.703704,-0.666666 L 34.185185,20.833333 36.62963,17.24074 c 0.394461,-0.57376 1.03386,-1.167254 2.62963,-1.185185 l 0,-0.555555 -2,0.07407 c -0.717201,0 -1.579097,-0.02028 -2.296297,-0.07407 l 0,0.555555 c 0.7172,0.01793 1.111112,0.402426 1.111112,0.814815 0,0.179299 -0.02264,0.247215 -0.14815,0.444445 l -2.074073,3 -2.296297,-3.444445 c -0.03586,-0.05379 -0.11111,-0.18754 -0.11111,-0.25926 0,-0.21516 0.377157,-0.537624 1.148148,-0.555555 l 0,-0.555555 c -0.62755,0.05379 -1.948291,0.07407 -2.62963,0.07407 L 27.62963,15.5 Z M 8.333333,15.61111 8,19.648148 l 0.4444447,0 c 0.2510198,-2.886729 0.5147916,-3.481481 3.2222223,-3.481481 0.32274,0 0.783664,0.0012 0.962963,0.03703 0.376529,0.07171 0.407407,0.254278 0.407407,0.666667 l 0,9.444445 c 0,0.609619 -0.0063,0.888888 -1.888889,0.888888 l -0.740741,0 0,0.555557 c 0.735131,-0.05379 2.582628,-0.07407 3.407408,-0.07407 0.82478,0 2.672278,0.02028 3.407407,0.07407 l 0,-0.555557 -0.74074,0 c -1.882649,0 -1.851852,-0.279269 -1.851852,-0.888888 l 0,-9.444445 c 0,-0.358599 -0.02644,-0.594946 0.296295,-0.666667 0.197231,-0.03586 0.696368,-0.03703 1.037038,-0.03703 2.707428,0 2.971202,0.594752 3.222222,3.481481 l 0.444445,0 -0.333333,-4.037038 -10.962964,0 z m 9.703704,4.703705 0,0.555555 0.444445,0 c 1.380609,0 1.407408,0.169336 1.407408,0.814815 l 0,9.407408 c 0,0.645478 -0.02679,0.851852 -1.407408,0.851852 l -0.444445,0 0,0.555555 10.333333,0 0.777778,-4.62963 -0.481481,0 c -0.44825,2.761219 -0.841967,4.074075 -3.925927,4.074075 l -2.37037,0 c -0.842709,0 -0.888888,-0.149052 -0.888888,-0.740742 l 0,-4.777778 1.592593,0 c 1.739208,0 1.962962,0.587063 1.962962,2.111112 l 0.444445,0 0,-4.777777 -0.444445,0 c 0,1.541978 -0.223754,2.11111 -1.962962,2.11111 l -1.592593,0 0,-4.296295 c 0,-0.59169 0.04619,-0.703705 0.888888,-0.703705 l 2.296297,0 c 2.743288,0 3.231638,0.952175 3.518518,3.444445 l 0.444445,0 -0.51852,-4 -10.074073,0 z"
     id="path4447" />
  <g
     id="g983"
     transform="rotate(180,17.687038,-0.5303885)">
    <g
       id="g975">
      <g
         id="g968">
        <path
           id="path2555-7-6-5-7-3"
           d="m -0.9466741,-18.304919 c -1.247926,0 -2.474612,0.09002 -3.67925,0.249598 V -3.060777 H 23.852336 C 19.270398,-12.097853 9.8835024,-18.304919 -0.9466741,-18.304919 Z"
           style="color:#000000;clip-rule:nonzero;display:inline;overflow:visible;visibility:visible;opacity:0.6;isolation:auto;mix-blend-mode:normal;color-interpolation:sRGB;color-interpolation-filters:linearRGB;solid-color:#000000;solid-opacity:1;fill:url(#radialGradient4310-2);fill-opacity:1;fill-rule:evenodd;stroke:none;stroke-width:1px;stroke-linecap:butt;stroke-linejoin:miter;stroke-miterlimit:4;stroke-dasharray:none;stroke-dashoffset:0;stroke-opacity:1;marker:none;color-rendering:auto;image-rendering:auto;shape-rendering:auto;text-rendering:auto;enable-background:accumulate" />
        <path
           id="path2555-7-6-5-6"
           d="m -0.9466741,-12.975853 c -1.253547,0 -2.481348,0.107778 -3.67925,0.305543 v 9.609533 H 17.682408 c -4.03277,-5.977525 -10.8752626,-9.915076 -18.6290821,-9.915076 z"
           style="color:#000000;clip-rule:nonzero;display:inline;overflow:visible;visibility:visible;isolation:auto;mix-blend-mode:normal;color-interpolation:sRGB;color-interpolation-filters:linearRGB;solid-color:#000000;solid-opacity:1;fill:url(#linearGradient3275-0-5);fill-opacity:1;fill-rule:evenodd;stroke:none;stroke-width:1px;stroke-linecap:butt;stroke-linejoin:miter;stroke-miterlimit:4;stroke-dasharray:none;stroke-dashoffset:0;stroke-opacity:1;marker:none;color-rendering:auto;image-rendering:auto;shape-rendering:auto;text-rendering:auto;enable-background:accumulate" />
        <path
           id="path8655-6-9-8-0"
           d="m 16.329117,-3.13669 c -3.850359,-5.434139 -10.1939246,-8.986173 -17.3726615,-8.986173 -1.2291951,0 -2.4319421,0.109218 -3.6040543,0.3089"
           style="color:#000000;display:inline;overflow:visible;visibility:visible;opacity:0.8;fill:none;stroke:url(#linearGradient4488-3);stroke-width:1;stroke-linecap:butt;stroke-linejoin:round;stroke-miterlimit:4;stroke-dasharray:none;stroke-dashoffset:0;stroke-opacity:1;marker:none;enable-background:accumulate" />
        <path
           id="path2555-7-4-7-3-6"
           d="m 17.656085,-3.136211 c -4.03277,-5.977525 -10.8752636,-9.915076 -18.6290817,-9.915076 -1.253547,0 -2.481348,0.107778 -3.679252,0.305543"
           style="color:#000000;clip-rule:nonzero;display:inline;overflow:visible;visibility:visible;opacity:0.3;isolation:auto;mix-blend-mode:normal;color-interpolation:sRGB;color-interpolation-filters:linearRGB;solid-color:#000000;solid-opacity:1;fill:none;fill-opacity:1;fill-rule:evenodd;stroke:#d25000;stroke-width:1;stroke-linecap:butt;stroke-linejoin:miter;stroke-miterlimit:4;stroke-dasharray:none;stroke-dashoffset:0;stroke-opacity:1;marker:none;color-rendering:auto;image-rendering:auto;shape-rendering:auto;text-rendering:auto;enable-background:accumulate" />
      </g>
    </g>
  </g>
</svg>
