<?xml version="1.0" encoding="UTF-8" standalone="no"?>
<svg
   xmlns:dc="http://purl.org/dc/elements/1.1/"
   xmlns:cc="http://creativecommons.org/ns#"
   xmlns:rdf="http://www.w3.org/1999/02/22-rdf-syntax-ns#"
   xmlns:svg="http://www.w3.org/2000/svg"
   xmlns="http://www.w3.org/2000/svg"
   xmlns:xlink="http://www.w3.org/1999/xlink"
   xmlns:sodipodi="http://sodipodi.sourceforge.net/DTD/sodipodi-0.dtd"
   xmlns:inkscape="http://www.inkscape.org/namespaces/inkscape"
   inkscape:version="1.0 (4035a4fb49, 2020-05-01)"
   sodipodi:docname="arcolinux-hello.svg"
   id="svg3844"
   height="64"
   width="64"
   version="1.1">
  <sodipodi:namedview
     inkscape:current-layer="svg3844"
     inkscape:window-maximized="1"
     inkscape:window-y="38"
     inkscape:window-x="0"
     inkscape:cy="24.475754"
     inkscape:cx="33.666837"
     inkscape:zoom="8.296875"
     showgrid="true"
     id="namedview38"
     inkscape:window-height="698"
     inkscape:window-width="1366"
     inkscape:pageshadow="2"
     inkscape:pageopacity="0"
     guidetolerance="10"
     gridtolerance="10"
     objecttolerance="10"
     borderopacity="1"
     bordercolor="#666666"
     pagecolor="#ffffff">
    <inkscape:grid
       id="grid40"
       type="xygrid" />
  </sodipodi:namedview>
  <defs
     id="defs3846">
    <linearGradient
       gradientTransform="matrix(1.0843523,0,0,1.1997367,79.550862,-4.1628601)"
       gradientUnits="userSpaceOnUse"
       xlink:href="#linearGradient3104-6"
       id="linearGradient3033"
       y2="2.9062471"
       x2="-51.786404"
       y1="50.786446"
       x1="-51.786404" />
    <linearGradient
       id="linearGradient3104-6">
      <stop
         offset="0"
         style="stop-color:#000000;stop-opacity:0.31782946"
         id="stop3106-3" />
      <stop
         offset="1"
         style="stop-color:#000000;stop-opacity:0.24031007"
         id="stop3108-9" />
    </linearGradient>
    <linearGradient
       gradientTransform="matrix(1.2162162,0,0,1.5405376,2.8108184,-6.9729501)"
       gradientUnits="userSpaceOnUse"
       xlink:href="#linearGradient3977-4"
       id="linearGradient3093"
       y2="42.175503"
       x2="23.99999"
       y1="5.8641062"
       x1="23.99999" />
    <linearGradient
       id="linearGradient3977-4">
      <stop
         offset="0"
         style="stop-color:#ffffff;stop-opacity:1"
         id="stop3979-7" />
      <stop
         offset="0"
         style="stop-color:#ffffff;stop-opacity:0.23529412"
         id="stop3981-6" />
      <stop
         offset="1"
         style="stop-color:#ffffff;stop-opacity:0.15686275"
         id="stop3983-5" />
      <stop
         offset="1"
         style="stop-color:#ffffff;stop-opacity:0.39215687"
         id="stop3985-6" />
    </linearGradient>
    <linearGradient
       gradientTransform="matrix(1.3142827,0,0,1.2602393,0.4572141,-2.1793201)"
       gradientUnits="userSpaceOnUse"
       xlink:href="#linearGradient3600-9"
       id="linearGradient3096"
       y2="47.013336"
       x2="25.132275"
       y1="0.98520643"
       x1="25.132275" />
    <linearGradient
       id="linearGradient3600-9">
      <stop
         offset="0"
         style="stop-color:#f4f4f4;stop-opacity:1"
         id="stop3602-3" />
      <stop
         offset="1"
         style="stop-color:#dbdbdb;stop-opacity:1"
         id="stop3604-7" />
    </linearGradient>
    <radialGradient
       gradientTransform="matrix(0.03132633,0,0,0.02058823,35.220859,49.45142)"
       gradientUnits="userSpaceOnUse"
       xlink:href="#linearGradient5060"
       id="radialGradient3153"
       fy="486.64789"
       fx="605.71429"
       r="117.14286"
       cy="486.64789"
       cx="605.71429" />
    <linearGradient
       id="linearGradient5060">
      <stop
         offset="0"
         style="stop-color:#000000;stop-opacity:1"
         id="stop5062" />
      <stop
         offset="1"
         style="stop-color:#000000;stop-opacity:0"
         id="stop5064" />
    </linearGradient>
    <radialGradient
       gradientTransform="matrix(-0.03132632,0,0,0.02058823,28.779136,49.45142)"
       gradientUnits="userSpaceOnUse"
       xlink:href="#linearGradient5060"
       id="radialGradient3156"
       fy="486.64789"
       fx="605.71429"
       r="117.14286"
       cy="486.64789"
       cx="605.71429" />
    <linearGradient
       id="linearGradient5048">
      <stop
         offset="0"
         style="stop-color:#000000;stop-opacity:0"
         id="stop5050" />
      <stop
         offset="0.5"
         style="stop-color:#000000;stop-opacity:1"
         id="stop5056" />
      <stop
         offset="1"
         style="stop-color:#000000;stop-opacity:0"
         id="stop5052" />
    </linearGradient>
    <linearGradient
       gradientTransform="matrix(0.09153846,0,0,0.02058823,-1.084616,49.45142)"
       gradientUnits="userSpaceOnUse"
       xlink:href="#linearGradient5048"
       id="linearGradient3842"
       y2="609.50507"
       x2="302.85715"
       y1="366.64789"
       x1="302.85715" />
  </defs>
  <metadata
     id="metadata3849">
    <rdf:RDF>
      <cc:Work
         rdf:about="">
        <dc:format>image/svg+xml</dc:format>
        <dc:type
           rdf:resource="http://purl.org/dc/dcmitype/StillImage" />
        <dc:title></dc:title>
      </cc:Work>
    </rdf:RDF>
  </metadata>
  <rect
     width="44.199997"
     height="5"
     x="9.8999996"
     y="57.000004"
     id="rect2879"
     style="display:inline;overflow:visible;visibility:visible;opacity:0.15;fill:url(#linearGradient3842);fill-opacity:1;fill-rule:nonzero;stroke:none;stroke-width:1;marker:none" />
  <path
     d="m 9.9,57.00022 c 0,0 0,4.9997 0,4.9997 -1.6132281,0.01 -3.9,-1.1202 -3.9,-2.5002 0,-1.38 1.8002408,-2.4995 3.9,-2.4995 z"
     id="path2881"
     style="display:inline;overflow:visible;visibility:visible;opacity:0.15;fill:url(#radialGradient3156);fill-opacity:1;fill-rule:nonzero;stroke:none;stroke-width:1;marker:none" />
  <path
     d="m 54.099999,57.00022 c 0,0 0,4.9997 0,4.9997 C 55.713227,62.00992 58,60.87972 58,59.49972 c 0,-1.38 -1.800241,-2.4995 -3.900001,-2.4995 z"
     id="path2883"
     style="display:inline;overflow:visible;visibility:visible;opacity:0.15;fill:url(#radialGradient3153);fill-opacity:1;fill-rule:nonzero;stroke:none;stroke-width:1;marker:none" />
  <path
     d="m 9,0.9998799 c 10.540935,0 45.999945,0.004 45.999945,0.004 L 55,59.00002 c 0,0 -30.666666,0 -46,0 0,-19.3334 0,-38.6665 0,-57.9998201 z"
     id="path4160-6"
     style="display:inline;fill:url(#linearGradient3096);fill-opacity:1;stroke:none" />
  <path
     d="m 54.499999,58.50002 -44.9999992,0 0,-57.0000401 44.9999992,0 z"
     id="rect6741-1-8"
     style="fill:none;stroke:url(#linearGradient3093);stroke-width:1;stroke-linecap:round;stroke-linejoin:miter;stroke-miterlimit:4;stroke-dasharray:none;stroke-dashoffset:0;stroke-opacity:1" />
  <path
     d="m 8.4999684,0.4998999 c 10.7700936,0 47.0000286,0.004 47.0000286,0.004 l 4.9e-5,58.9962201 c 0,0 -31.333384,0 -47.0000776,0 0,-19.6668 0,-39.3334 0,-58.9999701 z"
     id="path4160-6-1"
     style="display:inline;fill:none;stroke:url(#linearGradient3033);stroke-width:0.9999218;stroke-linecap:butt;stroke-linejoin:round;stroke-miterlimit:4;stroke-dasharray:none;stroke-dashoffset:0;stroke-opacity:1" />
  <path
     style="color:#000000;clip-rule:nonzero;display:inline;overflow:visible;visibility:visible;opacity:1;isolation:auto;mix-blend-mode:normal;color-interpolation:sRGB;color-interpolation-filters:linearRGB;solid-color:#000000;solid-opacity:1;fill:#ed5353;fill-opacity:1;fill-rule:nonzero;stroke:none;stroke-width:1;stroke-linecap:butt;stroke-linejoin:miter;stroke-miterlimit:4;stroke-dasharray:none;stroke-dashoffset:0;stroke-opacity:1;marker:none;color-rendering:auto;image-rendering:auto;shape-rendering:auto;text-rendering:auto;enable-background:accumulate"
     d="M 21.5,42 C 21.223,42 21,42.223 21,42.5 v 1 c 0,0.277 0.223,0.5 0.5,0.5 h 1 c 0.277,0 0.5,-0.223 0.5,-0.5 v -1 C 23,42.223 22.777,42 22.5,42 Z m 5,0 C 26.223,42 26,42.223 26,42.5 v 1 c 0,0.277 0.223,0.5 0.5,0.5 h 17 c 0.277,0 0.5,-0.223 0.5,-0.5 v -1 C 44,42.223 43.777,42 43.5,42 Z"
     id="rect4250-5" />
  <path
     style="color:#000000;clip-rule:nonzero;display:inline;overflow:visible;visibility:visible;opacity:1;isolation:auto;mix-blend-mode:normal;color-interpolation:sRGB;color-interpolation-filters:linearRGB;solid-color:#000000;solid-opacity:1;fill:#68b723;fill-opacity:1;fill-rule:nonzero;stroke:none;stroke-width:1;stroke-linecap:butt;stroke-linejoin:miter;stroke-miterlimit:4;stroke-dasharray:none;stroke-dashoffset:0;stroke-opacity:1;marker:none;color-rendering:auto;image-rendering:auto;shape-rendering:auto;text-rendering:auto;enable-background:accumulate"
     d="M 21.5,44 C 21.223,44 21,44.223 21,44.5 v 1 c 0,0.277 0.223,0.5 0.5,0.5 h 1 c 0.277,0 0.5,-0.223 0.5,-0.5 v -1 C 23,44.223 22.777,44 22.5,44 Z m 5,0 C 26.223,44 26,44.223 26,44.5 v 1 c 0,0.277 0.223,0.5 0.5,0.5 h 17 c 0.277,0 0.5,-0.223 0.5,-0.5 v -1 C 44,44.223 43.777,44 43.5,44 Z"
     id="rect4250-5-5" />
  <g
     style="font-size:18.6667px;line-height:1.25;font-family:sans-serif"
     id="text44"
     aria-label="hello">
    <path
       id="path130"
       style="font-style:normal;font-variant:normal;font-weight:normal;font-stretch:normal;font-family:'Futura LT Pro';-inkscape-font-specification:'Futura LT Pro';fill:#ed5353"
       d="M 16.418669,24.599972 V 40 h 1.493336 v -4.330674 c 0,-2.482672 0.765335,-3.304006 2.184004,-3.304006 1.194669,0 1.848004,0.504 1.848004,2.520004 V 40 h 1.493336 v -5.301343 c 0,-2.482671 -0.970669,-3.714673 -2.986672,-3.714673 -1.101336,0 -1.885337,0.466667 -2.501338,1.306669 l -0.03733,-0.03733 v -7.653347 z" />
    <path
       id="path132"
       style="font-style:normal;font-variant:normal;font-weight:normal;font-stretch:normal;font-family:'Futura LT Pro';-inkscape-font-specification:'Futura LT Pro';fill:#ffa154"
       d="m 29.746691,30.983984 c -2.594672,0 -4.256008,1.960003 -4.256008,4.741342 0,2.594671 1.75467,4.517341 4.293341,4.517341 1.792003,0 3.210673,-0.896002 4.050674,-2.464004 l -1.269336,-0.728002 c -0.690667,1.250669 -1.568002,1.81067 -2.669338,1.81067 -1.605336,0 -2.837338,-1.194669 -2.874672,-2.930672 h 6.888013 c 0.01867,-0.205333 0.01867,-0.224 0.01867,-0.354667 0,-2.445338 -1.493336,-4.592008 -4.181341,-4.592008 z m -2.650672,3.67734 c 0.186667,-1.325336 1.456003,-2.296004 2.669338,-2.296004 1.250669,0 2.352005,0.952001 2.576005,2.296004 z" />
    <path
       id="path134"
       style="font-style:normal;font-variant:normal;font-weight:normal;font-stretch:normal;font-family:'Futura LT Pro';-inkscape-font-specification:'Futura LT Pro';fill:#43d6b5"
       d="M 35.925352,24.599972 V 40 h 1.493336 V 24.599972 Z" />
    <path
       id="path136"
       style="font-style:normal;font-variant:normal;font-weight:normal;font-stretch:normal;font-family:'Futura LT Pro';-inkscape-font-specification:'Futura LT Pro';fill:#64baff"
       d="M 40.181335,24.599972 V 40 h 1.493336 V 24.599972 Z" />
    <path
       id="path138"
       style="font-style:normal;font-variant:normal;font-weight:normal;font-stretch:normal;font-family:'Futura LT Pro';-inkscape-font-specification:'Futura LT Pro';fill:#f4679d"
       d="m 52.893345,35.631992 c 0,-2.501338 -1.978671,-4.648008 -4.610675,-4.648008 -2.594672,0 -4.610675,2.09067 -4.610675,4.648008 0,2.576005 2.03467,4.610675 4.610675,4.610675 2.613338,0 4.610675,-2.072004 4.610675,-4.610675 z m -4.610675,3.229339 c -1.773337,0 -3.117339,-1.400002 -3.117339,-3.248006 0,-1.81067 1.288002,-3.248005 3.098672,-3.248005 1.848003,0 3.136006,1.437335 3.136006,3.248005 0,1.829337 -1.288003,3.248006 -3.117339,3.248006 z" />
  </g>
</svg>
