<?xml version="1.0" encoding="UTF-8" standalone="no"?>
<svg
   xmlns:dc="http://purl.org/dc/elements/1.1/"
   xmlns:cc="http://creativecommons.org/ns#"
   xmlns:rdf="http://www.w3.org/1999/02/22-rdf-syntax-ns#"
   xmlns:svg="http://www.w3.org/2000/svg"
   xmlns="http://www.w3.org/2000/svg"
   xmlns:xlink="http://www.w3.org/1999/xlink"
   xmlns:sodipodi="http://sodipodi.sourceforge.net/DTD/sodipodi-0.dtd"
   xmlns:inkscape="http://www.inkscape.org/namespaces/inkscape"
   id="svg3489"
   height="64"
   width="64"
   version="1.1"
   sodipodi:docname="atom-beta.svg"
   inkscape:version="0.92.4 5da689c313, 2019-01-14">
  <sodipodi:namedview
     pagecolor="#ffffff"
     bordercolor="#666666"
     borderopacity="1"
     objecttolerance="10"
     gridtolerance="10"
     guidetolerance="10"
     inkscape:pageopacity="0"
     inkscape:pageshadow="2"
     inkscape:window-width="1366"
     inkscape:window-height="743"
     id="namedview56"
     showgrid="true"
     inkscape:zoom="3.6875"
     inkscape:cx="38.863306"
     inkscape:cy="24.638051"
     inkscape:window-x="0"
     inkscape:window-y="-1"
     inkscape:window-maximized="1"
     inkscape:current-layer="svg3489">
    <inkscape:grid
       type="xygrid"
       id="grid920" />
  </sodipodi:namedview>
  <defs
     id="defs3491">
    <linearGradient
       id="linearGradient4806">
      <stop
         offset="0"
         style="stop-color:#ffffff;stop-opacity:1"
         id="stop4808" />
      <stop
         offset="0.42447853"
         style="stop-color:#ffffff;stop-opacity:0.23529412"
         id="stop4810" />
      <stop
         offset="0.82089913"
         style="stop-color:#ffffff;stop-opacity:0.15686275"
         id="stop4812" />
      <stop
         offset="1"
         style="stop-color:#ffffff;stop-opacity:0.39215687"
         id="stop4814" />
    </linearGradient>
    <linearGradient
       gradientTransform="matrix(2.3268746,0,0,2.3268746,-135.94475,-32.842783)"
       gradientUnits="userSpaceOnUse"
       xlink:href="#linearGradient4806"
       id="linearGradient3293"
       y2="40.495617"
       x2="71.204407"
       y1="15.369057"
       x1="71.204407" />
    <linearGradient
       id="linearGradient23419">
      <stop
         offset="0"
         style="stop-color:#000000;stop-opacity:1"
         id="stop23421" />
      <stop
         offset="1"
         style="stop-color:#000000;stop-opacity:0"
         id="stop23423" />
    </linearGradient>
    <linearGradient
       id="linearGradient8838">
      <stop
         offset="0"
         style="stop-color:#000000;stop-opacity:1"
         id="stop8840" />
      <stop
         offset="1"
         style="stop-color:#000000;stop-opacity:0"
         id="stop8842" />
    </linearGradient>
    <linearGradient
       id="linearGradient2867-449-88-871-390-598-476-591-434-148-57-177-3-8-8-9">
      <stop
         offset="0"
         style="stop-color:#fff394;stop-opacity:1"
         id="stop3750-8-9-0" />
      <stop
         offset="0.26238"
         style="stop-color:#ffe16b;stop-opacity:1"
         id="stop3752-3-2-2" />
      <stop
         offset="0.704952"
         style="stop-color:#f9c440;stop-opacity:1"
         id="stop3754-7-2-2" />
      <stop
         offset="1"
         style="stop-color:#d48e15;stop-opacity:1"
         id="stop3756-9-3-05" />
    </linearGradient>
    <linearGradient
       id="linearGradient3104-8-8-97-4-6-2-0-1-4-0-5-8-3-9-1">
      <stop
         offset="0"
         style="stop-color:#000000;stop-opacity:0.32173914"
         id="stop3106-5-4-3-5-0-1-61-9-2-7-3-3-2-6-9" />
      <stop
         offset="1"
         style="stop-color:#000000;stop-opacity:0.27826086"
         id="stop3108-4-3-7-8-2-4-01-9-9-0-6-4-3-7-7" />
    </linearGradient>
    <linearGradient
       id="linearGradient4632-92-3-0-8-1-6-6">
      <stop
         offset="0"
         style="stop-color:#fafafa;stop-opacity:1"
         id="stop4634-68-8-0-2-9-1-1" />
      <stop
         offset="1"
         style="stop-color:#e1e1e1;stop-opacity:1"
         id="stop4636-8-21-7-1-4-9-4" />
    </linearGradient>
    <linearGradient
       id="linearGradient4011-7-0">
      <stop
         offset="0"
         style="stop-color:#ffffff;stop-opacity:1"
         id="stop4013-4" />
      <stop
         offset="0.507761"
         style="stop-color:#ffffff;stop-opacity:0.23529412"
         id="stop4015-61" />
      <stop
         offset="0.83456558"
         style="stop-color:#ffffff;stop-opacity:0.15686275"
         id="stop4017-2" />
      <stop
         offset="1"
         style="stop-color:#ffffff;stop-opacity:0.39215687"
         id="stop4019-2" />
    </linearGradient>
    <linearGradient
       gradientTransform="matrix(0.72972969,0,0,0.72972969,-4.3460816,29.49607)"
       gradientUnits="userSpaceOnUse"
       xlink:href="#linearGradient4011-7-0"
       id="linearGradient3306"
       y2="42.883553"
       x2="71.204407"
       y1="7.8309216"
       x1="71.204407" />
    <linearGradient
       gradientTransform="matrix(1.1151168,0,0,1.1513607,154.34934,-4.9719397)"
       gradientUnits="userSpaceOnUse"
       xlink:href="#linearGradient3104-8-8-97-4-6-2-0-1-4-0-5-8-3-9-1"
       id="linearGradient3315"
       y2="5.1757793"
       x2="-95.837799"
       y1="54.199703"
       x1="-95.837799" />
    <radialGradient
       gradientTransform="matrix(0,7.1951254,-7.6115838,-1.9584024e-7,96.316284,-28.423918)"
       gradientUnits="userSpaceOnUse"
       xlink:href="#linearGradient2867-449-88-871-390-598-476-591-434-148-57-177-3-8-8-9"
       id="radialGradient3328"
       fy="8.4497671"
       fx="1.1978998"
       r="19.99999"
       cy="8.4497671"
       cx="1.1978998" />
    <radialGradient
       gradientTransform="matrix(1.3176471,0,0,0.37647,-34.517651,58.258824)"
       gradientUnits="userSpaceOnUse"
       xlink:href="#linearGradient8838"
       id="radialGradient3384"
       fy="4.625"
       fx="62.625"
       r="10.625"
       cy="4.625"
       cx="62.625" />
    <radialGradient
       gradientTransform="matrix(0,1.7065212,-1.8052958,-4.6448879e-8,63.254408,23.291389)"
       gradientUnits="userSpaceOnUse"
       xlink:href="#linearGradient4632-92-3-0-8-1-6-6"
       id="radialGradient3399"
       fy="8.4497671"
       fx="6.2751122"
       r="19.99999"
       cy="8.4497671"
       cx="6.2751122" />
    <radialGradient
       r="62.769119"
       fy="185.29727"
       fx="99.189415"
       cy="185.29727"
       cx="99.189415"
       gradientTransform="matrix(0.3823536,7.5555777e-8,-1.8372241e-8,0.1115198,-5.9254271,36.335849)"
       gradientUnits="userSpaceOnUse"
       id="radialGradient3300-9"
       xlink:href="#linearGradient23419" />
    <radialGradient
       r="62.769119"
       fy="185.29727"
       fx="99.189415"
       cy="185.29727"
       cx="99.189415"
       gradientTransform="matrix(0.2549024,5.3967361e-8,-1.2248161e-8,0.07965545,6.7163816,44.240666)"
       gradientUnits="userSpaceOnUse"
       id="radialGradient4192"
       xlink:href="#linearGradient23419" />
  </defs>
  <metadata
     id="metadata3494">
    <rdf:RDF>
      <cc:Work
         rdf:about="">
        <dc:format>image/svg+xml</dc:format>
        <dc:type
           rdf:resource="http://purl.org/dc/dcmitype/StillImage" />
        <dc:title></dc:title>
      </cc:Work>
    </rdf:RDF>
  </metadata>
  <path
     style="display:inline;overflow:visible;visibility:visible;opacity:0.3;fill:url(#radialGradient3384);fill-opacity:1;fill-rule:evenodd;stroke:none;stroke-width:0.99999988;marker:none"
     id="path8836"
     d="m 62,60 c 0,2.209139 -6.268019,4 -14,4 -7.73199,0 -14,-1.790861 -14,-4 0,-2.209139 6.26801,-4 14,-4 7.731981,0 14,1.790861 14,4 l 0,0 z" />
  <g
     id="g4198"
     transform="translate(1.55e-6,-0.00183192)">
    <path
       style="opacity:0.2;fill:url(#radialGradient3300-9);fill-opacity:1;stroke:none"
       id="path3818-0"
       d="m 55.999998,57.0017 a 24,6.9985714 0 1 1 -47.9999991,0 24,6.9985714 0 1 1 47.9999991,0 z" />
    <path
       d="m 47.999998,59.0017 a 16,4.9988822 0 1 1 -31.999999,0 16,4.9988822 0 1 1 31.999999,0 z"
       id="path4190"
       style="opacity:0.4;fill:url(#radialGradient4192);fill-opacity:1;stroke:none" />
  </g>
  <path
     style="color:#000000;fill:url(#radialGradient3328);fill-opacity:1;fill-rule:nonzero;stroke:none;stroke-width:1;marker:none;visibility:visible;display:inline;overflow:visible;enable-background:accumulate"
     id="path2555-9"
     d="m 32.000008,2.4999964 c -16.277082,0 -29.5000035,13.2229156 -29.5000035,29.4999996 0,16.277084 13.2229215,29.500007 29.5000035,29.500003 16.277076,0 29.500012,-13.222919 29.499996,-29.500003 0,-16.277084 -13.22292,-29.4999996 -29.499996,-29.4999996 z" />
  <path
     style="opacity:0.5;color:#000000;fill:none;stroke:url(#linearGradient3293);stroke-width:1;stroke-linecap:round;stroke-linejoin:round;stroke-miterlimit:4;stroke-opacity:1;stroke-dasharray:none;stroke-dashoffset:0;marker:none;visibility:visible;display:inline;overflow:visible;enable-background:accumulate"
     id="path3019"
     d="m 60.50001,31.999999 c 0,15.740115 -12.7599,28.499999 -28.50002,28.499999 -15.740099,0 -28.499991,-12.759884 -28.499991,-28.499999 0,-15.740116 12.759892,-28.5000013 28.499991,-28.5000013 15.74012,0 28.50002,12.7598853 28.50002,28.5000013 z" />
  <path
     style="opacity:0.5;color:#000000;fill:#000000;fill-opacity:0;fill-rule:nonzero;stroke:#ad5f00;stroke-width:1;stroke-linecap:round;stroke-linejoin:round;stroke-miterlimit:4;stroke-opacity:1;stroke-dasharray:none;stroke-dashoffset:0;marker:none;visibility:visible;display:inline;overflow:visible;enable-background:accumulate"
     id="path2555-7-1"
     d="m 32,2.499999 c -16.277082,0 -29.5,13.222915 -29.5,29.499998 0,16.277083 13.222918,29.500005 29.5,29.5 16.27708,0 29.50001,-13.222917 29.5,-29.5 C 61.5,15.722914 48.27708,2.499999 32,2.499999 z" />
  <path
     inkscape:connector-curvature="0"
     d="m 26.628336,19.002141 c -0.341459,-0.01115 -0.66446,0.02142 -0.879027,0.09398 -1.049755,0.362203 -1.708449,1.141465 -2.07298,2.442284 -0.314926,1.133455 -0.306851,3.173301 0.02307,4.948457 0.05768,0.308277 0.116512,0.587962 0.130353,0.633785 0.0173,0.06426 -0.0946,0.103097 -0.590632,0.216631 -2.425972,0.556947 -4.196714,1.387807 -5.261466,2.466216 -0.477581,0.480113 -0.742904,0.899595 -0.89633,1.430186 -0.108432,0.367882 -0.108432,1.096757 0,1.458867 0.297623,0.998316 1.136274,1.934513 2.460581,2.764253 0.919402,0.570732 1.193953,0.634903 1.491576,0.335752 0.13958,-0.139799 0.17073,-0.207412 0.17073,-0.375893 0,-0.325414 -0.09921,-0.45841 -0.5318,-0.707083 -2.713214,-1.535705 -3.190796,-3.075883 -1.378525,-4.445433 0.919402,-0.693299 2.205641,-1.242236 3.936005,-1.667398 0.757901,-0.185712 0.928631,-0.20974 0.928631,-0.110088 0,0.13524 0.558333,1.931064 0.846729,2.705762 l 0.297623,0.810274 -0.392216,0.763245 c -1.567715,3.044961 -2.573633,6.148317 -2.694759,8.41858 -0.09921,1.749915 0.215718,3.001373 0.982847,3.776072 0.837496,0.843431 2.018763,1.024581 3.53687,0.535153 0.572171,-0.185616 1.708447,-0.766688 2.370603,-1.219324 0.477581,-0.320852 0.583709,-0.416034 0.647156,-0.584424 0.06344,-0.168481 0.06344,-0.222408 0,-0.398898 -0.0946,-0.263572 -0.29301,-0.41138 -0.562947,-0.41138 -0.175343,0 -0.296469,0.05589 -0.747518,0.364441 -1.023224,0.697955 -1.983001,1.133361 -2.780121,1.268595 -1.103975,0.190272 -1.81112,-0.299059 -2.136427,-1.45887 -0.13958,-0.503024 -0.131516,-2.115473 0.02308,-2.949777 0.234175,-1.327083 0.643696,-2.704554 1.229717,-4.154202 0.347225,-0.860659 1.009378,-2.30351 1.099357,-2.397576 0.04501,-0.05029 0.103818,0.03075 0.252633,0.375986 0.757901,1.712103 1.914939,3.802428 3.046599,5.492739 2.700528,4.030516 5.655991,6.652643 7.933154,7.02863 h -0.02422 c 1.000151,0.162708 1.845723,-0.08569 2.498648,-0.742753 0.531798,-0.544375 0.882488,-1.309852 1.082056,-2.374573 0.121124,-0.665825 0.121124,-2.531506 0,-3.437992 -0.369148,-2.714794 -1.354304,-5.823925 -2.827422,-8.924023 -0.229561,-0.484768 -0.357609,-0.603887 -0.655231,-0.603887 -0.333384,0 -0.603321,0.253232 -0.603321,0.579859 0,0.113431 0.113046,0.419481 0.302236,0.823965 1.815732,3.891934 2.791659,7.657667 2.69245,10.382896 -0.06113,1.622693 -0.463736,2.601449 -1.226251,2.977342 -0.400292,0.198192 -0.907867,0.191392 -1.574635,-0.02607 -3.061591,-1.041721 -7.20755,-6.252633 -9.879235,-12.415852 l -0.265323,-0.615436 0.387601,-0.664706 c 0.437207,-0.756351 1.541181,-2.446753 2.049909,-3.140051 l 0.342611,-0.460738 h 0.90325 c 5.477188,0 10.89785,1.245682 13.772567,3.153833 0.586019,0.389678 1.29316,1.101321 1.505419,1.517358 0.153424,0.28993 0.167269,0.366674 0.167269,0.751788 0,0.377012 -0.01383,0.46763 -0.139579,0.697955 -0.351843,0.679606 -1.279321,1.385571 -2.474426,1.888594 -0.553717,0.23498 -0.702528,0.390794 -0.702528,0.711739 0,0.271582 0.176496,0.498459 0.44182,0.579858 0.171882,0.05029 0.229561,0.04098 0.536413,-0.08009 1.928783,-0.766688 3.254242,-1.957422 3.524179,-3.162963 0.07613,-0.325602 0.07152,-0.93871 -0.0047,-1.256115 -0.144194,-0.622328 -0.659844,-1.418819 -1.250475,-1.953974 -2.632461,-2.374574 -8.215775,-3.905622 -14.840772,-4.064976 l -0.472968,-0.01404 0.553718,-0.624563 c 0.297666,-0.349489 0.82716,-0.929347 1.191688,-1.300678 1.883792,-1.925293 3.633771,-3.185876 5.162262,-3.710783 0.486808,-0.17202 0.584862,-0.192603 1.09013,-0.192603 0.469505,0 0.58371,0.01404 0.78674,0.119219 0.275707,0.130666 0.584863,0.452727 0.744058,0.756441 0.310312,0.621118 0.415288,1.709869 0.265322,2.869588 -0.04961,0.398806 -0.08997,0.859545 -0.08997,1.018806 0,0.268136 0.009,0.309394 0.162655,0.44118 0.125752,0.118091 0.211105,0.147899 0.373758,0.147899 0.261862,0 0.504114,-0.138683 0.576788,-0.328952 0.215719,-0.561512 0.328767,-2.552185 0.189186,-3.391053 -0.216832,-1.288054 -0.765935,-2.158029 -1.640346,-2.578627 -1.545796,-0.751788 -3.79066,-0.01583 -6.410433,2.095072 -1.369296,1.105889 -3.174645,2.981911 -4.418202,4.584022 l -0.121124,0.143242 -0.734832,0.04284 c -0.617161,0.0354 -1.621928,0.13524 -2.789348,0.275027 l -0.252662,0.03074 -0.110747,-0.620002 c -0.211064,-1.236556 -0.227216,-1.422176 -0.227216,-2.6049 0,-1.038271 0.01383,-1.237672 0.113046,-1.653614 0.243406,-1.050935 0.725602,-1.70428 1.361223,-1.839512 0.874413,-0.185618 1.959929,0.253328 3.483805,1.390226 0.486811,0.367884 1.079749,0.05401 1.007073,-0.526025 -0.03114,-0.253316 -0.263013,-0.471066 -1.038218,-0.991319 -0.649464,-0.440157 -1.378525,-0.802266 -1.973771,-0.978757 -0.293009,-0.08848 -0.654078,-0.137469 -0.99554,-0.147806 z m 1.165115,8.919554 c 0,0.02328 -0.206494,0.344972 -0.463739,0.725429 -0.257249,0.375894 -0.621781,0.929394 -0.810968,1.242237 -0.18457,0.303714 -0.365682,0.579953 -0.401444,0.62 -0.0496,0.05401 -0.122274,-0.09033 -0.342611,-0.796491 -0.314926,-0.9741 -0.449896,-1.498917 -0.409521,-1.54474 0.06691,-0.06893 2.428283,-0.315169 2.428283,-0.246435 z m 4.782732,3.684425 a 1.7303668,1.7190263 0 0 0 -1.730367,1.719089 1.7303668,1.7190263 0 0 0 1.730367,1.718996 1.7303668,1.7190263 0 0 0 1.730366,-1.718996 1.7303668,1.7190263 0 0 0 -1.730366,-1.719089 z"
     style="display:inline;opacity:0.3;fill:#000000;fill-opacity:1;stroke-width:1.45132244"
     id="path29-1-4-6" />
  <path
     inkscape:connector-curvature="0"
     d="m 26.628336,18.002141 c -0.341459,-0.01115 -0.66446,0.02142 -0.879027,0.09398 -1.049755,0.362203 -1.708449,1.141465 -2.07298,2.442284 -0.314926,1.133455 -0.306851,3.173301 0.02307,4.948457 0.05768,0.308277 0.116512,0.587962 0.130353,0.633785 0.0173,0.06426 -0.0946,0.103097 -0.590632,0.216631 -2.425972,0.556947 -4.196714,1.387807 -5.261466,2.466216 -0.477581,0.480113 -0.742904,0.899595 -0.89633,1.430186 -0.108432,0.367882 -0.108432,1.096757 0,1.458867 0.297623,0.998316 1.136274,1.934513 2.460581,2.764253 0.919402,0.570732 1.193953,0.634903 1.491576,0.335752 0.13958,-0.139799 0.17073,-0.207412 0.17073,-0.375893 0,-0.325414 -0.09921,-0.45841 -0.5318,-0.707083 -2.713214,-1.535705 -3.190796,-3.075883 -1.378525,-4.445433 0.919402,-0.693299 2.205641,-1.242236 3.936005,-1.667398 0.757901,-0.185712 0.928631,-0.20974 0.928631,-0.110088 0,0.13524 0.558333,1.931064 0.846729,2.705762 l 0.297623,0.810274 -0.392216,0.763245 c -1.567715,3.044961 -2.573633,6.148317 -2.694759,8.41858 -0.09921,1.749915 0.215718,3.001373 0.982847,3.776072 0.837496,0.843431 2.018763,1.024581 3.53687,0.535153 0.572171,-0.185616 1.708447,-0.766688 2.370603,-1.219324 0.477581,-0.320852 0.583709,-0.416034 0.647156,-0.584424 0.06344,-0.168481 0.06344,-0.222408 0,-0.398898 -0.0946,-0.263572 -0.29301,-0.41138 -0.562947,-0.41138 -0.175343,0 -0.296469,0.05589 -0.747518,0.364441 -1.023224,0.697955 -1.983001,1.133361 -2.780121,1.268595 -1.103975,0.190272 -1.81112,-0.299059 -2.136427,-1.45887 -0.13958,-0.503024 -0.131516,-2.115473 0.02308,-2.949777 0.234175,-1.327083 0.643696,-2.704554 1.229717,-4.154202 0.347225,-0.860659 1.009378,-2.30351 1.099357,-2.397576 0.04501,-0.05029 0.103818,0.03075 0.252633,0.375986 0.757901,1.712103 1.914939,3.802428 3.046599,5.492739 2.700528,4.030516 5.655991,6.652643 7.933154,7.02863 h -0.02422 c 1.000151,0.162708 1.845723,-0.08569 2.498648,-0.742753 0.531798,-0.544375 0.882488,-1.309852 1.082056,-2.374573 0.121124,-0.665825 0.121124,-2.531506 0,-3.437992 -0.369148,-2.714794 -1.354304,-5.823925 -2.827422,-8.924023 -0.229561,-0.484768 -0.357609,-0.603887 -0.655231,-0.603887 -0.333384,0 -0.603321,0.253232 -0.603321,0.579859 0,0.113431 0.113046,0.419481 0.302236,0.823965 1.815732,3.891934 2.791659,7.657667 2.69245,10.382896 -0.06113,1.622693 -0.463736,2.601449 -1.226251,2.977342 -0.400292,0.198192 -0.907867,0.191392 -1.574635,-0.02607 -3.061591,-1.041721 -7.20755,-6.252633 -9.879235,-12.415852 l -0.265323,-0.615436 0.387601,-0.664706 c 0.437207,-0.756351 1.541181,-2.446753 2.049909,-3.140051 l 0.342611,-0.460738 h 0.90325 c 5.477188,0 10.89785,1.245682 13.772567,3.153833 0.586019,0.389678 1.29316,1.101321 1.505419,1.517358 0.153424,0.28993 0.167269,0.366674 0.167269,0.751788 0,0.377012 -0.01383,0.46763 -0.139579,0.697955 -0.351843,0.679606 -1.279321,1.385571 -2.474426,1.888594 -0.553717,0.23498 -0.702528,0.390794 -0.702528,0.711739 0,0.271582 0.176496,0.498459 0.44182,0.579858 0.171882,0.05029 0.229561,0.04098 0.536413,-0.08009 1.928783,-0.766688 3.254242,-1.957422 3.524179,-3.162963 0.07613,-0.325602 0.07152,-0.93871 -0.0047,-1.256115 -0.144194,-0.622328 -0.659844,-1.418819 -1.250475,-1.953974 -2.632461,-2.374574 -8.215775,-3.905622 -14.840772,-4.064976 l -0.472968,-0.01404 0.553718,-0.624563 c 0.297666,-0.349489 0.82716,-0.929347 1.191688,-1.300678 1.883792,-1.925293 3.633771,-3.185876 5.162262,-3.710783 0.486808,-0.17202 0.584862,-0.192603 1.09013,-0.192603 0.469505,0 0.58371,0.01404 0.78674,0.119219 0.275707,0.130666 0.584863,0.452727 0.744058,0.756441 0.310312,0.621118 0.415288,1.709869 0.265322,2.869588 -0.04961,0.398806 -0.08997,0.859545 -0.08997,1.018806 0,0.268136 0.009,0.309394 0.162655,0.44118 0.125752,0.118091 0.211105,0.147899 0.373758,0.147899 0.261862,0 0.504114,-0.138683 0.576788,-0.328952 0.215719,-0.561512 0.328767,-2.552185 0.189186,-3.391053 -0.216832,-1.288054 -0.765935,-2.158029 -1.640346,-2.578627 -1.545796,-0.751788 -3.79066,-0.01583 -6.410433,2.095072 -1.369296,1.105889 -3.174645,2.981911 -4.418202,4.584022 l -0.121124,0.143242 -0.734832,0.04284 c -0.617161,0.0354 -1.621928,0.13524 -2.789348,0.275027 l -0.252662,0.03074 -0.110747,-0.620002 c -0.211064,-1.236556 -0.227216,-1.422176 -0.227216,-2.6049 0,-1.038271 0.01383,-1.237672 0.113046,-1.653614 0.243406,-1.050935 0.725602,-1.70428 1.361223,-1.839512 0.874413,-0.185618 1.959929,0.253328 3.483805,1.390226 0.486811,0.367884 1.079749,0.05401 1.007073,-0.526025 -0.03114,-0.253316 -0.263013,-0.471066 -1.038218,-0.991319 -0.649464,-0.440157 -1.378525,-0.802266 -1.973771,-0.978757 -0.293009,-0.08848 -0.654078,-0.137469 -0.99554,-0.147806 z m 1.165115,8.919554 c 0,0.02328 -0.206494,0.344972 -0.463739,0.725429 -0.257249,0.375894 -0.621781,0.929394 -0.810968,1.242237 -0.18457,0.303714 -0.365682,0.579953 -0.401444,0.62 -0.0496,0.05401 -0.122274,-0.09033 -0.342611,-0.796491 -0.314926,-0.9741 -0.449896,-1.498917 -0.409521,-1.54474 0.06691,-0.06893 2.428283,-0.315169 2.428283,-0.246435 z m 4.782732,3.684425 a 1.7303668,1.7190263 0 0 0 -1.730367,1.719089 1.7303668,1.7190263 0 0 0 1.730367,1.718996 1.7303668,1.7190263 0 0 0 1.730366,-1.718996 1.7303668,1.7190263 0 0 0 -1.730366,-1.719089 z"
     style="display:inline;opacity:1;fill:#ad5f00;fill-opacity:1;stroke-width:1.45132244"
     id="path29-1-4" />
</svg>
