<?xml version="1.0" encoding="UTF-8" standalone="no"?>
<svg
   xmlns:dc="http://purl.org/dc/elements/1.1/"
   xmlns:cc="http://creativecommons.org/ns#"
   xmlns:rdf="http://www.w3.org/1999/02/22-rdf-syntax-ns#"
   xmlns:svg="http://www.w3.org/2000/svg"
   xmlns="http://www.w3.org/2000/svg"
   xmlns:xlink="http://www.w3.org/1999/xlink"
   xmlns:sodipodi="http://sodipodi.sourceforge.net/DTD/sodipodi-0.dtd"
   xmlns:inkscape="http://www.inkscape.org/namespaces/inkscape"
   inkscape:version="0.92.5 (2060ec1f9f, 2020-04-08)"
   sodipodi:docname="com.github.johnfactotum.Foliate.svg"
   version="1.1"
   width="64"
   height="64"
   id="svg4223">
  <sodipodi:namedview
     pagecolor="#ffffff"
     bordercolor="#666666"
     borderopacity="1"
     objecttolerance="10"
     gridtolerance="10"
     guidetolerance="10"
     inkscape:pageopacity="0"
     inkscape:pageshadow="2"
     inkscape:window-width="1366"
     inkscape:window-height="738"
     id="namedview109"
     showgrid="true"
     showguides="true"
     inkscape:guide-bbox="true"
     inkscape:zoom="4.020475"
     inkscape:cx="55.432893"
     inkscape:cy="34.513728"
     inkscape:window-x="0"
     inkscape:window-y="30"
     inkscape:window-maximized="1"
     inkscape:current-layer="svg4223">
    <inkscape:grid
       type="xygrid"
       id="grid5556" />
  </sodipodi:namedview>
  <defs
     id="defs4225">
    <linearGradient
       gradientTransform="matrix(1.2162161,0,0,1.4324324,4.9869301,10.294317)"
       gradientUnits="userSpaceOnUse"
       xlink:href="#linearGradient4070"
       id="linearGradient3142-0"
       y2="32.463085"
       x2="23.99999"
       y1="14.077706"
       x1="23.99999" />
    <linearGradient
       id="linearGradient4070">
      <stop
         offset="0"
         style="stop-color:#ffffff;stop-opacity:1"
         id="stop4072" />
      <stop
         offset="0.134046"
         style="stop-color:#ffffff;stop-opacity:0.23529412"
         id="stop4074" />
      <stop
         offset="0.94730771"
         style="stop-color:#ffffff;stop-opacity:0.15686275"
         id="stop4076" />
      <stop
         offset="1"
         style="stop-color:#ffffff;stop-opacity:0.39215687"
         id="stop4078" />
    </linearGradient>
    <radialGradient
       gradientTransform="matrix(0,1.9151142,-1.6240683,0,49.18345,-7.9790045)"
       gradientUnits="userSpaceOnUse"
       xlink:href="#linearGradient2867-449-88-871-390-598-476-591-434-148-57-177-641-289-620-227-114-444-680-744-8-7-7"
       id="radialGradient3963"
       fy="8.4497671"
       fx="13.003181"
       r="19.99999"
       cy="8.4497671"
       cx="13.003181" />
    <linearGradient
       id="linearGradient2867-449-88-871-390-598-476-591-434-148-57-177-641-289-620-227-114-444-680-744-8-7-7">
      <stop
         offset="0"
         style="stop-color:#5f5f5f;stop-opacity:1"
         id="stop5430-8-6-8" />
      <stop
         offset="0.26238"
         style="stop-color:#4f4f4f;stop-opacity:1"
         id="stop5432-3-5-5" />
      <stop
         offset="0.704952"
         style="stop-color:#3b3b3b;stop-opacity:1"
         id="stop5434-1-6-9" />
      <stop
         offset="1"
         style="stop-color:#2b2b2b;stop-opacity:1"
         id="stop5436-8-9-2" />
    </linearGradient>
    <linearGradient
       gradientTransform="matrix(1.7092094,0,0,1.8121619,-5.5607589,-12.070208)"
       gradientUnits="userSpaceOnUse"
       xlink:href="#linearGradient3707-319-631-407-324-616-674-812-821-107-178-392-400-6-7-3"
       id="linearGradient3965"
       y2="10.165503"
       x2="24"
       y1="31.260178"
       x1="24" />
    <linearGradient
       id="linearGradient3707-319-631-407-324-616-674-812-821-107-178-392-400-6-7-3">
      <stop
         offset="0"
         style="stop-color:#272727;stop-opacity:1"
         id="stop5440-4-4-64" />
      <stop
         offset="1"
         style="stop-color:#454545;stop-opacity:1"
         id="stop5442-3-5-7" />
    </linearGradient>
    <linearGradient
       gradientTransform="matrix(1.2162161,0,0,1.4324324,2.8108129,-64.378315)"
       gradientUnits="userSpaceOnUse"
       xlink:href="#linearGradient3731"
       id="linearGradient3142"
       y2="43"
       x2="23.99999"
       y1="4.999989"
       x1="23.99999" />
    <linearGradient
       id="linearGradient3731">
      <stop
         offset="0"
         style="stop-color:#ffffff;stop-opacity:1"
         id="stop3733" />
      <stop
         offset="0.02706478"
         style="stop-color:#ffffff;stop-opacity:0.23529412"
         id="stop3735" />
      <stop
         offset="0.97377032"
         style="stop-color:#ffffff;stop-opacity:0.15686275"
         id="stop3737" />
      <stop
         offset="1"
         style="stop-color:#ffffff;stop-opacity:0.39215687"
         id="stop3739" />
    </linearGradient>
    <radialGradient
       gradientTransform="matrix(2.7199858e-8,-3.295755,-3.4611599,6.0720387e-8,65.046151,81.382382)"
       gradientUnits="userSpaceOnUse"
       xlink:href="#linearGradient3707-319-631-407-324-616-674-812-821-107-178-392-400-6"
       id="radialGradient3145"
       fy="8.4497671"
       fx="7.4956832"
       r="19.99999"
       cy="8.4497671"
       cx="7.4956832" />
    <linearGradient
       id="linearGradient2867-449-88-871-390-598-476-591-434-148-57-177-641-289-620-227-114-444-680-744-8">
      <stop
         offset="0"
         style="stop-color:#5f5f5f;stop-opacity:1"
         id="stop5430-8" />
      <stop
         offset="0.26238"
         style="stop-color:#4f4f4f;stop-opacity:1"
         id="stop5432-3" />
      <stop
         offset="0.704952"
         style="stop-color:#3b3b3b;stop-opacity:1"
         id="stop5434-1" />
      <stop
         offset="1"
         style="stop-color:#2b2b2b;stop-opacity:1"
         id="stop5436-8" />
    </linearGradient>
    <linearGradient
       gradientTransform="matrix(1.4000002,0,0,-1.4102564,2.200001,63.846126)"
       gradientUnits="userSpaceOnUse"
       xlink:href="#linearGradient3707-319-631-407-324-616-674-812-821-107-178-392-400-6"
       id="linearGradient3147"
       y2="3.8990016"
       x2="24"
       y1="44"
       x1="24" />
    <linearGradient
       id="linearGradient3707-319-631-407-324-616-674-812-821-107-178-392-400-6">
      <stop
         offset="0"
         style="stop-color:#272727;stop-opacity:1"
         id="stop5440-4" />
      <stop
         offset="1"
         style="stop-color:#454545;stop-opacity:1"
         id="stop5442-3" />
    </linearGradient>
    <linearGradient
       id="linearGradient8967">
      <stop
         offset="0"
         style="stop-color:#68b723;stop-opacity:1"
         id="stop8969" />
      <stop
         offset="1"
         style="stop-color:#9bdb4d;stop-opacity:1"
         id="stop8971" />
    </linearGradient>
    <linearGradient
       gradientTransform="matrix(0.94825278,0,0,0.98894821,-62.844088,-62.365816)"
       gradientUnits="userSpaceOnUse"
       xlink:href="#linearGradient3319"
       id="linearGradient3153"
       y2="60.875908"
       x2="32.255745"
       y1="4.4827375"
       x1="32.000008" />
    <linearGradient
       id="linearGradient3319">
      <stop
         offset="0"
         style="stop-color:#68b723;stop-opacity:1"
         id="stop3321" />
      <stop
         offset="1"
         style="stop-color:#9bdb4d;stop-opacity:1"
         id="stop3323" />
    </linearGradient>
    <linearGradient
       gradientTransform="matrix(1.3999998,0,0,-1.2500081,-0.6000138,62.124988)"
       gradientUnits="userSpaceOnUse"
       xlink:href="#linearGradient2346"
       id="linearGradient3156"
       y2="3"
       x2="10.654308"
       y1="1"
       x1="10.654308" />
    <linearGradient
       id="linearGradient2346">
      <stop
         offset="0"
         style="stop-color:#eeeeee;stop-opacity:1"
         id="stop2348" />
      <stop
         offset="1"
         style="stop-color:#d9d9da;stop-opacity:1"
         id="stop2350" />
    </linearGradient>
    <linearGradient
       gradientTransform="matrix(1.3999998,0,0,-0.12820517,2.2003515,62.076876)"
       gradientUnits="userSpaceOnUse"
       xlink:href="#linearGradient3707-319-631-407-324-616-674-812-821-107-178-392-400-6-2"
       id="linearGradient3158"
       y2="3.8990016"
       x2="24"
       y1="44"
       x1="24" />
    <linearGradient
       id="linearGradient3707-319-631-407-324-616-674-812-821-107-178-392-400-6-2">
      <stop
         offset="0"
         style="stop-color:#272727;stop-opacity:1"
         id="stop5440-4-8" />
      <stop
         offset="1"
         style="stop-color:#454545;stop-opacity:1"
         id="stop5442-3-8" />
    </linearGradient>
    <linearGradient
       id="linearGradient4652">
      <stop
         offset="0"
         style="stop-color:#9b876c;stop-opacity:1"
         id="stop4654" />
      <stop
         offset="0.95970964"
         style="stop-color:#9b876c;stop-opacity:1"
         id="stop4656" />
      <stop
         offset="0.96326458"
         style="stop-color:#c2c2c2;stop-opacity:1"
         id="stop4658" />
      <stop
         offset="1"
         style="stop-color:#c2c2c2;stop-opacity:1"
         id="stop4660" />
    </linearGradient>
    <linearGradient
       gradientTransform="matrix(1.3742565,0,0,-2.0418357,1.0512856,67.518285)"
       gradientUnits="userSpaceOnUse"
       xlink:href="#linearGradient2346"
       id="linearGradient4219"
       y2="4.882647"
       x2="24.640038"
       y1="3.1234391"
       x1="24.62738" />
    <linearGradient
       gradientTransform="matrix(0.96200905,0,0,-0.99187998,2.5349913,62.223591)"
       gradientUnits="userSpaceOnUse"
       xlink:href="#linearGradient4652"
       id="linearGradient4221"
       y2="0.065301567"
       x2="54.887218"
       y1="0.065301567"
       x1="5.2122574" />
    <radialGradient
       gradientTransform="matrix(2.003784,0,0,1.4,27.98813,-17.4)"
       gradientUnits="userSpaceOnUse"
       xlink:href="#linearGradient3688-166-749"
       id="radialGradient2873-966-168"
       fy="43.5"
       fx="4.9929786"
       r="2.5"
       cy="43.5"
       cx="4.9929786" />
    <linearGradient
       id="linearGradient3688-166-749">
      <stop
         offset="0"
         style="stop-color:#181818;stop-opacity:1"
         id="stop2883" />
      <stop
         offset="1"
         style="stop-color:#181818;stop-opacity:0"
         id="stop2885" />
    </linearGradient>
    <radialGradient
       gradientTransform="matrix(2.003784,0,0,1.4,-20.01187,-104.4)"
       gradientUnits="userSpaceOnUse"
       xlink:href="#linearGradient3688-464-309"
       id="radialGradient2875-742-326"
       fy="43.5"
       fx="4.9929786"
       r="2.5"
       cy="43.5"
       cx="4.9929786" />
    <linearGradient
       id="linearGradient3688-464-309">
      <stop
         offset="0"
         style="stop-color:#181818;stop-opacity:1"
         id="stop2889" />
      <stop
         offset="1"
         style="stop-color:#181818;stop-opacity:0"
         id="stop2891" />
    </linearGradient>
    <linearGradient
       gradientUnits="userSpaceOnUse"
       xlink:href="#linearGradient3702-501-757"
       id="linearGradient2877-634-617"
       y2="39.999443"
       x2="25.058096"
       y1="47.027729"
       x1="25.058096" />
    <linearGradient
       id="linearGradient3702-501-757">
      <stop
         offset="0"
         style="stop-color:#181818;stop-opacity:0"
         id="stop2895" />
      <stop
         offset="0.5"
         style="stop-color:#181818;stop-opacity:1"
         id="stop2897" />
      <stop
         offset="1"
         style="stop-color:#181818;stop-opacity:0"
         id="stop2899" />
    </linearGradient>
    <radialGradient
       gradientTransform="matrix(0,2.8185997,-3.358332,0,-3.7643893,-149.53711)"
       gradientUnits="userSpaceOnUse"
       xlink:href="#linearGradient8967"
       id="radialGradient3831"
       fy="8.55651"
       fx="32.5"
       r="23.499998"
       cy="8.55651"
       cx="32.5" />
    <radialGradient
       xlink:href="#linearGradient3242-7-3-8-0-4-58-06"
       id="radialGradient3106"
       gradientUnits="userSpaceOnUse"
       gradientTransform="matrix(0,1.2420762,-1.3512236,0,114.60033,-44.65654)"
       cx="65.916344"
       cy="48.448635"
       fx="65.916344"
       fy="48.448635"
       r="31.000002" />
    <linearGradient
       id="linearGradient3242-7-3-8-0-4-58-06">
      <stop
         id="stop3244-5-8-5-6-4-3-8"
         style="stop-color:#cdf87e;stop-opacity:1"
         offset="0" />
      <stop
         id="stop3246-9-5-1-5-3-0-7"
         style="stop-color:#a2e34f;stop-opacity:1"
         offset="0.26238" />
      <stop
         id="stop3248-7-2-0-7-5-35-9"
         style="stop-color:#68b723;stop-opacity:1"
         offset="0.66093999" />
      <stop
         id="stop3250-8-2-8-5-6-40-4"
         style="stop-color:#1d7e0d;stop-opacity:1"
         offset="1" />
    </linearGradient>
    <linearGradient
       gradientTransform="matrix(0.9862841,0,0,0.8052748,26.937969,31.355295)"
       gradientUnits="userSpaceOnUse"
       xlink:href="#linearGradient4154"
       id="linearGradient3030-44"
       y2="36.813152"
       x2="24.138529"
       y1="9.4932871"
       x1="24.138529" />
    <linearGradient
       id="linearGradient4154">
      <stop
         offset="0"
         style="stop-color:#ffffff;stop-opacity:1"
         id="stop4156" />
      <stop
         offset="0.00000001"
         style="stop-color:#ffffff;stop-opacity:0.23529412"
         id="stop4158" />
      <stop
         offset="1"
         style="stop-color:#ffffff;stop-opacity:0.15686275"
         id="stop4160" />
      <stop
         offset="1"
         style="stop-color:#ffffff;stop-opacity:0.39215687"
         id="stop4162" />
    </linearGradient>
    <linearGradient
       gradientTransform="matrix(0.8119709,0,0,0.97655406,30.811339,27.403273)"
       gradientUnits="userSpaceOnUse"
       xlink:href="#linearGradient4299"
       id="linearGradient3030-1"
       y2="26.211275"
       x2="24.138529"
       y1="20.067223"
       x1="24.138529" />
    <linearGradient
       id="linearGradient4299">
      <stop
         id="stop4301"
         style="stop-color:#ffffff;stop-opacity:1"
         offset="0" />
      <stop
         id="stop4303"
         style="stop-color:#ffffff;stop-opacity:0.23529412"
         offset="0" />
      <stop
         id="stop4305"
         style="stop-color:#ffffff;stop-opacity:0.15686275"
         offset="1" />
      <stop
         id="stop4307"
         style="stop-color:#ffffff;stop-opacity:0.39215687"
         offset="1" />
    </linearGradient>
  </defs>
  <metadata
     id="metadata4228">
    <rdf:RDF>
      <cc:Work
         rdf:about="">
        <dc:format>image/svg+xml</dc:format>
        <dc:type
           rdf:resource="http://purl.org/dc/dcmitype/StillImage" />
        <dc:title></dc:title>
      </cc:Work>
    </rdf:RDF>
  </metadata>
  <g
     transform="matrix(1.3499995,0,0,0.5555561,-0.40000054,37.888879)"
     id="g2036"
     style="display:inline"
     inkscape:transform-center-x="-31.745705"
     inkscape:transform-center-y="28.500026">
    <g
       transform="matrix(1.052632,0,0,1.285713,-1.263158,-13.42854)"
       id="g3712"
       style="opacity:0.4">
      <rect
         width="5"
         height="7"
         x="38"
         y="40"
         id="rect2801"
         style="fill:url(#radialGradient2873-966-168);fill-opacity:1;stroke:none" />
      <rect
         width="5"
         height="7"
         x="-10"
         y="-47"
         transform="scale(-1)"
         id="rect3696"
         style="fill:url(#radialGradient2875-742-326);fill-opacity:1;stroke:none" />
      <rect
         width="28"
         height="7.0000005"
         x="10"
         y="40"
         id="rect3700"
         style="fill:url(#linearGradient2877-634-617);fill-opacity:1;stroke:none" />
    </g>
  </g>
  <path
     d="m 55.050077,57.308107 c -0.404324,1.315876 0.07169,2.928168 -0.15162,4.183146 H 13.508699 l 0.244287,-3.982602"
     id="path2723"
     style="display:inline;fill:url(#linearGradient4219);fill-opacity:1;stroke:#7e8087;stroke-width:1.0270679;stroke-linecap:butt;stroke-linejoin:round;stroke-miterlimit:0;stroke-dasharray:none;stroke-dashoffset:0;stroke-opacity:1"
     inkscape:connector-curvature="0"
     inkscape:transform-center-x="-34.390264"
     inkscape:transform-center-y="28.499976"
     sodipodi:nodetypes="cccc" />
  <path
     d="M 15.500349,56.499952 H 9.9003478 c -0.7991864,0 -1.3999989,0.05292 -1.3999989,0.12195 v 3.495549 c 0,1.109907 0.7826448,1.382501 1.8072521,1.382501 h 5.192748"
     id="rect5505-21-3-9"
     style="color:#000000;display:inline;overflow:visible;visibility:visible;fill:url(#linearGradient3156);fill-opacity:1;fill-rule:nonzero;stroke:url(#linearGradient3158);stroke-width:0.99999976;stroke-linecap:round;stroke-linejoin:round;stroke-miterlimit:4;stroke-dasharray:none;stroke-dashoffset:0;stroke-opacity:1;marker:none;enable-background:accumulate"
     inkscape:connector-curvature="0"
     inkscape:transform-center-x="-11.746053"
     inkscape:transform-center-y="27.999976" />
  <rect
     width="45.980957"
     height="54.980961"
     rx="0.99999994"
     ry="0.99999958"
     x="-55.490475"
     y="-57.490425"
     id="rect2719"
     style="display:inline;fill:url(#radialGradient3831);fill-opacity:1;stroke:#3a9104;stroke-width:1.01904094;stroke-linecap:round;stroke-linejoin:round;stroke-miterlimit:0;stroke-dasharray:none;stroke-dashoffset:0;stroke-opacity:1"
     inkscape:transform-center-x="32.245703"
     inkscape:transform-center-y="-1.0000317"
     transform="scale(-1)" />
  <path
     d="m 15.5,57.499973 c 0,0 0,-38.243935 0,-54.999998 H 9.9000002 C 9.1008127,2.499975 8.5,3.082105 8.5,3.84144 v 53.658533 z"
     id="rect5505-21-3"
     style="color:#000000;display:inline;overflow:visible;visibility:visible;fill:url(#radialGradient3145);fill-opacity:1.0;fill-rule:nonzero;stroke:url(#linearGradient3147);stroke-width:0.99999982;stroke-linecap:round;stroke-linejoin:round;stroke-miterlimit:4;stroke-dasharray:none;stroke-dashoffset:0;stroke-opacity:1;marker:none;enable-background:accumulate"
     inkscape:connector-curvature="0"
     inkscape:transform-center-x="-11.745704"
     inkscape:transform-center-y="-1.000002" />
  <rect
     width="45"
     height="53"
     x="9.500001"
     y="-56.49995"
     id="rect6741-0"
     style="opacity:0.5;fill:none;stroke:url(#linearGradient3142);stroke-width:0.99999982;stroke-linecap:round;stroke-linejoin:round;stroke-miterlimit:4;stroke-dasharray:none;stroke-dashoffset:0;stroke-opacity:1"
     inkscape:transform-center-x="-31.745705"
     inkscape:transform-center-y="-1.0000264"
     transform="scale(1,-1)" />
  <text
     xml:space="preserve"
     style="font-style:normal;font-variant:normal;font-weight:normal;font-stretch:normal;font-size:96px;line-height:1.25;font-family:'Standard Symbols PS';-inkscape-font-specification:'Standard Symbols PS';letter-spacing:0px;word-spacing:0px;fill:#000000;fill-opacity:1;stroke:none"
     x="-9.775569"
     y="52.595169"
     id="text915"><tspan
       sodipodi:role="line"
       id="tspan913"
       x="-9.775569"
       y="139.28317" /></text>
  <path
     id="path5552-6"
     style="fill:none;fill-opacity:1;stroke:#206b00;stroke-width:2;stroke-linecap:butt;stroke-linejoin:miter;stroke-opacity:1;opacity:0.15"
     d="m 36,44 v -9.6 l 2.689969,-5.66351 2.831706,-2.4867 2.841507,-0.879961 1.866726,0.513738 0.782975,0.853479 0.823588,0.317777 -0.823588,-0.317777 -0.782975,-0.853479 1.269377,-0.532505 1.132602,0.05481 0.692209,0.442688 -0.692209,-0.442688 0.945825,-0.366986 0.794667,0.11209 -0.794667,-0.11209 -0.945825,0.366986 -1.132602,-0.05481 0.613919,-0.909159 -0.613919,0.909159 -1.269377,0.532505 -1.866726,-0.513738 1.096545,-1.450557 1.256891,-0.2975 0.785568,-0.700492 -0.785568,0.700492 -1.256891,0.2975 0.102613,-0.997688 -0.102613,0.997688 -1.096545,1.450557 -2.841507,0.879961 1.156519,-2.426644 1.730117,-0.809114 1.046468,-0.0012 0.769788,0.367327 -0.769788,-0.367327 0.783369,-0.406878 -0.783369,0.406878 -1.046468,0.0012 0.551224,-1.104314 -0.551224,1.104314 -1.730117,0.809114 0.03633,-2.37624 1.303616,-1.511145 1.048306,-0.307741 -1.048306,0.307741 0.414772,-1.740705 0.930356,-0.762541 0.917279,-0.0028 -0.917279,0.0028 -0.930356,0.762541 -0.413557,-0.893768 0.413557,0.893768 -0.414772,1.740705 -1.303616,1.511145 -0.57771,-1.328676 -0.885203,-0.466132 0.885203,0.466132 0.57771,1.328676 -0.03633,2.37624 -1.156519,2.426644 -2.831706,2.4867 -0.521407,-3.161371 0.483238,-2.005674 0.964289,-0.992183 0.811336,-0.364057 -0.811336,0.364057 0.433268,-1.135153 0.866197,-0.579246 0.92448,0.09416 -0.92448,-0.09416 -0.866197,0.579246 -0.303495,-0.969837 0.303495,0.969837 -0.433268,1.135153 -0.964289,0.992183 -0.537896,-1.657728 0.320839,-1.385806 0.891301,-0.91068 -0.891301,0.91068 -0.123546,-0.863131 0.123546,0.863131 -0.320839,1.385806 -1.053441,-1.097139 -0.526785,-1.212696 0.231748,-1.084483 -0.231748,1.084483 0.526785,1.212696 -0.924143,-0.211961 0.924143,0.211961 1.053441,1.097139 0.537896,1.657728 -0.483238,2.005674 -1.413843,-1.721903 -0.315259,-1.07826 0.315259,1.07826 -1.437076,-0.819352 -0.374336,-0.881531 0.374336,0.881531 -1.201801,-0.137059 -0.710152,-0.487315 0.710152,0.487315 -0.720764,0.365231 0.720764,-0.365231 1.201801,0.137059 1.437076,0.819352 1.413843,1.721903 0.521407,3.161371 L 36,34.4 l -2.629334,-4.866692 -0.571891,-4.311871 1.35759,-3.287935 1.577631,-1.412584 1.6159,-0.559529 0.831613,0.280708 -0.831613,-0.280708 1.079495,-1.008227 0.829171,-0.341932 -0.829171,0.341932 0.317558,-0.814746 -0.317558,0.814746 -1.079495,1.008227 -1.6159,0.559529 0.269523,-1.132551 -0.269523,1.132551 -1.577631,1.412584 -0.548624,-2.285949 0.621632,-1.460674 0.705793,-0.504495 -0.705793,0.504495 -0.04735,-0.886543 0.04735,0.886543 -0.621632,1.460674 -1.025338,-1.010625 -0.09103,-0.918059 0.09103,0.918059 -0.994364,-0.193711 -0.749353,0.323435 0.749353,-0.323435 0.994364,0.193711 1.025338,1.010625 0.548624,2.285949 -1.35759,3.287935 -2.108657,-2.615761 -0.339998,-2.184978 0.366829,-1.174144 0.665449,-0.743462 -0.665449,0.743462 -0.07751,-0.928406 0.369344,-0.731784 -0.369344,0.731784 0.07751,0.928406 -0.366829,1.174144 -1.237606,-1.103068 -0.445874,-0.94508 0.445874,0.94508 -1.197943,-0.36489 -1.073037,0.190972 -0.734897,0.497215 0.734897,-0.497215 1.073037,-0.190972 1.197943,0.36489 1.237606,1.103068 0.339998,2.184978 -2.90453,-0.643404 -1.383576,-1.389877 -0.352803,-1.350368 0.285435,-1.082525 0.662014,-0.611383 -0.662014,0.611383 -0.285435,1.082525 -0.718525,-0.693832 -0.12123,-0.805281 0.12123,0.805281 0.718525,0.693832 0.352803,1.350368 -1.044295,-0.468295 -0.530158,-0.756378 0.530158,0.756378 -0.849381,0.136861 0.849381,-0.136861 1.044295,0.468295 1.383576,1.389877 -2.157637,0.621299 -1.250985,-0.521733 -0.478933,-0.681577 0.478933,0.681577 1.250985,0.521733 -0.908261,0.714102 -1.004962,0.17284 1.004962,-0.17284 -0.257051,0.944888 0.257051,-0.944888 0.908261,-0.714102 2.157637,-0.621299 2.90453,0.643404 2.108657,2.615761 0.571891,4.311871 -3.897173,-2.217463 -1.399373,-3.662484 0.598562,-2.054808 0.920513,-1.0642 0.910279,-0.343201 0.792373,0.137393 -0.792373,-0.137393 -0.910279,0.343201 0.32133,-1.184328 0.55023,-0.688021 -0.55023,0.688021 -0.262735,-0.99842 0.262735,0.99842 -0.32133,1.184328 -0.920513,1.0642 -0.267485,-1.444723 -0.739521,-0.789427 -0.197201,-0.901753 0.197201,0.901753 -0.789198,-0.397765 0.789198,0.397765 0.739521,0.789427 0.267485,1.444723 -0.598562,2.054808 -2.045345,-1.735289 -0.860708,-1.910317 0.230834,-1.379486 -0.475942,-1.085353 -0.800054,-0.506693 -0.318599,-0.749699 0.318599,0.749699 0.800054,0.506693 0.475942,1.085353 -0.230834,1.379486 -1.058083,-0.618818 -0.451175,-0.988682 0.03242,-0.906849 0.53576,-0.598132 -0.53576,0.598132 -0.03242,0.906849 0.451175,0.988682 -0.840839,-0.0931 0.840839,0.0931 1.058083,0.618818 0.860708,1.910317 -2.331076,-0.44826 -1.158923,-1.000569 -0.554701,-1.051544 0.554701,1.051544 -0.946925,-0.164744 0.946925,0.164744 1.158923,1.000569 -1.295573,0.388388 -1.025008,-0.112017 1.025008,0.112017 -0.492995,0.666725 0.492995,-0.666725 1.295573,-0.388388 2.331076,0.44826 2.045345,1.735289 1.399373,3.662484 -3.012773,-0.460104 -1.519892,-0.999937 -0.737786,-1.307011 -0.0093,-0.932781 0.0093,0.932781 -0.727226,-0.494772 0.727226,0.494772 0.737786,1.307011 -1.21285,-0.08789 -0.630986,-0.505355 0.630986,0.505355 1.21285,0.08789 1.519892,0.999937 -1.907338,0.760701 -1.56113,-0.231361 -0.996565,-0.647366 -0.989434,0.08954 0.989434,-0.08954 0.996565,0.647366 -1.025045,0.45212 -0.883006,-0.0081 0.883006,0.0081 1.025045,-0.45212 1.56113,0.231361 -0.755493,1.207312 -0.920829,0.646929 0.920829,-0.646929 0.755493,-1.207312 1.907338,-0.760701 3.012773,0.460104 3.897173,2.217463 L 36,34.4 V 44"
     inkscape:connector-curvature="0" />
  <path
     id="path5552-3"
     style="fill:none;fill-opacity:1;stroke:#d1ff82;stroke-width:1;stroke-linecap:butt;stroke-linejoin:miter;stroke-opacity:1"
     d="m 36,45 v -9.6 l 2.689969,-5.66351 2.831706,-2.4867 2.841507,-0.879961 1.866726,0.513738 0.782975,0.853479 0.823588,0.317777 -0.823588,-0.317777 -0.782975,-0.853479 1.269377,-0.532505 1.132602,0.05481 0.692209,0.442688 -0.692209,-0.442688 0.945825,-0.366986 0.794667,0.11209 -0.794667,-0.11209 -0.945825,0.366986 -1.132602,-0.05481 0.613919,-0.909159 -0.613919,0.909159 -1.269377,0.532505 -1.866726,-0.513738 1.096545,-1.450557 1.256891,-0.2975 0.785568,-0.700492 -0.785568,0.700492 -1.256891,0.2975 0.102613,-0.997688 -0.102613,0.997688 -1.096545,1.450557 -2.841507,0.879961 1.156519,-2.426644 1.730117,-0.809114 1.046468,-0.0012 0.769788,0.367327 -0.769788,-0.367327 0.783369,-0.406878 -0.783369,0.406878 -1.046468,0.0012 0.551224,-1.104314 -0.551224,1.104314 -1.730117,0.809114 0.03633,-2.37624 1.303616,-1.511145 1.048306,-0.307741 -1.048306,0.307741 0.414772,-1.740705 0.930356,-0.762541 0.917279,-0.0028 -0.917279,0.0028 -0.930356,0.762541 -0.413557,-0.893768 0.413557,0.893768 -0.414772,1.740705 -1.303616,1.511145 -0.57771,-1.328676 -0.885203,-0.466132 0.885203,0.466132 0.57771,1.328676 -0.03633,2.37624 -1.156519,2.426644 -2.831706,2.4867 -0.521407,-3.161371 0.483238,-2.005674 0.964289,-0.992183 0.811336,-0.364057 -0.811336,0.364057 0.433268,-1.135153 0.866197,-0.579246 0.92448,0.09416 -0.92448,-0.09416 -0.866197,0.579246 -0.303495,-0.969837 0.303495,0.969837 -0.433268,1.135153 -0.964289,0.992183 -0.537896,-1.657728 0.320839,-1.385806 0.891301,-0.91068 -0.891301,0.91068 -0.123546,-0.863131 0.123546,0.863131 -0.320839,1.385806 -1.053441,-1.097139 -0.526785,-1.212696 0.231748,-1.084483 -0.231748,1.084483 0.526785,1.212696 -0.924143,-0.211961 0.924143,0.211961 1.053441,1.097139 0.537896,1.657728 -0.483238,2.005674 -1.413843,-1.721903 -0.315259,-1.07826 0.315259,1.07826 -1.437076,-0.819352 -0.374336,-0.881531 0.374336,0.881531 -1.201801,-0.137059 -0.710152,-0.487315 0.710152,0.487315 -0.720764,0.365231 0.720764,-0.365231 1.201801,0.137059 1.437076,0.819352 1.413843,1.721903 0.521407,3.161371 L 36,35.4 l -2.629334,-4.866692 -0.571891,-4.311871 1.35759,-3.287935 1.577631,-1.412584 1.6159,-0.559529 0.831613,0.280708 -0.831613,-0.280708 1.079495,-1.008227 0.829171,-0.341932 -0.829171,0.341932 0.317558,-0.814746 -0.317558,0.814746 -1.079495,1.008227 -1.6159,0.559529 0.269523,-1.132551 -0.269523,1.132551 -1.577631,1.412584 -0.548624,-2.285949 0.621632,-1.460674 0.705793,-0.504495 -0.705793,0.504495 -0.04735,-0.886543 0.04735,0.886543 -0.621632,1.460674 -1.025338,-1.010625 -0.09103,-0.918059 0.09103,0.918059 -0.994364,-0.193711 -0.749353,0.323435 0.749353,-0.323435 0.994364,0.193711 1.025338,1.010625 0.548624,2.285949 -1.35759,3.287935 -2.108657,-2.615761 -0.339998,-2.184978 0.366829,-1.174144 0.665449,-0.743462 -0.665449,0.743462 -0.07751,-0.928406 0.369344,-0.731784 -0.369344,0.731784 0.07751,0.928406 -0.366829,1.174144 -1.237606,-1.103068 -0.445874,-0.94508 0.445874,0.94508 -1.197943,-0.36489 -1.073037,0.190972 -0.734897,0.497215 0.734897,-0.497215 1.073037,-0.190972 1.197943,0.36489 1.237606,1.103068 0.339998,2.184978 -2.90453,-0.643404 -1.383576,-1.389877 -0.352803,-1.350368 0.285435,-1.082525 0.662014,-0.611383 -0.662014,0.611383 -0.285435,1.082525 -0.718525,-0.693832 -0.12123,-0.805281 0.12123,0.805281 0.718525,0.693832 0.352803,1.350368 -1.044295,-0.468295 -0.530158,-0.756378 0.530158,0.756378 -0.849381,0.136861 0.849381,-0.136861 1.044295,0.468295 1.383576,1.389877 -2.157637,0.621299 -1.250985,-0.521733 -0.478933,-0.681577 0.478933,0.681577 1.250985,0.521733 -0.908261,0.714102 -1.004962,0.17284 1.004962,-0.17284 -0.257051,0.944888 0.257051,-0.944888 0.908261,-0.714102 2.157637,-0.621299 2.90453,0.643404 2.108657,2.615761 0.571891,4.311871 -3.897173,-2.217463 -1.399373,-3.662484 0.598562,-2.054808 0.920513,-1.0642 0.910279,-0.343201 0.792373,0.137393 -0.792373,-0.137393 -0.910279,0.343201 0.32133,-1.184328 0.55023,-0.688021 -0.55023,0.688021 -0.262735,-0.99842 0.262735,0.99842 -0.32133,1.184328 -0.920513,1.0642 -0.267485,-1.444723 -0.739521,-0.789427 -0.197201,-0.901753 0.197201,0.901753 -0.789198,-0.397765 0.789198,0.397765 0.739521,0.789427 0.267485,1.444723 -0.598562,2.054808 -2.045345,-1.735289 -0.860708,-1.910317 0.230834,-1.379486 -0.475942,-1.085353 -0.800054,-0.506693 -0.318599,-0.749699 0.318599,0.749699 0.800054,0.506693 0.475942,1.085353 -0.230834,1.379486 -1.058083,-0.618818 -0.451175,-0.988682 0.03242,-0.906849 0.53576,-0.598132 -0.53576,0.598132 -0.03242,0.906849 0.451175,0.988682 -0.840839,-0.0931 0.840839,0.0931 1.058083,0.618818 0.860708,1.910317 -2.331076,-0.44826 -1.158923,-1.000569 -0.554701,-1.051544 0.554701,1.051544 -0.946925,-0.164744 0.946925,0.164744 1.158923,1.000569 -1.295573,0.388388 -1.025008,-0.112017 1.025008,0.112017 -0.492995,0.666725 0.492995,-0.666725 1.295573,-0.388388 2.331076,0.44826 2.045345,1.735289 1.399373,3.662484 -3.012773,-0.460104 -1.519892,-0.999937 -0.737786,-1.307011 -0.0093,-0.932781 0.0093,0.932781 -0.727226,-0.494772 0.727226,0.494772 0.737786,1.307011 -1.21285,-0.08789 -0.630986,-0.505355 0.630986,0.505355 1.21285,0.08789 1.519892,0.999937 -1.907338,0.760701 -1.56113,-0.231361 -0.996565,-0.647366 -0.989434,0.08954 0.989434,-0.08954 0.996565,0.647366 -1.025045,0.45212 -0.883006,-0.0081 0.883006,0.0081 1.025045,-0.45212 1.56113,0.231361 -0.755493,1.207312 -0.920829,0.646929 0.920829,-0.646929 0.755493,-1.207312 1.907338,-0.760701 3.012773,0.460104 3.897173,2.217463 L 36,35.4 V 45"
     inkscape:connector-curvature="0" />
  <path
     id="path5552"
     style="fill:none;fill-opacity:1;stroke:#206b00;stroke-width:1;stroke-linecap:butt;stroke-linejoin:miter;stroke-opacity:1"
     d="m 36,44 v -9.6 l 2.689969,-5.66351 2.831706,-2.4867 2.841507,-0.879961 1.866726,0.513738 0.782975,0.853479 0.823588,0.317777 -0.823588,-0.317777 -0.782975,-0.853479 1.269377,-0.532505 1.132602,0.05481 0.692209,0.442688 -0.692209,-0.442688 0.945825,-0.366986 0.794667,0.11209 -0.794667,-0.11209 -0.945825,0.366986 -1.132602,-0.05481 0.613919,-0.909159 -0.613919,0.909159 -1.269377,0.532505 -1.866726,-0.513738 1.096545,-1.450557 1.256891,-0.2975 0.785568,-0.700492 -0.785568,0.700492 -1.256891,0.2975 0.102613,-0.997688 -0.102613,0.997688 -1.096545,1.450557 -2.841507,0.879961 1.156519,-2.426644 1.730117,-0.809114 1.046468,-0.0012 0.769788,0.367327 -0.769788,-0.367327 0.783369,-0.406878 -0.783369,0.406878 -1.046468,0.0012 0.551224,-1.104314 -0.551224,1.104314 -1.730117,0.809114 0.03633,-2.37624 1.303616,-1.511145 1.048306,-0.307741 -1.048306,0.307741 0.414772,-1.740705 0.930356,-0.762541 0.917279,-0.0028 -0.917279,0.0028 -0.930356,0.762541 -0.413557,-0.893768 0.413557,0.893768 -0.414772,1.740705 -1.303616,1.511145 -0.57771,-1.328676 -0.885203,-0.466132 0.885203,0.466132 0.57771,1.328676 -0.03633,2.37624 -1.156519,2.426644 -2.831706,2.4867 -0.521407,-3.161371 0.483238,-2.005674 0.964289,-0.992183 0.811336,-0.364057 -0.811336,0.364057 0.433268,-1.135153 0.866197,-0.579246 0.92448,0.09416 -0.92448,-0.09416 -0.866197,0.579246 -0.303495,-0.969837 0.303495,0.969837 -0.433268,1.135153 -0.964289,0.992183 -0.537896,-1.657728 0.320839,-1.385806 0.891301,-0.91068 -0.891301,0.91068 -0.123546,-0.863131 0.123546,0.863131 -0.320839,1.385806 -1.053441,-1.097139 -0.526785,-1.212696 0.231748,-1.084483 -0.231748,1.084483 0.526785,1.212696 -0.924143,-0.211961 0.924143,0.211961 1.053441,1.097139 0.537896,1.657728 -0.483238,2.005674 -1.413843,-1.721903 -0.315259,-1.07826 0.315259,1.07826 -1.437076,-0.819352 -0.374336,-0.881531 0.374336,0.881531 -1.201801,-0.137059 -0.710152,-0.487315 0.710152,0.487315 -0.720764,0.365231 0.720764,-0.365231 1.201801,0.137059 1.437076,0.819352 1.413843,1.721903 0.521407,3.161371 L 36,34.4 l -2.629334,-4.866692 -0.571891,-4.311871 1.35759,-3.287935 1.577631,-1.412584 1.6159,-0.559529 0.831613,0.280708 -0.831613,-0.280708 1.079495,-1.008227 0.829171,-0.341932 -0.829171,0.341932 0.317558,-0.814746 -0.317558,0.814746 -1.079495,1.008227 -1.6159,0.559529 0.269523,-1.132551 -0.269523,1.132551 -1.577631,1.412584 -0.548624,-2.285949 0.621632,-1.460674 0.705793,-0.504495 -0.705793,0.504495 -0.04735,-0.886543 0.04735,0.886543 -0.621632,1.460674 -1.025338,-1.010625 -0.09103,-0.918059 0.09103,0.918059 -0.994364,-0.193711 -0.749353,0.323435 0.749353,-0.323435 0.994364,0.193711 1.025338,1.010625 0.548624,2.285949 -1.35759,3.287935 -2.108657,-2.615761 -0.339998,-2.184978 0.366829,-1.174144 0.665449,-0.743462 -0.665449,0.743462 -0.07751,-0.928406 0.369344,-0.731784 -0.369344,0.731784 0.07751,0.928406 -0.366829,1.174144 -1.237606,-1.103068 -0.445874,-0.94508 0.445874,0.94508 -1.197943,-0.36489 -1.073037,0.190972 -0.734897,0.497215 0.734897,-0.497215 1.073037,-0.190972 1.197943,0.36489 1.237606,1.103068 0.339998,2.184978 -2.90453,-0.643404 -1.383576,-1.389877 -0.352803,-1.350368 0.285435,-1.082525 0.662014,-0.611383 -0.662014,0.611383 -0.285435,1.082525 -0.718525,-0.693832 -0.12123,-0.805281 0.12123,0.805281 0.718525,0.693832 0.352803,1.350368 -1.044295,-0.468295 -0.530158,-0.756378 0.530158,0.756378 -0.849381,0.136861 0.849381,-0.136861 1.044295,0.468295 1.383576,1.389877 -2.157637,0.621299 -1.250985,-0.521733 -0.478933,-0.681577 0.478933,0.681577 1.250985,0.521733 -0.908261,0.714102 -1.004962,0.17284 1.004962,-0.17284 -0.257051,0.944888 0.257051,-0.944888 0.908261,-0.714102 2.157637,-0.621299 2.90453,0.643404 2.108657,2.615761 0.571891,4.311871 -3.897173,-2.217463 -1.399373,-3.662484 0.598562,-2.054808 0.920513,-1.0642 0.910279,-0.343201 0.792373,0.137393 -0.792373,-0.137393 -0.910279,0.343201 0.32133,-1.184328 0.55023,-0.688021 -0.55023,0.688021 -0.262735,-0.99842 0.262735,0.99842 -0.32133,1.184328 -0.920513,1.0642 -0.267485,-1.444723 -0.739521,-0.789427 -0.197201,-0.901753 0.197201,0.901753 -0.789198,-0.397765 0.789198,0.397765 0.739521,0.789427 0.267485,1.444723 -0.598562,2.054808 -2.045345,-1.735289 -0.860708,-1.910317 0.230834,-1.379486 -0.475942,-1.085353 -0.800054,-0.506693 -0.318599,-0.749699 0.318599,0.749699 0.800054,0.506693 0.475942,1.085353 -0.230834,1.379486 -1.058083,-0.618818 -0.451175,-0.988682 0.03242,-0.906849 0.53576,-0.598132 -0.53576,0.598132 -0.03242,0.906849 0.451175,0.988682 -0.840839,-0.0931 0.840839,0.0931 1.058083,0.618818 0.860708,1.910317 -2.331076,-0.44826 -1.158923,-1.000569 -0.554701,-1.051544 0.554701,1.051544 -0.946925,-0.164744 0.946925,0.164744 1.158923,1.000569 -1.295573,0.388388 -1.025008,-0.112017 1.025008,0.112017 -0.492995,0.666725 0.492995,-0.666725 1.295573,-0.388388 2.331076,0.44826 2.045345,1.735289 1.399373,3.662484 -3.012773,-0.460104 -1.519892,-0.999937 -0.737786,-1.307011 -0.0093,-0.932781 0.0093,0.932781 -0.727226,-0.494772 0.727226,0.494772 0.737786,1.307011 -1.21285,-0.08789 -0.630986,-0.505355 0.630986,0.505355 1.21285,0.08789 1.519892,0.999937 -1.907338,0.760701 -1.56113,-0.231361 -0.996565,-0.647366 -0.989434,0.08954 0.989434,-0.08954 0.996565,0.647366 -1.025045,0.45212 -0.883006,-0.0081 0.883006,0.0081 1.025045,-0.45212 1.56113,0.231361 -0.755493,1.207312 -0.920829,0.646929 0.920829,-0.646929 0.755493,-1.207312 1.907338,-0.760701 3.012773,0.460104 3.897173,2.217463 L 36,34.4 V 44"
     inkscape:connector-curvature="0" />
</svg>
