<?xml version="1.0" encoding="UTF-8" standalone="no"?>
<svg
   xmlns:dc="http://purl.org/dc/elements/1.1/"
   xmlns:cc="http://creativecommons.org/ns#"
   xmlns:rdf="http://www.w3.org/1999/02/22-rdf-syntax-ns#"
   xmlns:svg="http://www.w3.org/2000/svg"
   xmlns="http://www.w3.org/2000/svg"
   xmlns:xlink="http://www.w3.org/1999/xlink"
   xmlns:sodipodi="http://sodipodi.sourceforge.net/DTD/sodipodi-0.dtd"
   xmlns:inkscape="http://www.inkscape.org/namespaces/inkscape"
   id="svg4532"
   height="64"
   width="64"
   version="1.1"
   sodipodi:docname="cups.svg"
   inkscape:version="1.0.1 (3bc2e813f5, 2020-09-07)">
  <sodipodi:namedview
     pagecolor="#ffffff"
     bordercolor="#666666"
     borderopacity="1"
     objecttolerance="10"
     gridtolerance="10"
     guidetolerance="10"
     inkscape:pageopacity="0"
     inkscape:pageshadow="2"
     inkscape:window-width="1366"
     inkscape:window-height="720"
     id="namedview115"
     showgrid="true"
     inkscape:zoom="4.273264"
     inkscape:cx="32.02261"
     inkscape:cy="36.17319"
     inkscape:window-x="0"
     inkscape:window-y="24"
     inkscape:window-maximized="1"
     inkscape:current-layer="svg4532"
     showguides="false"
     inkscape:document-rotation="0">
    <inkscape:grid
       type="xygrid"
       id="grid953" />
  </sodipodi:namedview>
  <defs
     id="defs4534">
    <linearGradient
       gradientTransform="matrix(1.4102551,0,0,1.4102551,-2.1641901,7.7223306)"
       gradientUnits="userSpaceOnUse"
       xlink:href="#linearGradient3924-803-9-8"
       id="linearGradient4015-9"
       y2="37.992332"
       x2="23.99999"
       y1="4.999989"
       x1="23.99999" />
    <linearGradient
       id="linearGradient3924-803-9-8">
      <stop
         offset="0"
         style="stop-color:#ffffff;stop-opacity:1"
         id="stop3252-4-0" />
      <stop
         offset="0.06316455"
         style="stop-color:#ffffff;stop-opacity:0.23529412"
         id="stop3254-4-8" />
      <stop
         offset="0.95056331"
         style="stop-color:#ffffff;stop-opacity:0.15686275"
         id="stop3256-1-5" />
      <stop
         offset="1"
         style="stop-color:#ffffff;stop-opacity:0.39215687"
         id="stop3258-8-3" />
    </linearGradient>
    <linearGradient
       gradientTransform="matrix(1.4324324,0,0,1.4324324,-2.3783747,-2.3783644)"
       gradientUnits="userSpaceOnUse"
       xlink:href="#linearGradient3924-45"
       id="linearGradient3107-996"
       y2="43"
       x2="23.99999"
       y1="4.999989"
       x1="23.99999" />
    <linearGradient
       id="linearGradient3924-45">
      <stop
         offset="0"
         style="stop-color:#ffffff;stop-opacity:1"
         id="stop3124" />
      <stop
         offset="0.06316455"
         style="stop-color:#ffffff;stop-opacity:0.23529412"
         id="stop3126" />
      <stop
         offset="0.95056331"
         style="stop-color:#ffffff;stop-opacity:0.15686275"
         id="stop3128" />
      <stop
         offset="1"
         style="stop-color:#ffffff;stop-opacity:0.39215687"
         id="stop3130" />
    </linearGradient>
    <linearGradient
       gradientTransform="matrix(1.4210527,0,0,1.4339623,-2.1052639,-3.6037731)"
       gradientUnits="userSpaceOnUse"
       xlink:href="#linearGradient3909-3-9"
       id="linearGradient4018-0"
       y2="6"
       x2="15"
       y1="32"
       x1="15" />
    <linearGradient
       id="linearGradient3909-3-9">
      <stop
         offset="0"
         style="stop-color:#fff0bf;stop-opacity:1"
         id="stop3911-8-7" />
      <stop
         offset="1"
         style="stop-color:#fdde76;stop-opacity:1"
         id="stop3913-4-2" />
    </linearGradient>
    <linearGradient
       spreadMethod="reflect"
       gradientTransform="matrix(1.0362862,0,0,0.89403617,7.12938,-1.5846168)"
       gradientUnits="userSpaceOnUse"
       xlink:href="#linearGradient3866-6"
       id="linearGradient4009"
       y2="15.737678"
       x2="25.525208"
       y1="35.429005"
       x1="25.525208" />
    <linearGradient
       id="linearGradient3866-6">
      <stop
         offset="0"
         style="stop-color:#969696;stop-opacity:1"
         id="stop3868-7" />
      <stop
         offset="0.5"
         style="stop-color:#858585;stop-opacity:0.63478261"
         id="stop3872-0" />
      <stop
         offset="1"
         style="stop-color:#939393;stop-opacity:0"
         id="stop3870-0" />
    </linearGradient>
    <linearGradient
       gradientTransform="matrix(-1.4102551,0,0,1.4102551,65.854401,-1.8461218)"
       gradientUnits="userSpaceOnUse"
       xlink:href="#linearGradient3856-8-9"
       id="linearGradient4012"
       y2="3.8990016"
       x2="24"
       y1="44"
       x1="24" />
    <linearGradient
       id="linearGradient3856-8-9">
      <stop
         offset="0"
         style="stop-color:#b67926;stop-opacity:1"
         id="stop3858-7-5" />
      <stop
         offset="1"
         style="stop-color:#eab41a;stop-opacity:1"
         id="stop3860-2-2" />
    </linearGradient>
    <linearGradient
       gradientTransform="matrix(1.2162162,0,0,0.72972967,2.8108144,7.4864927)"
       gradientUnits="userSpaceOnUse"
       xlink:href="#linearGradient3924-803-0"
       id="linearGradient4027"
       y2="43"
       x2="23.99999"
       y1="4.999989"
       x1="23.99999" />
    <linearGradient
       id="linearGradient3924-803-0">
      <stop
         offset="0"
         style="stop-color:#ffffff;stop-opacity:1"
         id="stop3252-06" />
      <stop
         offset="0.06316455"
         style="stop-color:#ffffff;stop-opacity:0.23529412"
         id="stop3254-1" />
      <stop
         offset="0.95056331"
         style="stop-color:#ffffff;stop-opacity:0.15686275"
         id="stop3256-0" />
      <stop
         offset="1"
         style="stop-color:#ffffff;stop-opacity:0.39215687"
         id="stop3258-2" />
    </linearGradient>
    <linearGradient
       gradientTransform="matrix(0.97973275,0,0,0.99399695,8.440608,5.1682525)"
       gradientUnits="userSpaceOnUse"
       xlink:href="#linearGradient8265-821-176-38-919-66-249-7-7"
       id="linearGradient4030"
       y2="24.627615"
       x2="20.054544"
       y1="15.298182"
       x1="16.626165" />
    <linearGradient
       id="linearGradient8265-821-176-38-919-66-249-7-7">
      <stop
         offset="0"
         style="stop-color:#ffffff;stop-opacity:1"
         id="stop2687-1-9" />
      <stop
         offset="1"
         style="stop-color:#ffffff;stop-opacity:0"
         id="stop2689-5-4" />
    </linearGradient>
    <linearGradient
       spreadMethod="reflect"
       gradientTransform="matrix(1.0362862,0,0,0.89403617,7.12938,-3.5516392)"
       gradientUnits="userSpaceOnUse"
       xlink:href="#linearGradient3333-4-4"
       id="linearGradient4033"
       y2="15.737678"
       x2="25.525208"
       y1="30.188753"
       x1="25.525208" />
    <linearGradient
       id="linearGradient3333-4-4">
      <stop
         offset="0"
         style="stop-color:#ffffff;stop-opacity:1"
         id="stop3335-4-6" />
      <stop
         offset="1"
         style="stop-color:#ffffff;stop-opacity:0"
         id="stop3337-7-2" />
    </linearGradient>
    <linearGradient
       gradientTransform="matrix(1.0342251,0,0,0.95412236,7.278352,-1.357436)"
       gradientUnits="userSpaceOnUse"
       xlink:href="#linearGradient3495"
       id="linearGradient4036"
       y2="20.443331"
       x2="23.903786"
       y1="35.75"
       x1="23.903786" />
    <linearGradient
       id="linearGradient3495">
      <stop
         offset="0"
         style="stop-color:#000000;stop-opacity:1"
         id="stop3497" />
      <stop
         offset="0.5"
         style="stop-color:#000000;stop-opacity:0.49803922"
         id="stop3874" />
      <stop
         offset="1"
         style="stop-color:#000000;stop-opacity:0"
         id="stop3499" />
    </linearGradient>
    <linearGradient
       spreadMethod="reflect"
       gradientTransform="matrix(1.0362862,0,0,0.89403617,7.12938,0.0781346)"
       gradientUnits="userSpaceOnUse"
       xlink:href="#linearGradient3333-4"
       id="linearGradient4039"
       y2="15.737678"
       x2="25.525208"
       y1="30.188753"
       x1="25.525208" />
    <linearGradient
       id="linearGradient3333-4">
      <stop
         offset="0"
         style="stop-color:#ffffff;stop-opacity:1"
         id="stop3335-4" />
      <stop
         offset="1"
         style="stop-color:#ffffff;stop-opacity:0"
         id="stop3337-7" />
    </linearGradient>
    <linearGradient
       spreadMethod="reflect"
       gradientTransform="matrix(1.0362862,0,0,0.89403617,7.12938,-1.5846168)"
       gradientUnits="userSpaceOnUse"
       xlink:href="#linearGradient3866"
       id="linearGradient4042"
       y2="15.737678"
       x2="25.525208"
       y1="30.188753"
       x1="25.525208" />
    <linearGradient
       id="linearGradient3866">
      <stop
         offset="0"
         style="stop-color:#a0a0a0;stop-opacity:1"
         id="stop3868" />
      <stop
         offset="0.5"
         style="stop-color:#8f8f8f;stop-opacity:0.63478261"
         id="stop3872" />
      <stop
         offset="1"
         style="stop-color:#9d9d9d;stop-opacity:0"
         id="stop3870" />
    </linearGradient>
    <linearGradient
       gradientTransform="matrix(1.0222223,0,0,0.84848482,7.4666663,1.2424163)"
       gradientUnits="userSpaceOnUse"
       xlink:href="#linearGradient3600"
       id="linearGradient4045"
       y2="45.243549"
       x2="20.052792"
       y1="10.636821"
       x1="20.052792" />
    <linearGradient
       id="linearGradient3600">
      <stop
         offset="0"
         style="stop-color:#f4f4f4;stop-opacity:1"
         id="stop3602" />
      <stop
         offset="1"
         style="stop-color:#dbdbdb;stop-opacity:1"
         id="stop3604" />
    </linearGradient>
    <radialGradient
       gradientTransform="matrix(2.003784,0,0,1.4,27.98813,-17.4)"
       gradientUnits="userSpaceOnUse"
       xlink:href="#linearGradient3688-166-749-654"
       id="radialGradient2873-966-168-714"
       fy="43.5"
       fx="4.9929786"
       r="2.5"
       cy="43.5"
       cx="4.9929786" />
    <linearGradient
       id="linearGradient3688-166-749-654">
      <stop
         offset="0"
         style="stop-color:#181818;stop-opacity:1"
         id="stop3088" />
      <stop
         offset="1"
         style="stop-color:#181818;stop-opacity:0"
         id="stop3090" />
    </linearGradient>
    <radialGradient
       gradientTransform="matrix(2.003784,0,0,1.4,-20.01187,-104.4)"
       gradientUnits="userSpaceOnUse"
       xlink:href="#linearGradient3688-464-309-604"
       id="radialGradient2875-742-326-419"
       fy="43.5"
       fx="4.9929786"
       r="2.5"
       cy="43.5"
       cx="4.9929786" />
    <linearGradient
       id="linearGradient3688-464-309-604">
      <stop
         offset="0"
         style="stop-color:#181818;stop-opacity:1"
         id="stop3094" />
      <stop
         offset="1"
         style="stop-color:#181818;stop-opacity:0"
         id="stop3096" />
    </linearGradient>
    <linearGradient
       gradientUnits="userSpaceOnUse"
       xlink:href="#linearGradient3702-501-757-795"
       id="linearGradient2877-634-617-908"
       y2="39.999443"
       x2="25.058096"
       y1="47.027729"
       x1="25.058096" />
    <linearGradient
       id="linearGradient3702-501-757-795">
      <stop
         offset="0"
         style="stop-color:#181818;stop-opacity:0"
         id="stop3100" />
      <stop
         offset="0.5"
         style="stop-color:#181818;stop-opacity:1"
         id="stop3102" />
      <stop
         offset="1"
         style="stop-color:#181818;stop-opacity:0"
         id="stop3104" />
    </linearGradient>
    <linearGradient
       id="linearGradient4833">
      <stop
         style="stop-color:#956500;stop-opacity:1;"
         offset="0"
         id="stop4835" />
      <stop
         style="stop-color:#956500;stop-opacity:0;"
         offset="1"
         id="stop4837" />
    </linearGradient>
    <linearGradient
       id="linearGradient4718">
      <stop
         id="stop4720"
         style="stop-color:#d1ff82;stop-opacity:1"
         offset="0" />
      <stop
         id="stop4722"
         style="stop-color:#9bdb4d;stop-opacity:1"
         offset="0.31324482" />
      <stop
         id="stop4724"
         style="stop-color:#68b723;stop-opacity:1"
         offset="0.69725084" />
      <stop
         id="stop4726"
         style="stop-color:#3a9104;stop-opacity:1"
         offset="1" />
    </linearGradient>
    <radialGradient
       gradientTransform="matrix(-1.2222639e-7,6.8170169,-13.429846,-2.4079176e-7,166.89442,-66.116134)"
       gradientUnits="userSpaceOnUse"
       xlink:href="#linearGradient4718"
       id="radialGradient5521-1"
       fy="9.9571075"
       fx="8.3363533"
       r="12.671875"
       cy="9.9571075"
       cx="8.8665838" />
    <linearGradient
       gradientTransform="matrix(1.3333334,0,0,1.3333334,-1.5,0.16666683)"
       xlink:href="#linearGradient4833"
       id="linearGradient4839"
       x1="4.8918934"
       y1="37.092773"
       x2="7.5"
       y2="37.092773"
       gradientUnits="userSpaceOnUse" />
    <linearGradient
       gradientTransform="matrix(-1.3333334,0,0,1.3333334,65.5,0.166667)"
       xlink:href="#linearGradient4833"
       id="linearGradient4839-9"
       x1="4.8918934"
       y1="37.092773"
       x2="7.5"
       y2="37.092773"
       gradientUnits="userSpaceOnUse" />
  </defs>
  <metadata
     id="metadata4537">
    <rdf:RDF>
      <cc:Work
         rdf:about="">
        <dc:format>image/svg+xml</dc:format>
        <dc:type
           rdf:resource="http://purl.org/dc/dcmitype/StillImage" />
        <dc:title />
      </cc:Work>
    </rdf:RDF>
  </metadata>
  <g
     transform="matrix(1.5000021,0,0,0.5555561,-4.0000114,35.888881)"
     id="g2036"
     style="display:inline">
    <g
       transform="matrix(1.052632,0,0,1.285713,-1.263158,-13.42854)"
       id="g3712"
       style="opacity:0.4">
      <rect
         width="5"
         height="7"
         x="38"
         y="40"
         id="rect2801"
         style="fill:url(#radialGradient2873-966-168-714);fill-opacity:1;stroke:none" />
      <rect
         width="5"
         height="7"
         x="-10"
         y="-47"
         transform="scale(-1)"
         id="rect3696"
         style="fill:url(#radialGradient2875-742-326-419);fill-opacity:1;stroke:none" />
      <rect
         width="28"
         height="7.0000005"
         x="10"
         y="40"
         id="rect3700"
         style="fill:url(#linearGradient2877-634-617-908);fill-opacity:1;stroke:none" />
    </g>
  </g>
  <rect
     width="55"
     height="55"
     rx="3"
     ry="3"
     x="4.5"
     y="4.5"
     id="rect5505-21-7-5"
     style="color:#000000;clip-rule:nonzero;display:inline;overflow:visible;visibility:visible;opacity:1;isolation:auto;mix-blend-mode:normal;color-interpolation:sRGB;color-interpolation-filters:linearRGB;solid-color:#000000;solid-opacity:1;fill:url(#radialGradient5521-1);fill-opacity:1;fill-rule:nonzero;stroke:none;stroke-width:1;stroke-linecap:butt;stroke-linejoin:miter;stroke-miterlimit:4;stroke-dasharray:none;stroke-dashoffset:0;stroke-opacity:1;marker:none;color-rendering:auto;image-rendering:auto;shape-rendering:auto;text-rendering:auto;enable-background:accumulate" />
  <rect
     width="55"
     height="55"
     rx="3"
     ry="3"
     x="4.5"
     y="4.5"
     id="rect5505-21"
     style="color:#000000;clip-rule:nonzero;display:inline;overflow:visible;visibility:visible;opacity:0.5;isolation:auto;mix-blend-mode:normal;color-interpolation:sRGB;color-interpolation-filters:linearRGB;solid-color:#000000;solid-opacity:1;fill:none;fill-opacity:1;fill-rule:evenodd;stroke:#206b00;stroke-width:1px;stroke-linecap:butt;stroke-linejoin:miter;stroke-miterlimit:4;stroke-dasharray:none;stroke-dashoffset:0;stroke-opacity:1;marker:none;color-rendering:auto;image-rendering:auto;shape-rendering:auto;text-rendering:auto;enable-background:accumulate" />
  <rect
     width="53"
     height="53"
     rx="2"
     ry="2"
     x="5.5"
     y="5.5"
     id="rect6741"
     style="display:inline;opacity:0.4;fill:none;stroke:url(#linearGradient3107-996);stroke-width:1;stroke-linecap:round;stroke-linejoin:round;stroke-miterlimit:4;stroke-dasharray:none;stroke-dashoffset:0;stroke-opacity:1" />
  <g
     aria-label="CUPS"
     id="text1039"
     style="font-weight:bold;font-size:18.6667px;line-height:1.25;font-family:Carlito;-inkscape-font-specification:'Carlito Bold'"
     transform="translate(1.342414,-5.895811)">
    <path
       d="m 18.403661,42.065099 q 0.191407,0 0.328126,0.145833 l 0.957033,1.02995 q -0.656252,0.920575 -1.649743,1.403649 -0.984377,0.483073 -2.342452,0.483073 -1.230471,0 -2.214848,-0.45573 -0.984377,-0.464844 -1.677086,-1.285158 -0.683595,-0.829429 -1.057294,-1.959639 -0.364584,-1.139325 -0.364584,-2.488286 0,-1.358075 0.391928,-2.488286 0.401042,-1.139325 1.121096,-1.959639 0.720053,-0.820314 1.722659,-1.276044 1.002606,-0.45573 2.205733,-0.45573 1.221357,0 2.16016,0.437501 0.938804,0.428386 1.567712,1.139325 l -0.802085,1.121096 q -0.08203,0.100261 -0.191407,0.182292 -0.10026,0.08203 -0.291667,0.08203 -0.191407,0 -0.373699,-0.145833 -0.173177,-0.145834 -0.4375,-0.319011 -0.255209,-0.173178 -0.647137,-0.319011 -0.391928,-0.145834 -1.002606,-0.145834 -0.665366,0 -1.212242,0.282553 -0.546876,0.273438 -0.938803,0.811199 -0.391928,0.528647 -0.610679,1.303388 -0.209635,0.765626 -0.209635,1.750003 0,0.993492 0.236979,1.768233 0.23698,0.77474 0.638022,1.312502 0.410157,0.528647 0.957033,0.811199 0.546876,0.273438 1.175783,0.273438 0.373699,0 0.674481,-0.03646 0.300782,-0.04557 0.55599,-0.145834 0.264324,-0.109375 0.492189,-0.273438 0.227865,-0.164063 0.45573,-0.410157 0.09115,-0.07292 0.182292,-0.11849 0.10026,-0.05469 0.200521,-0.05469 z"
       style="font-size:18.6667px;fill:#fafafa"
       id="path1041" />
    <path
       d="m 25.977893,43.067705 q 0.638022,0 1.130211,-0.209636 0.501303,-0.209636 0.838543,-0.592449 0.346355,-0.382813 0.528647,-0.929689 0.182292,-0.546876 0.182292,-1.221356 v -7.218764 h 2.388025 v 7.218764 q 0,1.093751 -0.35547,2.014326 -0.346354,0.920575 -1.002605,1.595055 -0.656252,0.665366 -1.595055,1.039064 -0.938804,0.373699 -2.114588,0.373699 -1.175783,0 -2.123701,-0.373699 -0.938804,-0.373698 -1.595055,-1.039064 -0.656252,-0.67448 -1.011721,-1.595055 -0.346355,-0.920575 -0.346355,-2.014326 v -7.218764 h 2.39714 v 7.218764 q 0,0.67448 0.182292,1.221356 0.182292,0.546876 0.519532,0.929689 0.346355,0.382813 0.838543,0.592449 0.501303,0.209636 1.139325,0.209636 z"
       style="font-size:18.6667px;fill:#fafafa"
       id="path1043" />
    <path
       d="M 35.511765,40.798169 V 45 h -2.39714 V 32.895811 h 3.891934 q 1.175784,0 2.023442,0.291668 0.847657,0.291667 1.403648,0.811199 0.55599,0.510418 0.820314,1.221356 0.264323,0.710939 0.264323,1.558597 0,0.893231 -0.282552,1.631513 -0.273438,0.738283 -0.838543,1.26693 -0.555991,0.528647 -1.403649,0.829428 -0.847658,0.291667 -1.986983,0.291667 z m 0,-1.859378 h 1.494794 q 1.093752,0 1.60417,-0.57422 0.510418,-0.583334 0.510418,-1.58594 0,-0.938804 -0.519533,-1.48568 -0.519532,-0.55599 -1.595055,-0.55599 h -1.494794 z"
       style="font-size:18.6667px;fill:#fafafa"
       id="path1045" />
    <path
       d="m 49.484444,35.174461 q -0.09115,0.182292 -0.21875,0.264324 -0.11849,0.07292 -0.300782,0.07292 -0.173177,0 -0.373698,-0.127605 -0.200522,-0.127604 -0.47396,-0.273438 -0.264323,-0.154948 -0.619792,-0.282552 -0.35547,-0.127605 -0.820314,-0.127605 -0.820314,0 -1.239586,0.401043 -0.410157,0.401042 -0.410157,1.048179 0,0.410157 0.218751,0.683595 0.227865,0.264323 0.592449,0.464844 0.373698,0.191407 0.838543,0.346355 0.473959,0.154948 0.966147,0.33724 0.492189,0.173178 0.957033,0.419272 0.473959,0.236979 0.838543,0.601563 0.373699,0.364584 0.592449,0.893231 0.227865,0.528647 0.227865,1.285159 0,0.820314 -0.273438,1.540367 -0.264323,0.720053 -0.783855,1.257815 -0.519532,0.528647 -1.276044,0.838543 -0.747397,0.309896 -1.713545,0.309896 -0.546876,0 -1.093752,-0.118489 -0.537761,-0.109376 -1.039064,-0.319011 -0.501303,-0.209636 -0.947919,-0.501303 -0.446615,-0.291668 -0.783855,-0.656252 l 0.710939,-1.139325 q 0.08203,-0.136719 0.21875,-0.21875 0.145834,-0.08203 0.309896,-0.08203 0.218751,0 0.446616,0.173177 0.236979,0.164063 0.546876,0.373699 0.309896,0.200521 0.720053,0.373698 0.410157,0.164063 0.975262,0.164063 0.820314,0 1.276044,-0.419272 0.45573,-0.419271 0.45573,-1.239585 0,-0.464845 -0.227865,-0.756512 -0.21875,-0.291667 -0.583334,-0.483074 -0.364584,-0.200521 -0.838543,-0.33724 -0.464845,-0.145833 -0.957033,-0.309896 -0.483074,-0.164063 -0.957033,-0.391928 -0.464845,-0.23698 -0.829429,-0.619793 -0.364584,-0.382813 -0.592449,-0.947918 -0.21875,-0.565105 -0.21875,-1.403649 0,-0.665365 0.255209,-1.294273 0.255208,-0.638022 0.747397,-1.13021 0.492188,-0.492189 1.203127,-0.783856 0.720053,-0.300782 1.640628,-0.300782 1.039064,0 1.92318,0.337241 0.893231,0.33724 1.522139,0.947918 z"
       style="font-size:18.6667px;fill:#fafafa"
       id="path1047" />
  </g>
</svg>
