<?xml version="1.0" encoding="UTF-8" standalone="no"?>
<svg
   xmlns:dc="http://purl.org/dc/elements/1.1/"
   xmlns:cc="http://creativecommons.org/ns#"
   xmlns:rdf="http://www.w3.org/1999/02/22-rdf-syntax-ns#"
   xmlns:svg="http://www.w3.org/2000/svg"
   xmlns="http://www.w3.org/2000/svg"
   xmlns:xlink="http://www.w3.org/1999/xlink"
   xmlns:sodipodi="http://sodipodi.sourceforge.net/DTD/sodipodi-0.dtd"
   xmlns:inkscape="http://www.inkscape.org/namespaces/inkscape"
   version="1.1"
   width="64"
   height="64"
   id="svg6333"
   sodipodi:docname="designer-qt4.svg"
   inkscape:version="0.92.4 5da689c313, 2019-01-14">
  <sodipodi:namedview
     pagecolor="#ffffff"
     bordercolor="#666666"
     borderopacity="1"
     objecttolerance="10"
     gridtolerance="10"
     guidetolerance="10"
     inkscape:pageopacity="0"
     inkscape:pageshadow="2"
     inkscape:window-width="1366"
     inkscape:window-height="717"
     id="namedview42"
     showgrid="false"
     inkscape:zoom="5.2149125"
     inkscape:cx="18.264574"
     inkscape:cy="25.847805"
     inkscape:window-x="0"
     inkscape:window-y="25"
     inkscape:window-maximized="1"
     inkscape:current-layer="svg6333" />
  <defs
     id="defs6335">
    <linearGradient
       id="linearGradient872">
      <stop
         style="stop-color:#f9c440;stop-opacity:1"
         offset="0"
         id="stop868" />
      <stop
         style="stop-color:#d48e15;stop-opacity:1"
         offset="1"
         id="stop870" />
    </linearGradient>
    <linearGradient
       x1="167.98311"
       y1="8.50811"
       x2="167.98311"
       y2="54.780239"
       id="linearGradient5809"
       xlink:href="#linearGradient5803"
       gradientUnits="userSpaceOnUse"
       gradientTransform="matrix(0.79353232,0,0,0.79353232,-96.349899,6.9186338)" />
    <linearGradient
       id="linearGradient5803">
      <stop
         id="stop5805"
         style="stop-color:#fff5ef;stop-opacity:1"
         offset="0" />
      <stop
         id="stop5807"
         style="stop-color:#fef8dd;stop-opacity:1"
         offset="1" />
    </linearGradient>
    <linearGradient
       x1="23.99999"
       y1="4.999989"
       x2="23.99999"
       y2="43"
       id="linearGradient3381-5-4"
       xlink:href="#linearGradient3924-2-2-5-8"
       gradientUnits="userSpaceOnUse"
       gradientTransform="matrix(1.4324324,0,0,1.4362832,-2.378381,-2.4707782)" />
    <linearGradient
       id="linearGradient3924-2-2-5-8">
      <stop
         id="stop3926-9-4-9-6"
         style="stop-color:#ffffff;stop-opacity:1"
         offset="0" />
      <stop
         id="stop3928-9-8-6-5"
         style="stop-color:#ffffff;stop-opacity:0.23529412"
         offset="0.06316455" />
      <stop
         id="stop3930-3-5-1-7"
         style="stop-color:#ffffff;stop-opacity:0.15686275"
         offset="0.95056331" />
      <stop
         id="stop3932-8-0-4-8"
         style="stop-color:#ffffff;stop-opacity:0.39215687"
         offset="1" />
    </linearGradient>
    <radialGradient
       cx="4.9929786"
       cy="43.5"
       r="2.5"
       fx="4.9929786"
       fy="43.5"
       id="radialGradient3337-2-2"
       xlink:href="#linearGradient3688-166-749-4-0-3-8"
       gradientUnits="userSpaceOnUse"
       gradientTransform="matrix(2.003784,0,0,1.4,27.98813,-17.4)" />
    <linearGradient
       id="linearGradient3688-166-749-4-0-3-8">
      <stop
         id="stop2883-4-0-1-8"
         style="stop-color:#181818;stop-opacity:1"
         offset="0" />
      <stop
         id="stop2885-9-2-9-6"
         style="stop-color:#181818;stop-opacity:0"
         offset="1" />
    </linearGradient>
    <radialGradient
       cx="4.9929786"
       cy="43.5"
       r="2.5"
       fx="4.9929786"
       fy="43.5"
       id="radialGradient3339-1-4"
       xlink:href="#linearGradient3688-464-309-9-2-4-2"
       gradientUnits="userSpaceOnUse"
       gradientTransform="matrix(2.003784,0,0,1.4,-20.01187,-104.4)" />
    <linearGradient
       id="linearGradient3688-464-309-9-2-4-2">
      <stop
         id="stop2889-7-9-6-9"
         style="stop-color:#181818;stop-opacity:1"
         offset="0" />
      <stop
         id="stop2891-6-6-1-7"
         style="stop-color:#181818;stop-opacity:0"
         offset="1" />
    </linearGradient>
    <linearGradient
       id="linearGradient3702-501-757-8-4-1-1">
      <stop
         id="stop2895-8-9-9-1"
         style="stop-color:#181818;stop-opacity:0"
         offset="0" />
      <stop
         id="stop2897-7-8-7-7"
         style="stop-color:#181818;stop-opacity:1"
         offset="0.5" />
      <stop
         id="stop2899-4-5-1-5"
         style="stop-color:#181818;stop-opacity:0"
         offset="1" />
    </linearGradient>
    <linearGradient
       x1="25.058096"
       y1="47.027729"
       x2="25.058096"
       y2="39.999443"
       id="linearGradient6394"
       xlink:href="#linearGradient3702-501-757-8-4-1-1"
       gradientUnits="userSpaceOnUse" />
    <linearGradient
       xlink:href="#linearGradient872"
       id="linearGradient874"
       x1="31.585226"
       y1="4.6304479"
       x2="31.585226"
       y2="59.185272"
       gradientUnits="userSpaceOnUse" />
    <linearGradient
       x1="23.575972"
       y1="25.356892"
       x2="23.575972"
       y2="31.210939"
       id="linearGradient8639"
       xlink:href="#linearGradient3155-40"
       gradientUnits="userSpaceOnUse"
       gradientTransform="matrix(0.415777,-0.4174938,0.518983,0.5146192,-46.985584,-28.142549)"
       spreadMethod="pad" />
    <linearGradient
       id="linearGradient3155-40">
      <stop
         id="stop2541"
         style="stop-color:#181818;stop-opacity:1"
         offset="0" />
      <stop
         id="stop2543"
         style="stop-color:#dbdbdb;stop-opacity:1"
         offset="0.13482948" />
      <stop
         id="stop2545"
         style="stop-color:#a4a4a4;stop-opacity:1"
         offset="0.20224422" />
      <stop
         id="stop2547"
         style="stop-color:#ffffff;stop-opacity:1"
         offset="0.26965895" />
      <stop
         id="stop2549"
         style="stop-color:#8d8d8d;stop-opacity:1"
         offset="0.44650277" />
      <stop
         id="stop2551"
         style="stop-color:#959595;stop-opacity:1"
         offset="0.57114136" />
      <stop
         id="stop2553"
         style="stop-color:#cecece;stop-opacity:1"
         offset="0.72038066" />
      <stop
         id="stop2555"
         style="stop-color:#181818;stop-opacity:1"
         offset="1" />
    </linearGradient>
    <linearGradient
       x1="30.037716"
       y1="24.989594"
       x2="30.037716"
       y2="30.000141"
       id="linearGradient8641"
       xlink:href="#linearGradient3240-279"
       gradientUnits="userSpaceOnUse"
       gradientTransform="matrix(0.4040235,-0.4056919,0.6073752,0.6022679,-49.106121,-30.099889)" />
    <linearGradient
       id="linearGradient3240-279">
      <stop
         id="stop2559"
         style="stop-color:#565656;stop-opacity:1"
         offset="0" />
      <stop
         id="stop2561"
         style="stop-color:#9a9a9a;stop-opacity:1"
         offset="0.5" />
      <stop
         id="stop2563"
         style="stop-color:#545454;stop-opacity:1"
         offset="1" />
    </linearGradient>
    <linearGradient
       x1="30.037716"
       y1="24.989594"
       x2="30.037716"
       y2="30.000141"
       id="linearGradient8643"
       xlink:href="#linearGradient3223-789"
       gradientUnits="userSpaceOnUse"
       gradientTransform="matrix(0.4040235,-0.4056919,0.6073752,0.6022679,-49.221829,-29.983704)" />
    <linearGradient
       id="linearGradient3223-789">
      <stop
         id="stop2567"
         style="stop-color:#b1b1b1;stop-opacity:1"
         offset="0" />
      <stop
         id="stop2569"
         style="stop-color:#ffffff;stop-opacity:1"
         offset="0.5" />
      <stop
         id="stop2571"
         style="stop-color:#8f8f8f;stop-opacity:1"
         offset="1" />
    </linearGradient>
    <linearGradient
       x1="30.037716"
       y1="24.989594"
       x2="30.037716"
       y2="30.000141"
       id="linearGradient8645"
       xlink:href="#linearGradient3240-279"
       gradientUnits="userSpaceOnUse"
       gradientTransform="matrix(0.4040235,-0.4056919,0.6073752,0.6022679,-48.704041,-30.50363)" />
    <linearGradient
       x1="30.037716"
       y1="24.989594"
       x2="30.037716"
       y2="30.000141"
       id="linearGradient8647"
       xlink:href="#linearGradient3223-789"
       gradientUnits="userSpaceOnUse"
       gradientTransform="matrix(0.4040235,-0.4056919,0.6073752,0.6022679,-48.819749,-30.387446)" />
    <linearGradient
       x1="30.037716"
       y1="24.989594"
       x2="30.037716"
       y2="30.000141"
       id="linearGradient8649"
       xlink:href="#linearGradient3240-279"
       gradientUnits="userSpaceOnUse"
       gradientTransform="matrix(0.4040235,-0.4056919,0.6073752,0.6022679,-48.300018,-30.909322)" />
    <linearGradient
       x1="30.037716"
       y1="24.989594"
       x2="30.037716"
       y2="30.000141"
       id="linearGradient8651"
       xlink:href="#linearGradient3223-789"
       gradientUnits="userSpaceOnUse"
       gradientTransform="matrix(0.4040235,-0.4056919,0.6073752,0.6022679,-48.415726,-30.793136)" />
    <linearGradient
       x1="9"
       y1="29.056757"
       x2="9"
       y2="26.02973"
       id="linearGradient8653"
       xlink:href="#linearGradient3290-678"
       gradientUnits="userSpaceOnUse"
       gradientTransform="matrix(0.4040235,-0.4056919,0.6073752,0.602268,-48.875049,-30.330424)" />
    <linearGradient
       id="linearGradient3290-678">
      <stop
         id="stop2607"
         style="stop-color:#ece5a5;stop-opacity:1"
         offset="0" />
      <stop
         id="stop2609"
         style="stop-color:#fcfbf2;stop-opacity:1"
         offset="1" />
    </linearGradient>
    <linearGradient
       x1="5.5178981"
       y1="37.371799"
       x2="9.5220556"
       y2="41.391716"
       id="linearGradient8655"
       xlink:href="#linearGradient3191-577"
       gradientUnits="userSpaceOnUse"
       gradientTransform="matrix(0.3763801,0.03615261,0.03669995,0.374874,-33.456638,-31.926017)" />
    <linearGradient
       id="linearGradient3191-577">
      <stop
         id="stop2613"
         style="stop-color:#dbce48;stop-opacity:1"
         offset="0" />
      <stop
         id="stop2615"
         style="stop-color:#c5b625;stop-opacity:1"
         offset="1" />
    </linearGradient>
    <linearGradient
       y2="3256.7898"
       x2="2100.5779"
       y1="3215.1467"
       x1="2100.5779"
       gradientTransform="matrix(0.5181502,0,0,0.36098189,-1110.9141,-1192.1748)"
       gradientUnits="userSpaceOnUse"
       id="linearGradient1252-6"
       xlink:href="#linearGradient947-5" />
    <linearGradient
       id="linearGradient947-5">
      <stop
         id="stop943-6"
         style="stop-color:#64baff;stop-opacity:1"
         offset="0" />
      <stop
         id="stop945-2"
         style="stop-color:#3689e6;stop-opacity:1"
         offset="1" />
    </linearGradient>
    <linearGradient
       xlink:href="#linearGradient974"
       id="linearGradient4273-1-6-8-5-8-6"
       gradientUnits="userSpaceOnUse"
       gradientTransform="matrix(0.29114364,0,0,0.32300634,-28.877124,-37.2574)"
       x1="29.555929"
       y1="28.447401"
       x2="26.135351"
       y2="34.106888" />
    <linearGradient
       id="linearGradient974">
      <stop
         offset="0"
         style="stop-color:#ffffff;stop-opacity:1"
         id="stop966" />
      <stop
         offset="0.00364194"
         style="stop-color:#ffffff;stop-opacity:0.23529412"
         id="stop968" />
      <stop
         offset="0.53919154"
         style="stop-color:#ffffff;stop-opacity:0.15686275"
         id="stop970" />
      <stop
         offset="1"
         style="stop-color:#ffffff;stop-opacity:0.39215687"
         id="stop972" />
    </linearGradient>
    <linearGradient
       y2="23.024765"
       x2="-3.7066221"
       y1="39.158836"
       x1="-3.7066221"
       gradientTransform="matrix(0.49410192,0,0,0.49431901,-19.167783,-38.380077)"
       gradientUnits="userSpaceOnUse"
       id="linearGradient1218-7-5"
       xlink:href="#linearGradient961" />
    <linearGradient
       id="linearGradient961">
      <stop
         id="stop953"
         style="stop-color:#ffffff;stop-opacity:1"
         offset="0" />
      <stop
         id="stop955"
         style="stop-color:#ffffff;stop-opacity:0.23529412"
         offset="0.37309238" />
      <stop
         id="stop957"
         style="stop-color:#ffffff;stop-opacity:0.15686275"
         offset="0.75" />
      <stop
         id="stop959"
         style="stop-color:#ffffff;stop-opacity:0.39215687"
         offset="1" />
    </linearGradient>
    <linearGradient
       id="linearGradient1228">
      <stop
         offset="0"
         style="stop-color:#ffffff;stop-opacity:1"
         id="stop1220" />
      <stop
         offset="0.49999997"
         style="stop-color:#ffffff;stop-opacity:0.23529412"
         id="stop1222" />
      <stop
         offset="0.75"
         style="stop-color:#ffffff;stop-opacity:0.15686275"
         id="stop1224" />
      <stop
         offset="1"
         style="stop-color:#ffffff;stop-opacity:0.39215687"
         id="stop1226" />
    </linearGradient>
    <linearGradient
       gradientTransform="matrix(-0.20276498,0,0,0.20796414,76.745436,-34.621183)"
       gradientUnits="userSpaceOnUse"
       xlink:href="#linearGradient4873-275-174-730-0"
       id="linearGradient2901"
       y2="41.870323"
       x2="139.23001"
       y1="-1.7069025"
       x1="139.23001" />
    <linearGradient
       id="linearGradient4873-275-174-730-0">
      <stop
         offset="0"
         style="stop-color:#ffffff;stop-opacity:1"
         id="stop3091-4" />
      <stop
         offset="1"
         style="stop-color:#ffffff;stop-opacity:0"
         id="stop3093-4" />
    </linearGradient>
    <radialGradient
       gradientTransform="matrix(0,0.49633911,0.63877963,0,69.330345,-46.040479)"
       gradientUnits="userSpaceOnUse"
       xlink:href="#linearGradient4011"
       id="radialGradient3799"
       fy="-35.521912"
       fx="20.572538"
       r="20.397499"
       cy="-35.521912"
       cx="20.572538" />
    <linearGradient
       id="linearGradient4011">
      <stop
         id="stop4013"
         style="stop-color:#ffffff;stop-opacity:1"
         offset="0" />
      <stop
         id="stop4015"
         style="stop-color:#ffffff;stop-opacity:0.23529412"
         offset="0.507761" />
      <stop
         id="stop4017"
         style="stop-color:#ffffff;stop-opacity:0.15686275"
         offset="0.83456558" />
      <stop
         id="stop4019"
         style="stop-color:#ffffff;stop-opacity:0.39215687"
         offset="1" />
    </linearGradient>
    <linearGradient
       gradientTransform="matrix(-0.20276498,0,0,0.20796414,76.745436,-34.621183)"
       gradientUnits="userSpaceOnUse"
       xlink:href="#linearGradient2490-322-551-880-5-882"
       id="linearGradient3801"
       y2="-5.810328"
       x2="128.7184"
       y1="46.304459"
       x1="128.7184" />
    <linearGradient
       id="linearGradient2490-322-551-880-5-882">
      <stop
         offset="0"
         style="stop-color:#8c8c8c;stop-opacity:1"
         id="stop3887" />
      <stop
         offset="1"
         style="stop-color:#b4b4b4;stop-opacity:1"
         id="stop3889" />
    </linearGradient>
    <linearGradient
       x1="2035.1652"
       y1="3208.0737"
       x2="2035.1652"
       y2="3241.9966"
       id="linearGradient11527-6-5-3"
       xlink:href="#linearGradient947-5"
       gradientUnits="userSpaceOnUse"
       gradientTransform="matrix(0.57484956,0,0,0.42975531,-1196.0147,-1409.7717)" />
    <linearGradient
       x1="71.204407"
       y1="6.2375584"
       x2="71.204407"
       y2="44.340794"
       id="linearGradient3071"
       xlink:href="#linearGradient4011"
       gradientUnits="userSpaceOnUse"
       gradientTransform="matrix(0.35135136,0,0,0.35135136,-49.204165,-32.909301)" />
    <linearGradient
       x1="23.575972"
       y1="25.356892"
       x2="23.575972"
       y2="31.210939"
       id="linearGradient3176"
       xlink:href="#linearGradient3155-40"
       gradientUnits="userSpaceOnUse"
       gradientTransform="matrix(0.87539065,-0.87968181,0.97932539,0.97445279,-3.0169552,27.152318)"
       spreadMethod="pad" />
    <linearGradient
       x1="30.037716"
       y1="24.989594"
       x2="30.037716"
       y2="30.000141"
       id="linearGradient3171"
       xlink:href="#linearGradient3240-279"
       gradientUnits="userSpaceOnUse"
       gradientTransform="matrix(0.85064445,-0.85481442,1.146122,1.1404196,-6.2249016,22.651052)" />
    <linearGradient
       x1="30.037716"
       y1="24.989594"
       x2="30.037716"
       y2="30.000141"
       id="linearGradient3168"
       xlink:href="#linearGradient3223-789"
       gradientUnits="userSpaceOnUse"
       gradientTransform="matrix(0.85064445,-0.85481442,1.146122,1.1404196,-6.4685146,22.89586)" />
    <linearGradient
       x1="30.037716"
       y1="24.989594"
       x2="30.037716"
       y2="30.000141"
       id="linearGradient3165"
       xlink:href="#linearGradient3240-279"
       gradientUnits="userSpaceOnUse"
       gradientTransform="matrix(0.85064445,-0.85481442,1.146122,1.1404196,-5.3783496,21.800349)" />
    <linearGradient
       x1="30.037716"
       y1="24.989594"
       x2="30.037716"
       y2="30.000141"
       id="linearGradient3162"
       xlink:href="#linearGradient3223-789"
       gradientUnits="userSpaceOnUse"
       gradientTransform="matrix(0.85064445,-0.85481442,1.146122,1.1404196,-5.6219636,22.045155)" />
    <linearGradient
       x1="30.037716"
       y1="24.989594"
       x2="30.037716"
       y2="30.000141"
       id="linearGradient3159"
       xlink:href="#linearGradient3240-279"
       gradientUnits="userSpaceOnUse"
       gradientTransform="matrix(0.85064445,-0.85481442,1.146122,1.1404196,-4.5277046,20.945534)" />
    <linearGradient
       x1="30.037716"
       y1="24.989594"
       x2="30.037716"
       y2="30.000141"
       id="linearGradient3156"
       xlink:href="#linearGradient3223-789"
       gradientUnits="userSpaceOnUse"
       gradientTransform="matrix(0.85064445,-0.85481442,1.146122,1.1404196,-4.7713176,21.190343)" />
    <linearGradient
       x1="9"
       y1="29.056757"
       x2="9"
       y2="26.02973"
       id="linearGradient3151"
       xlink:href="#linearGradient3290-678"
       gradientUnits="userSpaceOnUse"
       gradientTransform="matrix(0.85064445,-0.85481442,1.1461221,1.1404197,-6.5479896,22.97572)" />
    <linearGradient
       x1="5.5178981"
       y1="37.371799"
       x2="9.5220556"
       y2="41.391716"
       id="linearGradient3153"
       xlink:href="#linearGradient3191-577"
       gradientUnits="userSpaceOnUse"
       gradientTransform="matrix(0.74712277,0.03224699,0.03220731,0.74620134,24.394615,18.140574)" />
  </defs>
  <metadata
     id="metadata6338">
    <rdf:RDF>
      <cc:Work
         rdf:about="">
        <dc:format>image/svg+xml</dc:format>
        <dc:type
           rdf:resource="http://purl.org/dc/dcmitype/StillImage" />
        <dc:title></dc:title>
      </cc:Work>
    </rdf:RDF>
  </metadata>
  <rect
     style="color:#000000;display:inline;overflow:visible;visibility:visible;opacity:1;fill:url(#linearGradient874);fill-opacity:1;fill-rule:nonzero;stroke:none;stroke-width:0.99999994;marker:none;enable-background:accumulate"
     id="rect5505-21-3-8-5-2"
     y="4.5000019"
     x="4.4999986"
     ry="3"
     rx="3"
     height="55"
     width="55" />
  <rect
     style="opacity:0.5;fill:none;stroke:url(#linearGradient3381-5-4);stroke-width:1;stroke-linecap:round;stroke-linejoin:round;stroke-miterlimit:4;stroke-dasharray:none;stroke-dashoffset:0;stroke-opacity:1"
     id="rect6741-5-0-2-3"
     y="5.4287739"
     x="5.4999986"
     ry="2"
     rx="2"
     height="53.142479"
     width="53" />
  <rect
     style="color:#000000;display:inline;overflow:visible;visibility:visible;opacity:0.5;fill:none;stroke:#d48e15;stroke-width:1;stroke-linecap:round;stroke-linejoin:round;stroke-miterlimit:4;stroke-dasharray:none;stroke-dashoffset:0;stroke-opacity:1;marker:none;enable-background:accumulate"
     id="rect5505-21-3-8-9-1-1"
     y="4.5000019"
     x="4.4999986"
     ry="3"
     rx="3"
     height="55"
     width="55" />
  <g
     aria-label="Qt"
     style="font-style:normal;font-variant:normal;font-weight:bold;font-stretch:normal;font-size:26.66666603px;line-height:1.25;font-family:'Myriad Pro';-inkscape-font-specification:'Myriad Pro Bold';letter-spacing:0px;word-spacing:0px;opacity:0.15;fill:#000000;fill-opacity:1;stroke:#000000;stroke-width:2;stroke-linecap:butt;stroke-linejoin:round;stroke-miterlimit:4;stroke-dasharray:none;stroke-opacity:1"
     id="text851"
     transform="matrix(1.3333083,0,0,1.3333034,-10.907033,10.596022)">
    <path
       d="m 35.379255,22.833355 c -1.272,-0.264 -2.664,-0.552 -3.912,-0.912 v -0.096 c 2.136,-0.96 3.84,-3.552 3.84,-7.224 0,-4.416 -2.712,-8.1599997 -7.656,-8.1599997 -4.824,0 -7.896,3.6479997 -7.896,8.4959997 0,5.28 3.408,7.968 7.056,8.208 0.384,0.024 0.768,0.096 1.128,0.24 2.16,0.912 4.08,1.608 6.384,2.28 z m -7.848,-2.592 c -2.448,0 -3.936,-2.352 -3.912,-5.424 0,-3.024 1.44,-5.4719997 3.936,-5.4719997 2.496,0 3.888,2.4479997 3.888,5.3999997 0,3.168 -1.44,5.496 -3.888,5.496 z"
       style="font-size:24px;stroke:#000000;stroke-width:2;stroke-linecap:butt;stroke-linejoin:round;stroke-miterlimit:4;stroke-dasharray:none;stroke-opacity:1"
       id="path853"
       inkscape:connector-curvature="0" />
    <path
       d="m 38.414505,8.9373553 v 2.2079997 h -1.56 v 2.688 h 1.56 v 4.8 c 0,1.656 0.336,2.784 1.008,3.48 0.576,0.6 1.56,1.032 2.736,1.032 1.032,0 1.896,-0.144 2.376,-0.336 l -0.024,-2.76 c -0.36,0.072 -0.576,0.096 -1.08,0.096 -1.104,0 -1.44,-0.648 -1.44,-2.064 v -4.248 h 2.616 v -2.688 h -2.616 V 7.9533553 Z"
       style="font-size:24px;stroke:#000000;stroke-width:2;stroke-linecap:butt;stroke-linejoin:round;stroke-miterlimit:4;stroke-dasharray:none;stroke-opacity:1"
       id="path855"
       inkscape:connector-curvature="0" />
  </g>
  <g
     aria-label="Qt"
     style="font-style:normal;font-variant:normal;font-weight:bold;font-stretch:normal;font-size:26.66666603px;line-height:1.25;font-family:'Myriad Pro';-inkscape-font-specification:'Myriad Pro Bold';letter-spacing:0px;word-spacing:0px;opacity:0.3;fill:#000000;fill-opacity:1;stroke:none"
     id="text851-4"
     transform="matrix(1.3333213,0,0,1.3333176,-10.907512,10.595826)">
    <path
       d="m 35.379255,22.833355 c -1.272,-0.264 -2.664,-0.552 -3.912,-0.912 v -0.096 c 2.136,-0.96 3.84,-3.552 3.84,-7.224 0,-4.416 -2.712,-8.1599997 -7.656,-8.1599997 -4.824,0 -7.896,3.6479997 -7.896,8.4959997 0,5.28 3.408,7.968 7.056,8.208 0.384,0.024 0.768,0.096 1.128,0.24 2.16,0.912 4.08,1.608 6.384,2.28 z m -7.848,-2.592 c -2.448,0 -3.936,-2.352 -3.912,-5.424 0,-3.024 1.44,-5.4719997 3.936,-5.4719997 2.496,0 3.888,2.4479997 3.888,5.3999997 0,3.168 -1.44,5.496 -3.888,5.496 z"
       style="font-size:24px"
       id="path853-1"
       inkscape:connector-curvature="0" />
    <path
       d="m 38.414505,8.9373553 v 2.2079997 h -1.56 v 2.688 h 1.56 v 4.8 c 0,1.656 0.336,2.784 1.008,3.48 0.576,0.6 1.56,1.032 2.736,1.032 1.032,0 1.896,-0.144 2.376,-0.336 l -0.024,-2.76 c -0.36,0.072 -0.576,0.096 -1.08,0.096 -1.104,0 -1.44,-0.648 -1.44,-2.064 v -4.248 h 2.616 v -2.688 h -2.616 V 7.9533553 Z"
       style="font-size:24px"
       id="path855-8"
       inkscape:connector-curvature="0" />
  </g>
  <g
     aria-label="Qt"
     style="font-style:normal;font-variant:normal;font-weight:bold;font-stretch:normal;font-size:26.66666603px;line-height:1.25;font-family:'Myriad Pro';-inkscape-font-specification:'Myriad Pro Bold';letter-spacing:0px;word-spacing:0px;fill:#ffffff;fill-opacity:1;stroke:none"
     id="text851-9"
     transform="matrix(1.3333213,0,0,1.3333176,-10.907512,9.2626448)">
    <path
       d="m 35.379255,22.833355 c -1.272,-0.264 -2.664,-0.552 -3.912,-0.912 v -0.096 c 2.136,-0.96 3.84,-3.552 3.84,-7.224 0,-4.416 -2.712,-8.1599997 -7.656,-8.1599997 -4.824,0 -7.896,3.6479997 -7.896,8.4959997 0,5.28 3.408,7.968 7.056,8.208 0.384,0.024 0.768,0.096 1.128,0.24 2.16,0.912 4.08,1.608 6.384,2.28 z m -7.848,-2.592 c -2.448,0 -3.936,-2.352 -3.912,-5.424 0,-3.024 1.44,-5.4719997 3.936,-5.4719997 2.496,0 3.888,2.4479997 3.888,5.3999997 0,3.168 -1.44,5.496 -3.888,5.496 z"
       style="font-size:24px;fill:#ffffff"
       id="path853-6"
       inkscape:connector-curvature="0" />
    <path
       d="m 38.414505,8.9373553 v 2.2079997 h -1.56 v 2.688 h 1.56 v 4.8 c 0,1.656 0.336,2.784 1.008,3.48 0.576,0.6 1.56,1.032 2.736,1.032 1.032,0 1.896,-0.144 2.376,-0.336 l -0.024,-2.76 c -0.36,0.072 -0.576,0.096 -1.08,0.096 -1.104,0 -1.44,-0.648 -1.44,-2.064 v -4.248 h 2.616 v -2.688 h -2.616 V 7.9533553 Z"
       style="font-size:24px;fill:#ffffff"
       id="path855-4"
       inkscape:connector-curvature="0" />
  </g>
  <g
     transform="matrix(0.67297426,0,0,0.67298469,24.248544,28.86533)"
     id="g946">
    <path
       inkscape:connector-curvature="0"
       style="fill:url(#linearGradient3176);fill-opacity:1;stroke:#0c0c0c;stroke-width:0.5;stroke-linecap:butt;stroke-linejoin:round;stroke-miterlimit:4;stroke-dasharray:none;stroke-dashoffset:0;stroke-opacity:1"
       id="rect2383"
       d="m 31.57772,42.038752 c 0.594537,-0.446137 2.262714,0.39074 3.795697,1.916096 1.529317,1.521706 2.335133,3.150009 1.899097,3.750366 -0.0016,0.0023 0.03752,0.03339 0.03581,0.03564 L 58.654191,26.29035 c 0.541954,-0.544611 -0.300099,-2.265649 -1.88175,-3.839428 -1.581645,-1.57378 -3.306905,-2.407285 -3.848863,-1.862671 z" />
    <path
       inkscape:connector-curvature="0"
       style="opacity:0.8;fill:#ffb6ed;fill-opacity:1;stroke:#e28ccd;stroke-width:0.5;stroke-linecap:butt;stroke-linejoin:round;stroke-miterlimit:4;stroke-dasharray:none;stroke-dashoffset:0;stroke-opacity:1"
       id="rect3175"
       d="m 50.318482,23.20612 c 0.594537,-0.446136 2.262715,0.390742 3.795697,1.916096 1.529316,1.521706 2.335133,3.150009 1.899096,3.750365 -0.0016,0.0023 0.03752,0.03338 0.03581,0.03564 l 2.605098,-2.61787 0.05317,-0.05342 c 0.0017,-0.0023 -0.03748,-0.03336 -0.03581,-0.03564 0.43603,-0.600356 -0.369788,-2.228658 -1.899104,-3.750363 -1.53298,-1.525355 -3.201157,-2.362234 -3.795696,-1.916096 l -0.05317,0.05342 -2.605096,2.617869 h 4e-6 z" />
    <path
       inkscape:connector-curvature="0"
       style="opacity:0.6;fill:#0c0c0c;fill-opacity:1;stroke:none"
       id="path3208"
       d="m 31.57772,42.038749 c 0.594537,-0.446136 2.262715,0.390742 3.795696,1.916096 1.529317,1.521707 2.335134,3.150009 1.899097,3.750366 -0.0016,0.0023 0.03752,0.03339 0.03583,0.03564 l 14.700196,-14.772261 0.05317,-0.05343 c 0.0017,-0.0023 -0.03748,-0.03336 -0.03581,-0.03564 0.436028,-0.600361 -0.369789,-2.228662 -1.899105,-3.750369 -1.532982,-1.525354 -3.201161,-2.362232 -3.795698,-1.916094 l -0.05317,0.05342 -14.700191,14.772262 h -7e-6 z" />
    <path
       inkscape:connector-curvature="0"
       style="fill:url(#linearGradient3171);fill-opacity:1;stroke:none"
       id="path3233"
       d="m 47.398481,26.140433 c 0.594536,-0.446138 2.262717,0.390741 3.795698,1.916096 1.529315,1.521705 2.335133,3.150007 1.899095,3.750365 -0.0016,0.0023 0.03752,0.03339 0.03581,0.03564 L 53.394912,31.5754 c 0.0017,-0.0023 -0.03748,-0.03336 -0.03581,-0.03564 0.436038,-0.600357 -0.36978,-2.22866 -1.899097,-3.750363 -1.532981,-1.525356 -3.20116,-2.362234 -3.795696,-1.916097 l -0.265827,0.26713 v 2e-6 z" />
    <path
       inkscape:connector-curvature="0"
       style="fill:url(#linearGradient3168);fill-opacity:1;stroke:none"
       id="path3216"
       d="m 47.154867,26.38524 c 0.594539,-0.446138 2.262718,0.39074 3.795697,1.916095 1.529319,1.521706 2.335136,3.150007 1.899097,3.750364 -0.0016,0.0023 0.03751,0.03339 0.03581,0.03564 l 0.265825,-0.267132 c 0.0017,-0.0023 -0.03748,-0.03336 -0.03581,-0.03564 0.436041,-0.600355 -0.369777,-2.228658 -1.899095,-3.750363 C 49.68341,26.50885 48.015232,25.67197 47.420692,26.118108 l -0.265825,0.267131 z" />
    <path
       inkscape:connector-curvature="0"
       style="fill:url(#linearGradient3165);fill-opacity:1;stroke:none"
       id="path3248"
       d="m 48.245034,25.28973 c 0.594537,-0.446138 2.262715,0.39074 3.795697,1.916096 1.529316,1.521705 2.335134,3.150006 1.899097,3.750364 -0.0016,0.0023 0.03751,0.03338 0.03581,0.03564 l 0.265826,-0.26713 c 0.0017,-0.0023 -0.03748,-0.03336 -0.03581,-0.03564 C 54.641691,30.088704 53.835875,28.4604 52.306556,26.938696 50.773576,25.413341 49.1054,24.576462 48.510859,25.0226 Z" />
    <path
       inkscape:connector-curvature="0"
       style="fill:url(#linearGradient3162);fill-opacity:1;stroke:none"
       id="path3250"
       d="m 48.00142,25.534537 c 0.59454,-0.446138 2.262718,0.39074 3.795697,1.916095 1.529318,1.521706 2.335135,3.150007 1.899098,3.750364 -0.0016,0.0023 0.03752,0.03339 0.03581,0.03564 l 0.265825,-0.267131 c 0.0017,-0.0023 -0.03748,-0.03336 -0.03581,-0.03564 0.436039,-0.600357 -0.369778,-2.228661 -1.899095,-3.750364 -1.53298,-1.525355 -3.201159,-2.362235 -3.795699,-1.916096 l -0.265826,0.267131 z" />
    <path
       inkscape:connector-curvature="0"
       style="fill:url(#linearGradient3159);fill-opacity:1;stroke:none"
       id="path3256"
       d="m 49.095679,24.434915 c 0.594536,-0.446137 2.262714,0.390741 3.795696,1.916096 1.529316,1.521705 2.335134,3.150007 1.899097,3.750364 -0.0016,0.0023 0.0375,0.03339 0.03581,0.03564 l 0.265824,-0.267131 c 0.0017,-0.0023 -0.03748,-0.03336 -0.03581,-0.03564 0.436038,-0.600356 -0.36978,-2.22866 -1.899097,-3.750365 -1.532978,-1.525354 -3.201157,-2.362234 -3.795696,-1.916094 l -0.265825,0.267129 z" />
    <path
       inkscape:connector-curvature="0"
       style="fill:url(#linearGradient3156);fill-opacity:1;stroke:none"
       id="path3258"
       d="m 48.852067,24.679722 c 0.594534,-0.446138 2.262715,0.39074 3.795696,1.916097 1.529315,1.521704 2.335135,3.150007 1.899095,3.750362 -0.0016,0.0023 0.03752,0.03339 0.03581,0.03564 l 0.265826,-0.267128 c 0.0017,-0.0023 -0.03748,-0.03336 -0.03581,-0.03564 0.436038,-0.600359 -0.36978,-2.228661 -1.899096,-3.750365 -1.532981,-1.525356 -3.20116,-2.362235 -3.795697,-1.916096 l -0.265825,0.267129 v 0 z" />
    <path
       inkscape:connector-curvature="0"
       style="fill:url(#linearGradient3151);fill-opacity:1;fill-rule:evenodd;stroke:url(#linearGradient3153);stroke-width:0.5;stroke-linecap:butt;stroke-linejoin:miter;stroke-miterlimit:4;stroke-dasharray:none;stroke-opacity:1"
       id="path3270"
       d="m 27.487084,51.747568 9.711253,-3.960957 0.08274,-0.08273 c 0.436037,-0.600362 -0.380288,-2.22879 -1.909605,-3.7505 -1.532982,-1.525354 -3.199188,-2.357607 -3.793726,-1.911469 l -4.090658,9.705656 h -7e-6 z" />
    <path
       inkscape:connector-curvature="0"
       style="fill:#0c0c0c;fill-opacity:1;fill-rule:evenodd;stroke:#0c0c0c;stroke-width:0.5;stroke-linecap:butt;stroke-linejoin:miter;stroke-miterlimit:4;stroke-dasharray:none;stroke-opacity:1"
       id="path3281"
       d="m 28.595131,49.118873 -1.108643,2.618307 2.648745,-1.085868 C 29.92294,50.397024 29.726959,50.138742 29.472072,49.885124 29.178629,49.59314 28.890001,49.35623 28.595131,49.118873 Z" />
  </g>
</svg>
