<?xml version="1.0" encoding="UTF-8" standalone="no"?>
<svg
   xmlns:dc="http://purl.org/dc/elements/1.1/"
   xmlns:cc="http://creativecommons.org/ns#"
   xmlns:rdf="http://www.w3.org/1999/02/22-rdf-syntax-ns#"
   xmlns:svg="http://www.w3.org/2000/svg"
   xmlns="http://www.w3.org/2000/svg"
   xmlns:xlink="http://www.w3.org/1999/xlink"
   xmlns:sodipodi="http://sodipodi.sourceforge.net/DTD/sodipodi-0.dtd"
   xmlns:inkscape="http://www.inkscape.org/namespaces/inkscape"
   id="svg3489"
   height="64"
   width="64"
   version="1.1"
   sodipodi:docname="electron.svg"
   inkscape:version="0.92.4 5da689c313, 2019-01-14">
  <sodipodi:namedview
     pagecolor="#ffffff"
     bordercolor="#666666"
     borderopacity="1"
     objecttolerance="10"
     gridtolerance="10"
     guidetolerance="10"
     inkscape:pageopacity="0"
     inkscape:pageshadow="2"
     inkscape:window-width="1366"
     inkscape:window-height="743"
     id="namedview56"
     showgrid="true"
     inkscape:zoom="3.6875"
     inkscape:cx="38.863306"
     inkscape:cy="4.4188124"
     inkscape:window-x="0"
     inkscape:window-y="-1"
     inkscape:window-maximized="1"
     inkscape:current-layer="svg3489">
    <inkscape:grid
       type="xygrid"
       id="grid854" />
  </sodipodi:namedview>
  <defs
     id="defs3491">
    <linearGradient
       id="linearGradient4806">
      <stop
         offset="0"
         style="stop-color:#ffffff;stop-opacity:1"
         id="stop4808" />
      <stop
         offset="0.42447853"
         style="stop-color:#ffffff;stop-opacity:0.23529412"
         id="stop4810" />
      <stop
         offset="0.82089913"
         style="stop-color:#ffffff;stop-opacity:0.15686275"
         id="stop4812" />
      <stop
         offset="1"
         style="stop-color:#ffffff;stop-opacity:0.39215687"
         id="stop4814" />
    </linearGradient>
    <linearGradient
       gradientTransform="matrix(2.3268746,0,0,2.3268746,-135.94475,-32.842783)"
       gradientUnits="userSpaceOnUse"
       xlink:href="#linearGradient4806"
       id="linearGradient3293"
       y2="40.495617"
       x2="71.204407"
       y1="15.369057"
       x1="71.204407" />
    <linearGradient
       id="linearGradient23419">
      <stop
         offset="0"
         style="stop-color:#000000;stop-opacity:1"
         id="stop23421" />
      <stop
         offset="1"
         style="stop-color:#000000;stop-opacity:0"
         id="stop23423" />
    </linearGradient>
    <linearGradient
       id="linearGradient8838">
      <stop
         offset="0"
         style="stop-color:#000000;stop-opacity:1"
         id="stop8840" />
      <stop
         offset="1"
         style="stop-color:#000000;stop-opacity:0"
         id="stop8842" />
    </linearGradient>
    <linearGradient
       id="linearGradient2867-449-88-871-390-598-476-591-434-148-57-177-3-8-8-9">
      <stop
         offset="0"
         style="stop-color:#8cd5ff;stop-opacity:1"
         id="stop3750-8-9-0" />
      <stop
         offset="0.26238"
         style="stop-color:#64baff;stop-opacity:1"
         id="stop3752-3-2-2" />
      <stop
         offset="0.704952"
         style="stop-color:#3689e6;stop-opacity:1"
         id="stop3754-7-2-2" />
      <stop
         offset="1"
         style="stop-color:#0d52bf;stop-opacity:1"
         id="stop3756-9-3-05" />
    </linearGradient>
    <linearGradient
       id="linearGradient3104-8-8-97-4-6-2-0-1-4-0-5-8-3-9-1">
      <stop
         offset="0"
         style="stop-color:#000000;stop-opacity:0.32173914"
         id="stop3106-5-4-3-5-0-1-61-9-2-7-3-3-2-6-9" />
      <stop
         offset="1"
         style="stop-color:#000000;stop-opacity:0.27826086"
         id="stop3108-4-3-7-8-2-4-01-9-9-0-6-4-3-7-7" />
    </linearGradient>
    <linearGradient
       id="linearGradient4632-92-3-0-8-1-6-6">
      <stop
         offset="0"
         style="stop-color:#fafafa;stop-opacity:1"
         id="stop4634-68-8-0-2-9-1-1" />
      <stop
         offset="1"
         style="stop-color:#e1e1e1;stop-opacity:1"
         id="stop4636-8-21-7-1-4-9-4" />
    </linearGradient>
    <linearGradient
       id="linearGradient4011-7-0">
      <stop
         offset="0"
         style="stop-color:#ffffff;stop-opacity:1"
         id="stop4013-4" />
      <stop
         offset="0.507761"
         style="stop-color:#ffffff;stop-opacity:0.23529412"
         id="stop4015-61" />
      <stop
         offset="0.83456558"
         style="stop-color:#ffffff;stop-opacity:0.15686275"
         id="stop4017-2" />
      <stop
         offset="1"
         style="stop-color:#ffffff;stop-opacity:0.39215687"
         id="stop4019-2" />
    </linearGradient>
    <linearGradient
       gradientTransform="matrix(0.72972969,0,0,0.72972969,-4.3460816,29.49607)"
       gradientUnits="userSpaceOnUse"
       xlink:href="#linearGradient4011-7-0"
       id="linearGradient3306"
       y2="42.883553"
       x2="71.204407"
       y1="7.8309216"
       x1="71.204407" />
    <linearGradient
       gradientTransform="matrix(1.1151168,0,0,1.1513607,154.34934,-4.9719397)"
       gradientUnits="userSpaceOnUse"
       xlink:href="#linearGradient3104-8-8-97-4-6-2-0-1-4-0-5-8-3-9-1"
       id="linearGradient3315"
       y2="5.1757793"
       x2="-95.837799"
       y1="54.199703"
       x1="-95.837799" />
    <radialGradient
       gradientTransform="matrix(0,7.1951254,-7.6115838,-1.9584024e-7,96.316284,-28.423918)"
       gradientUnits="userSpaceOnUse"
       xlink:href="#linearGradient2867-449-88-871-390-598-476-591-434-148-57-177-3-8-8-9"
       id="radialGradient3328"
       fy="8.4497671"
       fx="1.1978998"
       r="19.99999"
       cy="8.4497671"
       cx="1.1978998" />
    <radialGradient
       gradientTransform="matrix(1.3176471,0,0,0.37647,-34.517651,58.258824)"
       gradientUnits="userSpaceOnUse"
       xlink:href="#linearGradient8838"
       id="radialGradient3384"
       fy="4.625"
       fx="62.625"
       r="10.625"
       cy="4.625"
       cx="62.625" />
    <radialGradient
       gradientTransform="matrix(0,1.7065212,-1.8052958,-4.6448879e-8,63.254408,23.291389)"
       gradientUnits="userSpaceOnUse"
       xlink:href="#linearGradient4632-92-3-0-8-1-6-6"
       id="radialGradient3399"
       fy="8.4497671"
       fx="6.2751122"
       r="19.99999"
       cy="8.4497671"
       cx="6.2751122" />
    <radialGradient
       r="62.769119"
       fy="185.29727"
       fx="99.189415"
       cy="185.29727"
       cx="99.189415"
       gradientTransform="matrix(0.3823536,7.5555777e-8,-1.8372241e-8,0.1115198,-5.9254271,36.335849)"
       gradientUnits="userSpaceOnUse"
       id="radialGradient3300-9"
       xlink:href="#linearGradient23419" />
    <radialGradient
       r="62.769119"
       fy="185.29727"
       fx="99.189415"
       cy="185.29727"
       cx="99.189415"
       gradientTransform="matrix(0.2549024,5.3967361e-8,-1.2248161e-8,0.07965545,6.7163816,44.240666)"
       gradientUnits="userSpaceOnUse"
       id="radialGradient4192"
       xlink:href="#linearGradient23419" />
  </defs>
  <metadata
     id="metadata3494">
    <rdf:RDF>
      <cc:Work
         rdf:about="">
        <dc:format>image/svg+xml</dc:format>
        <dc:type
           rdf:resource="http://purl.org/dc/dcmitype/StillImage" />
        <dc:title></dc:title>
      </cc:Work>
    </rdf:RDF>
  </metadata>
  <path
     style="display:inline;overflow:visible;visibility:visible;opacity:0.3;fill:url(#radialGradient3384);fill-opacity:1;fill-rule:evenodd;stroke:none;stroke-width:0.99999988;marker:none"
     id="path8836"
     d="m 62,60 c 0,2.209139 -6.268019,4 -14,4 -7.73199,0 -14,-1.790861 -14,-4 0,-2.209139 6.26801,-4 14,-4 7.731981,0 14,1.790861 14,4 l 0,0 z" />
  <g
     id="g4198"
     transform="translate(1.55e-6,-0.00183192)">
    <path
       style="opacity:0.2;fill:url(#radialGradient3300-9);fill-opacity:1;stroke:none"
       id="path3818-0"
       d="m 55.999998,57.0017 a 24,6.9985714 0 1 1 -47.9999991,0 24,6.9985714 0 1 1 47.9999991,0 z" />
    <path
       d="m 47.999998,59.0017 a 16,4.9988822 0 1 1 -31.999999,0 16,4.9988822 0 1 1 31.999999,0 z"
       id="path4190"
       style="opacity:0.4;fill:url(#radialGradient4192);fill-opacity:1;stroke:none" />
  </g>
  <path
     style="color:#000000;fill:url(#radialGradient3328);fill-opacity:1;fill-rule:nonzero;stroke:none;stroke-width:1;marker:none;visibility:visible;display:inline;overflow:visible;enable-background:accumulate"
     id="path2555-9"
     d="m 32.000008,2.4999964 c -16.277082,0 -29.5000035,13.2229156 -29.5000035,29.4999996 0,16.277084 13.2229215,29.500007 29.5000035,29.500003 16.277076,0 29.500012,-13.222919 29.499996,-29.500003 0,-16.277084 -13.22292,-29.4999996 -29.499996,-29.4999996 z" />
  <path
     style="opacity:0.5;color:#000000;fill:none;stroke:url(#linearGradient3293);stroke-width:1;stroke-linecap:round;stroke-linejoin:round;stroke-miterlimit:4;stroke-opacity:1;stroke-dasharray:none;stroke-dashoffset:0;marker:none;visibility:visible;display:inline;overflow:visible;enable-background:accumulate"
     id="path3019"
     d="m 60.50001,31.999999 c 0,15.740115 -12.7599,28.499999 -28.50002,28.499999 -15.740099,0 -28.499991,-12.759884 -28.499991,-28.499999 0,-15.740116 12.759892,-28.5000013 28.499991,-28.5000013 15.74012,0 28.50002,12.7598853 28.50002,28.5000013 z" />
  <path
     style="opacity:0.5;color:#000000;fill:#000000;fill-opacity:0;fill-rule:nonzero;stroke:#00537d;stroke-width:1;stroke-linecap:round;stroke-linejoin:round;stroke-miterlimit:4;stroke-opacity:1;stroke-dasharray:none;stroke-dashoffset:0;marker:none;visibility:visible;display:inline;overflow:visible;enable-background:accumulate"
     id="path2555-7-1"
     d="m 32,2.499999 c -16.277082,0 -29.5,13.222915 -29.5,29.499998 0,16.277083 13.222918,29.500005 29.5,29.5 16.27708,0 29.50001,-13.222917 29.5,-29.5 C 61.5,15.722914 48.27708,2.499999 32,2.499999 z" />
  <path
     inkscape:connector-curvature="0"
     d="m 51.5,33.250119 a 2.7857951,2.8077947 0 0 1 -2.785812,2.807787 2.7857951,2.8077947 0 0 1 -2.785767,-2.807787 2.7857951,2.8077947 0 0 1 1.667695,-2.566467 C 45.210698,27.310644 40.57066,25.632429 35.64229,25.076349 30.335898,24.477569 24.759312,25.191845 21.773197,26.19508 a 0.69684355,0.70234656 0 0 1 -0.440643,-1.332605 c 3.281931,-1.102605 8.934608,-1.803028 14.465213,-1.179052 5.392749,0.608506 10.718945,2.498375 13.322376,6.791917 a 2.7857951,2.8077947 0 0 1 2.379089,2.774103 z m -1.392883,0 a 1.3928975,1.4038973 0 0 0 -1.294937,-1.401166 1.3928975,1.4038973 0 0 0 -0.0044,0 0.6965184,0.70201884 0 0 1 -0.165957,0.0028 1.3928975,1.4038973 0 0 0 -1.319102,1.398281 1.3928975,1.4038973 0 0 0 1.392884,1.403895 1.3928975,1.4038973 0 0 0 1.392928,-1.403895 z M 43.885351,22.94846 c 0.0086,0.407735 -0.0044,0.824888 -0.04748,1.247596 A 0.69732627,0.70283309 0 1 1 42.450422,24.05349 c 0.295985,-2.935693 -0.831881,-5.204671 -2.86199,-6.035077 -2.02998,-0.830459 -5.22739,-0.282543 -9.227941,3.131392 A 0.6965184,0.70201884 0 1 1 29.46274,20.080431 c 4.22549,-3.605626 7.962091,-4.461584 10.650767,-3.361635 2.352655,0.962417 3.701356,3.37581 3.773385,6.229796 z m -0.04748,19.588577 c -0.05688,3.419614 -1.109897,5.758926 -2.829222,7.035911 -2.29256,1.702649 -5.518927,1.304715 -8.411841,-0.570332 a 0.69691173,0.70241528 0 0 1 0.753564,-1.181801 c 2.578794,1.67148 5.131709,1.8867 6.833839,0.622435 1.702258,-1.264241 2.805958,-4.218293 1.991443,-9.46803 a 0.6968429,0.70234591 0 1 1 1.376587,-0.219352 c 0.21429,1.381434 0.304967,2.642135 0.285292,3.782102 z M 43.424686,28.43208 a 0.6965184,0.70201884 0 0 1 -0.0028,0.08501 0.6965184,0.70201884 0 0 1 -0.0214,0.11791 c -1.21174,5.316282 -3.933006,10.796394 -7.405189,14.996434 -3.422779,4.139817 -7.59955,7.068341 -11.894161,7.151175 A 2.7857951,2.8077947 0 0 1 22.250373,51.5 a 2.7857951,2.8077947 0 0 1 -2.785768,-2.807792 2.7857951,2.8077947 0 0 1 2.785768,-2.807796 2.7857951,2.8077947 0 0 1 2.785813,2.807796 2.7857951,2.8077947 0 0 1 -0.068,0.611467 c 3.408024,-0.437592 6.953772,-2.930776 9.962429,-6.569822 3.318158,-4.013318 5.960639,-9.342092 7.116862,-14.415215 a 0.6965184,0.70201884 0 0 1 1.379284,0.112435 z m -8.640204,4.818174 a 2.7857951,2.8077947 0 0 1 -2.785726,2.807798 2.7857951,2.8077947 0 0 1 -2.785813,-2.807798 2.7857951,2.8077947 0 0 1 2.785813,-2.80779 2.7857951,2.8077947 0 0 1 2.785726,2.80779 z m -4.589398,12.629601 a 0.6965184,0.70201884 0 0 1 -1.188903,0.51002 c -4.40278,-4.294383 -7.657037,-9.639296 -9.350355,-14.669322 -1.656833,-4.921929 -1.855768,-9.575138 0.08683,-12.68716 a 2.7857951,2.8077947 0 0 1 -0.280159,-1.225597 2.7857951,2.8077947 0 0 1 2.785725,-2.8078 2.7857951,2.8077947 0 0 1 2.785811,2.8078 2.7857951,2.8077947 0 0 1 -2.785811,2.807788 2.7857951,2.8077947 0 0 1 -1.526164,-0.463379 c -1.352501,2.563517 -1.253613,6.643241 0.253645,11.118864 1.614361,4.797123 4.766519,9.980308 8.999536,14.110574 a 0.6965184,0.70201884 0 0 1 0.220278,0.498398 z m -6.553636,2.81341 a 1.3928975,1.4038973 0 0 0 -1.392884,-1.403896 1.3928975,1.4038973 0 0 0 -1.392885,1.403896 1.3928975,1.4038973 0 0 0 1.392885,1.403902 1.3928975,1.4038973 0 0 0 1.392884,-1.403902 z m 0,-30.885743 a 1.3928975,1.4038973 0 0 0 -1.392884,-1.403897 1.3928975,1.4038973 0 0 0 -1.392885,1.403897 1.3928975,1.4038973 0 0 0 1.392885,1.403892 1.3928975,1.4038973 0 0 0 1.392884,-1.403892 z m -2.078482,23.224676 a 0.6965184,0.70201884 0 0 1 -0.885688,0.616944 c 0,0 -2.004231,-0.546442 -4.020866,-1.839805 C 14.638065,38.516347 12.5,36.379616 12.5,33.250324 c 0,-4.122539 4.53777,-6.50945 4.53777,-6.50945 a 0.69654624,0.7020469 0 1 1 0.674693,1.228409 c 0,0 -3.819321,2.263088 -3.819321,5.281465 0,2.486021 1.692891,4.210849 3.50674,5.374257 1.813809,1.163383 3.640064,1.669936 3.640064,1.669936 a 0.6965184,0.70201884 0 0 1 0.524902,0.666305 0.6965184,0.70201884 0 0 1 0,0.07132 z"
     style="opacity:0.3;fill:#000000;fill-opacity:1;stroke-width:1.39838684"
     id="path4518-9-6-3" />
  <path
     inkscape:connector-curvature="0"
     d="m 51.5,32.250119 a 2.7857951,2.8077947 0 0 1 -2.785812,2.807787 2.7857951,2.8077947 0 0 1 -2.785767,-2.807787 2.7857951,2.8077947 0 0 1 1.667695,-2.566467 C 45.210698,26.310644 40.57066,24.632429 35.64229,24.076349 30.335898,23.477569 24.759312,24.191845 21.773197,25.19508 a 0.69684355,0.70234656 0 0 1 -0.440643,-1.332605 c 3.281931,-1.102605 8.934608,-1.803028 14.465213,-1.179052 5.392749,0.608506 10.718945,2.498375 13.322376,6.791917 a 2.7857951,2.8077947 0 0 1 2.379089,2.774103 z m -1.392883,0 a 1.3928975,1.4038973 0 0 0 -1.294937,-1.401166 1.3928975,1.4038973 0 0 0 -0.0044,0 0.6965184,0.70201884 0 0 1 -0.165957,0.0028 1.3928975,1.4038973 0 0 0 -1.319102,1.398281 1.3928975,1.4038973 0 0 0 1.392884,1.403895 1.3928975,1.4038973 0 0 0 1.392928,-1.403895 z M 43.885351,21.94846 c 0.0086,0.407735 -0.0044,0.824888 -0.04748,1.247596 A 0.69732627,0.70283309 0 1 1 42.450422,23.05349 c 0.295985,-2.935693 -0.831881,-5.204671 -2.86199,-6.035077 -2.02998,-0.830459 -5.22739,-0.282543 -9.227941,3.131392 A 0.6965184,0.70201884 0 1 1 29.46274,19.080431 c 4.22549,-3.605626 7.962091,-4.461584 10.650767,-3.361635 2.352655,0.962417 3.701356,3.37581 3.773385,6.229796 z m -0.04748,19.588577 c -0.05688,3.419614 -1.109897,5.758926 -2.829222,7.035911 -2.29256,1.702649 -5.518927,1.304715 -8.411841,-0.570332 a 0.69691173,0.70241528 0 0 1 0.753564,-1.181801 c 2.578794,1.67148 5.131709,1.8867 6.833839,0.622435 1.702258,-1.264241 2.805958,-4.218293 1.991443,-9.46803 a 0.6968429,0.70234591 0 1 1 1.376587,-0.219352 c 0.21429,1.381434 0.304967,2.642135 0.285292,3.782102 z M 43.424686,27.43208 a 0.6965184,0.70201884 0 0 1 -0.0028,0.08501 0.6965184,0.70201884 0 0 1 -0.0214,0.11791 c -1.21174,5.316282 -3.933006,10.796394 -7.405189,14.996434 -3.422779,4.139817 -7.59955,7.068341 -11.894161,7.151175 A 2.7857951,2.8077947 0 0 1 22.250373,50.5 a 2.7857951,2.8077947 0 0 1 -2.785768,-2.807792 2.7857951,2.8077947 0 0 1 2.785768,-2.807796 2.7857951,2.8077947 0 0 1 2.785813,2.807796 2.7857951,2.8077947 0 0 1 -0.068,0.611467 c 3.408024,-0.437592 6.953772,-2.930776 9.962429,-6.569822 3.318158,-4.013318 5.960639,-9.342092 7.116862,-14.415215 a 0.6965184,0.70201884 0 0 1 1.379284,0.112435 z m -8.640204,4.818174 a 2.7857951,2.8077947 0 0 1 -2.785726,2.807798 2.7857951,2.8077947 0 0 1 -2.785813,-2.807798 2.7857951,2.8077947 0 0 1 2.785813,-2.80779 2.7857951,2.8077947 0 0 1 2.785726,2.80779 z m -4.589398,12.629601 a 0.6965184,0.70201884 0 0 1 -1.188903,0.51002 c -4.40278,-4.294383 -7.657037,-9.639296 -9.350355,-14.669322 -1.656833,-4.921929 -1.855768,-9.575138 0.08683,-12.68716 a 2.7857951,2.8077947 0 0 1 -0.280159,-1.225597 2.7857951,2.8077947 0 0 1 2.785725,-2.8078 2.7857951,2.8077947 0 0 1 2.785811,2.8078 2.7857951,2.8077947 0 0 1 -2.785811,2.807788 2.7857951,2.8077947 0 0 1 -1.526164,-0.463379 c -1.352501,2.563517 -1.253613,6.643241 0.253645,11.118864 1.614361,4.797123 4.766519,9.980308 8.999536,14.110574 a 0.6965184,0.70201884 0 0 1 0.220278,0.498398 z m -6.553636,2.81341 a 1.3928975,1.4038973 0 0 0 -1.392884,-1.403896 1.3928975,1.4038973 0 0 0 -1.392885,1.403896 1.3928975,1.4038973 0 0 0 1.392885,1.403902 1.3928975,1.4038973 0 0 0 1.392884,-1.403902 z m 0,-30.885743 a 1.3928975,1.4038973 0 0 0 -1.392884,-1.403897 1.3928975,1.4038973 0 0 0 -1.392885,1.403897 1.3928975,1.4038973 0 0 0 1.392885,1.403892 1.3928975,1.4038973 0 0 0 1.392884,-1.403892 z m -2.078482,23.224676 a 0.6965184,0.70201884 0 0 1 -0.885688,0.616944 c 0,0 -2.004231,-0.546442 -4.020866,-1.839805 C 14.638065,37.516347 12.5,35.379616 12.5,32.250324 c 0,-4.122539 4.53777,-6.50945 4.53777,-6.50945 a 0.69654624,0.7020469 0 1 1 0.674693,1.228409 c 0,0 -3.819321,2.263088 -3.819321,5.281465 0,2.486021 1.692891,4.210849 3.50674,5.374257 1.813809,1.163383 3.640064,1.669936 3.640064,1.669936 a 0.6965184,0.70201884 0 0 1 0.524902,0.666305 0.6965184,0.70201884 0 0 1 0,0.07132 z"
     style="opacity:1;fill:#ffffff;stroke-width:1.39838684"
     id="path4518-9-6" />
</svg>
