<?xml version="1.0" encoding="UTF-8" standalone="no"?>
<svg
   xmlns:dc="http://purl.org/dc/elements/1.1/"
   xmlns:cc="http://creativecommons.org/ns#"
   xmlns:rdf="http://www.w3.org/1999/02/22-rdf-syntax-ns#"
   xmlns:svg="http://www.w3.org/2000/svg"
   xmlns="http://www.w3.org/2000/svg"
   xmlns:xlink="http://www.w3.org/1999/xlink"
   xmlns:sodipodi="http://sodipodi.sourceforge.net/DTD/sodipodi-0.dtd"
   xmlns:inkscape="http://www.inkscape.org/namespaces/inkscape"
   version="1.1"
   width="64"
   height="64"
   id="svg3844"
   sodipodi:docname="jabref.svg"
   inkscape:version="0.92.4 5da689c313, 2019-01-14">
  <sodipodi:namedview
     pagecolor="#ffffff"
     bordercolor="#666666"
     borderopacity="1"
     objecttolerance="10"
     gridtolerance="10"
     guidetolerance="10"
     inkscape:pageopacity="0"
     inkscape:pageshadow="2"
     inkscape:window-width="1366"
     inkscape:window-height="743"
     id="namedview38"
     showgrid="true"
     inkscape:zoom="10.875326"
     inkscape:cx="24.182312"
     inkscape:cy="36.031701"
     inkscape:window-x="0"
     inkscape:window-y="-1"
     inkscape:window-maximized="1"
     inkscape:current-layer="svg3844">
    <inkscape:grid
       type="xygrid"
       id="grid852" />
  </sodipodi:namedview>
  <defs
     id="defs3846">
    <linearGradient
       x1="-51.786404"
       y1="50.786446"
       x2="-51.786404"
       y2="2.9062471"
       id="linearGradient3033"
       xlink:href="#linearGradient3104-6"
       gradientUnits="userSpaceOnUse"
       gradientTransform="matrix(1.0843523,0,0,1.1997367,79.550862,-4.1628601)" />
    <linearGradient
       id="linearGradient3104-6">
      <stop
         id="stop3106-3"
         style="stop-color:#000000;stop-opacity:0.31782946"
         offset="0" />
      <stop
         id="stop3108-9"
         style="stop-color:#000000;stop-opacity:0.24031007"
         offset="1" />
    </linearGradient>
    <linearGradient
       x1="23.99999"
       y1="5.8641062"
       x2="23.99999"
       y2="42.175503"
       id="linearGradient3093"
       xlink:href="#linearGradient3977-4"
       gradientUnits="userSpaceOnUse"
       gradientTransform="matrix(1.2162162,0,0,1.5405376,2.8108184,-6.9729501)" />
    <linearGradient
       id="linearGradient3977-4">
      <stop
         id="stop3979-7"
         style="stop-color:#ffffff;stop-opacity:1"
         offset="0" />
      <stop
         id="stop3981-6"
         style="stop-color:#ffffff;stop-opacity:0.23529412"
         offset="0" />
      <stop
         id="stop3983-5"
         style="stop-color:#ffffff;stop-opacity:0.15686275"
         offset="1" />
      <stop
         id="stop3985-6"
         style="stop-color:#ffffff;stop-opacity:0.39215687"
         offset="1" />
    </linearGradient>
    <linearGradient
       x1="25.132275"
       y1="0.98520643"
       x2="25.132275"
       y2="47.013336"
       id="linearGradient3096"
       xlink:href="#linearGradient3600-9"
       gradientUnits="userSpaceOnUse"
       gradientTransform="matrix(1.3142827,0,0,1.2602393,0.4572141,-2.1793201)" />
    <linearGradient
       id="linearGradient3600-9">
      <stop
         id="stop3602-3"
         style="stop-color:#f4f4f4;stop-opacity:1"
         offset="0" />
      <stop
         id="stop3604-7"
         style="stop-color:#dbdbdb;stop-opacity:1"
         offset="1" />
    </linearGradient>
    <radialGradient
       cx="605.71429"
       cy="486.64789"
       r="117.14286"
       fx="605.71429"
       fy="486.64789"
       id="radialGradient3153"
       xlink:href="#linearGradient5060"
       gradientUnits="userSpaceOnUse"
       gradientTransform="matrix(0.03132633,0,0,0.02058823,35.220859,49.45142)" />
    <linearGradient
       id="linearGradient5060">
      <stop
         id="stop5062"
         style="stop-color:#000000;stop-opacity:1"
         offset="0" />
      <stop
         id="stop5064"
         style="stop-color:#000000;stop-opacity:0"
         offset="1" />
    </linearGradient>
    <radialGradient
       cx="605.71429"
       cy="486.64789"
       r="117.14286"
       fx="605.71429"
       fy="486.64789"
       id="radialGradient3156"
       xlink:href="#linearGradient5060"
       gradientUnits="userSpaceOnUse"
       gradientTransform="matrix(-0.03132632,0,0,0.02058823,28.779136,49.45142)" />
    <linearGradient
       id="linearGradient5048">
      <stop
         id="stop5050"
         style="stop-color:#000000;stop-opacity:0"
         offset="0" />
      <stop
         id="stop5056"
         style="stop-color:#000000;stop-opacity:1"
         offset="0.5" />
      <stop
         id="stop5052"
         style="stop-color:#000000;stop-opacity:0"
         offset="1" />
    </linearGradient>
    <linearGradient
       x1="302.85715"
       y1="366.64789"
       x2="302.85715"
       y2="609.50507"
       id="linearGradient3842"
       xlink:href="#linearGradient5048"
       gradientUnits="userSpaceOnUse"
       gradientTransform="matrix(0.09153846,0,0,0.02058823,-1.084616,49.45142)" />
    <linearGradient
       gradientTransform="matrix(0.09153846,0,0,0.02058823,-1.084616,50.451417)"
       gradientUnits="userSpaceOnUse"
       xlink:href="#linearGradient5048"
       id="linearGradient3128"
       y2="609.50507"
       x2="302.85715"
       y1="366.64789"
       x1="302.85715" />
    <radialGradient
       gradientTransform="matrix(-0.03132632,0,0,0.02058823,28.779136,50.451417)"
       gradientUnits="userSpaceOnUse"
       xlink:href="#linearGradient5060"
       id="radialGradient3060"
       fy="486.64789"
       fx="605.71429"
       r="117.14286"
       cy="486.64789"
       cx="605.71429" />
    <radialGradient
       gradientTransform="matrix(0.03132633,0,0,0.02058823,35.220859,50.451417)"
       gradientUnits="userSpaceOnUse"
       xlink:href="#linearGradient5060"
       id="radialGradient3057"
       fy="486.64789"
       fx="605.71429"
       r="117.14286"
       cy="486.64789"
       cx="605.71429" />
  </defs>
  <metadata
     id="metadata3849">
    <rdf:RDF>
      <cc:Work
         rdf:about="">
        <dc:format>image/svg+xml</dc:format>
        <dc:type
           rdf:resource="http://purl.org/dc/dcmitype/StillImage" />
        <dc:title></dc:title>
      </cc:Work>
    </rdf:RDF>
  </metadata>
  <rect
     style="display:inline;overflow:visible;visibility:visible;opacity:0.15;fill:url(#linearGradient3842);fill-opacity:1;fill-rule:nonzero;stroke:none;stroke-width:1;marker:none"
     id="rect2879"
     y="57.000004"
     x="9.8999996"
     height="5"
     width="44.199997" />
  <path
     style="display:inline;overflow:visible;visibility:visible;opacity:0.15;fill:url(#radialGradient3156);fill-opacity:1;fill-rule:nonzero;stroke:none;stroke-width:1;marker:none"
     id="path2881"
     d="m 9.9,57.00022 c 0,0 0,4.9997 0,4.9997 -1.6132281,0.01 -3.9,-1.1202 -3.9,-2.5002 0,-1.38 1.8002408,-2.4995 3.9,-2.4995 z" />
  <path
     style="display:inline;overflow:visible;visibility:visible;opacity:0.15;fill:url(#radialGradient3153);fill-opacity:1;fill-rule:nonzero;stroke:none;stroke-width:1;marker:none"
     id="path2883"
     d="m 54.099999,57.00022 c 0,0 0,4.9997 0,4.9997 C 55.713227,62.00992 58,60.87972 58,59.49972 c 0,-1.38 -1.800241,-2.4995 -3.900001,-2.4995 z" />
  <path
     style="display:inline;fill:url(#linearGradient3096);fill-opacity:1;stroke:none"
     id="path4160-6"
     d="m 9,0.9998799 c 10.540935,0 45.999945,0.004 45.999945,0.004 L 55,59.00002 c 0,0 -30.666666,0 -46,0 0,-19.3334 0,-38.6665 0,-57.9998201 z" />
  <path
     style="fill:none;stroke:url(#linearGradient3093);stroke-width:1;stroke-linecap:round;stroke-linejoin:miter;stroke-miterlimit:4;stroke-dasharray:none;stroke-dashoffset:0;stroke-opacity:1"
     id="rect6741-1-8"
     d="m 54.499999,58.50002 -44.9999992,0 0,-57.0000401 44.9999992,0 z" />
  <path
     style="display:inline;fill:none;stroke:url(#linearGradient3033);stroke-width:0.9999218;stroke-linecap:butt;stroke-linejoin:round;stroke-miterlimit:4;stroke-dasharray:none;stroke-dashoffset:0;stroke-opacity:1"
     id="path4160-6-1"
     d="m 8.4999684,0.4998999 c 10.7700936,0 47.0000286,0.004 47.0000286,0.004 l 4.9e-5,58.9962201 c 0,0 -31.333384,0 -47.0000776,0 0,-19.6668 0,-39.3334 0,-58.9999701 z" />
  <g
     id="g886"
     transform="translate(0,-1)">
    <rect
       style="display:inline;overflow:visible;visibility:visible;opacity:0.15;fill:#667885;fill-opacity:1;fill-rule:nonzero;stroke:none;stroke-width:1;marker:none"
       id="rect2879-5"
       y="58"
       x="9.8999996"
       height="5"
       width="44.199997" />
    <path
       inkscape:connector-curvature="0"
       style="display:inline;overflow:visible;visibility:visible;opacity:0.15;fill:#667885;fill-opacity:1;fill-rule:nonzero;stroke:none;stroke-width:1;marker:none"
       id="path2881-6"
       d="m 9.9000001,58.000217 c 0,0 0,4.9997 0,4.9997 C 8.2867719,63.009917 6,61.879717 6,60.499717 c 0,-1.38 1.8002408,-2.4995 3.9000001,-2.4995 z" />
    <path
       inkscape:connector-curvature="0"
       style="display:inline;overflow:visible;visibility:visible;opacity:0.15;fill:#667885;fill-opacity:1;fill-rule:nonzero;stroke:none;stroke-width:1;marker:none"
       id="path2883-2"
       d="m 54.099999,58.000217 c 0,0 0,4.9997 0,4.9997 1.613228,0.01 3.900001,-1.1202 3.900001,-2.5002 0,-1.38 -1.800241,-2.4995 -3.900001,-2.4995 z" />
    <g
       style="fill:#555761"
       transform="translate(0.00131,0.99992762)"
       id="g4141">
      <path
         inkscape:connector-curvature="0"
         style="fill:#555761;stroke:#4d4d4d;stroke-width:0.99999994px;stroke-linecap:butt;stroke-linejoin:miter;stroke-opacity:1"
         d="m 30.99869,11.5 h 3.083341 z m 3.597013,0 h 2.560547 z m 3.029297,0 h 1.154297 z m 1.580078,0 h 2.648438 z m 3.117188,0 h 2.988281 z m 3.457031,0 h 3.219393 z m -14.780607,3 h 2.655607 z m 3.083341,0 h 2.21875 z m 2.691407,0 h 2.173828 z m 2.646484,0 h 1.193359 z m 1.621094,0 h 2.390625 z m 2.945312,0 h 5.012362 z m -12.987638,3 h 2.204435 z m 2.632169,0 h 3.373047 z m 3.798829,0 h 6.916015 z m 7.34375,0 H 48.99869 Z M 31,20.5 h 1.970703 z m 2.398438,0 h 2.519531 z m 2.947265,0 h 6.318359 z m 6.787109,0 h 5.84961 z m -28.134122,5.000073 5.850919,-1e-6 z m 6.319669,-1e-6 h 6.31836 z m 6.746094,0 H 30.5 Z m 2.935547,0 h 3.996094 z m 4.550781,0 H 37.5 Z m 2.501953,0 H 42 Z m 4.447266,0 h 6.49869 z m -27.50131,3 h 3.202482 z m 3.673185,0 h 2.945313 z m 3.457031,0 h 2.646485 z m 3.074219,0 h 1.152344 z m 1.623047,0 h 2.560547 z m 3.074219,0 h 6.701171 z m 7.169921,0 h 5.123047 z m 5.548829,0 h 1.625 z m 2.050781,0 h 4.328768 z m -29.671232,3 h 5.380216 z m 5.807951,0 h 5.763671 z m 6.1875,0 h 2.222656 z m 2.648437,0 h 5.421875 z m 5.847656,0 h 6.832032 z m 7.300782,0 h 6.216463 z m -27.792326,3 h 5.850919 z m 6.319669,0 h 6.31836 z m 6.746094,0 h 2.517578 z m 2.943359,0 h 5.935547 z m 6.31836,0 h 4.05664 z m 4.527344,0 h 1.621093 z m 2.048828,0 h 0.894531 z m 1.363281,0 h 3.733065 z m -30.266935,3 h 4.995451 z m 5.550138,0 h 2.390625 z m 2.81836,0 H 24.5625 Z m 1.664062,0 h 2.177734 z m 2.646484,0 h 2.222657 z m 2.646485,0 h 3.544922 z m 4.013672,0 h 4.609375 z m 5.037109,0 h 3.074219 z m 3.558427,0 h 6.065263 z m -27.934737,4 h 4 z m 4.5,0 h 7.070312 z m 7.494141,0 h 3.375 z m 4.005859,0 h 2 z m -16,3 h 4.994141 z m 5.548828,0 h 2.390625 z m 2.81836,0 h 1.195312 z m 1.664062,0 h 2.177734 z m 2.646484,0 h 2.222657 z m 2.646485,0 H 32.99869 Z M 14.99869,48.5 h 5.292969 z m 5.763672,0 h 1.666016 z m 2.089844,0 h 3.800781 z m 4.226562,0 h 5.919922 z m -12.080078,3 h 5.292969 z m 5.763672,0 h 2.390625 z m 2.818359,0 h 3.753907 z m 4.181641,0 h 5.236328 z"
         id="path3475"
         sodipodi:nodetypes="ccccccccccccccccccccccccccccccccccccccccccccccccccccccccccccccccccccccccccccccccccccccccccccccccccccccccccccccccccccccccccccccccccccccccccccccccccccccccccccccccccccccccccccccccccccccccccccccccccccccccccccccccccccccccccccccccccccccc" />
      <path
         inkscape:connector-curvature="0"
         id="path3253"
         d="m 35.277231,50.744734 c 1.861958,-0.865754 3.809894,-1.77539 3.809894,-3.723321 0,-0.606026 -0.259726,-0.606026 -1.385198,-0.692602 -1.255334,-0.08657 -1.775382,-0.909034 -1.775382,-2.034506 0,-1.558347 0.995609,-2.294236 2.207656,-2.294236 1.818073,0 3.160585,1.601635 3.160585,3.809297 0,1.688807 -0.822464,3.419703 -2.294236,4.675644 -0.99561,0.822458 -1.818073,1.125471 -3.203868,1.515059 z m 7.705761,0 c 1.86136,-0.865754 3.809296,-1.77539 3.809296,-3.723321 0,-0.606026 -0.259725,-0.606026 -1.385197,-0.692602 -1.25534,-0.08657 -1.774786,-0.909034 -1.774786,-2.034506 0,-1.558347 0.995609,-2.294236 2.207657,-2.294236 1.818073,0 3.159983,1.601635 3.159983,3.809297 0,1.688807 -0.822459,3.419703 -2.294232,4.675644 -0.995614,0.822458 -1.818073,1.125471 -3.203271,1.515059 z"
         style="fill:#555761;fill-opacity:1" />
      <path
         inkscape:connector-curvature="0"
         id="path3255"
         d="m 21.016603,12.256717 c -1.86207,0.865798 -3.810124,1.774893 -3.810124,3.722941 0,0.606063 0.259741,0.606063 1.385281,0.692644 1.255411,0.08658 1.775495,0.909089 1.775495,2.034634 0,1.558437 -0.995669,2.29437 -2.207794,2.29437 -1.818179,0 -3.160771,-1.602334 -3.160771,-3.810124 0,-1.688313 0.822508,-3.419916 2.294369,-4.675327 0.995675,-0.821906 1.818786,-1.124937 3.204067,-1.514549 z m 7.706232,0 c -1.861473,0.865798 -3.809527,1.774893 -3.809527,3.722941 0,0.606063 0.259741,0.606063 1.385281,0.692644 1.255416,0.08658 1.774893,0.909089 1.774893,2.034634 0,1.558437 -0.995669,2.29437 -2.20779,2.29437 -1.818183,0 -3.160174,-1.602334 -3.160174,-3.810124 0,-1.688313 0.822509,-3.419916 2.294371,-4.675327 0.995674,-0.821906 1.818183,-1.124937 3.203464,-1.514549 z"
         style="fill:#555761;fill-opacity:1" />
    </g>
  </g>
</svg>
