<?xml version="1.0" encoding="UTF-8" standalone="no"?>
<!-- Generator: Adobe Illustrator 19.0.0, SVG Export Plug-In . SVG Version: 6.00 Build 0)  -->

<svg
   xmlns:dc="http://purl.org/dc/elements/1.1/"
   xmlns:cc="http://creativecommons.org/ns#"
   xmlns:rdf="http://www.w3.org/1999/02/22-rdf-syntax-ns#"
   xmlns:svg="http://www.w3.org/2000/svg"
   xmlns="http://www.w3.org/2000/svg"
   xmlns:xlink="http://www.w3.org/1999/xlink"
   xmlns:sodipodi="http://sodipodi.sourceforge.net/DTD/sodipodi-0.dtd"
   xmlns:inkscape="http://www.inkscape.org/namespaces/inkscape"
   version="1.1"
   id="Capa_1"
   x="0px"
   y="0px"
   viewBox="0 0 64 64"
   xml:space="preserve"
   sodipodi:docname="m64py.svg"
   width="64"
   height="64"
   inkscape:version="0.92.4 5da689c313, 2019-01-14"><metadata
   id="metadata81"><rdf:RDF><cc:Work
       rdf:about=""><dc:format>image/svg+xml</dc:format><dc:type
         rdf:resource="http://purl.org/dc/dcmitype/StillImage" /><dc:title></dc:title></cc:Work></rdf:RDF></metadata><defs
   id="defs79"><linearGradient
   inkscape:collect="always"
   id="linearGradient870"><stop
     style="stop-color:#ed5353;stop-opacity:1;"
     offset="0"
     id="stop866" /><stop
     style="stop-color:#ed5353;stop-opacity:0;"
     offset="1"
     id="stop868" /></linearGradient><linearGradient
   inkscape:collect="always"
   xlink:href="#SVGID_1_"
   id="linearGradient960"
   gradientUnits="userSpaceOnUse"
   gradientTransform="matrix(21.3333,0,0,-21.3333,996.3334,13791.667)"
   x1="-38.169998"
   y1="631.93408"
   x2="-29.916"
   y2="623.68018" /><linearGradient
   inkscape:collect="always"
   xlink:href="#SVGID_2_"
   id="linearGradient962"
   gradientUnits="userSpaceOnUse"
   gradientTransform="matrix(21.3333,0,0,-21.3333,996.33338,13791.668)"
   x1="-45.6828"
   y1="639.33148"
   x2="-24.058901"
   y2="629.24847" /><linearGradient
   inkscape:collect="always"
   xlink:href="#linearGradient870"
   id="linearGradient872"
   x1="28.61829"
   y1="206.72382"
   x2="484.64753"
   y2="206.72382"
   gradientUnits="userSpaceOnUse" />
	
	
</defs><sodipodi:namedview
   pagecolor="#ffffff"
   bordercolor="#666666"
   borderopacity="1"
   objecttolerance="10"
   gridtolerance="10"
   guidetolerance="10"
   inkscape:pageopacity="0"
   inkscape:pageshadow="2"
   inkscape:window-width="1366"
   inkscape:window-height="743"
   id="namedview77"
   showgrid="true"
   inkscape:zoom="7.5698604"
   inkscape:cx="28.926091"
   inkscape:cy="27.805235"
   inkscape:window-x="0"
   inkscape:window-y="-1"
   inkscape:window-maximized="1"
   inkscape:current-layer="g907"><inkscape:grid
     type="xygrid"
     id="grid862" /></sodipodi:namedview>







<linearGradient
   id="SVGID_1_"
   gradientUnits="userSpaceOnUse"
   x1="-38.169998"
   y1="631.93408"
   x2="-29.916"
   y2="623.68018"
   gradientTransform="matrix(21.3333,0,0,-21.3333,996.3334,13791.667)">
	<stop
   offset="0"
   style="stop-color:#000000;stop-opacity:0.1"
   id="stop20" />
	<stop
   offset="1"
   style="stop-color:#000000;stop-opacity:0"
   id="stop22" />
</linearGradient>


<linearGradient
   id="SVGID_2_"
   gradientUnits="userSpaceOnUse"
   x1="-45.6828"
   y1="639.33148"
   x2="-24.058901"
   y2="629.24847"
   gradientTransform="matrix(21.3333,0,0,-21.3333,996.33342,13791.668)">
	<stop
   offset="0"
   style="stop-color:#FFFFFF;stop-opacity:0.2"
   id="stop33" />
	<stop
   offset="1"
   style="stop-color:#FFFFFF;stop-opacity:0"
   id="stop35" />
</linearGradient>


















<g
   id="g922"
   transform="scale(0.125)"><g
     id="g958"
     transform="matrix(0.96875,0,0,0.96875,8,8)"><g
       id="g907"
       transform="matrix(1.0847458,0,0,1.0847458,-21.694915,-21.694931)"><path
         id="path2-3-3-3"
         d="M 473.56247,256.00001 C 473.56247,136.03811 375.97126,38.437541 256,38.437541 c -119.97127,0 -217.562501,97.600569 -217.562501,217.562469 0,59.25775 25.758215,103.2419 76.181721,131.08564 10.01637,70.23445 40.57541,86.47685 141.38078,86.47685 97.98979,0 129.65872,-15.19707 140.55302,-80.55592 50.96739,-26.35735 77.00945,-72.30724 77.00945,-137.00657 z"
         style="fill:#1a1a1a;fill-opacity:1;stroke:none;stroke-width:7.36329889;stroke-miterlimit:4;stroke-dasharray:none;stroke-opacity:1"
         inkscape:connector-curvature="0" /><path
         id="path2-3"
         d="M 476.84346,256.00001 C 476.84346,134.229 377.78049,35.156555 256,35.156555 c -121.78051,0 -220.843475,99.072445 -220.843475,220.843455 0,60.15139 26.146659,104.79885 77.330585,133.06249 10.16741,71.29363 41.18732,87.78097 143.51289,87.78097 99.46754,0 131.61406,-15.42625 142.67264,-81.77073 51.73602,-26.75485 78.17082,-73.39768 78.17082,-139.07273 z"
         style="fill:none;stroke:#000000;stroke-width:7.61290296;stroke-miterlimit:4;stroke-dasharray:none;stroke-opacity:0.5"
         inkscape:connector-curvature="0" /><g
         id="g944"
         transform="matrix(0.92711159,0,0,0.92743535,18.659427,18.500575)"><path
           inkscape:connector-curvature="0"
           id="SVGCleanerId_0"
           style="fill:#f2f2f2"
           d="M 488.715,285.333 C 463.018,261.271 448,227.522 448,192 c 0,-18.168 3.918,-36.04 11.402,-52.533 19.776,34.38 31.264,74.103 31.264,116.533 10e-4,10.32 -0.771,19.995 -1.951,29.333 z" /><circle
           id="circle5"
           r="106.667"
           cy="149.33299"
           cx="256"
           style="fill:#fafafa" /><path
           id="path7"
           d="M 52.598,139.467 C 60.082,155.96 64,173.832 64,192 64,227.251 49.156,260.836 23.742,284.868 22.314,275.621 21.333,266.104 21.333,256 c 0,-42.43 11.489,-82.152 31.265,-116.533 z"
           style="fill:#fafafa"
           inkscape:connector-curvature="0" /><path
           inkscape:connector-curvature="0"
           style="fill:#fee4d0"
           d="m 256,490.667 c -124.896,0 -140.979,-20.281 -147.854,-106.24 30.708,-33.25 86.833,-53.76 147.854,-53.76 61.021,0 117.146,20.51 147.854,53.76 -6.875,85.958 -22.958,106.24 -147.854,106.24 z"
           id="path11" /><path
           inkscape:connector-curvature="0"
           id="SVGCleanerId_1"
           style="fill:#d32f2f"
           d="m 424.6,390.984 c 0.292,-3.152 0.632,-6.142 0.879,-9.453 0.208,-2.802 -0.708,-5.573 -2.521,-7.719 C 389.02,334.041 325.041,309.333 256,309.333 c -69.041,0 -133.021,24.708 -166.958,64.479 -1.813,2.146 -2.729,4.917 -2.521,7.719 0.057,0.76 0.143,1.418 0.202,2.169 C 58.082,364.572 38.994,339.233 29.198,308.186 64.376,279.922 85.333,237.188 85.333,192 85.333,166.392 78.39,141.44 65.803,119.089 106.053,63.334 170.054,26.041 242.925,21.997 178.461,28.566 128,83.163 128,149.333 c 0,70.583 57.417,128 128,128 70.583,0 128,-57.417 128,-128 0,-66.171 -50.461,-120.767 -114.926,-127.337 72.871,4.044 136.872,41.337 177.122,97.092 -12.587,22.352 -19.53,47.303 -19.53,72.911 0,45.802 21.447,88.967 57.414,117.219 -9.359,35.352 -29.006,62.456 -59.48,81.766 z" /><g
           style="fill:#fafafa"
           id="g15">
	<path
   inkscape:connector-curvature="0"
   id="SVGCleanerId_0_1_"
   style="fill:#fafafa"
   d="M 488.715,285.333 C 463.018,261.271 448,227.522 448,192 c 0,-18.168 3.918,-36.04 11.402,-52.533 19.776,34.38 31.264,74.103 31.264,116.533 10e-4,10.32 -0.771,19.995 -1.951,29.333 z" />
</g><g
           style="fill:#ed5353"
           id="g18">
	<path
   inkscape:connector-curvature="0"
   id="SVGCleanerId_1_1_"
   style="fill:#ed5353;fill-opacity:1;stroke:#000000;stroke-opacity:0.2"
   d="m 424.6,390.984 c 0.292,-3.152 0.632,-6.142 0.879,-9.453 0.208,-2.802 -0.708,-5.573 -2.521,-7.719 C 389.02,334.041 325.041,309.333 256,309.333 c -69.041,0 -133.021,24.708 -166.958,64.479 -1.813,2.146 -2.729,4.917 -2.521,7.719 0.057,0.76 0.143,1.418 0.202,2.169 C 58.082,364.572 38.994,339.233 29.198,308.186 64.376,279.922 85.333,237.188 85.333,192 85.333,166.392 78.39,141.44 65.803,119.089 106.053,63.334 170.054,26.041 242.925,21.997 178.461,28.566 128,83.163 128,149.333 c 0,70.583 57.417,128 128,128 70.583,0 128,-57.417 128,-128 0,-66.171 -50.461,-120.767 -114.926,-127.337 72.871,4.044 136.872,41.337 177.122,97.092 -12.587,22.352 -19.53,47.303 -19.53,72.911 0,45.802 21.447,88.967 57.414,117.219 -9.359,35.352 -29.006,62.456 -59.48,81.766 z" />
</g><path
           inkscape:connector-curvature="0"
           style="fill:url(#linearGradient960)"
           d="m 256,490.667 c 124.896,0 140.979,-20.281 147.854,-106.24 -30.708,-33.25 -86.833,-53.76 -147.854,-53.76 -61.021,0 -117.146,20.51 -147.854,53.76 l 105.138,105.138 c 12.616,0.758 26.752,1.102 42.716,1.102 z"
           id="path25" /><g
           id="g31">
	<path
   inkscape:connector-curvature="0"
   style="fill:#303c42"
   d="m 197.333,362.667 c -8.313,0 -16,5.167 -16,42.667 0,37.5 7.688,42.667 16,42.667 8.312,0 16,-5.167 16,-42.667 0,-37.5 -7.687,-42.667 -16,-42.667 z"
   id="path27" />
	<path
   inkscape:connector-curvature="0"
   style="fill:#303c42"
   d="m 314.667,448 c 8.313,0 16,-5.167 16,-42.667 0,-37.5 -7.688,-42.667 -16,-42.667 -8.312,0 -16,5.167 -16,42.667 0,37.5 7.687,42.667 16,42.667 z"
   id="path29" />
</g><path
           inkscape:connector-curvature="0"
           style="opacity:0.1;enable-background:new"
           d="m 23.742,284.868 c 3.85,-3.642 7.37,-7.566 10.72,-11.618 -4.297,-1.536 -8.4,-3.263 -12.57,-4.923 0.422,5.63 1.018,11.156 1.85,16.541 z"
           id="path40" /><path
           inkscape:connector-curvature="0"
           style="opacity:0.1;enable-background:new"
           d="m 449.07,207.586 c 3.703,29.678 17.746,57.241 39.645,77.747 1.18,-9.339 1.952,-19.013 1.952,-29.333 0,-28.292 -5.501,-55.197 -14.768,-80.301 -7.464,11.19 -16.491,21.837 -26.829,31.887 z"
           id="path42" /><g
           id="g46">
</g><g
           id="g48">
</g><g
           id="g50">
</g><g
           id="g52">
</g><g
           id="g54">
</g><g
           id="g56">
</g><g
           id="g58">
</g><g
           id="g60">
</g><g
           id="g62">
</g><g
           id="g64">
</g><g
           id="g66">
</g><g
           id="g68">
</g><g
           id="g70">
</g><g
           id="g72">
</g><g
           id="g74">
</g><path
           inkscape:connector-curvature="0"
           style="opacity:0.1;fill:#7a0000;enable-background:new"
           d="m 55.904,280.103 c -7.65,10.348 -16.496,19.88 -26.706,28.083 9.796,31.047 28.884,56.387 57.525,75.514 -0.059,-0.751 -0.145,-1.409 -0.202,-2.169 -0.208,-2.802 0.708,-5.573 2.521,-7.719 33.938,-39.771 97.917,-64.479 166.958,-64.479 69.041,0 133.021,24.708 166.958,64.479 1.813,2.146 2.729,4.917 2.521,7.719 -0.247,3.311 -0.587,6.301 -0.879,9.453 30.474,-19.31 50.121,-46.414 59.48,-81.766 -27.411,-21.531 -46.306,-51.745 -53.784,-85.165 -57.753,45.495 -145.493,74.613 -243.63,74.613 -46.687,10e-4 -90.877,-6.761 -130.762,-18.563 z"
           id="path44" /></g><path
         id="path2-3-3"
         d="M 469.94208,255.2982 C 469.94208,137.33255 373.97484,41.356126 256,41.356126 c -117.97487,0 -213.942117,95.976424 -213.942117,213.942074 0,58.27165 25.329585,101.52389 74.913997,128.90428 9.84969,69.06571 39.90022,85.03782 139.02812,85.03782 96.35917,0 127.50111,-14.94419 138.21411,-79.2154 50.11926,-25.91876 75.72797,-71.10401 75.72797,-134.7267 z"
         style="fill:none;stroke:#fafafa;stroke-width:7.24076891;stroke-miterlimit:4;stroke-dasharray:none;stroke-opacity:0.2"
         inkscape:connector-curvature="0" /></g></g></g>
</svg>