<?xml version="1.0" encoding="UTF-8" standalone="no"?>
<svg
   xmlns:dc="http://purl.org/dc/elements/1.1/"
   xmlns:cc="http://creativecommons.org/ns#"
   xmlns:rdf="http://www.w3.org/1999/02/22-rdf-syntax-ns#"
   xmlns:svg="http://www.w3.org/2000/svg"
   xmlns="http://www.w3.org/2000/svg"
   xmlns:xlink="http://www.w3.org/1999/xlink"
   xmlns:sodipodi="http://sodipodi.sourceforge.net/DTD/sodipodi-0.dtd"
   xmlns:inkscape="http://www.inkscape.org/namespaces/inkscape"
   inkscape:version="0.92.5 (2060ec1f9f, 2020-04-08)"
   sodipodi:docname="openshot-qt.svg"
   version="1.1"
   width="64"
   height="64"
   id="svg3320">
  <sodipodi:namedview
     pagecolor="#ffffff"
     bordercolor="#666666"
     borderopacity="1"
     objecttolerance="10"
     gridtolerance="10"
     guidetolerance="10"
     inkscape:pageopacity="0"
     inkscape:pageshadow="2"
     inkscape:window-width="1366"
     inkscape:window-height="738"
     id="namedview37"
     showgrid="false"
     inkscape:zoom="5.5872996"
     inkscape:cx="28.150731"
     inkscape:cy="22.808081"
     inkscape:window-x="0"
     inkscape:window-y="30"
     inkscape:window-maximized="1"
     inkscape:current-layer="g2646"
     showguides="true"
     inkscape:guide-bbox="true">
    <inkscape:grid
       id="grid883"
       type="xygrid" />
  </sodipodi:namedview>
  <defs
     id="defs3322">
    <linearGradient
       id="linearGradient940"
       inkscape:collect="always">
      <stop
         id="stop936"
         offset="0"
         style="stop-color:#28bca3;stop-opacity:1" />
      <stop
         id="stop938"
         offset="1"
         style="stop-color:#43d6b5;stop-opacity:1" />
    </linearGradient>
    <linearGradient
       inkscape:collect="always"
       id="linearGradient908">
      <stop
         style="stop-color:#28bca3;stop-opacity:1"
         offset="0"
         id="stop904" />
      <stop
         style="stop-color:#43d6b5;stop-opacity:1"
         offset="1"
         id="stop906" />
    </linearGradient>
    <linearGradient
       id="linearGradient1051">
      <stop
         offset="0"
         style="stop-color:#ffffff;stop-opacity:1"
         id="stop1043" />
      <stop
         offset="0.04277762"
         style="stop-color:#ffffff;stop-opacity:0.23529412"
         id="stop1045" />
      <stop
         offset="1"
         style="stop-color:#ffffff;stop-opacity:0.15686275"
         id="stop1047" />
      <stop
         offset="1"
         style="stop-color:#ffffff;stop-opacity:0.39215687"
         id="stop1049" />
    </linearGradient>
    <linearGradient
       id="linearGradient1041">
      <stop
         offset="0"
         style="stop-color:#ffffff;stop-opacity:1"
         id="stop1033" />
      <stop
         offset="0.04552736"
         style="stop-color:#ffffff;stop-opacity:0.23529412"
         id="stop1035" />
      <stop
         offset="1"
         style="stop-color:#ffffff;stop-opacity:0.15686275"
         id="stop1037" />
      <stop
         offset="1"
         style="stop-color:#ffffff;stop-opacity:0.39215687"
         id="stop1039" />
    </linearGradient>
    <linearGradient
       id="linearGradient1006">
      <stop
         offset="0"
         style="stop-color:#ffffff;stop-opacity:1"
         id="stop998" />
      <stop
         offset="0.5"
         style="stop-color:#ffffff;stop-opacity:0.23529412"
         id="stop1000" />
      <stop
         offset="1"
         style="stop-color:#ffffff;stop-opacity:0.15686275"
         id="stop1002" />
      <stop
         offset="1"
         style="stop-color:#ffffff;stop-opacity:0.39215687"
         id="stop1004" />
    </linearGradient>
    <linearGradient
       y2="510.09763"
       x2="345.4321"
       y1="501.16919"
       x1="371.03683"
       gradientTransform="matrix(0.2502023,-0.7175237,0.7175237,0.2502023,-440.80327,141.5896)"
       gradientUnits="userSpaceOnUse"
       id="linearGradient16045"
       xlink:href="#linearGradient16960" />
    <linearGradient
       id="linearGradient16960">
      <stop
         id="stop16962"
         offset="0"
         style="stop-color:#a56de2;stop-opacity:1" />
      <stop
         id="stop16964"
         offset="1"
         style="stop-color:#64baff;stop-opacity:1" />
    </linearGradient>
    <linearGradient
       gradientUnits="userSpaceOnUse"
       y2="4.7840638"
       x2="13"
       y1="2"
       x1="13"
       id="linearGradient996"
       xlink:href="#linearGradient1006" />
    <linearGradient
       gradientUnits="userSpaceOnUse"
       y2="16.352354"
       x2="4.8441844"
       y1="6.5266356"
       x1="9"
       id="linearGradient1029"
       xlink:href="#linearGradient1041"
       gradientTransform="matrix(1.0502332,0,0,1.019376,-0.51769611,-0.0434747)" />
    <linearGradient
       gradientUnits="userSpaceOnUse"
       y2="15.74026"
       x2="20.446054"
       y1="7"
       x1="17"
       id="linearGradient1031"
       xlink:href="#linearGradient1051"
       gradientTransform="matrix(1.0323958,0,0,1.0323958,-0.28145715,-0.3097882)" />
    <linearGradient
       gradientTransform="matrix(1.3802614,0,0,1.3035093,-1.753031,-0.531988)"
       gradientUnits="userSpaceOnUse"
       xlink:href="#linearGradient4102"
       id="linearGradient3918"
       y2="13.663627"
       x2="16.887266"
       y1="24.239939"
       x1="28.534189" />
    <linearGradient
       id="linearGradient4102">
      <stop
         offset="0"
         style="stop-color:#fda852;stop-opacity:1"
         id="stop4104" />
      <stop
         offset="1"
         style="stop-color:#ffffff;stop-opacity:0"
         id="stop4106" />
    </linearGradient>
    <linearGradient
       id="linearGradient2762">
      <stop
         style="stop-color:#dfe0e2"
         offset="0"
         id="stop8" />
      <stop
         style="stop-color:#fafbff"
         offset="1"
         id="stop10" />
    </linearGradient>
    <linearGradient
       id="linearGradient5259-3"
       x2="0"
       y1="209.78"
       y2="89.290001"
       gradientTransform="matrix(1.10019,-0.67853795,0.72061106,1.2994449,-235.84329,716.94257)"
       gradientUnits="userSpaceOnUse"
       xlink:href="#linearGradient2762" />
    <linearGradient
       id="linearGradient3217-1"
       x2="0"
       y1="209.78"
       y2="89.290001"
       gradientTransform="matrix(1.0111427,-0.62361839,0.72061106,1.2994449,-128.46839,650.71956)"
       gradientUnits="userSpaceOnUse"
       xlink:href="#linearGradient2762" />
    <linearGradient
       gradientTransform="matrix(0.75656447,0.65391911,0.65391911,-0.75656447,-16.65084,49.038117)"
       gradientUnits="userSpaceOnUse"
       y2="3"
       x2="24"
       y1="6"
       x1="23.534672"
       id="linearGradient4416"
       xlink:href="#linearGradient4410" />
    <linearGradient
       id="linearGradient4410">
      <stop
         id="stop4412"
         offset="0"
         style="stop-color:#000000;stop-opacity:1;" />
      <stop
         id="stop4414"
         offset="1"
         style="stop-color:#000000;stop-opacity:0;" />
    </linearGradient>
    <linearGradient
       y2="510.09763"
       x2="345.4321"
       y1="501.16919"
       x1="371.03683"
       gradientTransform="matrix(0.2502023,-0.7175237,0.7175237,0.2502023,-420.80327,159.5896)"
       gradientUnits="userSpaceOnUse"
       id="linearGradient16045-5"
       xlink:href="#linearGradient16960-6" />
    <linearGradient
       id="linearGradient16960-6">
      <stop
         id="stop16962-3"
         offset="0"
         style="stop-color:#cc3b02;stop-opacity:1" />
      <stop
         id="stop16964-9"
         offset="1"
         style="stop-color:#a62100;stop-opacity:1" />
    </linearGradient>
    <linearGradient
       inkscape:collect="always"
       xlink:href="#linearGradient940"
       id="linearGradient910"
       x1="-13.528141"
       y1="-2.1342914"
       x2="10.176379"
       y2="-2.1342914"
       gradientUnits="userSpaceOnUse" />
    <linearGradient
       inkscape:collect="always"
       xlink:href="#linearGradient908"
       id="linearGradient918"
       x1="-11.384085"
       y1="-6.3743939"
       x2="8.0323229"
       y2="-6.3743939"
       gradientUnits="userSpaceOnUse" />
    <linearGradient
       inkscape:collect="always"
       xlink:href="#linearGradient908"
       id="linearGradient926"
       x1="-13.088559"
       y1="2.4410148"
       x2="9.7367964"
       y2="2.4410148"
       gradientUnits="userSpaceOnUse" />
    <linearGradient
       inkscape:collect="always"
       xlink:href="#linearGradient908"
       id="linearGradient934"
       x1="-7.1237669"
       y1="-9.3550062"
       x2="3.7720051"
       y2="-9.3550062"
       gradientUnits="userSpaceOnUse" />
    <linearGradient
       xlink:href="#linearGradient4806"
       id="linearGradient3293-6"
       gradientUnits="userSpaceOnUse"
       gradientTransform="matrix(0.93074984,0,0,0.93074984,-59.177422,-24.010862)"
       x1="71.204407"
       y1="15.369057"
       x2="71.204407"
       y2="40.495617" />
    <linearGradient
       id="linearGradient4806">
      <stop
         id="stop4808"
         style="stop-color:#ffffff;stop-opacity:1"
         offset="0" />
      <stop
         id="stop4810"
         style="stop-color:#ffffff;stop-opacity:0.23529412"
         offset="0.42447853" />
      <stop
         id="stop4812"
         style="stop-color:#ffffff;stop-opacity:0.15686275"
         offset="0.82089913" />
      <stop
         id="stop4814"
         style="stop-color:#ffffff;stop-opacity:0.39215687"
         offset="1" />
    </linearGradient>
    <linearGradient
       inkscape:collect="always"
       xlink:href="#linearGradient4806"
       id="linearGradient906"
       x1="-1.2758809"
       y1="-12.235015"
       x2="-1.2758809"
       y2="11.904028"
       gradientUnits="userSpaceOnUse" />
  </defs>
  <metadata
     id="metadata3325">
    <rdf:RDF>
      <cc:Work
         rdf:about="">
        <dc:format>image/svg+xml</dc:format>
        <dc:type
           rdf:resource="http://purl.org/dc/dcmitype/StillImage" />
        <dc:title></dc:title>
      </cc:Work>
    </rdf:RDF>
  </metadata>
  <g
     id="g853"
     transform="matrix(2.4947214,0,0,2.4914379,2,6.5721082)">
    <g
       id="g965"
       transform="matrix(1.0021159,0,0,1.0034366,0,-0.07921437)">
      <g
         id="g2650"
         inkscape:label="WireframeSphere"
         transform="translate(13.675881,10.847496)"
         style="stroke:#000000;stroke-width:0.2;stroke-opacity:1">
        <g
           id="g2646"
           inkscape:label="Lines of Latitude"
           style="stroke:#000000;stroke-width:0.2;stroke-opacity:1;fill:#0e9a83">
          <ellipse
             id="path2608"
             style="fill:#0e9a83;stroke:none;stroke-width:0.2;stroke-opacity:1"
             cx="-1.675881"
             cy="9.1122351"
             rx="1.8772136"
             ry="1.0777255" />
          <ellipse
             id="path2610"
             style="fill:#0e9a83;stroke:none;stroke-width:0.2;stroke-opacity:1"
             cx="-1.675881"
             cy="8.7521505"
             rx="3.708204"
             ry="2.1279385" />
          <ellipse
             id="path2612"
             style="fill:#0e9a83;stroke:none;stroke-width:0.2;stroke-opacity:1"
             cx="-1.675881"
             cy="8.16187"
             rx="5.447886"
             ry="3.1257792" />
          <ellipse
             id="path2614"
             style="fill:#0e9a83;stroke:none;stroke-width:0.2;stroke-opacity:1"
             cx="-1.675881"
             cy="7.355927"
             rx="7.0534229"
             ry="4.0466771" />
          <ellipse
             id="path2616"
             style="fill:#0e9a83;stroke:none;stroke-width:0.2;stroke-opacity:1"
             cx="-1.675881"
             cy="6.3541675"
             rx="8.485281"
             ry="4.8679576" />
          <ellipse
             id="path2618"
             style="fill:#28bca3;stroke:none;stroke-width:0.2;stroke-opacity:1"
             cx="-1.675881"
             cy="5.1812577"
             rx="9.7082043"
             ry="5.569397" />
          <ellipse
             id="path2620"
             style="fill:#0e9a83;stroke:none;stroke-width:0.2;stroke-opacity:1"
             cx="-1.675881"
             cy="3.8660789"
             rx="10.692079"
             ry="6.1337242" />
          <ellipse
             id="path2622"
             style="fill:url(#linearGradient926);stroke:none;stroke-width:0.2;stroke-opacity:1;fill-opacity:1.0"
             cx="-1.675881"
             cy="2.4410148"
             rx="11.412678"
             ry="6.5470433" />
          <ellipse
             id="path2626"
             style="fill:#0e9a83;stroke:none;stroke-width:0.2;stroke-opacity:1"
             cx="-1.675881"
             cy="-0.59656823"
             rx="12"
             ry="6.8839173" />
          <ellipse
             id="path2628"
             style="fill:url(#linearGradient910);stroke:none;stroke-width:0.2;stroke-opacity:1;fill-opacity:1"
             cx="-1.675881"
             cy="-2.1342914"
             rx="11.85226"
             ry="6.7991772" />
          <ellipse
             id="path2632"
             style="fill:#0e9a83;stroke:none;stroke-width:0.2;stroke-opacity:1"
             cx="-1.675881"
             cy="-5.0592151"
             rx="10.692079"
             ry="6.1337242" />
          <ellipse
             id="path2634"
             style="fill:url(#linearGradient918);stroke:none;stroke-width:0.2;stroke-opacity:1;fill-opacity:1.0"
             cx="-1.675881"
             cy="-6.3743939"
             rx="9.7082043"
             ry="5.569397" />
          <ellipse
             id="path2638"
             style="fill:#0e9a83;stroke:none;stroke-width:0.2;stroke-opacity:1"
             cx="-1.675881"
             cy="-8.5490637"
             rx="7.0534229"
             ry="4.0466771" />
          <ellipse
             id="path2640"
             style="fill:url(#linearGradient934);stroke:none;stroke-width:0.2;stroke-opacity:1;fill-opacity:1.0"
             cx="-1.675881"
             cy="-9.3550062"
             rx="5.447886"
             ry="3.1257792" />
          <ellipse
             id="path2644"
             style="fill:#0e9a83;stroke:none;stroke-width:0.2;stroke-opacity:1"
             cx="-1.675881"
             cy="-10.305371"
             rx="1.8772136"
             ry="1.0777255" />
          <path
             style="fill:none;stroke:#000000;stroke-width:0.4;stroke-opacity:1;opacity:0.5"
             d="m -1.6758788,-12.595834 a 7.0534224,4.0466772 0 0 0 -5.8390624,1.778125 9.708204,5.5693968 0 0 0 -3.3085938,2.5976567 10.692078,6.133724 0 0 0 -1.544532,3.1609374 10.692078,6.133724 0 0 0 7.82e-4,0.010156 11.85226,6.7991776 0 0 0 -1.160938,2.9148436 11.85226,6.7991776 0 0 0 0.02578,0.41875 12,6.8839172 0 0 0 -0.173438,1.11875003 12,6.8839172 0 0 0 0.678125,2.25703157 11.412678,6.5470436 0 0 0 -0.09062,0.7804684 11.412678,6.5470436 0 0 0 0.903906,2.5367188 10.692078,6.133724 0 0 0 1.363282,2.0539064 9.708204,5.5693968 0 0 0 1.8976558,1.8445312 8.4852808,4.8679576 0 0 0 2.7914064,1.6132809 7.0534224,4.0466772 0 0 0 4.45625,0.913282 7.0534224,4.0466772 0 0 0 4.4359376,-0.903125 8.4852808,4.8679576 0 0 0 2.797656,-1.6117191 9.708204,5.5693968 0 0 0 1.9140628,-1.8601564 10.692078,6.133724 0 0 0 1.3523448,-2.0242188 11.412678,6.5470436 0 0 0 0.9125,-2.5625 11.412678,6.5470436 0 0 0 -0.093752,-0.7742188 12,6.8839172 0 0 0 0.6812516,-2.26328117 12,6.8839172 0 0 0 -0.178908,-1.18203123 11.85226,6.7991776 0 0 0 0.03125,-0.3554688 11.85226,6.7991776 0 0 0 -1.1609396,-2.9195312 10.692078,6.133724 0 0 0 7.84e-4,-0.00547 10.692078,6.133724 0 0 0 -1.5460966,-3.164842 9.708204,5.5693968 0 0 0 -3.3148436,-2.5953125 7.0534224,4.0466772 0 0 0 -5.83125,-1.776563 z"
             id="path2608-3"
             inkscape:connector-curvature="0" />
          <path
             style="fill:none;stroke:url(#linearGradient906);stroke-width:0.39333326;stroke-opacity:1;opacity:0.8"
             d="m -1.6758778,-12.199219 a 6.8202663,3.9129113 0 0 0 -5.6468032,1.720103 9.3872922,5.3852963 0 0 0 -3.19847,2.5102784 10.338644,5.9309692 0 0 0 -1.493475,3.0572055 10.338644,5.9309692 0 0 0 7.55e-4,0.00907 11.460474,6.5744257 0 0 0 -1.122562,2.8192467 11.460474,6.5744257 0 0 0 0.02493,0.4041525 11.603331,6.6563642 0 0 0 -0.167704,1.08252426 11.603331,6.6563642 0 0 0 0.654953,2.18166844 11.035423,6.3306263 0 0 0 -0.08763,0.755425 11.035423,6.3306263 0 0 0 0.873271,2.4513551 10.338644,5.9309692 0 0 0 1.318973,1.9875238 9.3872922,5.3852963 0 0 0 1.8334167,1.7820474 8.2047936,4.7070437 0 0 0 2.7044224,1.5629749 6.8202663,3.9129113 0 0 0 4.3059234,0.881581 A 6.8202663,3.9129113 0 0 0 2.6187073,10.130395 8.2047936,4.7070437 0 0 0 5.3178417,8.5734645 9.3872922,5.3852963 0 0 0 7.168634,6.775552 10.338644,5.9309692 0 0 0 8.4770305,4.8197565 11.035423,6.3306263 0 0 0 9.3593665,2.3404511 11.035423,6.3306263 0 0 0 9.2679558,1.59258 11.603331,6.6563642 0 0 0 9.9274485,-0.59664234 11.603331,6.6563642 0 0 0 9.754456,-1.7380894 a 11.460474,6.5744257 0 0 0 0.030218,-0.3452297 11.460474,6.5744257 0 0 0 -1.1225623,-2.8222682 10.338644,5.9309692 0 0 0 7.552e-4,-0.00605 10.338644,5.9309692 0 0 0 -1.4949859,-3.0602274 9.3872922,5.3852963 0 0 0 -3.2037584,-2.5080118 6.8202663,3.9129113 0 0 0 -5.6400049,-1.719348 z"
             id="path2608-6"
             inkscape:connector-curvature="0" />
        </g>
      </g>
    </g>
  </g>
</svg>
