<?xml version="1.0" encoding="UTF-8" standalone="no"?>
<svg
   version="1.1"
   width="64"
   height="64"
   id="svg3489"
   sodipodi:docname="org.xfce.settings.editor.svg"
   inkscape:version="1.1 (c4e8f9ed74, 2021-05-24)"
   xmlns:inkscape="http://www.inkscape.org/namespaces/inkscape"
   xmlns:sodipodi="http://sodipodi.sourceforge.net/DTD/sodipodi-0.dtd"
   xmlns:xlink="http://www.w3.org/1999/xlink"
   xmlns="http://www.w3.org/2000/svg"
   xmlns:svg="http://www.w3.org/2000/svg"
   xmlns:rdf="http://www.w3.org/1999/02/22-rdf-syntax-ns#"
   xmlns:cc="http://creativecommons.org/ns#"
   xmlns:dc="http://purl.org/dc/elements/1.1/">
  <sodipodi:namedview
     pagecolor="#ffffff"
     bordercolor="#666666"
     borderopacity="1"
     objecttolerance="10"
     gridtolerance="10"
     guidetolerance="10"
     inkscape:pageopacity="0"
     inkscape:pageshadow="2"
     inkscape:window-width="1366"
     inkscape:window-height="717"
     id="namedview48"
     showgrid="false"
     inkscape:zoom="7.375"
     inkscape:cx="32"
     inkscape:cy="32.067797"
     inkscape:window-x="0"
     inkscape:window-y="25"
     inkscape:window-maximized="1"
     inkscape:current-layer="svg3489"
     inkscape:pagecheckerboard="0" />
  <defs
     id="defs3491">
    <linearGradient
       id="linearGradient3820-7-2">
      <stop
         id="stop3822-2-6"
         style="stop-color:#000000;stop-opacity:1"
         offset="0" />
      <stop
         id="stop3824-1-2"
         style="stop-color:#000000;stop-opacity:0"
         offset="1" />
    </linearGradient>
    <radialGradient
       xlink:href="#linearGradient3820-7-2"
       id="radialGradient3300"
       gradientUnits="userSpaceOnUse"
       gradientTransform="matrix(0.3823536,7.5555777e-8,-1.8372241e-8,0.1115198,-5.9254271,36.335849)"
       cx="99.189415"
       cy="185.29727"
       fx="99.189415"
       fy="185.29727"
       r="62.769119" />
    <radialGradient
       xlink:href="#linearGradient3820-7-2"
       id="radialGradient4192"
       gradientUnits="userSpaceOnUse"
       gradientTransform="matrix(0.2549024,5.3967361e-8,-1.2248161e-8,0.07965545,6.7163816,44.240666)"
       cx="99.189415"
       cy="185.29727"
       fx="99.189415"
       fy="185.29727"
       r="62.769119" />
    <linearGradient
       id="linearGradient4011-0">
      <stop
         offset="0"
         style="stop-color:#ffffff;stop-opacity:1"
         id="stop4013-9" />
      <stop
         offset="0.507761"
         style="stop-color:#ffffff;stop-opacity:0.23529412"
         id="stop4015-9" />
      <stop
         offset="0.83456558"
         style="stop-color:#ffffff;stop-opacity:0.15686275"
         id="stop4017-0" />
      <stop
         offset="1"
         style="stop-color:#ffffff;stop-opacity:0.39215687"
         id="stop4019-81" />
    </linearGradient>
    <linearGradient
       id="linearGradient3881">
      <stop
         id="stop3883"
         offset="0"
         style="stop-color:#2d2d2d;stop-opacity:1" />
      <stop
         id="stop3885"
         offset="1"
         style="stop-color:#3f3f3f;stop-opacity:1" />
    </linearGradient>
    <linearGradient
       id="linearGradient992">
      <stop
         id="stop988"
         offset="0"
         style="stop-color:#fafafa;stop-opacity:1" />
      <stop
         id="stop990"
         offset="1"
         style="stop-color:#abacae;stop-opacity:1" />
    </linearGradient>
    <linearGradient
       id="linearGradient3907-5">
      <stop
         style="stop-color:#fafafa;stop-opacity:1"
         offset="0"
         id="stop3909-3" />
      <stop
         style="stop-color:#d4d4d4;stop-opacity:1"
         offset="1"
         id="stop3911-5" />
    </linearGradient>
    <linearGradient
       xlink:href="#linearGradient4011-0"
       id="linearGradient3111-7"
       gradientUnits="userSpaceOnUse"
       gradientTransform="matrix(1.5405401,0,0,1.5405402,-78.50837,-7.0638437)"
       x1="71.204407"
       y1="7.6175823"
       x2="71.204407"
       y2="43.282776" />
    <linearGradient
       xlink:href="#linearGradient3907-5"
       id="linearGradient3932-9"
       gradientUnits="userSpaceOnUse"
       gradientTransform="matrix(0,2.0714282,-2.0714281,0,79.642844,-15.642848)"
       x1="6.6574788"
       y1="23"
       x2="39.441502"
       y2="23" />
    <linearGradient
       xlink:href="#linearGradient3881"
       id="linearGradient1731"
       gradientUnits="userSpaceOnUse"
       gradientTransform="matrix(0.99999963,0,0,1.0909091,60.000009,-2.1818185)"
       x1="881.00031"
       y1="-244.23959"
       x2="881.00031"
       y2="-233.92709" />
    <linearGradient
       xlink:href="#linearGradient3881"
       id="linearGradient1733"
       gradientUnits="userSpaceOnUse"
       gradientTransform="matrix(0.99999963,0,0,1.0909091,60.000009,-2.1818185)"
       x1="24"
       y1="14"
       x2="24"
       y2="33" />
    <clipPath
       clipPathUnits="userSpaceOnUse"
       id="clipPath3865-7-7-8-6">
      <path
         d="m 32,24 a 8,8 0 1 1 -16,0 8,8 0 1 1 16,0 z"
         id="path3867-9-4-4-4"
         style="opacity:0.2;fill:#000000;fill-opacity:1;stroke:none" />
    </clipPath>
    <linearGradient
       y2="44.340794"
       x2="71.204407"
       y1="6.2375584"
       x1="71.204407"
       gradientTransform="matrix(1.2702702,0,0,-1.2702703,-59.120948,64.21055)"
       gradientUnits="userSpaceOnUse"
       id="linearGradient3993-0-6-0-8-5"
       xlink:href="#linearGradient4011-0" />
    <linearGradient
       xlink:href="#linearGradient992"
       id="linearGradient2842"
       gradientUnits="userSpaceOnUse"
       gradientTransform="matrix(0,-3.6507931,-3.6507929,0,115.96824,115.96825)"
       x1="6.6574788"
       y1="23"
       x2="37.554001"
       y2="23" />
    <linearGradient
       x1="38.856056"
       y1="26.320496"
       x2="38.856056"
       y2="32.521935"
       id="linearGradient4225-5"
       xlink:href="#linearGradient3820-7-2"
       gradientUnits="userSpaceOnUse"
       gradientTransform="matrix(0.99215968,0,0,-0.9932415,0.25417,63.794031)" />
  </defs>
  <metadata
     id="metadata3494">
    <rdf:RDF>
      <cc:Work
         rdf:about="">
        <dc:format>image/svg+xml</dc:format>
        <dc:type
           rdf:resource="http://purl.org/dc/dcmitype/StillImage" />
      </cc:Work>
    </rdf:RDF>
  </metadata>
  <g
     id="g4198">
    <path
       d="m 55.999998,57.0017 a 24,6.9985714 0 1 1 -47.9999991,0 24,6.9985714 0 1 1 47.9999991,0 z"
       id="path3818-0"
       style="opacity:0.2;fill:url(#radialGradient3300);fill-opacity:1;stroke:none" />
    <path
       style="opacity:0.4;fill:url(#radialGradient4192);fill-opacity:1;stroke:none"
       id="path4190"
       d="m 47.999998,59.0017 a 16,4.9988822 0 1 1 -31.999999,0 16,4.9988822 0 1 1 31.999999,0 z" />
  </g>
  <path
     d="M 32.001015,3.000008 C 15.98426,3.000008 3,15.984707 3,31.999639 3,48.016039 15.984398,61 32.001015,61 48.017067,61 60.999999,48.016039 60.999999,31.999639 60.999999,15.984707 48.017067,3.000008 32.001015,3.000008 Z"
     id="path3902-8"
     style="fill:url(#linearGradient3932-9);fill-opacity:1;fill-rule:nonzero;stroke:none;stroke-width:0.99999994" />
  <path
     d="M 60.499998,31.998996 C 60.499998,47.739617 47.739176,60.5 32.000351,60.5 16.260101,60.5 3.4999999,47.739472 3.4999999,31.998996 c 0,-15.739893 12.7601011,-28.498985 28.5003511,-28.498985 15.738825,0 28.499647,12.759092 28.499647,28.498985 z"
     id="path8655-9"
     style="color:#000000;display:inline;overflow:visible;visibility:visible;opacity:1;fill:none;stroke:url(#linearGradient3111-7);stroke-width:0.99999988;stroke-linecap:round;stroke-linejoin:round;stroke-miterlimit:4;stroke-dasharray:none;stroke-dashoffset:0;stroke-opacity:1;marker:none;enable-background:accumulate" />
  <path
     d="M 31.999998,2.5 C 15.72292,2.5 2.5,15.722916 2.5,31.999999 2.5,48.277082 15.72292,61.500004 31.999998,61.5 c 16.27708,0 29.50001,-13.222918 29.5,-29.500001 C 61.499998,15.722916 48.277078,2.5 31.999998,2.5 Z"
     id="path2555-6-6"
     style="color:#000000;display:inline;overflow:visible;visibility:visible;opacity:0.5;fill:none;stroke:#555761;stroke-width:0.99999994;stroke-linecap:round;stroke-linejoin:round;stroke-miterlimit:4;stroke-dasharray:none;stroke-dashoffset:0;stroke-opacity:1;marker:none;enable-background:accumulate" />
  <path
     style="color:#000000;clip-rule:nonzero;display:inline;overflow:visible;visibility:visible;opacity:0.2;isolation:auto;mix-blend-mode:normal;color-interpolation:sRGB;color-interpolation-filters:linearRGB;solid-color:#000000;solid-opacity:1;fill:#ffffff;fill-opacity:1;fill-rule:nonzero;stroke:none;stroke-width:1;stroke-linecap:butt;stroke-linejoin:miter;stroke-miterlimit:4;stroke-dasharray:none;stroke-dashoffset:0;stroke-opacity:1;marker:none;color-rendering:auto;image-rendering:auto;shape-rendering:auto;text-rendering:auto;enable-background:accumulate"
     d="m 29.571429,16 c -0.43706,0 -0.801276,1.688081 -1.015068,4.100586 a 13.357143,13.357143 0 0 0 -3.227818,1.356585 c -1.864593,-1.56272 -3.321111,-2.506037 -3.630998,-2.19615 l -3.436524,3.436524 c -0.309887,0.309887 0.63343,1.766405 2.19615,3.630998 a 13.357143,13.357143 0 0 0 -1.344727,3.227818 C 16.693181,29.769948 15,30.133637 15,30.571429 v 4.857142 c 0,0.43706 1.688081,0.801276 4.100586,1.015068 a 13.357143,13.357143 0 0 0 1.351841,3.234932 c -1.559167,1.861254 -2.50092,3.31437 -2.191406,3.623884 l 3.436524,3.436524 c 0.309221,0.309221 1.760509,-0.630281 3.619141,-2.186663 a 13.357143,13.357143 0 0 0 3.239675,1.335239 C 28.769948,48.306819 29.133637,50 29.571429,50 h 4.857142 c 0.43706,0 0.801276,-1.688081 1.015068,-4.100586 a 13.357143,13.357143 0 0 0 3.227818,-1.356585 c 1.864593,1.56272 3.321111,2.506037 3.630998,2.19615 l 3.436524,-3.436524 c 0.309887,-0.309887 -0.63343,-1.766405 -2.19615,-3.630998 a 13.357143,13.357143 0 0 0 1.344726,-3.227818 C 47.306819,36.230052 49,35.866363 49,35.428571 v -4.857142 c 0,-0.43706 -1.688081,-0.801276 -4.100586,-1.015068 a 13.357143,13.357143 0 0 0 -1.351841,-3.234932 c 1.559167,-1.861254 2.50092,-3.31437 2.191406,-3.623884 l -3.436524,-3.436524 c -0.309221,-0.309221 -1.760509,0.630281 -3.619141,2.186663 a 13.357143,13.357143 0 0 0 -3.239675,-1.33524 C 35.230052,17.693181 34.866363,16 34.428571,16 Z M 32,26.928571 A 6.0714286,6.0714286 0 0 1 38.071429,33 6.0714286,6.0714286 0 0 1 32,39.071429 6.0714286,6.0714286 0 0 1 25.928571,33 6.0714286,6.0714286 0 0 1 32,26.928571 Z"
     id="path4690-3"
     inkscape:connector-curvature="0" />
  <path
     style="color:#000000;clip-rule:nonzero;display:inline;overflow:visible;visibility:visible;isolation:auto;mix-blend-mode:normal;color-interpolation:sRGB;color-interpolation-filters:linearRGB;solid-color:#000000;solid-opacity:1;fill:#b3b3b3;fill-opacity:1;fill-rule:nonzero;stroke:none;stroke-width:1;stroke-linecap:butt;stroke-linejoin:miter;stroke-miterlimit:4;stroke-dasharray:none;stroke-dashoffset:0;stroke-opacity:1;marker:none;color-rendering:auto;image-rendering:auto;shape-rendering:auto;text-rendering:auto;enable-background:accumulate"
     d="m 29.571429,15 c -0.43706,0 -0.801276,1.688081 -1.015068,4.100586 a 13.357143,13.357143 0 0 0 -3.227818,1.356585 c -1.864593,-1.56272 -3.321111,-2.506037 -3.630998,-2.19615 l -3.436524,3.436524 c -0.309887,0.309887 0.63343,1.766405 2.19615,3.630998 a 13.357143,13.357143 0 0 0 -1.344727,3.227818 C 16.693181,28.769948 15,29.133637 15,29.571429 v 4.857142 c 0,0.437059 1.688081,0.801276 4.100586,1.015068 a 13.357143,13.357143 0 0 0 1.351841,3.234932 c -1.559167,1.861254 -2.50092,3.31437 -2.191406,3.623884 l 3.436524,3.436524 c 0.309221,0.309221 1.760509,-0.630281 3.619141,-2.186663 a 13.357143,13.357143 0 0 0 3.239675,1.335239 C 28.769948,47.306819 29.133637,49 29.571429,49 h 4.857142 c 0.43706,0 0.801276,-1.688081 1.015068,-4.100586 a 13.357143,13.357143 0 0 0 3.227818,-1.356585 c 1.864593,1.56272 3.321111,2.506037 3.630998,2.19615 l 3.436524,-3.436524 c 0.309887,-0.309887 -0.63343,-1.766405 -2.19615,-3.630998 a 13.357143,13.357143 0 0 0 1.344726,-3.227818 C 47.306819,35.230052 49,34.866363 49,34.428571 v -4.857142 c 0,-0.43706 -1.688081,-0.801276 -4.100586,-1.015068 a 13.357143,13.357143 0 0 0 -1.351841,-3.234932 c 1.559167,-1.861254 2.50092,-3.31437 2.191406,-3.623884 l -3.436524,-3.436524 c -0.309221,-0.309221 -1.760509,0.630281 -3.619141,2.186663 a 13.357143,13.357143 0 0 0 -3.239675,-1.33524 C 35.230052,16.693181 34.866363,15 34.428571,15 Z M 32,25.928571 A 6.0714286,6.0714286 0 0 1 38.071429,32 6.0714286,6.0714286 0 0 1 32,38.071429 6.0714286,6.0714286 0 0 1 25.928571,32 6.0714286,6.0714286 0 0 1 32,25.928571 Z"
     id="path4690"
     inkscape:connector-curvature="0" />
  <path
     inkscape:connector-curvature="0"
     d="m 32.003281,38.497411 c 3.706561,0.111248 6.936148,-3.469228 6.446554,-7.14988 -0.270362,-3.697279 -4.145576,-6.547556 -7.751644,-5.692418 -3.643457,0.642048 -6.088631,4.77734 -4.883365,8.283138 0.793656,2.659241 3.412182,4.599116 6.188455,4.55916 z"
     id="path4183"
     style="display:inline;overflow:visible;visibility:visible;opacity:0.05;fill:none;stroke:url(#linearGradient4225-5);stroke-width:1;stroke-miterlimit:4;stroke-dasharray:none;stroke-opacity:1;marker:none;enable-background:accumulate" />
  <path
     id="path4276"
     d="m 29.770397,15.500004 c -0.0614,0.127753 -0.146945,0.364859 -0.224391,0.689887 -0.161338,0.677112 -0.304617,1.690222 -0.410591,2.886067 -0.02182,0.251145 -0.198234,0.461896 -0.441623,0.527561 -1.085161,0.296153 -2.129992,0.735409 -3.100912,1.303385 -0.218921,0.128798 -0.495211,0.105857 -0.689887,-0.05729 -0.924447,-0.774789 -1.746334,-1.39427 -2.341796,-1.761725 -0.287263,-0.177268 -0.517451,-0.287171 -0.651692,-0.334202 l -3.155817,3.155817 c 0.04703,0.134241 0.156934,0.364429 0.334202,0.651692 0.367455,0.595462 0.986936,1.417349 1.761719,2.341796 0.162812,0.193681 0.186681,0.468661 0.05968,0.6875 -0.564028,0.971508 -1.001276,2.018696 -1.293836,3.103299 -0.06567,0.243389 -0.276417,0.419809 -0.527561,0.441623 -1.199326,0.105881 -2.213904,0.24926 -2.89323,0.410591 -0.327148,0.0777 -0.566699,0.162811 -0.694661,0.224391 v 4.459202 c 0.127753,0.0614 0.364859,0.146945 0.689887,0.224391 0.677112,0.161339 1.690222,0.304617 2.886067,0.410591 0.251145,0.02182 0.461897,0.198235 0.527562,0.441623 0.294149,1.087288 0.731668,2.134784 1.298611,3.108073 0.128797,0.218921 0.105856,0.495212 -0.05729,0.689887 -0.77305,0.922828 -1.390275,1.742867 -1.756944,2.337022 -0.176378,0.285801 -0.287065,0.515308 -0.334202,0.649306 l 3.155816,3.155816 c 0.133721,-0.04697 0.361591,-0.155896 0.646919,-0.331815 0.593273,-0.365783 1.413162,-0.982935 2.334635,-1.754557 0.19368,-0.162812 0.468661,-0.186681 0.6875,-0.05968 0.97554,0.561779 2.024773,0.995545 3.112847,1.284288 0.244327,0.06481 0.421861,0.275756 0.44401,0.527561 0.105881,1.199326 0.24926,2.213903 0.410591,2.893229 0.0777,0.327149 0.162811,0.566699 0.224391,0.694661 h 4.459202 c 0.0614,-0.127753 0.146945,-0.364859 0.224391,-0.689887 0.161338,-0.677112 0.304617,-1.690222 0.410591,-2.886067 0.02182,-0.251145 0.198234,-0.461896 0.441623,-0.527561 1.085161,-0.296153 2.129992,-0.735409 3.100912,-1.303385 0.218921,-0.128798 0.495211,-0.105857 0.689887,0.05729 0.924447,0.774783 1.746334,1.394264 2.341796,1.761719 0.287263,0.177268 0.517451,0.28717 0.651692,0.334202 l 3.155817,-3.155817 C 45.199282,41.956246 45.089378,41.726059 44.91211,41.438795 44.544655,40.843334 43.925174,40.021447 43.150391,39.097 c -0.162812,-0.193681 -0.186681,-0.468661 -0.05968,-0.6875 0.564028,-0.971508 1.001276,-2.018696 1.293836,-3.103299 0.06567,-0.243389 0.276417,-0.419809 0.527561,-0.441623 1.199326,-0.105881 2.213904,-0.24926 2.89323,-0.410591 0.327148,-0.0777 0.566699,-0.162811 0.694661,-0.224392 v -4.459201 c -0.127753,-0.0614 -0.364859,-0.146945 -0.689887,-0.224392 -0.677113,-0.161338 -1.690222,-0.304616 -2.886068,-0.41059 -0.251144,-0.02182 -0.461896,-0.198235 -0.527561,-0.441623 -0.294149,-1.087288 -0.731668,-2.134784 -1.298611,-3.108073 -0.128797,-0.218921 -0.105856,-0.495212 0.05729,-0.689887 0.77305,-0.922828 1.390275,-1.742867 1.756944,-2.337022 0.176378,-0.285801 0.287065,-0.515309 0.334202,-0.649306 l -3.155816,-3.155816 c -0.133721,0.04697 -0.361591,0.155895 -0.646919,0.331815 -0.593273,0.365783 -1.413162,0.982935 -2.334635,1.754557 -0.19368,0.162812 -0.468661,0.186681 -0.6875,0.05968 -0.97554,-0.561774 -2.024773,-0.995539 -3.112847,-1.284282 -0.244327,-0.06481 -0.421861,-0.275756 -0.44401,-0.527561 -0.105883,-1.199326 -0.24926,-2.213904 -0.410591,-2.893229 -0.07769,-0.327149 -0.162811,-0.566699 -0.224391,-0.694661 z"
     style="color:#000000;clip-rule:nonzero;display:inline;overflow:visible;visibility:visible;opacity:0.05;isolation:auto;mix-blend-mode:normal;color-interpolation:sRGB;color-interpolation-filters:linearRGB;solid-color:#000000;solid-opacity:1;fill:none;fill-opacity:1;fill-rule:nonzero;stroke:#000000;stroke-width:1;stroke-linecap:butt;stroke-linejoin:miter;stroke-miterlimit:4;stroke-dasharray:none;stroke-dashoffset:0;stroke-opacity:1;marker:none;color-rendering:auto;image-rendering:auto;shape-rendering:auto;text-rendering:auto;enable-background:accumulate"
     inkscape:connector-curvature="0" />
</svg>
