<?xml version="1.0" encoding="UTF-8" standalone="no"?>
<svg
   xmlns:dc="http://purl.org/dc/elements/1.1/"
   xmlns:cc="http://creativecommons.org/ns#"
   xmlns:rdf="http://www.w3.org/1999/02/22-rdf-syntax-ns#"
   xmlns:svg="http://www.w3.org/2000/svg"
   xmlns="http://www.w3.org/2000/svg"
   xmlns:xlink="http://www.w3.org/1999/xlink"
   xmlns:sodipodi="http://sodipodi.sourceforge.net/DTD/sodipodi-0.dtd"
   xmlns:inkscape="http://www.inkscape.org/namespaces/inkscape"
   id="svg3489"
   height="64"
   width="64"
   version="1.1"
   sodipodi:docname="pdfsam.svg"
   inkscape:version="0.92.4 5da689c313, 2019-01-14">
  <sodipodi:namedview
     pagecolor="#ffffff"
     bordercolor="#666666"
     borderopacity="1"
     objecttolerance="10"
     gridtolerance="10"
     guidetolerance="10"
     inkscape:pageopacity="0"
     inkscape:pageshadow="2"
     inkscape:window-width="1366"
     inkscape:window-height="743"
     id="namedview56"
     showgrid="false"
     inkscape:zoom="5.2149125"
     inkscape:cx="24.860042"
     inkscape:cy="24.175982"
     inkscape:window-x="0"
     inkscape:window-y="-1"
     inkscape:window-maximized="1"
     inkscape:current-layer="svg3489" />
  <defs
     id="defs3491">
    <linearGradient
       id="linearGradient4806">
      <stop
         offset="0"
         style="stop-color:#ffffff;stop-opacity:1"
         id="stop4808" />
      <stop
         offset="0.42447853"
         style="stop-color:#ffffff;stop-opacity:0.23529412"
         id="stop4810" />
      <stop
         offset="0.82089913"
         style="stop-color:#ffffff;stop-opacity:0.15686275"
         id="stop4812" />
      <stop
         offset="1"
         style="stop-color:#ffffff;stop-opacity:0.39215687"
         id="stop4814" />
    </linearGradient>
    <linearGradient
       gradientTransform="matrix(2.3268746,0,0,2.3268746,-135.94475,-32.842781)"
       gradientUnits="userSpaceOnUse"
       xlink:href="#linearGradient4806"
       id="linearGradient3293"
       y2="40.495617"
       x2="71.204407"
       y1="15.369057"
       x1="71.204407" />
    <linearGradient
       id="linearGradient23419">
      <stop
         offset="0"
         style="stop-color:#000000;stop-opacity:1"
         id="stop23421" />
      <stop
         offset="1"
         style="stop-color:#000000;stop-opacity:0"
         id="stop23423" />
    </linearGradient>
    <linearGradient
       id="linearGradient8838">
      <stop
         offset="0"
         style="stop-color:#000000;stop-opacity:1"
         id="stop8840" />
      <stop
         offset="1"
         style="stop-color:#000000;stop-opacity:0"
         id="stop8842" />
    </linearGradient>
    <linearGradient
       id="linearGradient2867-449-88-871-390-598-476-591-434-148-57-177-3-8-8-9">
      <stop
         offset="0"
         style="stop-color:#90dbec;stop-opacity:1"
         id="stop3750-8-9-0" />
      <stop
         offset="0.26238"
         style="stop-color:#42baea;stop-opacity:1"
         id="stop3752-3-2-2" />
      <stop
         offset="0.704952"
         style="stop-color:#3689e6;stop-opacity:1"
         id="stop3754-7-2-2" />
      <stop
         offset="1"
         style="stop-color:#2b63a0;stop-opacity:1"
         id="stop3756-9-3-05" />
    </linearGradient>
    <linearGradient
       id="linearGradient3104-8-8-97-4-6-2-0-1-4-0-5-8-3-9-1">
      <stop
         offset="0"
         style="stop-color:#000000;stop-opacity:0.32173914"
         id="stop3106-5-4-3-5-0-1-61-9-2-7-3-3-2-6-9" />
      <stop
         offset="1"
         style="stop-color:#000000;stop-opacity:0.27826086"
         id="stop3108-4-3-7-8-2-4-01-9-9-0-6-4-3-7-7" />
    </linearGradient>
    <linearGradient
       id="linearGradient4632-92-3-0-8-1-6-6">
      <stop
         offset="0"
         style="stop-color:#fafafa;stop-opacity:1"
         id="stop4634-68-8-0-2-9-1-1" />
      <stop
         offset="1"
         style="stop-color:#e1e1e1;stop-opacity:1"
         id="stop4636-8-21-7-1-4-9-4" />
    </linearGradient>
    <linearGradient
       id="linearGradient4011-7-0">
      <stop
         offset="0"
         style="stop-color:#ffffff;stop-opacity:1"
         id="stop4013-4" />
      <stop
         offset="0.507761"
         style="stop-color:#ffffff;stop-opacity:0.23529412"
         id="stop4015-61" />
      <stop
         offset="0.83456558"
         style="stop-color:#ffffff;stop-opacity:0.15686275"
         id="stop4017-2" />
      <stop
         offset="1"
         style="stop-color:#ffffff;stop-opacity:0.39215687"
         id="stop4019-2" />
    </linearGradient>
    <linearGradient
       gradientTransform="matrix(0.72972969,0,0,0.72972969,-4.3460816,29.49607)"
       gradientUnits="userSpaceOnUse"
       xlink:href="#linearGradient4011-7-0"
       id="linearGradient3306"
       y2="42.883553"
       x2="71.204407"
       y1="7.8309216"
       x1="71.204407" />
    <linearGradient
       gradientTransform="matrix(1.1151168,0,0,1.1513607,154.34934,-4.9719397)"
       gradientUnits="userSpaceOnUse"
       xlink:href="#linearGradient3104-8-8-97-4-6-2-0-1-4-0-5-8-3-9-1"
       id="linearGradient3315"
       y2="5.1757793"
       x2="-95.837799"
       y1="54.199703"
       x1="-95.837799" />
    <radialGradient
       gradientTransform="matrix(0,7.1951254,-7.6115838,-1.9584024e-7,96.316284,-28.423918)"
       gradientUnits="userSpaceOnUse"
       xlink:href="#linearGradient2867-449-88-871-390-598-476-591-434-148-57-177-3-8-8-9"
       id="radialGradient3328"
       fy="8.4497671"
       fx="1.1978998"
       r="19.99999"
       cy="8.4497671"
       cx="1.1978998" />
    <radialGradient
       gradientTransform="matrix(1.3176471,0,0,0.37647,-34.517651,58.258824)"
       gradientUnits="userSpaceOnUse"
       xlink:href="#linearGradient8838"
       id="radialGradient3384"
       fy="4.625"
       fx="62.625"
       r="10.625"
       cy="4.625"
       cx="62.625" />
    <radialGradient
       gradientTransform="matrix(0,1.7065212,-1.8052958,-4.6448879e-8,63.254408,23.291389)"
       gradientUnits="userSpaceOnUse"
       xlink:href="#linearGradient4632-92-3-0-8-1-6-6"
       id="radialGradient3399"
       fy="8.4497671"
       fx="6.2751122"
       r="19.99999"
       cy="8.4497671"
       cx="6.2751122" />
    <radialGradient
       r="62.769119"
       fy="185.29727"
       fx="99.189415"
       cy="185.29727"
       cx="99.189415"
       gradientTransform="matrix(0.3823536,7.5555777e-8,-1.8372241e-8,0.1115198,-5.9254271,36.335849)"
       gradientUnits="userSpaceOnUse"
       id="radialGradient3300-9"
       xlink:href="#linearGradient23419" />
    <radialGradient
       r="62.769119"
       fy="185.29727"
       fx="99.189415"
       cy="185.29727"
       cx="99.189415"
       gradientTransform="matrix(0.2549024,5.3967361e-8,-1.2248161e-8,0.07965545,6.7163816,44.240666)"
       gradientUnits="userSpaceOnUse"
       id="radialGradient4192"
       xlink:href="#linearGradient23419" />
    <radialGradient
       gradientTransform="matrix(0,7.1951254,-7.6115838,-1.9584024e-7,96.316278,-28.423914)"
       gradientUnits="userSpaceOnUse"
       xlink:href="#linearGradient2867-449-88-871-390-598-476-591-434-148-57-177-3-8-8-9"
       id="radialGradient3328-3"
       fy="8.4497671"
       fx="1.1978998"
       r="19.99999"
       cy="8.4497671"
       cx="1.1978998" />
    <radialGradient
       gradientTransform="matrix(0,7.1951254,-7.6115838,-1.9584024e-7,96.308466,-28.423914)"
       gradientUnits="userSpaceOnUse"
       xlink:href="#linearGradient2867-449-88-871-390-598-476-591-434-148-57-177-3-8-8-9"
       id="radialGradient3328-3-6"
       fy="8.4497671"
       fx="1.1978998"
       r="19.99999"
       cy="8.4497671"
       cx="1.1978998" />
    <radialGradient
       gradientTransform="matrix(0,7.1951254,-7.6115838,-1.9584024e-7,96.308466,-28.423914)"
       gradientUnits="userSpaceOnUse"
       xlink:href="#linearGradient2867-449-88-871-390-598-476-591-434-148-57-177-3-8-8-9"
       id="radialGradient3328-3-6-0"
       fy="8.4497671"
       fx="1.1978998"
       r="19.99999"
       cy="8.4497671"
       cx="1.1978998" />
    <radialGradient
       gradientTransform="matrix(0,7.1951254,-7.6115838,-1.9584024e-7,5.5628468,-0.98356374)"
       gradientUnits="userSpaceOnUse"
       xlink:href="#linearGradient2867-449-88-871-390-598-476-591-434-148-57-177-3-8-8-9"
       id="radialGradient3328-3-6-0-2"
       fy="8.4497671"
       fx="1.1978998"
       r="19.99999"
       cy="8.4497671"
       cx="1.1978998" />
  </defs>
  <metadata
     id="metadata3494">
    <rdf:RDF>
      <cc:Work
         rdf:about="">
        <dc:format>image/svg+xml</dc:format>
        <dc:type
           rdf:resource="http://purl.org/dc/dcmitype/StillImage" />
        <dc:title></dc:title>
      </cc:Work>
    </rdf:RDF>
  </metadata>
  <path
     style="color:#000000;display:inline;overflow:visible;visibility:visible;fill:#9bdb4d;fill-opacity:1;fill-rule:nonzero;stroke:#68b723;stroke-width:1;marker:none;enable-background:accumulate"
     d="M 31.992188 2.5 C 26.596387 2.5 21.541626 3.9603873 17.1875 6.4960938 C 37.399507 12.30107 43.327697 21.945928 44.0625 31.167969 C 44.496817 36.617646 41.255859 39.367187 41.255859 39.367188 C 49.775167 38.594401 58.785458 31.378923 61.355469 29.181641 C 59.933458 14.224122 47.318372 2.5 31.992188 2.5 z "
     id="path2555-9-5-7-6" />
  <g
     id="g4198"
     transform="translate(1.55e-6,-0.00183192)">
    <path
       style="opacity:0.2;fill:url(#radialGradient3300-9);fill-opacity:1;stroke:none"
       id="path3818-0"
       d="m 55.999998,57.0017 a 24,6.9985714 0 1 1 -47.9999991,0 24,6.9985714 0 1 1 47.9999991,0 z" />
    <path
       d="m 47.999998,59.0017 a 16,4.9988822 0 1 1 -31.999999,0 16,4.9988822 0 1 1 31.999999,0 z"
       id="path4190"
       style="opacity:0.4;fill:url(#radialGradient4192);fill-opacity:1;stroke:none" />
  </g>
  <path
     style="color:#000000;display:inline;overflow:visible;visibility:visible;fill:#9bdb4d;fill-opacity:1;fill-rule:nonzero;stroke:#68b723;stroke-width:1;marker:none;enable-background:accumulate"
     d="M 61.488281 31.876953 C 46.411945 46.53265 35.161044 46.871962 26.865234 42.90625 C 21.955476 40.560316 21.210938 36.361328 21.210938 36.361328 C 17.631996 44.135137 19.306309 55.513869 19.919922 58.910156 C 23.606914 60.569119 27.691057 61.500001 31.992188 61.5 C 48.269264 61.5 61.492203 48.277084 61.492188 32 C 61.492188 31.958751 61.488451 31.918163 61.488281 31.876953 z "
     id="path2555-9-5-7" />
  <path
     style="color:#000000;display:inline;overflow:visible;visibility:visible;fill:#9bdb4d;fill-opacity:1;fill-rule:nonzero;stroke:#68b723;stroke-width:1;marker:none;enable-background:accumulate"
     d="M 14.730469 8.0996094 C 7.3261849 13.462188 2.5 22.170915 2.5 32 C 2.5 42.901626 8.4363586 52.426589 17.244141 57.533203 C 12.311111 37.302839 17.625084 27.410398 25.144531 22.195312 C 29.619973 19.09159 33.605469 20.541016 33.605469 20.541016 C 28.656222 13.468601 17.84443 9.2136624 14.730469 8.0996094 z "
     id="path2555-9-5" />
  <path
     style="color:#000000;display:inline;overflow:visible;visibility:visible;opacity:0.5;fill:none;stroke:url(#linearGradient3293);stroke-width:1;stroke-linecap:round;stroke-linejoin:round;stroke-miterlimit:4;stroke-dasharray:none;stroke-dashoffset:0;stroke-opacity:1;marker:none;enable-background:accumulate"
     id="path3019"
     d="M 60.500011,32.000001 C 60.500011,47.740116 47.740111,60.5 31.999991,60.5 16.259892,60.5 3.5,47.740116 3.5,32.000001 3.5,16.259885 16.259892,3.4999993 31.999991,3.4999993 c 15.74012,0 28.50002,12.7598857 28.50002,28.5000017 z"
     inkscape:connector-curvature="0" />
  <path
     style="color:#000000;display:inline;overflow:visible;visibility:visible;opacity:0.5;fill:#000000;fill-opacity:0;fill-rule:nonzero;stroke:#206b00;stroke-width:1;stroke-linecap:round;stroke-linejoin:round;stroke-miterlimit:4;stroke-dasharray:none;stroke-dashoffset:0;stroke-opacity:1;marker:none;enable-background:accumulate"
     id="path2555-7-1"
     d="M 32,2.5 C 15.722918,2.5 2.5,15.722915 2.5,31.999998 c 0,16.277083 13.222918,29.500005 29.5,29.5 16.27708,0 29.50001,-13.222917 29.5,-29.5 C 61.5,15.722915 48.27708,2.5 32,2.5 Z"
     inkscape:connector-curvature="0" />
  <path
     inkscape:transform-center-x="0.39031884"
     inkscape:transform-center-y="-0.34239472"
     sodipodi:nodetypes="ccsccsccsccsccs"
     id="path126-6-1-80-3"
     style="fill:#f9c440;fill-opacity:1;fill-rule:nonzero;stroke:#000000;stroke-width:1;opacity:0.3"
     d="m 30.819665,31.125541 c 0.529258,-0.673197 1.503029,-0.786428 2.172338,-0.253123 0.671292,0.533702 0.782381,1.513543 0.251536,2.18678 -0.529258,0.673197 -1.504378,0.786904 -2.173211,0.252647 -0.669705,-0.533225 -0.781587,-1.512099 -0.251536,-2.186264 m 2.416733,8.2657 c 4.354594,1.432361 6.015766,-0.03491 6.015766,-0.03491 -2.450536,-2.379665 -3.015501,-3.010458 -2.441966,-4.835271 1.144372,-3.651665 1.215944,-5.233131 0.774446,-7.107489 -1.054151,-4.485338 -3.031529,-5.227402 -3.031529,-5.227402 -0.866808,3.310948 -1.02138,4.049212 -2.944165,4.530916 -3.693618,0.952997 -5.049772,1.58475 -6.464326,2.864459 -3.406692,3.081964 -2.977493,5.284518 -2.977493,5.284518 3.264657,-0.966122 4.062511,-1.106213 5.355027,0.275182 1.886761,2.042182 3.90532,3.655347 5.713684,4.250132 z"
     inkscape:connector-curvature="0" />
  <path
     inkscape:transform-center-x="0.39031884"
     inkscape:transform-center-y="-0.34239472"
     sodipodi:nodetypes="ccsccsccsccsccs"
     id="path126-6-1-80"
     style="fill:#f9c440;fill-opacity:1;fill-rule:nonzero;stroke:none;stroke-width:10.69581223"
     d="m 30.818792,31.125581 c 0.529258,-0.673197 1.503029,-0.786428 2.172338,-0.253123 0.671292,0.533702 0.782381,1.513543 0.251536,2.18678 -0.529258,0.673197 -1.504378,0.786904 -2.173211,0.252647 -0.669705,-0.533225 -0.781587,-1.512099 -0.251536,-2.186264 m 2.416733,8.2657 c 4.354594,1.432361 6.015766,-0.03491 6.015766,-0.03491 -2.450536,-2.379665 -3.015501,-3.010458 -2.441966,-4.835271 1.144372,-3.651665 1.215944,-5.233131 0.774446,-7.107489 -1.054151,-4.485338 -3.031529,-5.227402 -3.031529,-5.227402 -0.866808,3.310948 -1.02138,4.049212 -2.944165,4.530916 -3.693618,0.952997 -5.049772,1.58475 -6.464326,2.864459 -3.406692,3.081964 -2.977493,5.284518 -2.977493,5.284518 3.264657,-0.966122 4.062511,-1.106213 5.355027,0.275182 1.886761,2.042182 3.90532,3.655347 5.713684,4.250132 z"
     inkscape:connector-curvature="0" />
</svg>
