<?xml version="1.0" encoding="UTF-8" standalone="no"?>
<svg
   xmlns:dc="http://purl.org/dc/elements/1.1/"
   xmlns:cc="http://creativecommons.org/ns#"
   xmlns:rdf="http://www.w3.org/1999/02/22-rdf-syntax-ns#"
   xmlns:svg="http://www.w3.org/2000/svg"
   xmlns="http://www.w3.org/2000/svg"
   xmlns:xlink="http://www.w3.org/1999/xlink"
   xmlns:sodipodi="http://sodipodi.sourceforge.net/DTD/sodipodi-0.dtd"
   xmlns:inkscape="http://www.inkscape.org/namespaces/inkscape"
   version="1.0"
   width="64"
   height="64"
   id="svg4569"
   sodipodi:docname="preferences-desktop-screensaver.svg"
   inkscape:version="0.92.5 (2060ec1f9f, 2020-04-08)">
  <sodipodi:namedview
     pagecolor="#ffffff"
     bordercolor="#666666"
     borderopacity="1"
     objecttolerance="10"
     gridtolerance="10"
     guidetolerance="10"
     inkscape:pageopacity="0"
     inkscape:pageshadow="2"
     inkscape:window-width="1366"
     inkscape:window-height="738"
     id="namedview49"
     showgrid="false"
     inkscape:zoom="3.2102648"
     inkscape:cx="32.960062"
     inkscape:cy="4.8559553"
     inkscape:window-x="0"
     inkscape:window-y="30"
     inkscape:window-maximized="1"
     inkscape:current-layer="svg4569"
     inkscape:snap-page="true">
    <inkscape:grid
       type="xygrid"
       id="grid1000" />
  </sodipodi:namedview>
  <metadata
     id="metadata54">
    <rdf:RDF>
      <cc:Work
         rdf:about="">
        <dc:format>image/svg+xml</dc:format>
        <dc:type
           rdf:resource="http://purl.org/dc/dcmitype/StillImage" />
        <dc:title></dc:title>
      </cc:Work>
    </rdf:RDF>
  </metadata>
  <defs
     id="defs4571">
    <linearGradient
       id="linearGradient4084">
      <stop
         offset="0"
         style="stop-color:#ffffff;stop-opacity:1"
         id="stop4086" />
      <stop
         offset="0.01596775"
         style="stop-color:#ffffff;stop-opacity:0.23529412"
         id="stop4088" />
      <stop
         offset="0.99257565"
         style="stop-color:#ffffff;stop-opacity:0.15686275"
         id="stop4090" />
      <stop
         offset="1"
         style="stop-color:#ffffff;stop-opacity:0.39215687"
         id="stop4092" />
    </linearGradient>
    <linearGradient
       id="linearGradient3912">
      <stop
         id="stop3914"
         style="stop-color:#787878;stop-opacity:1"
         offset="0" />
      <stop
         id="stop3916"
         style="stop-color:#bebebe;stop-opacity:1"
         offset="0.35046947" />
      <stop
         id="stop3918"
         style="stop-color:#c8c8c8;stop-opacity:1"
         offset="0.49417919" />
      <stop
         id="stop3920"
         style="stop-color:#e6e6e6;stop-opacity:1"
         offset="0.58907253" />
      <stop
         id="stop3922"
         style="stop-color:#8c8c8c;stop-opacity:1"
         offset="1" />
    </linearGradient>
    <linearGradient
       id="linearGradient10691-1">
      <stop
         id="stop10693-3"
         style="stop-color:#000000;stop-opacity:1"
         offset="0" />
      <stop
         id="stop10695-1"
         style="stop-color:#000000;stop-opacity:0"
         offset="1" />
    </linearGradient>
    <linearGradient
       x1="361.10583"
       y1="87.050117"
       x2="361.10583"
       y2="94.396416"
       id="linearGradient2451"
       xlink:href="#linearGradient3912"
       gradientUnits="userSpaceOnUse"
       gradientTransform="matrix(1.3111548,0,0,1.3337028,-437.61398,-66.532889)" />
    <radialGradient
       cx="6.702713"
       cy="73.615715"
       r="7.228416"
       fx="6.702713"
       fy="73.615715"
       id="radialGradient2456"
       xlink:href="#linearGradient10691-1"
       gradientUnits="userSpaceOnUse"
       gradientTransform="matrix(2.5824009,0,0,0.5533716,14.690909,17.92982)" />
    <linearGradient
       id="outerBackgroundGradient-5-0">
      <stop
         id="stop3864-8-6-4"
         offset="0"
         style="stop-color:#261e2b;stop-opacity:1;" />
      <stop
         id="stop3866-9-1-86"
         offset="1"
         style="stop-color:#352f39;stop-opacity:1;" />
    </linearGradient>
    <linearGradient
       id="linearGradient3880">
      <stop
         id="stop3883"
         offset="0"
         style="stop-color:#ffffff;stop-opacity:0.8" />
      <stop
         id="stop3885"
         offset="1"
         style="stop-color:#ffffff;stop-opacity:0;" />
    </linearGradient>
    <linearGradient
       xlink:href="#linearGradient3880"
       id="linearGradient3141"
       gradientUnits="userSpaceOnUse"
       gradientTransform="matrix(1.5500003,0,0,1.5555554,-0.5500058,17.444445)"
       x1="10"
       y1="-3"
       x2="20"
       y2="12" />
    <linearGradient
       xlink:href="#linearGradient4084"
       id="linearGradient3144"
       gradientUnits="userSpaceOnUse"
       gradientTransform="matrix(1.6486489,0,0,1.135135,-7.5675799,-0.74323082)"
       x1="23.99999"
       y1="5.7531762"
       x2="23.99999"
       y2="42.121033" />
    <linearGradient
       xlink:href="#outerBackgroundGradient-5-0"
       id="linearGradient3148"
       gradientUnits="userSpaceOnUse"
       gradientTransform="matrix(1.4000003,0,0,1.5652174,2.5999953,21.02178)"
       x1="15"
       y1="24.618645"
       x2="15"
       y2="2" />
    <linearGradient
       xlink:href="#linearGradient4054-5"
       id="linearGradient3152-7"
       gradientUnits="userSpaceOnUse"
       gradientTransform="matrix(1.2162163,0,0,0.83783786,2.6663586,14.977385)"
       x1="25.004524"
       y1="51.07592"
       x2="25.004524"
       y2="40.265266" />
    <linearGradient
       id="linearGradient4054-5">
      <stop
         offset="0"
         style="stop-color:#ffffff;stop-opacity:1"
         id="stop4056-0" />
      <stop
         offset="0.06316455"
         style="stop-color:#ffffff;stop-opacity:0.23529412"
         id="stop4058-4" />
      <stop
         offset="0.96892834"
         style="stop-color:#ffffff;stop-opacity:0.15686275"
         id="stop4060-4" />
      <stop
         offset="1"
         style="stop-color:#ffffff;stop-opacity:0.39215687"
         id="stop4062-0" />
    </linearGradient>
    <linearGradient
       id="outerBackgroundGradient-5-0-4">
      <stop
         id="stop3864-8-6-4-3"
         offset="0"
         style="stop-color:#261e2b;stop-opacity:1;" />
      <stop
         id="stop3866-9-1-86-8"
         offset="1"
         style="stop-color:#352f39;stop-opacity:1;" />
    </linearGradient>
    <linearGradient
       y2="2"
       x2="15"
       y1="24.618645"
       x1="15"
       gradientTransform="matrix(1.3500003,0,0,1.4782609,3.6499947,21.326128)"
       gradientUnits="userSpaceOnUse"
       id="linearGradient4109"
       xlink:href="#outerBackgroundGradient-5-0-4" />
    <linearGradient
       gradientTransform="matrix(4.1277033,0,0,4.1277033,-81.48784,-107.50691)"
       id="linearGradient1077"
       x1="29.479"
       x2="30.073999"
       y1="14.924"
       y2="10.047"
       gradientUnits="userSpaceOnUse">
      <stop
         stop-color="#5c5984"
         offset="0"
         id="stop2" />
      <stop
         stop-color="#1e1955"
         offset="1"
         id="stop4" />
    </linearGradient>
    <filter
       style="color-interpolation-filters:sRGB"
       id="filter1118"
       x="-0.056922"
       y="-0.16021"
       width="1.1138"
       height="1.3204">
      <feGaussianBlur
         stdDeviation="0.23633495"
         id="feGaussianBlur10" />
    </filter>
    <filter
       style="color-interpolation-filters:sRGB"
       id="filter1131"
       x="-0.083999999"
       y="-0.083999999"
       width="1.168"
       height="1.168">
      <feGaussianBlur
         stdDeviation="0.039960775"
         id="feGaussianBlur13" />
    </filter>
    <filter
       style="color-interpolation-filters:sRGB"
       id="filter881"
       x="-0.083999999"
       y="-0.083999999"
       width="1.168"
       height="1.168">
      <feGaussianBlur
         stdDeviation="0.039960775"
         id="feGaussianBlur879" />
    </filter>
    <filter
       style="color-interpolation-filters:sRGB"
       id="filter885"
       x="-0.083999999"
       y="-0.083999999"
       width="1.168"
       height="1.168">
      <feGaussianBlur
         stdDeviation="0.039960775"
         id="feGaussianBlur883" />
    </filter>
    <filter
       style="color-interpolation-filters:sRGB"
       id="filter889"
       x="-0.083999999"
       y="-0.083999999"
       width="1.168"
       height="1.168">
      <feGaussianBlur
         stdDeviation="0.039960775"
         id="feGaussianBlur887" />
    </filter>
    <filter
       style="color-interpolation-filters:sRGB"
       id="filter893"
       x="-0.083999999"
       y="-0.083999999"
       width="1.168"
       height="1.168">
      <feGaussianBlur
         stdDeviation="0.039960775"
         id="feGaussianBlur891" />
    </filter>
    <linearGradient
       gradientTransform="matrix(4.1277033,0,0,4.1277033,-97.487836,-10.128326)"
       id="linearGradient1077-3"
       x1="29.479"
       x2="30.073999"
       y1="14.924"
       y2="10.047"
       gradientUnits="userSpaceOnUse"
       spreadMethod="pad">
      <stop
         stop-color="#5c5984"
         offset="0"
         id="stop2-6"
         style="stop-color:#595959;stop-opacity:1" />
      <stop
         stop-color="#1e1955"
         offset="1"
         id="stop4-7"
         style="stop-color:#23345e;stop-opacity:1" />
    </linearGradient>
    <filter
       inkscape:collect="always"
       style="color-interpolation-filters:sRGB"
       id="filter1868"
       x="-0.96"
       width="2.92"
       y="-0.96"
       height="2.92">
      <feGaussianBlur
         inkscape:collect="always"
         stdDeviation="0.16"
         id="feGaussianBlur1870" />
    </filter>
    <filter
       inkscape:collect="always"
       style="color-interpolation-filters:sRGB"
       id="filter2000"
       x="-0.12602372"
       width="1.2520474"
       y="-0.11397704"
       height="1.2279541">
      <feGaussianBlur
         inkscape:collect="always"
         stdDeviation="0.057158769"
         id="feGaussianBlur2002" />
    </filter>
    <filter
       inkscape:collect="always"
       style="color-interpolation-filters:sRGB"
       id="filter2020"
       x="-0.25204744"
       width="1.5040949"
       y="-0.22795409"
       height="1.4559082">
      <feGaussianBlur
         inkscape:collect="always"
         stdDeviation="0.11431754"
         id="feGaussianBlur2022" />
    </filter>
    <filter
       inkscape:collect="always"
       style="color-interpolation-filters:sRGB"
       id="filter2056"
       x="-0.012602434"
       width="1.0252049"
       y="-0.011397642"
       height="1.0227953">
      <feGaussianBlur
         inkscape:collect="always"
         stdDeviation="0.0057158784"
         id="feGaussianBlur2058" />
    </filter>
    <filter
       inkscape:collect="always"
       style="color-interpolation-filters:sRGB"
       id="filter2176"
       x="-0.24"
       width="1.48"
       y="-0.24"
       height="1.48">
      <feGaussianBlur
         inkscape:collect="always"
         stdDeviation="0.04"
         id="feGaussianBlur2178" />
    </filter>
    <filter
       inkscape:collect="always"
       style="color-interpolation-filters:sRGB"
       id="filter2196"
       x="-1.2"
       width="3.4"
       y="-1.2"
       height="3.4">
      <feGaussianBlur
         inkscape:collect="always"
         stdDeviation="0.2"
         id="feGaussianBlur2198" />
    </filter>
    <filter
       inkscape:collect="always"
       style="color-interpolation-filters:sRGB"
       id="filter2222"
       x="-0.6"
       width="2.2"
       y="-0.6"
       height="2.2">
      <feGaussianBlur
         inkscape:collect="always"
         stdDeviation="0.1"
         id="feGaussianBlur2224" />
    </filter>
  </defs>
  <path
     d="m 50.666665,58.666665 c 0,2.20914 -8.357351,4 -18.666667,4 -10.309315,0 -18.666665,-1.79086 -18.666665,-4 0,-2.209138 8.35735,-4 18.666665,-4 10.309316,0 18.666667,1.790862 18.666667,4 l 0,0 z"
     id="path2589"
     style="opacity:0.3;fill:url(#radialGradient2456);fill-opacity:1;fill-rule:nonzero;stroke:none;stroke-width:0.80000001;marker:none;visibility:visible;display:inline;overflow:visible" />
  <path
     d="m 23.919786,48.499137 c 0,0 0.186555,5.677784 -0.743925,7.001192 -0.93048,1.323409 -2.781966,1.338846 -2.781966,1.338846 -1.188092,0.139034 -1.19792,2.661687 0,2.661687 l 23.212115,0 c 1.197921,0 1.188341,-2.524427 0,-2.661687 0,0 -1.851406,-0.01544 -2.781873,-1.338846 -0.930466,-1.323405 -0.744017,-7.001192 -0.744017,-7.001192 l -16.160334,0 0,0 z"
     id="rect1789"
     style="fill:url(#linearGradient2451);fill-opacity:1;fill-rule:nonzero;stroke:none;stroke-width:0.99827456000000003;stroke-linecap:round;stroke-linejoin:round;stroke-miterlimit:4;stroke-opacity:1;stroke-dasharray:none;stroke-dashoffset:0.50000001000000005;marker:none;visibility:visible;display:inline;overflow:visible;enable-background:new" />
  <rect
     width="62.99976"
     height="43.99968"
     rx="1.4000021"
     ry="1.3333333"
     x="0.50011969"
     y="4.5002007"
     id="rect2722"
     style="fill:#1a1a1a;fill-opacity:1;stroke:#000000;stroke-width:1.00023937;stroke-linecap:round;stroke-linejoin:round;stroke-miterlimit:4;stroke-opacity:1;stroke-dasharray:none;stroke-dashoffset:0.50000001" />
  <path
     style="fill:url(#linearGradient3148);fill-opacity:1;stroke:none;display:inline"
     d="m 3.9999997,8.5000405 55.9999993,0 0,36.0000005 -55.9999993,0 z"
     id="rect2722-0" />
  <rect
     x="4"
     y="8.5"
     width="56"
     height="36"
     ry="0"
     style="fill:url(#linearGradient1077-3);stroke-width:4.12770319;paint-order:stroke fill markers;fill-opacity:1.0;stroke:none"
     id="rect24-5" />
  <path
     inkscape:connector-curvature="0"
     style="fill:#141446;stroke-width:4.12770319"
     d="M 8.552031,25.079156 C 6.712107,25.053976 5.124634,25.651504 4,26.250186 V 44.5 H 60 V 33.602451 c -1.804054,-0.026 -7.219916,1.911168 -7.219916,1.911168 C 38.49369,27.019218 28.551291,31.507848 28.551291,31.507848 25.124513,28.370669 22.713066,30.09155 22.713066,30.09155 c -2.388949,-2.388949 -6.89409,-1.228611 -6.89409,-1.228611 -2.533997,-2.84118 -5.077487,-3.753981 -7.267234,-3.783948 z"
     id="path28-3"
     sodipodi:nodetypes="ccccccccccc" />
  <path
     inkscape:connector-curvature="0"
     style="fill:#070618;stroke-width:4.12770319"
     d="m 56.220261,35.97881 c -4.457507,-0.0963 -9.090854,5.944306 -10.86783,8.521231 h 14.647568 v -7.252375 c -0.8811,-0.470517 -1.773427,-0.862607 -2.657746,-1.10705 -0.371039,-0.102573 -0.745669,-0.153963 -1.121951,-0.162095 z"
     id="path36" />
  <path
     inkscape:connector-curvature="0"
     style="fill:#070618;stroke-width:4.12770319"
     d="m 49.251873,35.734563 c -3.405891,-0.07384 -11.956305,6.531265 -14.688019,8.706978 H 60 V 44 c -3.689259,-3.262867 -8.271505,-7.191284 -10.053021,-8.109699 -0.193053,-0.09956 -0.426351,-0.149876 -0.695353,-0.155696 z"
     id="path30-5" />
  <path
     inkscape:connector-curvature="0"
     style="opacity:0.2;fill:#fafafa;filter:url(#filter1118)"
     transform="matrix(4.0355317,0,0,3.8136264,-95.221618,-12.824177)"
     d="m 24.587,11.36 v 3.5403 h 9.9646 C 30.6362,11.9881 25.6971,11.4468 24.587,11.36 Z"
     id="path32" />
  <path
     inkscape:connector-curvature="0"
     style="fill:#000000;stroke-width:4.12770319"
     d="M 3.9999997,29.886733 V 44.500041 H 45.130912 C 28.969303,32.479343 8.5821632,30.245018 3.9999997,29.886733 Z"
     id="path34" />
  <path
     style="opacity:0.2;fill:#000000;fill-opacity:1;stroke:none;display:inline"
     d="M 4 8.5 L 4 44.5 L 60 44.5 L 60 8.5 L 4 8.5 z M 5 9.5 L 59 9.5 L 59 43.5 L 5 43.5 L 5 9.5 z "
     id="path3942" />
  <circle
     style="opacity:0.8;fill:#fafafa;fill-opacity:1;stroke:none;stroke-width:0.1;stroke-linecap:round;stroke-linejoin:round;stroke-miterlimit:4;stroke-dasharray:none;stroke-opacity:1;paint-order:markers fill stroke"
     id="path895"
     cx="18.200001"
     cy="27.799999"
     r="0.2" />
  <rect
     width="61.000004"
     height="42"
     rx="0"
     ry="0"
     x="1.5"
     y="5.5"
     id="rect6741"
     style="opacity:0.20000000000000001;fill:none;stroke:url(#linearGradient3144);stroke-width:0.99999987999999995;stroke-linecap:round;stroke-linejoin:round;stroke-miterlimit:4;stroke-opacity:1;stroke-dasharray:none;stroke-dashoffset:0" />
  <path
     d="m 23.919786,48.499137 c 0,0 0.186555,5.677784 -0.743925,7.001192 -0.93048,1.323409 -2.781966,1.338846 -2.781966,1.338846 -1.188092,0.139034 -1.19792,2.661687 0,2.661687 l 23.212115,0 c 1.197921,0 1.188341,-2.524427 0,-2.661687 0,0 -1.851406,-0.01544 -2.781873,-1.338846 -0.930466,-1.323405 -0.744017,-7.001192 -0.744017,-7.001192 l -16.160334,0 0,0 z"
     id="rect1789-9"
     style="fill:none;fill-opacity:1;fill-rule:nonzero;stroke:#000000;stroke-width:0.99827462000000000;stroke-linecap:round;stroke-linejoin:round;stroke-miterlimit:4;stroke-opacity:1;stroke-dasharray:none;stroke-dashoffset:0.50000001000000005;marker:none;visibility:visible;display:inline;overflow:visible;enable-background:new;opacity:0.40000000000000002;color:#000000" />
  <path
     style="opacity:0.59999999999999998;color:#000000;fill:none;stroke:url(#linearGradient3152-7);stroke-width:0.99999994000000003;stroke-linecap:round;stroke-linejoin:round;stroke-miterlimit:4;stroke-opacity:1;stroke-dasharray:none;stroke-dashoffset:0;marker:none;visibility:visible;display:inline;overflow:visible;enable-background:accumulate"
     id="path4043"
     d="m 24.90625,49.5 c 0.01129,0.552305 0.04325,0.949789 0,2.03125 C 24.873643,52.346505 24.8079,53.220881 24.6875,54 24.5671,54.779119 24.435885,55.442547 24,56.0625 c -1.193603,1.697645 -3.115921,1.748832 -3.40625,1.75 -0.03548,0.06074 -0.09343,0.236278 -0.09375,0.40625 -2.61e-4,0.137285 0.04053,0.22439 0.0625,0.28125 l 22.875,0 c 0.02204,-0.05704 0.06275,-0.143846 0.0625,-0.28125 -3.15e-4,-0.170119 -0.05842,-0.345791 -0.09375,-0.40625 C 43.11592,57.811332 41.193593,57.760151 40,56.0625 39.564121,55.442548 39.432899,54.779118 39.3125,54 c -0.120399,-0.779118 -0.186142,-1.653495 -0.21875,-2.46875 -0.04326,-1.081461 -0.01129,-1.478945 0,-2.03125 l -14.1875,0 z m 18.5,8.3125 c -0.03533,-0.06046 0.01418,0.02567 0.0625,0.03125 l 0,-0.03125 c -0.005,3.2e-5 -0.0552,2.9e-5 -0.0625,0 z m -22.8125,0 c -0.0073,2.9e-5 -0.05749,3.2e-5 -0.0625,0 -3.58e-4,-2e-6 3.46e-4,0.03125 0,0.03125 0.04802,-0.0056 0.09798,-0.09199 0.0625,-0.03125 z" />
  <circle
     style="opacity:1;fill:#fafafa;fill-opacity:1;stroke:none;stroke-width:0.1;stroke-linecap:round;stroke-linejoin:round;stroke-miterlimit:4;stroke-dasharray:none;stroke-opacity:1;paint-order:markers fill stroke;filter:url(#filter1868)"
     id="path895-1"
     cx="30.200001"
     cy="18.799999"
     r="0.2" />
  <path
     style="display:inline;opacity:0.2;fill:url(#linearGradient3141);fill-opacity:1;stroke:none"
     d="M 1,5 V 33 L 63,12.583334 V 5 Z"
     id="rect3872"
     inkscape:connector-curvature="0" />
  <g
     style="fill:#fafafa"
     transform="matrix(4.1297504,0,0,4.1297504,-161.20567,-9.3209189)"
     id="g48">
    <path
       inkscape:connector-curvature="0"
       transform="matrix(0.7266,-0.80341,0.7266,0.80341,-1.0588,-2.3383)"
       d="m 26.779,39.166 c 0.46037,0.04433 1.021,0.1028 1.4119,0.14324 -0.40697,0.05608 -0.98063,0.14324 -1.4119,0.14324 -0.07935,0 -0.14324,-0.06388 -0.14324,-0.14324 0,-0.07935 0.06388,-0.14324 0.14324,-0.14324 z"
       style="opacity:0.7;paint-order:stroke fill markers;"
       id="path38" />
    <path
       inkscape:connector-curvature="0"
       transform="matrix(0.57017,-0.63044,0.57017,0.63044,10.298,-0.55345)"
       d="m 26.779,39.166 c 0.46037,0.04433 1.021,0.1028 1.4119,0.14324 -0.40697,0.05608 -0.98063,0.14324 -1.4119,0.14324 -0.07935,0 -0.14324,-0.06388 -0.14324,-0.14324 0,-0.07935 0.06388,-0.14324 0.14324,-0.14324 z"
       style="opacity:0.5;paint-order:stroke fill markers;filter:url(#filter2056)"
       id="path40" />
    <path
       inkscape:connector-curvature="0"
       transform="matrix(0.49369,-0.54587,0.49369,0.54587,9.1011,-0.17997)"
       d="m 26.779,39.166 c 0.46037,0.04433 1.021,0.1028 1.4119,0.14324 -0.40697,0.05608 -0.98063,0.14324 -1.4119,0.14324 -0.07935,0 -0.14324,-0.06388 -0.14324,-0.14324 0,-0.07935 0.06388,-0.14324 0.14324,-0.14324 z"
       style="opacity:0.2;paint-order:stroke fill markers;filter:url(#filter1131)"
       id="path42" />
    <path
       inkscape:connector-curvature="0"
       transform="matrix(0.49369,-0.54587,0.49369,0.54587,19.42,-1.4367)"
       d="m 26.779,39.166 c 0.46037,0.04433 1.021,0.1028 1.4119,0.14324 -0.40697,0.05608 -0.98063,0.14324 -1.4119,0.14324 -0.07935,0 -0.14324,-0.06388 -0.14324,-0.14324 0,-0.07935 0.06388,-0.14324 0.14324,-0.14324 z"
       style="opacity:0.2;paint-order:stroke fill markers;filter:url(#filter2020)"
       id="path44" />
    <path
       inkscape:connector-curvature="0"
       transform="matrix(0.49369,-0.54587,0.49369,0.54587,18.725,1.7878)"
       d="m 26.779,39.166 c 0.46037,0.04433 1.021,0.1028 1.4119,0.14324 -0.40697,0.05608 -0.98063,0.14324 -1.4119,0.14324 -0.07935,0 -0.14324,-0.06388 -0.14324,-0.14324 0,-0.07935 0.06388,-0.14324 0.14324,-0.14324 z"
       style="opacity:0.2;paint-order:stroke fill markers;filter:url(#filter2000)"
       id="path46" />
  </g>
  <circle
     style="opacity:0.8;fill:#fafafa;fill-opacity:1;stroke:none;stroke-width:0.1;stroke-linecap:round;stroke-linejoin:round;stroke-miterlimit:4;stroke-dasharray:none;stroke-opacity:1;paint-order:markers fill stroke"
     id="path895-3"
     cx="26.200001"
     cy="27.799999"
     r="0.2" />
  <path
     style="opacity:0.8;fill:#fafafa;fill-opacity:1;stroke:none;stroke-width:0.1;stroke-linecap:round;stroke-linejoin:round;stroke-miterlimit:4;stroke-dasharray:none;stroke-opacity:1;paint-order:markers fill stroke"
     d="m 20.400001,23.799999 a 0.2,0.2 0 0 1 -0.2,0.2 0.2,0.2 0 0 1 -0.2,-0.2 0.2,0.2 0 0 1 0.2,-0.2 0.2,0.2 0 0 1 0.2,0.2 z"
     id="path895-3-8" />
  <path
     inkscape:connector-curvature="0"
     style="opacity:0.8;fill:#fafafa;fill-opacity:1;stroke:none;stroke-width:0.1;stroke-linecap:round;stroke-linejoin:round;stroke-miterlimit:4;stroke-dasharray:none;stroke-opacity:1;paint-order:markers fill stroke"
     d="m 16.882926,18.745166 a 0.2,0.2 0 0 1 -0.2,0.2 0.2,0.2 0 0 1 -0.2,-0.2 0.2,0.2 0 0 1 0.2,-0.2 0.2,0.2 0 0 1 0.2,0.2 z"
     id="path895-3-8-3" />
  <path
     inkscape:connector-curvature="0"
     style="opacity:0.8;fill:#fafafa;fill-opacity:1;stroke:none;stroke-width:0.1;stroke-linecap:round;stroke-linejoin:round;stroke-miterlimit:4;stroke-dasharray:none;stroke-opacity:1;paint-order:markers fill stroke"
     d="m 36.058703,14.142979 a 0.2,0.2 0 0 1 -0.2,0.2 0.2,0.2 0 0 1 -0.2,-0.2 0.2,0.2 0 0 1 0.2,-0.2 0.2,0.2 0 0 1 0.2,0.2 z"
     id="path895-3-8-1" />
  <path
     inkscape:connector-curvature="0"
     style="opacity:0.8;fill:#fafafa;fill-opacity:1;stroke:none;stroke-width:0.1;stroke-linecap:round;stroke-linejoin:round;stroke-miterlimit:4;stroke-dasharray:none;stroke-opacity:1;paint-order:markers fill stroke"
     d="m 24.361479,13.759464 a 0.2,0.2 0 0 1 -0.2,0.2 0.2,0.2 0 0 1 -0.2,-0.2 0.2,0.2 0 0 1 0.2,-0.2 0.2,0.2 0 0 1 0.2,0.2 z"
     id="path895-3-8-8" />
  <path
     inkscape:connector-curvature="0"
     style="opacity:0.8;fill:#fafafa;fill-opacity:1;stroke:none;stroke-width:0.1;stroke-linecap:round;stroke-linejoin:round;stroke-miterlimit:4;stroke-dasharray:none;stroke-opacity:1;paint-order:markers fill stroke"
     d="m 12.664255,11.650128 a 0.2,0.2 0 0 1 -0.2,0.2 0.2,0.2 0 0 1 -0.2,-0.2 0.2,0.2 0 0 1 0.2,-0.2 0.2,0.2 0 0 1 0.2,0.2 z"
     id="path895-3-8-9" />
  <path
     inkscape:connector-curvature="0"
     style="opacity:0.8;fill:#fafafa;fill-opacity:1;stroke:none;stroke-width:0.1;stroke-linecap:round;stroke-linejoin:round;stroke-miterlimit:4;stroke-dasharray:none;stroke-opacity:1;paint-order:markers fill stroke"
     d="m 7.4867953,21.238017 a 0.2,0.2 0 0 1 -0.2,0.2 0.2,0.2 0 0 1 -0.2,-0.2 0.2,0.2 0 0 1 0.2,-0.2 0.2,0.2 0 0 1 0.2,0.2 z"
     id="path895-3-8-6" />
  <path
     inkscape:connector-curvature="0"
     style="opacity:0.8;fill:#fafafa;fill-opacity:1;stroke:none;stroke-width:0.1;stroke-linecap:round;stroke-linejoin:round;stroke-miterlimit:4;stroke-dasharray:none;stroke-opacity:1;paint-order:markers fill stroke"
     d="m 45.646592,27.757781 a 0.2,0.2 0 0 1 -0.2,0.2 0.2,0.2 0 0 1 -0.2,-0.2 0.2,0.2 0 0 1 0.2,-0.2 0.2,0.2 0 0 1 0.2,0.2 z"
     id="path895-3-8-4" />
  <path
     inkscape:connector-curvature="0"
     style="opacity:0.8;fill:#fafafa;fill-opacity:1;stroke:none;stroke-width:0.1;stroke-linecap:round;stroke-linejoin:round;stroke-miterlimit:4;stroke-dasharray:none;stroke-opacity:1;paint-order:markers fill stroke;filter:url(#filter2176)"
     d="m 46.797138,20.662744 a 0.2,0.2 0 0 1 -0.2,0.2 0.2,0.2 0 0 1 -0.2,-0.2 0.2,0.2 0 0 1 0.2,-0.2 0.2,0.2 0 0 1 0.2,0.2 z"
     id="path895-3-8-33" />
  <path
     inkscape:connector-curvature="0"
     style="opacity:0.8;fill:#fafafa;fill-opacity:1;stroke:none;stroke-width:0.1;stroke-linecap:round;stroke-linejoin:round;stroke-miterlimit:4;stroke-dasharray:none;stroke-opacity:1;paint-order:markers fill stroke"
     d="m 54.083934,19.512197 a 0.2,0.2 0 0 1 -0.2,0.2 0.2,0.2 0 0 1 -0.2,-0.2 0.2,0.2 0 0 1 0.2,-0.2 0.2,0.2 0 0 1 0.2,0.2 z"
     id="path895-3-8-38" />
  <path
     inkscape:connector-curvature="0"
     style="opacity:0.8;fill:#fafafa;fill-opacity:1;stroke:none;stroke-width:0.1;stroke-linecap:round;stroke-linejoin:round;stroke-miterlimit:4;stroke-dasharray:none;stroke-opacity:1;paint-order:markers fill stroke;filter:url(#filter2196)"
     d="m 48.906474,12.992433 a 0.2,0.2 0 0 1 -0.2,0.2 0.2,0.2 0 0 1 -0.2,-0.2 0.2,0.2 0 0 1 0.2,-0.2 0.2,0.2 0 0 1 0.2,0.2 z"
     id="path895-3-8-60" />
  <path
     inkscape:connector-curvature="0"
     style="opacity:0.8;fill:#fafafa;fill-opacity:1;stroke:none;stroke-width:0.1;stroke-linecap:round;stroke-linejoin:round;stroke-miterlimit:4;stroke-dasharray:none;stroke-opacity:1;paint-order:markers fill stroke"
     d="m 58.110847,16.252315 a 0.2,0.2 0 0 1 -0.2,0.2 0.2,0.2 0 0 1 -0.2,-0.2 0.2,0.2 0 0 1 0.2,-0.2 0.2,0.2 0 0 1 0.2,0.2 z"
     id="path895-3-8-48" />
  <path
     inkscape:connector-curvature="0"
     style="opacity:0.8;fill:#fafafa;fill-opacity:1;stroke:none;stroke-width:0.1;stroke-linecap:round;stroke-linejoin:round;stroke-miterlimit:4;stroke-dasharray:none;stroke-opacity:1;paint-order:markers fill stroke;filter:url(#filter2222)"
     d="m 42.770225,11.266613 a 0.2,0.2 0 0 1 -0.2,0.2 0.2,0.2 0 0 1 -0.2,-0.2 0.2,0.2 0 0 1 0.2,-0.2 0.2,0.2 0 0 1 0.2,0.2 z"
     id="path895-3-8-88" />
</svg>
