<?xml version="1.0" encoding="UTF-8" standalone="no"?>
<svg
   xmlns:dc="http://purl.org/dc/elements/1.1/"
   xmlns:cc="http://creativecommons.org/ns#"
   xmlns:rdf="http://www.w3.org/1999/02/22-rdf-syntax-ns#"
   xmlns:svg="http://www.w3.org/2000/svg"
   xmlns="http://www.w3.org/2000/svg"
   xmlns:xlink="http://www.w3.org/1999/xlink"
   xmlns:sodipodi="http://sodipodi.sourceforge.net/DTD/sodipodi-0.dtd"
   xmlns:inkscape="http://www.inkscape.org/namespaces/inkscape"
   id="svg6436"
   height="24"
   width="24"
   version="1.1"
   sodipodi:docname="user-desktop.svg"
   inkscape:version="0.92.4 5da689c313, 2019-01-14">
  <sodipodi:namedview
     pagecolor="#ffffff"
     bordercolor="#666666"
     borderopacity="1"
     objecttolerance="10"
     gridtolerance="10"
     guidetolerance="10"
     inkscape:pageopacity="0"
     inkscape:pageshadow="2"
     inkscape:window-width="1366"
     inkscape:window-height="738"
     id="namedview38"
     showgrid="false"
     showguides="false"
     inkscape:zoom="10.24"
     inkscape:cx="9.543186"
     inkscape:cy="14.615396"
     inkscape:window-x="0"
     inkscape:window-y="30"
     inkscape:window-maximized="1"
     inkscape:current-layer="svg6436" />
  <defs
     id="defs6438">
    <linearGradient
       id="linearGradient913">
      <stop
         style="stop-color:#64baff;stop-opacity:1"
         offset="0"
         id="stop909" />
      <stop
         style="stop-color:#3689e6;stop-opacity:1"
         offset="1"
         id="stop911" />
    </linearGradient>
    <linearGradient
       id="linearGradient895">
      <stop
         id="stop891"
         offset="0"
         style="stop-color:#ed5353;stop-opacity:1" />
      <stop
         id="stop893"
         offset="1"
         style="stop-color:#c6262e;stop-opacity:1" />
    </linearGradient>
    <linearGradient
       id="linearGradient5747">
      <stop
         offset="0"
         style="stop-color:#000000;stop-opacity:1"
         id="stop5749" />
      <stop
         offset="1"
         style="stop-color:#000000;stop-opacity:0"
         id="stop5751" />
    </linearGradient>
    <radialGradient
       gradientTransform="matrix(1.2022704,0,0,0.59999988,14.99287,-4.59993)"
       gradientUnits="userSpaceOnUse"
       xlink:href="#linearGradient5747"
       id="radialGradient4358-2"
       r="2.5"
       cy="43.5"
       cx="4.993" />
    <radialGradient
       gradientTransform="matrix(1.2022704,0,0,0.59999988,-9.00712,-47.60006)"
       gradientUnits="userSpaceOnUse"
       xlink:href="#linearGradient5747"
       id="radialGradient4360-3"
       r="2.5"
       cy="43.5"
       cx="4.993" />
    <linearGradient
       spreadMethod="reflect"
       gradientTransform="matrix(0.6428571,0,0,0.42857134,-3.42854,2.85721)"
       gradientUnits="userSpaceOnUse"
       xlink:href="#linearGradient5747"
       id="linearGradient4362-5"
       y2="39.999001"
       x2="25.058001"
       y1="43.528"
       x1="25.058001" />
    <linearGradient
       gradientUnits="userSpaceOnUse"
       y2="26"
       x2="17"
       y1="29"
       x1="17"
       id="linearGradient4355"
       xlink:href="#linearGradient4215-8-4-07-7"
       gradientTransform="translate(0,-8.1000629)" />
    <linearGradient
       id="linearGradient4215-8-4-07-7">
      <stop
         style="stop-color:#2b3235;stop-opacity:1"
         offset="0"
         id="stop4217-1-2-1-2" />
      <stop
         style="stop-color:#374044;stop-opacity:1"
         offset="1"
         id="stop4219-3-4-0-96" />
    </linearGradient>
    <linearGradient
       gradientTransform="matrix(0.78310514,0,0,0.6235152,-2.8200686,-6.0437253)"
       gradientUnits="userSpaceOnUse"
       xlink:href="#linearGradient3462"
       id="linearGradient3217"
       y2="41.856621"
       x2="27.914288"
       y1="16.188311"
       x1="27.914288" />
    <linearGradient
       id="linearGradient3462">
      <stop
         offset="0"
         style="stop-color:#ffffff;stop-opacity:1"
         id="stop3464" />
      <stop
         offset="0"
         style="stop-color:#ffffff;stop-opacity:0.23529412"
         id="stop3466" />
      <stop
         offset="0.9969551"
         style="stop-color:#ffffff;stop-opacity:0.15686275"
         id="stop3468" />
      <stop
         offset="1"
         style="stop-color:#ffffff;stop-opacity:0.39215687"
         id="stop3470" />
    </linearGradient>
    <linearGradient
       gradientUnits="userSpaceOnUse"
       y2="21.888454"
       x2="12.897974"
       y1="2.4506025"
       x1="12.897974"
       id="linearGradient897"
       xlink:href="#linearGradient895"
       gradientTransform="matrix(1,0,0,1.224884,0,-0.57151945)" />
    <linearGradient
       gradientUnits="userSpaceOnUse"
       y2="21.888454"
       x2="12.897974"
       y1="2.4506025"
       x1="12.897974"
       id="linearGradient897-8"
       xlink:href="#linearGradient913"
       gradientTransform="matrix(1,0,0,1.0959488,0,-0.25163882)" />
    <linearGradient
       gradientUnits="userSpaceOnUse"
       y2="21.888454"
       x2="12.897974"
       y1="2.4506025"
       x1="12.897974"
       id="linearGradient897-8-8"
       xlink:href="#linearGradient895"
       gradientTransform="matrix(-1,0,0,-0.9670137,46.5,23.882244)" />
  </defs>
  <metadata
     id="metadata6441">
    <rdf:RDF>
      <cc:Work
         rdf:about="">
        <dc:format>image/svg+xml</dc:format>
        <dc:type
           rdf:resource="http://purl.org/dc/dcmitype/StillImage" />
        <dc:title></dc:title>
      </cc:Work>
    </rdf:RDF>
  </metadata>
  <g
     transform="translate(0,-0.10006294)"
     id="g4325">
    <rect
       width="3"
       height="2.9999993"
       x="21"
       y="20.000063"
       id="rect2801-0"
       style="opacity:0.4;fill:url(#radialGradient4358-2);fill-opacity:1" />
    <rect
       width="3"
       height="2.9999993"
       x="-3"
       y="-23.000063"
       transform="scale(-1,-1)"
       id="rect3696-08"
       style="opacity:0.4;fill:url(#radialGradient4360-3);fill-opacity:1" />
    <rect
       width="18"
       height="2.9999993"
       x="3"
       y="20.000063"
       id="rect3700-96"
       style="opacity:0.4;fill:url(#linearGradient4362-5);fill-opacity:1" />
  </g>
  <path
     style="color:#000000;display:inline;overflow:visible;visibility:visible;opacity:1;fill:url(#linearGradient897-8);fill-opacity:1;fill-rule:nonzero;stroke:none;stroke-width:1.0468756;marker:none;enable-background:accumulate"
     d="M 2.550781,2.4760005 C 1.968612,2.4760005 1.5,2.9961057 1.5,3.6420161 V 6.4760005 19.476 20.446704 c 0,0.569921 0.255224,1.029297 1.050781,1.029296 H 21.449219 C 22.031388,21.476 22.5,21.016625 22.5,20.446704 V 19.476 6.4760005 3.6420161 c 0,-0.6459104 -0.255224,-1.1660156 -1.050781,-1.1660156 z"
     id="rect5505-21-3-8-5-2-1"
     inkscape:connector-curvature="0" />
  <path
     style="color:#000000;font-style:normal;font-variant:normal;font-weight:normal;font-stretch:normal;font-size:medium;line-height:normal;font-family:sans-serif;text-indent:0;text-align:start;text-decoration:none;text-decoration-line:none;text-decoration-style:solid;text-decoration-color:#000000;letter-spacing:normal;word-spacing:normal;text-transform:none;direction:ltr;block-progression:tb;writing-mode:lr-tb;baseline-shift:baseline;text-anchor:start;white-space:normal;clip-rule:nonzero;display:inline;overflow:visible;visibility:visible;opacity:0.8;isolation:auto;mix-blend-mode:normal;color-interpolation:sRGB;color-interpolation-filters:linearRGB;solid-color:#000000;solid-opacity:1;fill:#0d52bf;fill-opacity:1;fill-rule:nonzero;stroke:none;stroke-width:1;stroke-linecap:round;stroke-linejoin:round;stroke-miterlimit:4;stroke-dasharray:none;stroke-dashoffset:0;stroke-opacity:1;marker:none;color-rendering:auto;image-rendering:auto;shape-rendering:auto;text-rendering:auto;enable-background:accumulate"
     d="M 2.5507812 1.9882812 C 1.6969452 1.9882812 1 2.6982962 1 3.5527344 L 1 18 L 1 20.435547 C 1 21.289985 1.6969453 22 2.5507812 22 L 21.449219 22 C 22.303055 22 23 21.696036 23 20.435547 L 23 18 L 23 3.5527344 C 23 2.6982962 22.303055 1.9882813 21.449219 1.9882812 L 2.5507812 1.9882812 z M 2.5507812 2.9882812 L 21.449219 2.9882812 C 21.759722 2.9882812 22 3.2284494 22 3.5527344 L 22 18 L 22 20.435547 C 22 20.759832 21.759722 21 21.449219 21 L 2.5507812 21 C 2.2402782 21 2 20.759832 2 20.435547 L 2 18 L 2 3.5527344 C 2 3.2284494 2.2402782 2.9882812 2.5507812 2.9882812 z "
     id="rect5505-21-3-8-9-1-1" />
  <path
     d="M 2.4999999,3.5 H 21.5 v 17 H 2.4999999 Z"
     style="opacity:0.3;fill:none;stroke:url(#linearGradient3217);stroke-width:0.99999988;stroke-linecap:round;stroke-linejoin:round;stroke-miterlimit:4;stroke-dashoffset:0;stroke-opacity:1"
     id="rect6741-5-0-2-3"
     inkscape:connector-curvature="0"
     sodipodi:nodetypes="ccccc" />
  <g
     id="g846"
     transform="matrix(0.37500001,0,0,0.37500001,0,-1.1250006)">
    <path
       style="opacity:0.7;fill:#ffffff;fill-opacity:0.58823529;stroke:#ffffff;stroke-width:1px;stroke-linecap:butt;stroke-linejoin:miter;stroke-opacity:1"
       id="path4306"
       d="m 10.543478,52.5 c -1.1320873,0 -2.0434782,0.892001 -2.0434782,2 v 4 H 55.499998 v -4 c 0,-1.107999 -0.91139,-2 -2.043476,-2 z"
       inkscape:connector-curvature="0" />
    <path
       style="color:#000000;display:inline;overflow:visible;visibility:visible;opacity:0.15;fill:#000000;fill-opacity:1;fill-rule:nonzero;stroke:none;stroke-width:1;stroke-linecap:butt;stroke-linejoin:miter;stroke-miterlimit:4;stroke-dasharray:none;stroke-dashoffset:0;stroke-opacity:1;marker:none;enable-background:accumulate"
       id="path3176-4-7"
       d="m 16.677734,48.033203 c -1.723438,0.01293 -3.450127,-0.02592 -5.171875,0.01953 -1.049566,0.09994 -1.629431,1.208223 -1.472656,2.179688 0.0359,1.810501 -0.07236,3.634521 0.05469,5.4375 0.194928,1.010383 1.305241,1.436138 2.234375,1.296875 1.780723,-0.03587 3.574454,0.07232 5.347656,-0.05469 1.010383,-0.194928 1.436138,-1.305241 1.296875,-2.234375 -0.03587,-1.780723 0.07232,-3.574454 -0.05469,-5.347656 -0.194928,-1.010383 -1.305241,-1.436138 -2.234375,-1.296875 z m 12,0 c -1.723438,0.01293 -3.450127,-0.02592 -5.171875,0.01953 -1.049566,0.09994 -1.629431,1.208223 -1.472656,2.179688 0.0359,1.810501 -0.07236,3.634521 0.05469,5.4375 0.194928,1.010383 1.305241,1.436138 2.234375,1.296875 1.780723,-0.03587 3.574454,0.07232 5.347656,-0.05469 1.010383,-0.194928 1.436138,-1.305241 1.296875,-2.234375 -0.03587,-1.780723 0.07232,-3.574454 -0.05469,-5.347656 -0.194928,-1.010383 -1.305241,-1.436138 -2.234375,-1.296875 z m 11,0 c -1.723438,0.01293 -3.450127,-0.02592 -5.171875,0.01953 -1.049566,0.09994 -1.629431,1.208223 -1.472656,2.179688 0.0359,1.810501 -0.07236,3.634521 0.05469,5.4375 0.194928,1.010383 1.305241,1.436138 2.234375,1.296875 1.780723,-0.03587 3.574454,0.07232 5.347656,-0.05469 1.010383,-0.194928 1.436138,-1.305241 1.296875,-2.234375 -0.03587,-1.780723 0.07232,-3.574454 -0.05469,-5.347656 -0.194928,-1.010383 -1.305241,-1.436138 -2.234375,-1.296875 z m 12,0 c -1.723438,0.01293 -3.450127,-0.02592 -5.171875,0.01953 -1.049566,0.09994 -1.629431,1.208223 -1.472656,2.179688 0.0359,1.810501 -0.07236,3.634521 0.05469,5.4375 0.194928,1.010383 1.305241,1.436138 2.234375,1.296875 1.780723,-0.03587 3.574454,0.07232 5.347656,-0.05469 1.010383,-0.194928 1.436138,-1.305241 1.296875,-2.234375 -0.03587,-1.780723 0.07232,-3.574454 -0.05469,-5.347656 -0.194928,-1.010383 -1.305241,-1.436138 -2.234375,-1.296875 z"
       transform="translate(0,-0.99250408)"
       inkscape:connector-curvature="0" />
    <path
       style="color:#000000;display:inline;overflow:visible;visibility:visible;opacity:0.15;fill:#000000;fill-opacity:1;fill-rule:nonzero;stroke:none;stroke-width:1;stroke-linecap:butt;stroke-linejoin:miter;stroke-miterlimit:4;stroke-dasharray:none;stroke-dashoffset:0;stroke-opacity:1;marker:none;enable-background:accumulate"
       d="M 11.697266,47.000001 C 11.310593,47.000001 11,47.399337 11,47.896486 v 7.20703 c 0,0.497152 0.310593,0.896485 0.697266,0.896485 h 5.605468 C 17.689405,56.000001 18,55.600668 18,55.103516 v -7.20703 c 0,-0.497149 -0.310595,-0.896485 -0.697266,-0.896485 z m 12,0 C 23.310593,47.000001 23,47.399337 23,47.896486 v 7.20703 c 0,0.497152 0.310593,0.896485 0.697266,0.896485 h 5.605468 C 29.689405,56.000001 30,55.600668 30,55.103516 v -7.20703 c 0,-0.497149 -0.310595,-0.896485 -0.697266,-0.896485 z m 11,0 C 34.310593,47.000001 34,47.399337 34,47.896486 v 7.20703 c 0,0.497152 0.310593,0.896485 0.697266,0.896485 h 5.605468 C 40.689405,56.000001 41,55.600668 41,55.103516 v -7.20703 c 0,-0.497149 -0.310595,-0.896485 -0.697266,-0.896485 z m 12,0 C 46.310593,47.000001 46,47.399337 46,47.896486 v 7.20703 c 0,0.497152 0.310593,0.896485 0.697266,0.896485 h 5.605468 C 52.689405,56.000001 53,55.600668 53,55.103516 v -7.20703 c 0,-0.497149 -0.310595,-0.896485 -0.697266,-0.896485 z"
       id="path3176-4"
       inkscape:connector-curvature="0" />
    <path
       style="color:#000000;display:inline;overflow:visible;visibility:visible;fill:#f7f7f7;fill-opacity:1;fill-rule:nonzero;stroke:#ffffff;stroke-width:0.98542714;stroke-linecap:butt;stroke-linejoin:miter;stroke-miterlimit:4;stroke-dashoffset:0;stroke-opacity:1;marker:none;enable-background:accumulate"
       d="m 12.091797,48.492188 c -0.332239,0 -0.59961,0.267372 -0.599609,0.599609 v 4.816406 c 0,0.33224 0.26737,0.599609 0.599609,0.599609 h 4.816406 c 0.332237,0 0.59961,-0.267369 0.599609,-0.599609 v -4.816406 c 0,-0.332237 -0.267372,-0.59961 -0.599609,-0.599609 z m 12,0 c -0.332239,0 -0.599609,0.267372 -0.599609,0.599609 v 4.816406 c 0,0.33224 0.26737,0.599609 0.599609,0.599609 h 4.816406 c 0.332237,0 0.59961,-0.267369 0.599609,-0.599609 v -4.816406 c 0,-0.332237 -0.267372,-0.59961 -0.599609,-0.599609 z m 11,0 c -0.332239,0 -0.599609,0.267372 -0.599609,0.599609 v 4.816406 c 0,0.33224 0.26737,0.599609 0.599609,0.599609 h 4.816406 c 0.332237,0 0.59961,-0.267369 0.599609,-0.599609 v -4.816406 c 0,-0.332237 -0.267372,-0.59961 -0.599609,-0.599609 z m 12,0 c -0.332239,0 -0.599609,0.267372 -0.599609,0.599609 v 4.816406 c 0,0.33224 0.26737,0.599609 0.599609,0.599609 h 4.816406 c 0.332237,0 0.59961,-0.267369 0.599609,-0.599609 v -4.816406 c 0,-0.332237 -0.267372,-0.59961 -0.599609,-0.599609 z"
       id="path3176"
       inkscape:connector-curvature="0" />
  </g>
</svg>
