<?xml version="1.0" encoding="UTF-8" standalone="no"?>
<svg
   xmlns:dc="http://purl.org/dc/elements/1.1/"
   xmlns:cc="http://creativecommons.org/ns#"
   xmlns:rdf="http://www.w3.org/1999/02/22-rdf-syntax-ns#"
   xmlns:svg="http://www.w3.org/2000/svg"
   xmlns="http://www.w3.org/2000/svg"
   xmlns:xlink="http://www.w3.org/1999/xlink"
   xmlns:sodipodi="http://sodipodi.sourceforge.net/DTD/sodipodi-0.dtd"
   xmlns:inkscape="http://www.inkscape.org/namespaces/inkscape"
   version="1.0"
   width="128.00006"
   height="128.00006"
   id="svg2453"
   sodipodi:docname="preferences-desktop-wallpaper.svg"
   inkscape:version="0.92.4 5da689c313, 2019-01-14">
  <sodipodi:namedview
     pagecolor="#ffffff"
     bordercolor="#666666"
     borderopacity="1"
     objecttolerance="10"
     gridtolerance="10"
     guidetolerance="10"
     inkscape:pageopacity="0"
     inkscape:pageshadow="2"
     inkscape:window-width="1366"
     inkscape:window-height="717"
     id="namedview70"
     showgrid="false"
     inkscape:zoom="2.607455"
     inkscape:cx="57.082677"
     inkscape:cy="24.685434"
     inkscape:window-x="0"
     inkscape:window-y="25"
     inkscape:window-maximized="1"
     inkscape:current-layer="svg2453" />
  <metadata
     id="metadata35">
    <rdf:RDF>
      <cc:Work
         rdf:about="">
        <dc:format>image/svg+xml</dc:format>
        <dc:type
           rdf:resource="http://purl.org/dc/dcmitype/StillImage" />
        <dc:title></dc:title>
      </cc:Work>
    </rdf:RDF>
  </metadata>
  <defs
     id="defs2455">
    <linearGradient
       id="linearGradient888">
      <stop
         style="stop-color:#64baff;stop-opacity:1"
         offset="0"
         id="stop884" />
      <stop
         style="stop-color:#3689e6;stop-opacity:1"
         offset="1"
         id="stop886" />
    </linearGradient>
    <linearGradient
       id="linearGradient883">
      <stop
         id="stop879"
         offset="0"
         style="stop-color:#64baff;stop-opacity:1" />
      <stop
         id="stop881"
         offset="1"
         style="stop-color:#3689e6;stop-opacity:1" />
    </linearGradient>
    <linearGradient
       id="linearGradient3462">
      <stop
         id="stop3464"
         style="stop-color:#ffffff;stop-opacity:1"
         offset="0" />
      <stop
         id="stop3466"
         style="stop-color:#ffffff;stop-opacity:0.23529412"
         offset="0.02213688" />
      <stop
         id="stop3468"
         style="stop-color:#ffffff;stop-opacity:0.15686275"
         offset="0.9666667" />
      <stop
         id="stop3470"
         style="stop-color:#ffffff;stop-opacity:0.39215687"
         offset="1" />
    </linearGradient>
    <linearGradient
       xlink:href="#linearGradient3462"
       id="linearGradient3133"
       gradientUnits="userSpaceOnUse"
       gradientTransform="matrix(3.1081078,0,0,2.4594594,-10.594599,11.973044)"
       x1="40.290417"
       y1="5.7032928"
       x2="40.290417"
       y2="42.2967" />
    <radialGradient
       xlink:href="#linearGradient888"
       id="radialGradient3136"
       gradientUnits="userSpaceOnUse"
       gradientTransform="matrix(0,21.795969,-33.663904,0,401.68831,-174.34713)"
       cx="7.1183534"
       cy="9.9571075"
       fx="7.1183534"
       fy="9.9571075"
       r="12.671875" />
    <linearGradient
       id="linearGradient4011-9-9-70-61-7">
      <stop
         offset="0"
         style="stop-color:#ffffff;stop-opacity:1;"
         id="stop4013-5-4-3-8-3" />
      <stop
         id="stop4015-1-5-70-9-5"
         style="stop-color:#ffffff;stop-opacity:0.23529412;"
         offset="0.507761" />
      <stop
         offset="0.83456558"
         style="stop-color:#ffffff;stop-opacity:0.15686275;"
         id="stop4017-7-0-13-0-1" />
      <stop
         offset="1"
         style="stop-color:#ffffff;stop-opacity:0.39215687;"
         id="stop4019-1-12-7-0-7" />
    </linearGradient>
    <linearGradient
       id="linearGradient4215-8-4-07-7">
      <stop
         id="stop4217-1-2-1-2"
         offset="0"
         style="stop-color:#2b3235;stop-opacity:1" />
      <stop
         id="stop4219-3-4-0-96"
         offset="1"
         style="stop-color:#374044;stop-opacity:1" />
    </linearGradient>
    <linearGradient
       y2="44.340794"
       x2="71.204407"
       y1="6.2375584"
       x1="71.204407"
       gradientTransform="matrix(-0.37837833,0,0,0.37837833,38.14241,1.4053485)"
       gradientUnits="userSpaceOnUse"
       id="linearGradient14699-5"
       xlink:href="#linearGradient4011-9-9-70-61-7" />
    <linearGradient
       y2="8.0928917"
       x2="38.976662"
       y1="59.967686"
       x1="38.976662"
       gradientTransform="matrix(-0.41176471,0,0,0.41176471,24.17647,-2.9999995)"
       gradientUnits="userSpaceOnUse"
       id="linearGradient14702-5"
       xlink:href="#linearGradient4215-8-4-07-7" />
    <clipPath
       clipPathUnits="userSpaceOnUse"
       id="clipPath10561">
      <rect
         style="opacity:0.4;fill:#ffffff;fill-opacity:1;stroke:none;stroke-width:2;stroke-linecap:round;stroke-linejoin:round;stroke-miterlimit:4;stroke-dasharray:none;stroke-opacity:1"
         id="rect10563"
         width="104"
         height="3"
         x="12"
         y="-111.00006"
         ry="1.5" />
    </clipPath>
    <linearGradient
       id="linearGradient3811">
      <stop
         offset="0"
         style="stop-color:#000000;stop-opacity:1"
         id="stop3813" />
      <stop
         offset="1"
         style="stop-color:#000000;stop-opacity:0"
         id="stop3815" />
    </linearGradient>
    <linearGradient
       id="linearGradient3702-501-757-0">
      <stop
         offset="0"
         style="stop-color:#181818;stop-opacity:0"
         id="stop2895-0" />
      <stop
         offset="0.5"
         style="stop-color:#181818;stop-opacity:1"
         id="stop2897-2" />
      <stop
         offset="1"
         style="stop-color:#181818;stop-opacity:0"
         id="stop2899-6" />
    </linearGradient>
    <linearGradient
       gradientUnits="userSpaceOnUse"
       xlink:href="#linearGradient3702-501-757-0"
       id="linearGradient4097"
       y2="39.999443"
       x2="25.058096"
       y1="47.027729"
       x1="25.058096" />
    <linearGradient
       id="linearGradient3688-464-309-8">
      <stop
         offset="0"
         style="stop-color:#181818;stop-opacity:1"
         id="stop2889-9" />
      <stop
         offset="1"
         style="stop-color:#181818;stop-opacity:0"
         id="stop2891-4" />
    </linearGradient>
    <radialGradient
       gradientTransform="matrix(2.003784,0,0,1.4,-20.01187,-104.4)"
       gradientUnits="userSpaceOnUse"
       xlink:href="#linearGradient3688-464-309-8"
       id="radialGradient4095"
       fy="43.5"
       fx="4.9929786"
       r="2.5"
       cy="43.5"
       cx="4.9929786" />
    <linearGradient
       id="linearGradient3688-166-749-5">
      <stop
         offset="0"
         style="stop-color:#181818;stop-opacity:1"
         id="stop2883-0" />
      <stop
         offset="1"
         style="stop-color:#181818;stop-opacity:0"
         id="stop2885-5" />
    </linearGradient>
    <radialGradient
       gradientTransform="matrix(2.003784,0,0,1.4,27.98813,-17.4)"
       gradientUnits="userSpaceOnUse"
       xlink:href="#linearGradient3688-166-749-5"
       id="radialGradient4093"
       fy="43.5"
       fx="4.9929786"
       r="2.5"
       cy="43.5"
       cx="4.9929786" />
    <radialGradient
       xlink:href="#linearGradient3811"
       id="radialGradient5448"
       gradientUnits="userSpaceOnUse"
       gradientTransform="matrix(1.7403296,0,0,0.16978827,71.011392,101.13029)"
       cx="-4.0287771"
       cy="93.467628"
       fx="-4.0287771"
       fy="93.467628"
       r="35.338131" />
    <linearGradient
       gradientUnits="userSpaceOnUse"
       y2="116.88945"
       x2="84.899765"
       y1="24.768591"
       x1="84.899765"
       id="linearGradient885"
       xlink:href="#linearGradient883" />
    <linearGradient
       inkscape:collect="always"
       xlink:href="#linearGradient883"
       id="linearGradient890"
       gradientUnits="userSpaceOnUse"
       x1="84.899765"
       y1="24.768591"
       x2="84.899765"
       y2="116.88945" />
  </defs>
  <path
     style="color:#000000;display:inline;overflow:visible;visibility:visible;opacity:0.9;fill:url(#radialGradient3136);fill-opacity:1;fill-rule:nonzero;stroke:none;stroke-width:0.99999994;marker:none;enable-background:accumulate"
     d="m 5.5,102 0,11.5 c 0,2.216 1.784,4 4,4 l 109,0 c 2.216,0 4,-1.784 4,-4 l 0,-11.5 z"
     id="rect5505-21-3-8-5-2" />
  <path
     style="color:#000000;display:inline;overflow:visible;visibility:visible;opacity:1;fill:url(#linearGradient890);fill-opacity:1;fill-rule:nonzero;stroke:none;stroke-width:0.99999994;marker:none;enable-background:accumulate"
     d="m 9.5,24.5 c -2.216,0 -4,1.784 -4,4 v 73.5 0 11.5 c 0,1.662 1.338,3 3,3 h 111 c 1.662,0 3,-1.338 3,-3 V 102 102 28.5 c 0,-2.216 -1.784,-4 -4,-4 z"
     id="rect4310"
     inkscape:connector-curvature="0"
     sodipodi:nodetypes="ssccssssccsss" />
  <path
     style="color:#000000;font-style:normal;font-variant:normal;font-weight:normal;font-stretch:normal;font-size:medium;line-height:normal;font-family:sans-serif;text-indent:0;text-align:start;text-decoration:none;text-decoration-line:none;text-decoration-style:solid;text-decoration-color:#000000;letter-spacing:normal;word-spacing:normal;text-transform:none;direction:ltr;block-progression:tb;writing-mode:lr-tb;baseline-shift:baseline;text-anchor:start;white-space:normal;clip-rule:nonzero;display:inline;overflow:visible;visibility:visible;opacity:0.5;isolation:auto;mix-blend-mode:normal;color-interpolation:sRGB;color-interpolation-filters:linearRGB;solid-color:#000000;solid-opacity:1;fill:#002e99;fill-opacity:1;fill-rule:nonzero;stroke:none;stroke-width:1;stroke-linecap:round;stroke-linejoin:round;stroke-miterlimit:4;stroke-dasharray:none;stroke-dashoffset:0;stroke-opacity:1;marker:none;color-rendering:auto;image-rendering:auto;shape-rendering:auto;text-rendering:auto;enable-background:accumulate"
     d="m 5,102 0,11.5 c 0,2.48435 2.0156486,4.5 4.5,4.5 l 109,0 c 2.48435,0 4.5,-2.01565 4.5,-4.5 l 0,-11.5 -1,0 0,11.5 c 0,1.94765 -1.55235,3.5 -3.5,3.5 l -109,0 C 7.5523514,117 6,115.44765 6,113.5 L 6,102 Z"
     id="rect5505-21-3-8-9-1-1" />
  <path
     style="color:#000000;font-style:normal;font-variant:normal;font-weight:normal;font-stretch:normal;font-size:medium;line-height:normal;font-family:sans-serif;text-indent:0;text-align:start;text-decoration:none;text-decoration-line:none;text-decoration-style:solid;text-decoration-color:#000000;letter-spacing:normal;word-spacing:normal;text-transform:none;direction:ltr;block-progression:tb;writing-mode:lr-tb;baseline-shift:baseline;text-anchor:start;white-space:normal;clip-rule:nonzero;display:inline;overflow:visible;visibility:visible;opacity:0.5;isolation:auto;mix-blend-mode:normal;color-interpolation:sRGB;color-interpolation-filters:linearRGB;solid-color:#000000;solid-opacity:1;fill:#002e99;fill-opacity:1;fill-rule:nonzero;stroke:none;stroke-width:1;stroke-linecap:round;stroke-linejoin:round;stroke-miterlimit:4;stroke-dasharray:none;stroke-dashoffset:0;stroke-opacity:1;marker:none;color-rendering:auto;image-rendering:auto;shape-rendering:auto;text-rendering:auto;enable-background:accumulate"
     d="M 9.5,24 C 7.0156486,24 5,26.015649 5,28.5 L 5,102 6,102 6,28.5 C 6,26.552351 7.5523514,25 9.5,25 l 109,0 c 1.94765,0 3.5,1.552351 3.5,3.5 l 0,73.5 1,0 0,-73.5 c 0,-2.484351 -2.01565,-4.5 -4.5,-4.5 z"
     id="rect4320" />
  <path
     d="M 125.5,117 A 61.500002,6.0000004 0 0 1 2.4999976,117 61.500002,6.0000004 0 1 1 125.5,117 z"
     id="path3041"
     style="opacity:0.2;color:#000000;fill:url(#radialGradient5448);fill-opacity:1;fill-rule:nonzero;stroke:none;stroke-width:1;marker:none;visibility:visible;display:inline;overflow:visible;enable-background:accumulate" />
  <g
     transform="matrix(3.0249988,0,0,0.55555607,-8.6000014,93.888881)"
     id="g2036"
     style="display:inline">
    <g
       transform="matrix(1.052632,0,0,1.285713,-1.263158,-13.42854)"
       id="g3712"
       style="opacity:0.4">
      <rect
         width="5"
         height="7"
         x="38"
         y="40"
         id="rect2801-5"
         style="fill:url(#radialGradient4093);fill-opacity:1;stroke:none" />
      <rect
         width="5"
         height="7"
         x="-10"
         y="-47"
         transform="scale(-1,-1)"
         id="rect3696-7"
         style="fill:url(#radialGradient4095);fill-opacity:1;stroke:none" />
      <rect
         width="28"
         height="7.0000005"
         x="10"
         y="40"
         id="rect3700-7"
         style="fill:url(#linearGradient4097);fill-opacity:1;stroke:none" />
    </g>
  </g>
  <g
     id="g858"
     transform="matrix(2.0000001,0,0,2.0000001,-3.9999998e-7,5.5135156e-5)">
    <path
       style="opacity:0.5;fill:#ffffff;fill-opacity:0.58823529;stroke:#ffffff;stroke-width:1px;stroke-linecap:butt;stroke-linejoin:miter;stroke-opacity:1"
       id="path4306"
       d="m 10.543478,52.5 c -1.1320873,0 -2.0434782,0.892001 -2.0434782,2 v 4 H 55.499998 v -4 c 0,-1.107999 -0.91139,-2 -2.043476,-2 z"
       inkscape:connector-curvature="0" />
    <path
       style="color:#000000;display:inline;overflow:visible;visibility:visible;opacity:0.15;fill:#000000;fill-opacity:1;fill-rule:nonzero;stroke:none;stroke-width:1;stroke-linecap:butt;stroke-linejoin:miter;stroke-miterlimit:4;stroke-dasharray:none;stroke-dashoffset:0;stroke-opacity:1;marker:none;enable-background:accumulate"
       id="path3176-4-7"
       d="m 16.677734,48.033203 c -1.723438,0.01293 -3.450127,-0.02592 -5.171875,0.01953 -1.049566,0.09994 -1.629431,1.208223 -1.472656,2.179688 0.0359,1.810501 -0.07236,3.634521 0.05469,5.4375 0.194928,1.010383 1.305241,1.436138 2.234375,1.296875 1.780723,-0.03587 3.574454,0.07232 5.347656,-0.05469 1.010383,-0.194928 1.436138,-1.305241 1.296875,-2.234375 -0.03587,-1.780723 0.07232,-3.574454 -0.05469,-5.347656 -0.194928,-1.010383 -1.305241,-1.436138 -2.234375,-1.296875 z m 12,0 c -1.723438,0.01293 -3.450127,-0.02592 -5.171875,0.01953 -1.049566,0.09994 -1.629431,1.208223 -1.472656,2.179688 0.0359,1.810501 -0.07236,3.634521 0.05469,5.4375 0.194928,1.010383 1.305241,1.436138 2.234375,1.296875 1.780723,-0.03587 3.574454,0.07232 5.347656,-0.05469 1.010383,-0.194928 1.436138,-1.305241 1.296875,-2.234375 -0.03587,-1.780723 0.07232,-3.574454 -0.05469,-5.347656 -0.194928,-1.010383 -1.305241,-1.436138 -2.234375,-1.296875 z m 11,0 c -1.723438,0.01293 -3.450127,-0.02592 -5.171875,0.01953 -1.049566,0.09994 -1.629431,1.208223 -1.472656,2.179688 0.0359,1.810501 -0.07236,3.634521 0.05469,5.4375 0.194928,1.010383 1.305241,1.436138 2.234375,1.296875 1.780723,-0.03587 3.574454,0.07232 5.347656,-0.05469 1.010383,-0.194928 1.436138,-1.305241 1.296875,-2.234375 -0.03587,-1.780723 0.07232,-3.574454 -0.05469,-5.347656 -0.194928,-1.010383 -1.305241,-1.436138 -2.234375,-1.296875 z m 12,0 c -1.723438,0.01293 -3.450127,-0.02592 -5.171875,0.01953 -1.049566,0.09994 -1.629431,1.208223 -1.472656,2.179688 0.0359,1.810501 -0.07236,3.634521 0.05469,5.4375 0.194928,1.010383 1.305241,1.436138 2.234375,1.296875 1.780723,-0.03587 3.574454,0.07232 5.347656,-0.05469 1.010383,-0.194928 1.436138,-1.305241 1.296875,-2.234375 -0.03587,-1.780723 0.07232,-3.574454 -0.05469,-5.347656 -0.194928,-1.010383 -1.305241,-1.436138 -2.234375,-1.296875 z"
       transform="translate(0,-0.99250408)"
       inkscape:connector-curvature="0" />
    <path
       style="color:#000000;display:inline;overflow:visible;visibility:visible;opacity:0.15;fill:#000000;fill-opacity:1;fill-rule:nonzero;stroke:none;stroke-width:1;stroke-linecap:butt;stroke-linejoin:miter;stroke-miterlimit:4;stroke-dasharray:none;stroke-dashoffset:0;stroke-opacity:1;marker:none;enable-background:accumulate"
       d="M 11.697266,47.000001 C 11.310593,47.000001 11,47.399337 11,47.896486 v 7.20703 c 0,0.497152 0.310593,0.896485 0.697266,0.896485 h 5.605468 C 17.689405,56.000001 18,55.600668 18,55.103516 v -7.20703 c 0,-0.497149 -0.310595,-0.896485 -0.697266,-0.896485 z m 12,0 C 23.310593,47.000001 23,47.399337 23,47.896486 v 7.20703 c 0,0.497152 0.310593,0.896485 0.697266,0.896485 h 5.605468 C 29.689405,56.000001 30,55.600668 30,55.103516 v -7.20703 c 0,-0.497149 -0.310595,-0.896485 -0.697266,-0.896485 z m 11,0 C 34.310593,47.000001 34,47.399337 34,47.896486 v 7.20703 c 0,0.497152 0.310593,0.896485 0.697266,0.896485 h 5.605468 C 40.689405,56.000001 41,55.600668 41,55.103516 v -7.20703 c 0,-0.497149 -0.310595,-0.896485 -0.697266,-0.896485 z m 12,0 C 46.310593,47.000001 46,47.399337 46,47.896486 v 7.20703 c 0,0.497152 0.310593,0.896485 0.697266,0.896485 h 5.605468 C 52.689405,56.000001 53,55.600668 53,55.103516 v -7.20703 c 0,-0.497149 -0.310595,-0.896485 -0.697266,-0.896485 z"
       id="path3176-4"
       inkscape:connector-curvature="0" />
    <path
       style="color:#000000;display:inline;overflow:visible;visibility:visible;fill:#f7f7f7;fill-opacity:1;fill-rule:nonzero;stroke:#ffffff;stroke-width:0.98542714;stroke-linecap:butt;stroke-linejoin:miter;stroke-miterlimit:4;stroke-dashoffset:0;stroke-opacity:1;marker:none;enable-background:accumulate"
       d="m 12.091797,48.492188 c -0.332239,0 -0.59961,0.267372 -0.599609,0.599609 v 4.816406 c 0,0.33224 0.26737,0.599609 0.599609,0.599609 h 4.816406 c 0.332237,0 0.59961,-0.267369 0.599609,-0.599609 v -4.816406 c 0,-0.332237 -0.267372,-0.59961 -0.599609,-0.599609 z m 12,0 c -0.332239,0 -0.599609,0.267372 -0.599609,0.599609 v 4.816406 c 0,0.33224 0.26737,0.599609 0.599609,0.599609 h 4.816406 c 0.332237,0 0.59961,-0.267369 0.599609,-0.599609 v -4.816406 c 0,-0.332237 -0.267372,-0.59961 -0.599609,-0.599609 z m 11,0 c -0.332239,0 -0.599609,0.267372 -0.599609,0.599609 v 4.816406 c 0,0.33224 0.26737,0.599609 0.599609,0.599609 h 4.816406 c 0.332237,0 0.59961,-0.267369 0.599609,-0.599609 v -4.816406 c 0,-0.332237 -0.267372,-0.59961 -0.599609,-0.599609 z m 12,0 c -0.332239,0 -0.599609,0.267372 -0.599609,0.599609 v 4.816406 c 0,0.33224 0.26737,0.599609 0.599609,0.599609 h 4.816406 c 0.332237,0 0.59961,-0.267369 0.599609,-0.599609 v -4.816406 c 0,-0.332237 -0.267372,-0.59961 -0.599609,-0.599609 z"
       id="path3176"
       inkscape:connector-curvature="0" />
  </g>
</svg>
