<?xml version="1.0" encoding="UTF-8" standalone="no"?>
<svg
   xmlns:dc="http://purl.org/dc/elements/1.1/"
   xmlns:cc="http://creativecommons.org/ns#"
   xmlns:rdf="http://www.w3.org/1999/02/22-rdf-syntax-ns#"
   xmlns:svg="http://www.w3.org/2000/svg"
   xmlns="http://www.w3.org/2000/svg"
   xmlns:xlink="http://www.w3.org/1999/xlink"
   xmlns:sodipodi="http://sodipodi.sourceforge.net/DTD/sodipodi-0.dtd"
   xmlns:inkscape="http://www.inkscape.org/namespaces/inkscape"
   version="1.1"
   width="128"
   height="128"
   id="svg3767"
   sodipodi:docname="atom-beta.svg"
   inkscape:version="0.92.4 5da689c313, 2019-01-14">
  <sodipodi:namedview
     pagecolor="#ffffff"
     bordercolor="#666666"
     borderopacity="1"
     objecttolerance="10"
     gridtolerance="10"
     guidetolerance="10"
     inkscape:pageopacity="0"
     inkscape:pageshadow="2"
     inkscape:window-width="1366"
     inkscape:window-height="743"
     id="namedview26"
     showgrid="true"
     inkscape:zoom="1.3037281"
     inkscape:cx="53.254267"
     inkscape:cy="110.47585"
     inkscape:window-x="0"
     inkscape:window-y="-1"
     inkscape:window-maximized="1"
     inkscape:current-layer="svg3767">
    <inkscape:grid
       type="xygrid"
       id="grid839" />
  </sodipodi:namedview>
  <defs
     id="defs3769">
    <linearGradient
       id="linearGradient4011">
      <stop
         id="stop4013"
         style="stop-color:#ffffff;stop-opacity:1"
         offset="0" />
      <stop
         id="stop4015"
         style="stop-color:#ffffff;stop-opacity:0.23529412"
         offset="0.507761" />
      <stop
         id="stop4017"
         style="stop-color:#ffffff;stop-opacity:0.15686275"
         offset="0.83456558" />
      <stop
         id="stop4019"
         style="stop-color:#ffffff;stop-opacity:0.39215687"
         offset="1" />
    </linearGradient>
    <radialGradient
       xlink:href="#linearGradient3820-7-2-8-6"
       id="radialGradient3163"
       gradientUnits="userSpaceOnUse"
       gradientTransform="matrix(0.6869404,0,0,0.21461693,-4.02174,68.573331)"
       cx="99.157013"
       cy="186.17059"
       fx="99.157013"
       fy="186.17059"
       r="62.769119" />
    <linearGradient
       id="linearGradient3820-7-2-8-6">
      <stop
         id="stop3822-2-6-5-0"
         style="stop-color:#3d3d3d;stop-opacity:1"
         offset="0" />
      <stop
         id="stop3864-8-7-4-1"
         style="stop-color:#686868;stop-opacity:0.49803922"
         offset="0.5" />
      <stop
         id="stop3824-1-2-6-7"
         style="stop-color:#686868;stop-opacity:0"
         offset="1" />
    </linearGradient>
    <linearGradient
       gradientTransform="matrix(2.756758,0,0,2.7567581,-133.25196,-3.4037532)"
       gradientUnits="userSpaceOnUse"
       xlink:href="#linearGradient4011"
       id="linearGradient12398-3"
       y2="44.340794"
       x2="71.204407"
       y1="6.2375584"
       x1="71.204407" />
    <linearGradient
       gradientTransform="matrix(3.9856238,0,0,2.9796368,-8061.465,-9541.5171)"
       gradientUnits="userSpaceOnUse"
       xlink:href="#linearGradient27416-1-5"
       id="linearGradient11527-6-5-3"
       y2="3241.9966"
       x2="2035.1652"
       y1="3208.0737"
       x1="2035.1652" />
    <linearGradient
       id="linearGradient27416-1-5">
      <stop
         offset="0"
         style="stop-color:#ffe16b;stop-opacity:1"
         id="stop27420-2-2" />
      <stop
         offset="1"
         style="stop-color:#f9c440;stop-opacity:1"
         id="stop27422-3-2" />
    </linearGradient>
  </defs>
  <metadata
     id="metadata3772">
    <rdf:RDF>
      <cc:Work
         rdf:about="">
        <dc:format>image/svg+xml</dc:format>
        <dc:type
           rdf:resource="http://purl.org/dc/dcmitype/StillImage" />
        <dc:title></dc:title>
      </cc:Work>
    </rdf:RDF>
  </metadata>
  <path
     style="fill:url(#radialGradient3163);fill-opacity:1;stroke:none"
     id="path3818-0-5-0"
     d="m 107.21186,108.52868 a 43.118644,13.471312 0 1 1 -86.237286,0 43.118644,13.471312 0 1 1 86.237286,0 z" />
  <path
     d="M 64.499995,14.499998 C 35.808172,14.499998 12.5,37.808182 12.5,66.499999 12.5,95.191816 35.808172,118.5 64.499995,118.5 93.191814,118.5 116.50005,95.191816 116.5,66.499999 116.5,37.808182 93.191814,14.499998 64.499995,14.499998 Z"
     id="path2555-7-8-5-0-9-5"
     style="color:#000000;display:inline;overflow:visible;visibility:visible;opacity:0.98999999;fill:url(#linearGradient11527-6-5-3);fill-opacity:1;fill-rule:nonzero;stroke:none;stroke-width:1.95238054;marker:none;enable-background:accumulate" />
  <path
     d="m 115.5,66.498172 c 0,28.167477 -22.835193,51.001848 -50.99938,51.001848 -28.166783,0 -51.000617,-22.834639 -51.000617,-51.001848 0,-28.166134 22.833834,-50.998201 51.000617,-50.998201 28.164187,0 50.99938,22.832067 50.99938,50.998201 z"
     id="path8655-6-0-9-5-0"
     style="color:#000000;display:inline;overflow:visible;visibility:visible;opacity:0.5;fill:none;stroke:url(#linearGradient12398-3);stroke-width:0.99999988;stroke-linecap:round;stroke-linejoin:round;stroke-miterlimit:4;stroke-dasharray:none;stroke-dashoffset:0;stroke-opacity:1;marker:none;enable-background:accumulate" />
  <path
     d="M 64.50001,14.499989 C 35.808202,14.499989 12.5,37.808184 12.5,66.499992 12.5,95.191799 35.808202,118.5 64.50001,118.5 93.191814,118.5 116.50003,95.191799 116.5,66.499992 116.5,37.808184 93.191814,14.499988 64.50001,14.499989 Z"
     id="path2555-4"
     style="color:#000000;display:inline;overflow:visible;visibility:visible;opacity:0.5;vector-effect:none;fill:none;fill-opacity:1;stroke:#ad5f00;stroke-width:0.99999988;stroke-linecap:round;stroke-linejoin:round;stroke-miterlimit:4;stroke-dasharray:none;stroke-dashoffset:0;stroke-opacity:1;marker:none;enable-background:accumulate;clip-rule:nonzero;isolation:auto;mix-blend-mode:normal;color-interpolation:sRGB;color-interpolation-filters:linearRGB;solid-color:#000000;solid-opacity:1;fill-rule:nonzero;filter-blend-mode:normal;filter-gaussianBlur-deviation:0;color-rendering:auto;image-rendering:auto;shape-rendering:auto;text-rendering:auto;font-variation-settings:normal" />
  <path
     inkscape:connector-curvature="0"
     d="m 53.256676,39.004269 c -0.682918,-0.0223 -1.328921,0.04284 -1.758055,0.18796 -2.09951,0.724406 -3.416898,2.28293 -4.145961,4.884569 -0.629852,2.26691 -0.613702,6.346603 0.04614,9.896916 0.11536,0.616554 0.233024,1.175924 0.260706,1.26757 0.0346,0.12852 -0.1892,0.206194 -1.181264,0.433262 -4.851945,1.113895 -8.393429,2.775615 -10.522934,4.932435 -0.955162,0.960227 -1.485808,1.799191 -1.79266,2.860373 -0.216864,0.735764 -0.216864,2.193514 0,2.917735 0.595246,1.996632 2.272549,3.869026 4.921163,5.528507 1.838804,1.141464 2.387906,1.269806 2.983152,0.671504 0.27916,-0.279598 0.34146,-0.414824 0.34146,-0.751786 0,-0.650828 -0.19842,-0.91682 -1.0636,-1.414167 -5.426429,-3.07141 -6.381593,-6.151767 -2.75705,-8.890867 1.838804,-1.386599 4.411282,-2.484473 7.872011,-3.334799 1.515803,-0.371424 1.857263,-0.41948 1.857263,-0.220176 0,0.27048 1.116666,3.862131 1.693458,5.411527 l 0.595246,1.620548 -0.784432,1.526491 c -3.135431,6.089923 -5.147267,12.296636 -5.389519,16.837163 -0.19842,3.499831 0.431436,6.002752 1.965694,7.552142 1.674993,1.68687 4.037527,2.04917 7.073742,1.07031 1.144342,-0.37123 3.416894,-1.53338 4.741207,-2.43865 0.955162,-0.6417 1.167418,-0.83207 1.294312,-1.16885 0.12688,-0.336959 0.12688,-0.444813 0,-0.797793 -0.1892,-0.527144 -0.58602,-0.82276 -1.125894,-0.82276 -0.350686,0 -0.592938,0.11178 -1.495037,0.728882 -2.046448,1.395911 -3.966002,2.266721 -5.560243,2.537191 -2.20795,0.38054 -3.622241,-0.59812 -4.272855,-2.917741 -0.27916,-1.006048 -0.263032,-4.230947 0.04616,-5.899555 0.46835,-2.654167 1.287393,-5.409109 2.459435,-8.308406 0.69445,-1.721318 2.018756,-4.607021 2.198714,-4.795153 0.09002,-0.10058 0.207636,0.0615 0.505266,0.751972 1.515803,3.424207 3.829879,7.604858 6.0932,10.98548 5.401057,8.061034 11.311984,13.305293 15.866311,14.057263 h -0.04844 c 2.000302,0.32542 3.691447,-0.17138 4.997299,-1.48551 1.06359,-1.08875 1.76497,-2.6197 2.16411,-4.749143 0.24225,-1.33165 0.24225,-5.063013 0,-6.875985 -0.7383,-5.42959 -2.70861,-11.647853 -5.654845,-17.84805 -0.459122,-0.969536 -0.715218,-1.207774 -1.310462,-1.207774 -0.666768,0 -1.206642,0.506464 -1.206642,1.159718 0,0.226862 0.226092,0.838962 0.604472,1.64793 3.631465,7.78387 5.583317,15.315337 5.384897,20.765797 -0.12226,3.245387 -0.92747,5.202897 -2.452498,5.954687 -0.800585,0.39638 -1.815735,0.38278 -3.149271,-0.0521 C 67.427249,89.129456 59.135329,78.707625 53.791958,66.381185 L 53.261312,65.150312 54.036514,63.8209 c 0.874414,-1.512702 3.082362,-4.893509 4.099819,-6.280105 l 0.685222,-0.921477 h 1.8065 c 10.954378,0 21.795706,2.491367 27.545136,6.30767 1.17204,0.779356 2.58632,2.202642 3.01084,3.034716 0.30685,0.579861 0.33454,0.733349 0.33454,1.503577 0,0.754024 -0.0277,0.93526 -0.27916,1.39591 -0.70368,1.359212 -2.55864,2.771143 -4.94885,3.777189 -1.10743,0.46996 -1.40506,0.781588 -1.40506,1.423478 0,0.543164 0.353,0.996918 0.88364,1.159716 0.34377,0.10058 0.45913,0.08196 1.07283,-0.16018 3.85757,-1.533376 6.50849,-3.914844 7.04836,-6.325927 0.15226,-0.651204 0.14304,-1.87742 -0.009,-2.51223 -0.28839,-1.244657 -1.31969,-2.837639 -2.50095,-3.907949 -5.26492,-4.749151 -16.431555,-7.811248 -29.681552,-8.129956 l -0.945936,-0.02808 1.107436,-1.249126 c 0.595333,-0.698978 1.654321,-1.858695 2.383377,-2.601357 3.767585,-3.850587 7.267543,-6.371753 10.324526,-7.421567 0.973616,-0.344041 1.169724,-0.385207 2.180261,-0.385207 0.93901,0 1.16742,0.02808 1.573478,0.238438 0.55142,0.261333 1.16973,0.905455 1.48812,1.512883 0.62062,1.242236 0.83057,3.419739 0.53064,5.739177 -0.0992,0.797612 -0.17994,1.71909 -0.17994,2.037612 0,0.536273 0.018,0.618789 0.32531,0.882361 0.25151,0.236182 0.42221,0.295798 0.74752,0.295798 0.52372,0 1.00823,-0.277366 1.15357,-0.657904 0.43144,-1.123025 0.65754,-5.104372 0.37838,-6.782108 -0.43367,-2.576108 -1.53187,-4.316059 -3.2807,-5.157255 -3.091588,-1.503576 -7.581317,-0.03166 -12.820865,4.190145 -2.738592,2.211778 -6.349291,5.963823 -8.836405,9.168046 l -0.242249,0.286484 -1.469664,0.08568 c -1.234322,0.0708 -3.243856,0.27048 -5.578697,0.550054 l -0.505324,0.06148 -0.221494,-1.240004 c -0.422128,-2.473113 -0.454432,-2.844353 -0.454432,-5.209801 0,-2.076543 0.02766,-2.475345 0.226092,-3.307229 0.486812,-2.10187 1.451204,-3.408561 2.722446,-3.679025 1.748827,-0.371236 3.919859,0.506656 6.967612,2.780453 0.973622,0.735768 2.159498,0.10802 2.014146,-1.05205 -0.06228,-0.506633 -0.526026,-0.942133 -2.076436,-1.982639 -1.298928,-0.880314 -2.757051,-1.604532 -3.947543,-1.957514 -0.586018,-0.17696 -1.308156,-0.274938 -1.99108,-0.295612 z m 2.33023,17.839112 c 0,0.04656 -0.412988,0.689944 -0.927478,1.450858 -0.514498,0.75179 -1.243562,1.85879 -1.621936,2.484476 -0.36914,0.607428 -0.731365,1.159907 -0.802889,1.240001 -0.0992,0.10802 -0.244548,-0.18066 -0.685222,-1.592983 -0.629852,-1.948202 -0.899792,-2.997836 -0.819042,-3.089482 0.13382,-0.13786 4.856567,-0.630339 4.856567,-0.49287 z m 9.565466,7.368853 a 3.4607343,3.4380533 0 0 0 -3.460735,3.438179 3.4607343,3.4380533 0 0 0 3.460735,3.437993 3.4607343,3.4380533 0 0 0 3.460733,-3.437993 3.4607343,3.4380533 0 0 0 -3.460733,-3.438179 z"
     style="display:inline;opacity:0.5;fill:#ffffff;fill-opacity:1;stroke-width:2.90264559"
     id="path29-1-4-3" />
  <path
     inkscape:connector-curvature="0"
     d="m 53.256676,38.00427 c -0.682918,-0.0223 -1.328921,0.04284 -1.758055,0.18796 -2.09951,0.724406 -3.416898,2.28293 -4.145961,4.884569 -0.629852,2.26691 -0.613702,6.346603 0.04614,9.896916 0.11536,0.616554 0.233024,1.175924 0.260706,1.26757 0.0346,0.12852 -0.1892,0.206194 -1.181264,0.433262 -4.851945,1.113895 -8.393429,2.775615 -10.522934,4.932435 -0.955162,0.960227 -1.485808,1.799191 -1.79266,2.860373 -0.216864,0.735764 -0.216864,2.193514 0,2.917735 0.595246,1.996632 2.272549,3.869026 4.921163,5.528507 1.838804,1.141464 2.387906,1.269806 2.983152,0.671504 0.27916,-0.279598 0.34146,-0.414824 0.34146,-0.751786 0,-0.650828 -0.19842,-0.91682 -1.0636,-1.414167 -5.426429,-3.07141 -6.381593,-6.151767 -2.75705,-8.890867 1.838804,-1.386599 4.411282,-2.484473 7.872011,-3.334799 1.515803,-0.371424 1.857263,-0.41948 1.857263,-0.220176 0,0.27048 1.116666,3.862131 1.693458,5.411527 l 0.595246,1.620548 -0.784432,1.526491 c -3.135431,6.089923 -5.147267,12.296636 -5.389519,16.837163 -0.19842,3.499831 0.431436,6.002748 1.965694,7.552146 1.674993,1.686862 4.037527,2.049162 7.073742,1.070306 1.144342,-0.371232 3.416894,-1.533376 4.741207,-2.438648 0.955162,-0.641705 1.167418,-0.832069 1.294312,-1.168849 0.12688,-0.336962 0.12688,-0.444816 0,-0.797796 -0.1892,-0.527144 -0.58602,-0.82276 -1.125894,-0.82276 -0.350686,0 -0.592938,0.11178 -1.495037,0.728882 -2.046448,1.39591 -3.966002,2.266723 -5.560243,2.537191 -2.20795,0.380544 -3.622241,-0.598118 -4.272855,-2.917741 -0.27916,-1.006048 -0.263032,-4.230947 0.04616,-5.899555 0.46835,-2.654167 1.287393,-5.409109 2.459435,-8.308406 0.69445,-1.721318 2.018756,-4.607021 2.198714,-4.795153 0.09002,-0.10058 0.207636,0.0615 0.505266,0.751972 1.515803,3.424207 3.829879,7.604858 6.0932,10.98548 5.401057,8.061034 11.311984,13.305289 15.866311,14.057263 h -0.04844 c 2.000302,0.325417 3.691447,-0.17138 4.997297,-1.485506 1.063597,-1.08875 1.764977,-2.619704 2.164113,-4.749147 0.242248,-1.33165 0.242248,-5.063013 0,-6.875985 -0.738296,-5.42959 -2.708609,-11.647853 -5.654846,-17.84805 -0.459122,-0.969536 -0.715218,-1.207774 -1.310462,-1.207774 -0.666768,0 -1.206642,0.506464 -1.206642,1.159718 0,0.226862 0.226092,0.838962 0.604472,1.64793 3.631465,7.78387 5.583319,15.315337 5.384901,20.765797 -0.12226,3.245386 -0.927472,5.202899 -2.452502,5.954685 -0.800585,0.396384 -1.815735,0.382784 -3.149271,-0.05214 C 67.427249,88.129452 59.135329,77.707626 53.791958,65.381186 l -0.530646,-1.230873 0.775202,-1.329412 c 0.874414,-1.512702 3.082362,-4.893509 4.099819,-6.280105 l 0.685222,-0.921477 h 1.8065 c 10.954378,0 21.795705,2.491367 27.545141,6.30767 1.172038,0.779356 2.58632,2.202642 3.010838,3.034716 0.306848,0.579861 0.334538,0.733349 0.334538,1.503577 0,0.754024 -0.02766,0.93526 -0.279158,1.39591 -0.703686,1.359212 -2.558642,2.771143 -4.948853,3.777189 -1.107434,0.46996 -1.405056,0.781588 -1.405056,1.423478 0,0.543164 0.352992,0.996918 0.88364,1.159716 0.343764,0.10058 0.459122,0.08196 1.072826,-0.16018 3.857567,-1.533376 6.508486,-3.914844 7.04836,-6.325927 0.15226,-0.651204 0.14304,-1.87742 -0.0094,-2.51223 C 93.592543,63.978581 92.561243,62.385599 91.37998,61.315289 86.115057,56.566138 74.948426,53.504041 61.698429,53.185333 l -0.945936,-0.02808 1.107436,-1.249126 c 0.595333,-0.698978 1.654321,-1.858695 2.383377,-2.601357 3.767585,-3.850587 7.267543,-6.371753 10.324526,-7.421567 0.973616,-0.344041 1.169724,-0.385207 2.180261,-0.385207 0.93901,0 1.16742,0.02808 1.57348,0.238438 0.551414,0.261333 1.169726,0.905455 1.488117,1.512883 0.620624,1.242236 0.830576,3.419739 0.530644,5.739177 -0.09922,0.797612 -0.17994,1.71909 -0.17994,2.037612 0,0.536273 0.018,0.618789 0.32531,0.882361 0.251504,0.236182 0.42221,0.295798 0.747516,0.295798 0.523724,0 1.008228,-0.277366 1.153576,-0.657904 0.431438,-1.123025 0.657535,-5.104372 0.378372,-6.782108 -0.433664,-2.576108 -1.53187,-4.316059 -3.280693,-5.157255 -3.091592,-1.503576 -7.581321,-0.03166 -12.820869,4.190145 -2.738592,2.211778 -6.349291,5.963823 -8.836405,9.168046 l -0.242249,0.286484 -1.469664,0.08568 c -1.234322,0.0708 -3.243856,0.27048 -5.578697,0.550054 l -0.505324,0.06148 -0.221494,-1.240004 c -0.422128,-2.473113 -0.454432,-2.844353 -0.454432,-5.209801 0,-2.076543 0.02766,-2.475345 0.226092,-3.307229 0.486812,-2.10187 1.451204,-3.408561 2.722446,-3.679025 1.748827,-0.371236 3.919859,0.506656 6.967612,2.780453 0.973622,0.735768 2.159498,0.10802 2.014146,-1.05205 -0.06228,-0.506633 -0.526026,-0.942133 -2.076436,-1.982639 -1.298928,-0.880314 -2.757051,-1.604532 -3.947543,-1.957514 -0.586018,-0.17696 -1.308156,-0.274938 -1.99108,-0.295612 z m 2.33023,17.839112 c 0,0.04656 -0.412988,0.689944 -0.927478,1.450858 -0.514498,0.75179 -1.243562,1.85879 -1.621936,2.484476 -0.36914,0.607428 -0.731365,1.159907 -0.802889,1.240001 -0.0992,0.10802 -0.244548,-0.18066 -0.685222,-1.592983 -0.629852,-1.948202 -0.899792,-2.997836 -0.819042,-3.089482 0.13382,-0.13786 4.856567,-0.630339 4.856567,-0.49287 z m 9.565466,7.368853 a 3.4607343,3.4380533 0 0 0 -3.460735,3.438179 3.4607343,3.4380533 0 0 0 3.460735,3.437993 3.4607343,3.4380533 0 0 0 3.460733,-3.437993 3.4607343,3.4380533 0 0 0 -3.460733,-3.438179 z"
     style="display:inline;opacity:1;fill:#ad5f00;fill-opacity:1;stroke-width:2.90264559"
     id="path29-1-4" />
</svg>
