<?xml version="1.0" encoding="UTF-8" standalone="no"?>
<svg
   xmlns:dc="http://purl.org/dc/elements/1.1/"
   xmlns:cc="http://creativecommons.org/ns#"
   xmlns:rdf="http://www.w3.org/1999/02/22-rdf-syntax-ns#"
   xmlns:svg="http://www.w3.org/2000/svg"
   xmlns="http://www.w3.org/2000/svg"
   xmlns:xlink="http://www.w3.org/1999/xlink"
   xmlns:sodipodi="http://sodipodi.sourceforge.net/DTD/sodipodi-0.dtd"
   xmlns:inkscape="http://www.inkscape.org/namespaces/inkscape"
   id="svg3342"
   height="128"
   width="128"
   version="1.1"
   sodipodi:docname="easytag.svg"
   inkscape:version="0.92.4 5da689c313, 2019-01-14">
  <sodipodi:namedview
     pagecolor="#ffffff"
     bordercolor="#666666"
     borderopacity="1"
     objecttolerance="10"
     gridtolerance="10"
     guidetolerance="10"
     inkscape:pageopacity="0"
     inkscape:pageshadow="2"
     inkscape:window-width="1366"
     inkscape:window-height="743"
     id="namedview28"
     showgrid="false"
     inkscape:zoom="2.6074563"
     inkscape:cx="30.363569"
     inkscape:cy="94.204477"
     inkscape:window-x="0"
     inkscape:window-y="-1"
     inkscape:window-maximized="1"
     inkscape:current-layer="svg3342">
    <inkscape:grid
       type="xygrid"
       id="grid849" />
  </sodipodi:namedview>
  <defs
     id="defs3344">
    <linearGradient
       id="linearGradient839">
      <stop
         id="stop835"
         style="stop-color:#3a9104;stop-opacity:1"
         offset="0" />
      <stop
         id="stop837"
         style="stop-color:#68b723;stop-opacity:1"
         offset="1" />
    </linearGradient>
    <linearGradient
       gradientTransform="matrix(5.3333333,0,0,5.3333333,-5.333333,5.330407)"
       gradientUnits="userSpaceOnUse"
       xlink:href="#linearGradient3251"
       id="linearGradient2865"
       y2="-0.02451775"
       x2="17.591623"
       y1="7"
       x1="17.591623" />
    <linearGradient
       id="linearGradient3251">
      <stop
         offset="0"
         style="stop-color:#917f6e;stop-opacity:1"
         id="stop3253" />
      <stop
         offset="1"
         style="stop-color:#cbbaa9;stop-opacity:1"
         id="stop3255" />
    </linearGradient>
    <linearGradient
       gradientTransform="matrix(3.7348495,0,0,3.7348365,-68.919239,5.147402)"
       gradientUnits="userSpaceOnUse"
       xlink:href="#linearGradient4222"
       id="linearGradient2868"
       y2="7.0924568"
       x2="40.006763"
       y1="12.910877"
       x1="40.006763" />
    <linearGradient
       id="linearGradient4222">
      <stop
         offset="0"
         style="stop-color:#ffffff;stop-opacity:1"
         id="stop4224" />
      <stop
         offset="1"
         style="stop-color:#ffffff;stop-opacity:0"
         id="stop4226" />
    </linearGradient>
    <linearGradient
       gradientTransform="matrix(5.835569,0,0,5.8355808,-151.25687,-17.850163)"
       gradientUnits="userSpaceOnUse"
       xlink:href="#linearGradient4222"
       id="linearGradient2871"
       y2="22.697742"
       x2="38.382198"
       y1="5.90625"
       x1="38.382198" />
    <linearGradient
       gradientTransform="matrix(5.3333333,0,0,5.3333333,-132.83333,-10.833332)"
       gradientUnits="userSpaceOnUse"
       xlink:href="#linearGradient3243"
       id="linearGradient2874"
       y2="24.0341"
       x2="39.905758"
       y1="6.1230369"
       x1="39.905758" />
    <linearGradient
       id="linearGradient3243">
      <stop
         offset="0"
         style="stop-color:#d1ff82;stop-opacity:1"
         id="stop3245" />
      <stop
         offset="1"
         style="stop-color:#9bdb4d;stop-opacity:1"
         id="stop3247" />
    </linearGradient>
    <linearGradient
       gradientTransform="matrix(5.3333333,0,0,5.3333333,-132.83333,-10.833332)"
       gradientUnits="userSpaceOnUse"
       xlink:href="#linearGradient839"
       id="linearGradient2876"
       y2="5"
       x2="32.015705"
       y1="24.011269"
       x1="32.015705" />
    <linearGradient
       id="linearGradient3283">
      <stop
         offset="0"
         style="stop-color:#000000;stop-opacity:1"
         id="stop3285" />
      <stop
         offset="1"
         style="stop-color:#000000;stop-opacity:0"
         id="stop3287" />
    </linearGradient>
    <radialGradient
       gradientTransform="matrix(5.2090906,0,0,1.7363636,-6.5454513,66.348348)"
       gradientUnits="userSpaceOnUse"
       xlink:href="#linearGradient3283"
       id="radialGradient3340"
       fy="20.146597"
       fx="10.471204"
       r="9.2146597"
       cy="20.146597"
       cx="10.471204" />
  </defs>
  <metadata
     id="metadata3347">
    <rdf:RDF>
      <cc:Work
         rdf:about="">
        <dc:format>image/svg+xml</dc:format>
        <dc:type
           rdf:resource="http://purl.org/dc/dcmitype/StillImage" />
        <dc:title></dc:title>
      </cc:Work>
    </rdf:RDF>
  </metadata>
  <path
     d="m 95.999994,101.33017 a 47.999998,16 0 1 1 -95.99999329999998,0 47.999998,16 0 1 1 95.99999329999998,0 z"
     id="path3281"
     style="display:inline;overflow:visible;visibility:visible;opacity:0.3;fill:url(#radialGradient3340);fill-opacity:1;fill-rule:evenodd;stroke:none;stroke-width:1;marker:none;enable-background:accumulate" />
  <path
     d="M 59.166665,18.5 8.4999997,71 52.5,114.5 l 52,-50.666667 0,-45.333333 -45.333335,0 z m 21.333334,16 c 4.416,0 8,3.584 8,8 0,4.416 -3.584,8 -8,8 -4.416,0 -8,-3.584 -8,-8 0,-4.416 3.584,-8 8,-8 z"
     id="path2463"
     style="fill:url(#linearGradient2874);fill-opacity:1;fill-rule:evenodd;stroke:url(#linearGradient2876);stroke-width:1px;stroke-linecap:butt;stroke-linejoin:miter;stroke-opacity:1" />
  <path
     d="m 59.629672,19.5 c 0,0 -49.67726,51.47043 -49.67726,51.47043 0,0 42.53615,41.98714 42.53615,41.98714 0,0 51.011438,-49.664547 51.011438,-49.664547 0,0 0,-43.793023 0,-43.793023 0,0 -43.870328,0 -43.870328,0 z"
     id="path3265"
     style="opacity:0.6;fill:none;stroke:url(#linearGradient2871);stroke-width:0.99999994px;stroke-linecap:butt;stroke-linejoin:miter;stroke-opacity:1" />
  <path
     d="m 80.474738,33.508817 c 5.651902,-0.199253 10.312165,5.803162 8.703503,11.229981 -1.194552,5.325199 -7.751738,8.394113 -12.595882,5.856203 -4.986015,-2.20239 -6.72403,-9.214169 -3.30661,-13.472475 1.660116,-2.24646 4.402068,-3.635344 7.198989,-3.613709 z"
     id="path3294"
     style="opacity:0.6;fill:none;stroke:url(#linearGradient2868);stroke-width:0.99999994px;stroke-linecap:butt;stroke-linejoin:miter;stroke-opacity:1" />
  <path
     d="m 82.666666,39.997073 c 5.914763,-3.131834 13.621462,-4.091301 20.943314,-4.254607 3.29145,-0.07339 6.61837,0.5968 9.84816,-0.171414 4.11063,-0.97776 6.91191,-3.989402 6.50213,-6.742661 -0.55008,-3.695808 -5.51476,-6.424128 -10.17099,-8.376528 -4.13018,-1.731819 -7.30904,-4.817877 -8.98899,-8.077947 -0.848781,-1.647109 0.63352,-3.376591 3.01116,-3.90752 2.15998,-0.482325 4.4223,-0.672975 6.62024,-0.183232 3.34529,0.745396 7.2943,1.654775 8.85051,4.024854"
     id="path3298"
     style="fill:none;stroke:url(#linearGradient2865);stroke-width:0.99999994px;stroke-linecap:butt;stroke-linejoin:miter;stroke-opacity:1" />
  <g
     transform="matrix(3.4562214,0,0,3.4564341,-70.57459,6.9348862)"
     id="text876"
     style="font-style:normal;font-variant:normal;font-weight:bold;font-stretch:normal;font-size:26.66666603px;line-height:1.25;font-family:'Myriad Pro';-inkscape-font-specification:'Myriad Pro Bold';letter-spacing:0px;word-spacing:0px;opacity:0.8;fill:#ffffff;fill-opacity:1;stroke:none"
     aria-label="e">
    <path
       sodipodi:nodetypes="csssssssscccccscccccsc"
       inkscape:connector-curvature="0"
       id="path878"
       style="font-size:37.33333206px;fill:#ffffff"
       d="m 43.99002,22.526603 0.922843,-0.908709 c 0.02392,-0.02355 0.0064,-0.06735 0.0095,-0.101774 0.0028,-0.03147 0.0055,-0.06335 0.0082,-0.09562 0.02824,-0.342042 0.0478,-0.728188 0.0478,-1.133899 0,-4.517333 -2.24,-9.109333 -8.138666,-9.109333 -6.346667,0 -9.221333,5.114666 -9.221333,9.744 0,0.474327 0.02446,0.934237 0.07286,1.378854 0.01181,0.108518 0.02505,0.216124 0.03971,0.322808 0.01426,0.103813 0.04682,0.308805 0.04682,0.308805 l 7.213369,7.127163 0.615147,0.615109 0.506198,-0.472759 c 1.508898,-1.464497 2.99809,-2.928994 4.506988,-4.393491 v 0 c 0,0 -1.67781,0.189071 -2.435753,0.190841 -2.650667,0 -4.965334,-1.12 -5.152,-3.472 z m -10.9957,-3.882667 c 0.149334,-1.530666 1.12,-3.696 3.509334,-3.696 2.613333,0 3.210666,2.314667 3.210666,3.696 z" />
  </g>
</svg>
