<?xml version="1.0" encoding="UTF-8" standalone="no"?>
<svg
   xmlns:dc="http://purl.org/dc/elements/1.1/"
   xmlns:cc="http://creativecommons.org/ns#"
   xmlns:rdf="http://www.w3.org/1999/02/22-rdf-syntax-ns#"
   xmlns:svg="http://www.w3.org/2000/svg"
   xmlns="http://www.w3.org/2000/svg"
   xmlns:xlink="http://www.w3.org/1999/xlink"
   xmlns:sodipodi="http://sodipodi.sourceforge.net/DTD/sodipodi-0.dtd"
   xmlns:inkscape="http://www.inkscape.org/namespaces/inkscape"
   version="1.1"
   width="128"
   height="128"
   id="svg3172"
   sodipodi:docname="libreoffice-calc.svg"
   inkscape:version="1.0.1 (3bc2e813f5, 2020-09-07)">
  <sodipodi:namedview
     pagecolor="#ffffff"
     bordercolor="#666666"
     borderopacity="1"
     objecttolerance="10"
     gridtolerance="10"
     guidetolerance="10"
     inkscape:pageopacity="0"
     inkscape:pageshadow="2"
     inkscape:window-width="1366"
     inkscape:window-height="720"
     id="namedview40"
     showgrid="true"
     showguides="true"
     inkscape:guide-bbox="true"
     inkscape:zoom="2.8284271"
     inkscape:cx="83.836904"
     inkscape:cy="106.73274"
     inkscape:window-x="0"
     inkscape:window-y="24"
     inkscape:window-maximized="1"
     inkscape:current-layer="svg3172"
     inkscape:document-rotation="0">
    <inkscape:grid
       type="xygrid"
       id="grid964" />
  </sodipodi:namedview>
  <defs
     id="defs3174">
    <linearGradient
       id="linearGradient3600">
      <stop
         id="stop3602"
         style="stop-color:#f4f4f4;stop-opacity:1"
         offset="0" />
      <stop
         id="stop3604"
         style="stop-color:#dbdbdb;stop-opacity:1"
         offset="1" />
    </linearGradient>
    <linearGradient
       id="linearGradient3702-501-757-486">
      <stop
         id="stop3100"
         style="stop-color:#181818;stop-opacity:0"
         offset="0" />
      <stop
         id="stop3102"
         style="stop-color:#181818;stop-opacity:1"
         offset="0.5" />
      <stop
         id="stop3104"
         style="stop-color:#181818;stop-opacity:0"
         offset="1" />
    </linearGradient>
    <linearGradient
       id="linearGradient3688-464-309-255">
      <stop
         id="stop3094"
         style="stop-color:#181818;stop-opacity:1"
         offset="0" />
      <stop
         id="stop3096"
         style="stop-color:#181818;stop-opacity:0"
         offset="1" />
    </linearGradient>
    <linearGradient
       x1="25.132275"
       y1="0.98520643"
       x2="25.132275"
       y2="47.013336"
       id="linearGradient3019-2"
       xlink:href="#linearGradient3600"
       gradientUnits="userSpaceOnUse"
       gradientTransform="matrix(2.6285655,0,0,2.5204893,0.914429,-4.3579715)" />
    <linearGradient
       x1="23.99999"
       y1="5.5641499"
       x2="23.99999"
       y2="42.194839"
       id="linearGradient3016-9"
       xlink:href="#linearGradient3977-3"
       gradientUnits="userSpaceOnUse"
       gradientTransform="matrix(2.4594595,0,0,3.1081081,4.9729852,-14.594554)" />
    <linearGradient
       id="linearGradient3977-3">
      <stop
         id="stop3979-6"
         style="stop-color:#ffffff;stop-opacity:1"
         offset="0" />
      <stop
         id="stop3981-0"
         style="stop-color:#ffffff;stop-opacity:0.23529412"
         offset="0.00648027" />
      <stop
         id="stop3983-6"
         style="stop-color:#ffffff;stop-opacity:0.15686275"
         offset="0.99423188" />
      <stop
         id="stop3985-2"
         style="stop-color:#ffffff;stop-opacity:0.39215687"
         offset="1" />
    </linearGradient>
    <linearGradient
       x1="-51.786404"
       y1="50.786446"
       x2="-51.786404"
       y2="2.9062471"
       id="linearGradient3148"
       xlink:href="#linearGradient3104-6"
       gradientUnits="userSpaceOnUse"
       gradientTransform="matrix(2.1456297,0,0,2.3791292,158.08983,-7.746462)" />
    <linearGradient
       id="linearGradient3104-6">
      <stop
         id="stop3106-3"
         style="stop-color:#000000;stop-opacity:0.31782946"
         offset="0" />
      <stop
         id="stop3108-9"
         style="stop-color:#000000;stop-opacity:0.24031007"
         offset="1" />
    </linearGradient>
    <linearGradient
       gradientUnits="userSpaceOnUse"
       xlink:href="#linearGradient3702-501-757-486"
       id="linearGradient4097"
       y2="39.999443"
       x2="25.058096"
       y1="47.027729"
       x1="25.058096"
       gradientTransform="matrix(2.8421052,0,0,0.71428566,-4.2105336,87.430066)" />
    <radialGradient
       gradientTransform="matrix(5.6949649,0,0,0.99999992,-52.665305,-162.00149)"
       gradientUnits="userSpaceOnUse"
       xlink:href="#linearGradient3688-464-309-255"
       id="radialGradient4095"
       fy="43.5"
       fx="4.9929786"
       r="2.5"
       cy="43.5"
       cx="4.9929786" />
    <radialGradient
       gradientTransform="matrix(5.6949649,0,0,0.99999992,75.334676,75.001496)"
       gradientUnits="userSpaceOnUse"
       xlink:href="#linearGradient3688-464-309-255"
       id="radialGradient4093"
       fy="43.5"
       fx="4.9929786"
       r="2.5"
       cy="43.5"
       cx="4.9929786" />
    <linearGradient
       id="SVGID_1_"
       gradientUnits="userSpaceOnUse"
       x1="203.5132"
       y1="1729.0183"
       x2="967.98682"
       y2="404.98169"
       gradientTransform="matrix(0.05591127,0,0,-0.05591127,-9.9896077e-8,118.40735)">
      <stop
         offset="0"
         style="stop-color:#18884F"
         id="stop18" />
      <stop
         offset="0.5"
         style="stop-color:#117E43"
         id="stop20" />
      <stop
         offset="1"
         style="stop-color:#0B6631"
         id="stop22" />
    </linearGradient>
    <linearGradient
       inkscape:collect="always"
       xlink:href="#SVGID_1_"
       id="linearGradient964"
       x1="80"
       y1="25"
       x2="135"
       y2="100"
       gradientUnits="userSpaceOnUse" />
    <linearGradient
       inkscape:collect="always"
       xlink:href="#SVGID_1_"
       id="linearGradient967"
       gradientUnits="userSpaceOnUse"
       x1="80"
       y1="25"
       x2="135"
       y2="100"
       gradientTransform="translate(-75.000001,-4)" />
  </defs>
  <metadata
     id="metadata3177">
    <rdf:RDF>
      <cc:Work
         rdf:about="">
        <dc:format>image/svg+xml</dc:format>
        <dc:type
           rdf:resource="http://purl.org/dc/dcmitype/StillImage" />
        <dc:title />
      </cc:Work>
    </rdf:RDF>
  </metadata>
  <g
     id="g977">
    <path
       id="rect875"
       style="fill:#185c37;stroke-width:2.01329"
       transform="scale(1,-1)"
       d="m 35,-118.5 h 80 c 3.324,0 6,2.676 6,6 v 102 c 0,3.324 -2.676,6 -6,6 H 35 c -3.324,0 -6,-2.676 -6,-6 v -102 c 0,-3.324 2.676,-6 6,-6 z" />
    <path
       id="rect875-3"
       style="fill:#33c481;stroke-width:1.00664"
       d="m 35,4.5 h 80 c 3.324,0 6,2.676 6,6 V 33 H 35 c -3.324,0 -6,-2.676 -6,-6 V 10.5 c 0,-3.324 2.676,-6 6,-6 z"
       sodipodi:nodetypes="ssccssss" />
    <path
       id="rect875-3-6"
       style="fill:#21a366;stroke-width:1.00664"
       d="m 35,4.5 c -3.324,0 -6,2.676 -6,6 V 33 61.5 h 92 V 33 H 75 V 4.5 Z"
       sodipodi:nodetypes="scccccccs" />
    <path
       id="rect875-3-6-7"
       style="fill:#107c41;stroke-width:0.711802"
       d="m 75,61.5 h 46 V 90 H 75 Z" />
    <path
       id="rect875-3-6-7-5"
       style="fill:#107c41;stroke-width:0.711802"
       d="M 29,33 H 75 V 61.5 H 29 Z" />
  </g>
  <g
     id="g978"
     style="opacity:0.2;stroke-width:1.03923"
     transform="matrix(0.92592591,0,0,1,14.740749,0)">
    <rect
       style="fill:url(#radialGradient4093);fill-opacity:1;stroke:none;stroke-width:1.4807"
       id="rect2801"
       y="116.00149"
       x="103.78947"
       height="4.9999995"
       width="14.210526" />
    <rect
       style="fill:url(#radialGradient4095);fill-opacity:1;stroke:none;stroke-width:1.4807"
       id="rect3696"
       transform="scale(-1)"
       y="-121.00149"
       x="-24.210518"
       height="4.9999995"
       width="14.210526" />
    <rect
       style="fill:url(#linearGradient4097);fill-opacity:1;stroke:none;stroke-width:1.4807"
       id="rect3700"
       y="116.00149"
       x="24.210518"
       height="5"
       width="79.578949" />
  </g>
  <path
     opacity="0.2"
     enable-background="new    "
     d="M 62.741316,26 H 29.5 v 74.4186 h 33.241316 c 3.009391,-0.01 5.446576,-2.44697 5.456358,-5.456358 V 31.456358 C 68.187874,28.446967 65.750707,26.009782 62.741316,26 Z"
     id="path12"
     style="stroke-width:0.0559012" />
  <path
     opacity="0.1"
     enable-background="new    "
     d="M 65.718058,22.5 H 29.5 v 74.41861 h 36.218058 c 3.00939,-0.01 5.44658,-2.446973 5.45636,-5.456363 V 27.956359 c -0.01,-3.009391 -2.44697,-5.446576 -5.45636,-5.456359 z"
     id="path10"
     style="stroke-width:0.0559012" />
  <path
     opacity="0.2"
     enable-background="new    "
     d="M 62.741316,26 H 29.5 v 68.465116 h 33.241316 c 3.009391,-0.0098 5.446576,-2.446968 5.456358,-5.456358 v -57.5524 C 68.187874,28.446967 65.750707,26.009782 62.741316,26 Z"
     id="path14"
     style="stroke-width:0.0559012" />
  <path
     opacity="0.2"
     enable-background="new    "
     d="M 62.741316,26 H 29.5 v 68.465112 h 33.241316 c 3.009391,-0.01 5.446576,-2.44696 5.456358,-5.45635 V 31.456358 C 68.187874,28.446967 65.750707,26.009782 62.741316,26 Z"
     id="path14-6"
     style="stroke-width:0.0559012" />
  <path
     id="rect956"
     style="fill:url(#linearGradient967);fill-opacity:1;stroke-width:2"
     d="m 6,26 h 53 c 3.324,0 6,2.676 6,6 v 53.000004 c 0,3.324 -2.676,6 -6,6 H 6 c -3.324,0 -6,-2.676 -6,-6 V 32 c 0,-3.324 2.676,-6 6,-6 z" />
  <g
     aria-label="C"
     id="text1054"
     style="font-weight:bold;font-size:53.3333px;line-height:1.25;font-family:Carlito;-inkscape-font-specification:'Carlito Bold'"
     transform="translate(-11.999985,-2.734391)">
    <path
       d="m 54.010402,71.614588 q 0.546875,0 0.9375,0.416667 l 2.734373,2.942706 q -1.874999,2.630207 -4.713539,4.010415 -2.812498,1.380207 -6.692704,1.380207 -3.515623,0 -6.328121,-1.302082 -2.812499,-1.328125 -4.791664,-3.671873 -1.953124,-2.369791 -3.020832,-5.598955 -1.041666,-3.255207 -1.041666,-7.109371 0,-3.880206 1.119791,-7.109371 1.145833,-3.255206 3.203123,-5.598955 2.057291,-2.343748 4.921873,-3.645831 2.864581,-1.302082 6.302079,-1.302082 3.489581,0 6.171871,1.249999 2.68229,1.223957 4.479164,3.255206 l -2.291665,3.203123 q -0.234375,0.286458 -0.546875,0.520833 -0.286458,0.234375 -0.833332,0.234375 -0.546875,0 -1.067708,-0.416666 -0.494791,-0.416667 -1.249999,-0.911458 -0.729167,-0.494791 -1.848958,-0.911458 -1.119791,-0.416666 -2.864581,-0.416666 -1.901041,0 -3.46354,0.807291 -1.562499,0.781249 -2.68229,2.317707 -1.119791,1.510416 -1.744791,3.723956 -0.598957,2.187499 -0.598957,4.999997 0,2.83854 0.677082,5.05208 0.677083,2.213541 1.822916,3.749998 1.171874,1.510416 2.734373,2.317707 1.562499,0.78125 3.359373,0.78125 1.067708,0 1.927083,-0.104167 0.859374,-0.130208 1.58854,-0.416666 0.755208,-0.3125 1.406249,-0.78125 0.651042,-0.46875 1.302083,-1.171874 0.260417,-0.208334 0.520833,-0.338542 0.286458,-0.15625 0.572916,-0.15625 z"
       style="fill:#fafafa"
       id="path1056" />
  </g>
</svg>
