<?xml version="1.0" encoding="UTF-8" standalone="no"?>
<svg
   xmlns:ns="http://ns.adobe.com/SaveForWeb/1.0/"
   xmlns:dc="http://purl.org/dc/elements/1.1/"
   xmlns:cc="http://creativecommons.org/ns#"
   xmlns:rdf="http://www.w3.org/1999/02/22-rdf-syntax-ns#"
   xmlns:svg="http://www.w3.org/2000/svg"
   xmlns="http://www.w3.org/2000/svg"
   xmlns:xlink="http://www.w3.org/1999/xlink"
   xmlns:sodipodi="http://sodipodi.sourceforge.net/DTD/sodipodi-0.dtd"
   xmlns:inkscape="http://www.inkscape.org/namespaces/inkscape"
   version="1.1"
   id="Livello_1"
   x="0px"
   y="0px"
   viewBox="0 0 128 128"
   enable-background="new 0 0 1993.481 1947.121"
   xml:space="preserve"
   sodipodi:docname="libreoffice-base.svg"
   width="128"
   height="128"
   inkscape:version="1.0.1 (3bc2e813f5, 2020-09-07)"><defs
   id="defs34"><linearGradient
     inkscape:collect="always"
     xlink:href="#SVGID_1_"
     id="linearGradient967"
     gradientUnits="userSpaceOnUse"
     x1="80"
     y1="25"
     x2="135"
     y2="100"
     gradientTransform="translate(-75.000001,-4)" /><linearGradient
     id="SVGID_1_-3"
     gradientUnits="userSpaceOnUse"
     x1="203.5132"
     y1="1729.0183"
     x2="967.98682"
     y2="404.98169"
     gradientTransform="matrix(0.05591127,0,0,-0.05591127,-9.9896077e-8,118.40735)"><stop
       offset="0"
       style="stop-color:#18884F"
       id="stop18" /><stop
       offset="0.5"
       style="stop-color:#117E43"
       id="stop20-6" /><stop
       offset="1"
       style="stop-color:#0B6631"
       id="stop22-7" /></linearGradient><linearGradient
     id="SVGID_1_-5"
     gradientUnits="userSpaceOnUse"
     x1="177.1808"
     y1="1551.9205"
     x2="842.73962"
     y2="399.2002"
     gradientTransform="matrix(0.02941404,0,0,-0.02941404,169.27313,82.210173)"><stop
       offset="0"
       style="stop-color:#B72C3F"
       id="stop20-3" /><stop
       offset="0.5"
       style="stop-color:#B12334"
       id="stop22-5" /><stop
       offset="1"
       style="stop-color:#9D1623"
       id="stop24-6" /></linearGradient></defs><sodipodi:namedview
   pagecolor="#ffffff"
   bordercolor="#666666"
   borderopacity="1"
   objecttolerance="10"
   gridtolerance="10"
   guidetolerance="10"
   inkscape:pageopacity="0"
   inkscape:pageshadow="2"
   inkscape:window-width="1366"
   inkscape:window-height="720"
   id="namedview32"
   showgrid="true"
   inkscape:zoom="3.4804778"
   inkscape:cx="66.001672"
   inkscape:cy="79.849263"
   inkscape:window-x="0"
   inkscape:window-y="24"
   inkscape:window-maximized="1"
   inkscape:current-layer="Livello_1"><inkscape:grid
     type="xygrid"
     id="grid908" /></sodipodi:namedview>
<metadata
   id="metadata2">
	<ns:sfw>
		<ns:slices />
		<ns:sliceSourceBounds
   bottomLeftOrigin="true"
   height="1947.121"
   width="1993.481"
   x="-995.92"
   y="-949.56" />
	</ns:sfw>
<rdf:RDF><cc:Work
     rdf:about=""><dc:format>image/svg+xml</dc:format><dc:type
       rdf:resource="http://purl.org/dc/dcmitype/StillImage" /><dc:title></dc:title></cc:Work></rdf:RDF></metadata>
<path
   fill="#881421"
   d="m 28.837196,79.071429 v 27.619041 c 0,7.62563 20.146394,13.80953 44.999977,13.80953 24.853592,0 44.999967,-6.1839 44.999967,-13.80953 V 79.071429 Z"
   id="path4"
   style="stroke-width:0.0592004" />
<path
   fill="#af2031"
   d="m 28.837196,48.690477 v 30.380952 c 0,7.625622 20.146394,13.809524 44.999977,13.809524 24.853592,0 44.999967,-6.183902 44.999967,-13.809524 V 48.690477 Z"
   id="path6"
   style="stroke-width:0.0592004" />
<path
   fill="#c94f60"
   d="m 28.837196,18.309523 v 30.380954 c 0,7.62562 20.146394,13.809523 44.999977,13.809523 24.853592,0 44.999967,-6.183903 44.999967,-13.809523 V 18.309523 Z"
   id="path8"
   style="stroke-width:0.0592004" />
<ellipse
   fill="#e08095"
   cx="73.837219"
   cy="18.309525"
   rx="44.999977"
   ry="13.809525"
   id="ellipse10"
   style="stroke-width:0.0592004" />




<linearGradient
   id="SVGID_1_"
   gradientUnits="userSpaceOnUse"
   x1="177.1808"
   y1="1551.9205"
   x2="842.73962"
   y2="399.2002"
   gradientTransform="matrix(0.06220275,0,0,-0.06220275,0,125.74067)">
	<stop
   offset="0"
   style="stop-color:#B72C3F"
   id="stop20" />
	<stop
   offset="0.5"
   style="stop-color:#B12334"
   id="stop22" />
	<stop
   offset="1"
   style="stop-color:#9D1623"
   id="stop24" />
</linearGradient>


<path
   opacity="0.2"
   enable-background="new    "
   d="M 62.741311,26 H 29.5 v 74.4186 h 33.241311 c 3.0094,-0.01 5.44658,-2.446973 5.45636,-5.456363 V 31.456358 C 68.187671,28.446967 65.750711,26.009782 62.741311,26 Z"
   id="path12"
   style="stroke-width:0.0559012" /><path
   opacity="0.1"
   enable-background="new    "
   d="M 65.718061,22.5 H 29.5 v 74.418607 h 36.218061 c 3.00939,-0.01 5.44658,-2.44697 5.45636,-5.45636 V 27.956359 c -0.01,-3.009391 -2.44697,-5.446576 -5.45636,-5.456359 z"
   id="path10"
   style="stroke-width:0.0559012" /><path
   opacity="0.2"
   enable-background="new    "
   d="M 62.741311,26 H 29.5 v 68.465117 h 33.241311 c 3.0094,-0.01 5.44658,-2.44697 5.45636,-5.45636 V 31.456358 C 68.187671,28.446967 65.750711,26.009782 62.741311,26 Z"
   id="path14"
   style="stroke-width:0.0559012" /><path
   opacity="0.2"
   enable-background="new    "
   d="M 62.741311,26 H 29.5 v 68.465107 h 33.241311 c 3.0094,-0.01 5.44658,-2.44696 5.45636,-5.45635 V 31.456358 C 68.187671,28.446967 65.750711,26.009782 62.741311,26 Z"
   id="path14-6"
   style="stroke-width:0.0559012" /><path
   id="rect956"
   style="fill:url(#linearGradient967);fill-opacity:1.0;stroke-width:2"
   d="m 6,26 h 53.000001 c 3.324,0 6,2.676 6,6 v 53.000007 c 0,3.324 -2.676,6 -6,6 H 6 c -3.324,0 -6,-2.676 -6,-6 V 32 c 0,-3.324 2.676,-6 6,-6 z" /><g
   aria-label="B"
   id="text903"
   style="font-weight:bold;font-size:53.3333px;line-height:1.25;font-family:Carlito;-inkscape-font-specification:'Carlito Bold'"
   transform="translate(27.907569,-50.375115)"><path
     d="M -8.4075695,125.25044 V 90.66713 H 3.3372152 q 3.3333313,0 5.7031216,0.651041 2.3697902,0.651041 3.8541642,1.848957 1.510416,1.197916 2.187499,2.916665 0.703124,1.692708 0.703124,3.802081 0,1.197916 -0.338541,2.317706 -0.338542,1.11979 -1.041666,2.08333 -0.703125,0.96354 -1.822916,1.77084 -1.093749,0.78125 -2.6302065,1.32812 6.6927045,1.61458 6.6927045,7.6302 0,2.21354 -0.807291,4.08854 -0.807291,1.875 -2.369791,3.25521 -1.536457,1.35417 -3.8281223,2.13541 -2.2656236,0.75521 -5.2083302,0.75521 z m 6.8489542,-15.02603 v 9.71354 h 5.8593716 q 1.640624,0 2.7343733,-0.41667 1.0937494,-0.41667 1.718749,-1.11979 0.6510413,-0.70313 0.9114578,-1.61458 0.2604165,-0.9375 0.2604165,-1.92709 0,-1.0677 -0.3124998,-1.92708 -0.2864582,-0.85937 -0.9635411,-1.45833 -0.6510413,-0.59896 -1.7447906,-0.91146 -1.0677077,-0.33854 -2.6302068,-0.33854 z m 0,-4.71354 h 4.5052057 q 2.8906233,0 4.4531223,-1.09375 1.5624991,-1.11979 1.5624991,-3.67187 0,-2.65625 -1.3541659,-3.723957 -1.3541658,-1.09375 -4.2708307,-1.09375 h -4.8958305 z"
     style="fill:#fafafa"
     id="path905" /></g></svg>
