<?xml version="1.0" encoding="UTF-8" standalone="no"?>
<svg
   xmlns:dc="http://purl.org/dc/elements/1.1/"
   xmlns:cc="http://creativecommons.org/ns#"
   xmlns:rdf="http://www.w3.org/1999/02/22-rdf-syntax-ns#"
   xmlns:svg="http://www.w3.org/2000/svg"
   xmlns="http://www.w3.org/2000/svg"
   xmlns:xlink="http://www.w3.org/1999/xlink"
   xmlns:sodipodi="http://sodipodi.sourceforge.net/DTD/sodipodi-0.dtd"
   xmlns:inkscape="http://www.inkscape.org/namespaces/inkscape"
   version="1.1"
   width="128"
   height="128"
   id="svg3172"
   sodipodi:docname="libreoffice-math.svg"
   inkscape:version="1.0.1 (3bc2e813f5, 2020-09-07)">
  <sodipodi:namedview
     pagecolor="#ffffff"
     bordercolor="#666666"
     borderopacity="1"
     objecttolerance="10"
     gridtolerance="10"
     guidetolerance="10"
     inkscape:pageopacity="0"
     inkscape:pageshadow="2"
     inkscape:window-width="1366"
     inkscape:window-height="720"
     id="namedview40"
     showgrid="true"
     showguides="true"
     inkscape:guide-bbox="true"
     inkscape:zoom="1.4142136"
     inkscape:cx="116.19295"
     inkscape:cy="102.83497"
     inkscape:window-x="0"
     inkscape:window-y="24"
     inkscape:window-maximized="1"
     inkscape:current-layer="svg3172"
     inkscape:document-rotation="0">
    <inkscape:grid
       type="xygrid"
       id="grid964" />
  </sodipodi:namedview>
  <defs
     id="defs3174">
    <linearGradient
       id="linearGradient883"
       gradientUnits="userSpaceOnUse"
       x1="203.5132"
       y1="1729.0183"
       x2="967.98682"
       y2="404.98169"
       gradientTransform="matrix(0.05591127,0,0,-0.05591127,-9.9896077e-8,118.40735)">
      <stop
         offset="0"
         style="stop-color:#2d4654;stop-opacity:1"
         id="stop877" />
      <stop
         offset="0.5"
         style="stop-color:#2d4c5a;stop-opacity:1"
         id="stop879" />
      <stop
         offset="1"
         style="stop-color:#273445;stop-opacity:1"
         id="stop881" />
    </linearGradient>
    <linearGradient
       id="linearGradient3600">
      <stop
         id="stop3602"
         style="stop-color:#f4f4f4;stop-opacity:1"
         offset="0" />
      <stop
         id="stop3604"
         style="stop-color:#dbdbdb;stop-opacity:1"
         offset="1" />
    </linearGradient>
    <linearGradient
       id="linearGradient3702-501-757-486">
      <stop
         id="stop3100"
         style="stop-color:#181818;stop-opacity:0"
         offset="0" />
      <stop
         id="stop3102"
         style="stop-color:#181818;stop-opacity:1"
         offset="0.5" />
      <stop
         id="stop3104"
         style="stop-color:#181818;stop-opacity:0"
         offset="1" />
    </linearGradient>
    <linearGradient
       id="linearGradient3688-464-309-255">
      <stop
         id="stop3094"
         style="stop-color:#181818;stop-opacity:1"
         offset="0" />
      <stop
         id="stop3096"
         style="stop-color:#181818;stop-opacity:0"
         offset="1" />
    </linearGradient>
    <linearGradient
       x1="25.132275"
       y1="0.98520643"
       x2="25.132275"
       y2="47.013336"
       id="linearGradient3019-2"
       xlink:href="#linearGradient3600"
       gradientUnits="userSpaceOnUse"
       gradientTransform="matrix(2.6285655,0,0,2.5204893,0.914429,-4.3579715)" />
    <linearGradient
       x1="23.99999"
       y1="5.5641499"
       x2="23.99999"
       y2="42.194839"
       id="linearGradient3016-9"
       xlink:href="#linearGradient3977-3"
       gradientUnits="userSpaceOnUse"
       gradientTransform="matrix(2.4594595,0,0,3.1081081,4.9729852,-14.594554)" />
    <linearGradient
       id="linearGradient3977-3">
      <stop
         id="stop3979-6"
         style="stop-color:#ffffff;stop-opacity:1"
         offset="0" />
      <stop
         id="stop3981-0"
         style="stop-color:#ffffff;stop-opacity:0.23529412"
         offset="0.00648027" />
      <stop
         id="stop3983-6"
         style="stop-color:#ffffff;stop-opacity:0.15686275"
         offset="0.99423188" />
      <stop
         id="stop3985-2"
         style="stop-color:#ffffff;stop-opacity:0.39215687"
         offset="1" />
    </linearGradient>
    <linearGradient
       x1="-51.786404"
       y1="50.786446"
       x2="-51.786404"
       y2="2.9062471"
       id="linearGradient3148"
       xlink:href="#linearGradient3104-6"
       gradientUnits="userSpaceOnUse"
       gradientTransform="matrix(2.1456297,0,0,2.3791292,158.08983,-7.746462)" />
    <linearGradient
       id="linearGradient3104-6">
      <stop
         id="stop3106-3"
         style="stop-color:#000000;stop-opacity:0.31782946"
         offset="0" />
      <stop
         id="stop3108-9"
         style="stop-color:#000000;stop-opacity:0.24031007"
         offset="1" />
    </linearGradient>
    <linearGradient
       gradientUnits="userSpaceOnUse"
       xlink:href="#linearGradient3702-501-757-486"
       id="linearGradient4097"
       y2="39.999443"
       x2="25.058096"
       y1="47.027729"
       x1="25.058096"
       gradientTransform="matrix(2.8421052,0,0,0.71428566,-4.2105336,87.430066)" />
    <radialGradient
       gradientTransform="matrix(5.6949649,0,0,0.99999992,-52.665305,-162.00149)"
       gradientUnits="userSpaceOnUse"
       xlink:href="#linearGradient3688-464-309-255"
       id="radialGradient4095"
       fy="43.5"
       fx="4.9929786"
       r="2.5"
       cy="43.5"
       cx="4.9929786" />
    <radialGradient
       gradientTransform="matrix(5.6949649,0,0,0.99999992,75.334676,75.001496)"
       gradientUnits="userSpaceOnUse"
       xlink:href="#linearGradient3688-464-309-255"
       id="radialGradient4093"
       fy="43.5"
       fx="4.9929786"
       r="2.5"
       cy="43.5"
       cx="4.9929786" />
    <linearGradient
       id="SVGID_1_"
       gradientUnits="userSpaceOnUse"
       x1="203.5132"
       y1="1729.0183"
       x2="967.98682"
       y2="404.98169"
       gradientTransform="matrix(0.05591127,0,0,-0.05591127,-9.9896077e-8,118.40735)">
      <stop
         offset="0"
         style="stop-color:#18884F"
         id="stop18" />
      <stop
         offset="0.5"
         style="stop-color:#117E43"
         id="stop20" />
      <stop
         offset="1"
         style="stop-color:#0B6631"
         id="stop22" />
    </linearGradient>
    <linearGradient
       inkscape:collect="always"
       xlink:href="#SVGID_1_"
       id="linearGradient964"
       x1="80"
       y1="25"
       x2="135"
       y2="100"
       gradientUnits="userSpaceOnUse" />
    <linearGradient
       inkscape:collect="always"
       xlink:href="#linearGradient883"
       id="linearGradient967"
       gradientUnits="userSpaceOnUse"
       x1="80"
       y1="25"
       x2="135"
       y2="100"
       gradientTransform="translate(-75.000001,-4)" />
  </defs>
  <metadata
     id="metadata3177">
    <rdf:RDF>
      <cc:Work
         rdf:about="">
        <dc:format>image/svg+xml</dc:format>
        <dc:type
           rdf:resource="http://purl.org/dc/dcmitype/StillImage" />
        <dc:title></dc:title>
      </cc:Work>
    </rdf:RDF>
  </metadata>
  <g
     id="g977">
    <path
       id="rect875"
       style="fill:#273445;stroke-width:2.01329"
       transform="scale(1,-1)"
       d="m 35,-118.5 h 80 c 3.324,0 6,2.676 6,6 v 102 c 0,3.324 -2.676,6 -6,6 H 35 c -3.324,0 -6,-2.676 -6,-6 v -102 c 0,-3.324 2.676,-6 6,-6 z" />
    <path
       id="rect875-3"
       style="fill:#95a3ab;stroke-width:1.00664"
       d="m 35,4.5 h 80 c 3.324,0 6,2.676 6,6 V 33 H 35 c -3.324,0 -6,-2.676 -6,-6 V 10.5 c 0,-3.324 2.676,-6 6,-6 z"
       sodipodi:nodetypes="ssccssss" />
    <path
       id="rect875-3-6-7"
       style="fill:#667885;stroke-width:0.711802"
       d="m 75,61.5 h 46 V 90 H 75 Z" />
    <path
       id="rect875-3-6-7-5"
       style="fill:#667885;stroke-width:0.711802"
       d="M 29,33 H 75 V 61.5 H 29 Z" />
  </g>
  <g
     id="g978"
     style="opacity:0.2;stroke-width:1.03923"
     transform="matrix(0.92592591,0,0,1,14.740749,0)">
    <rect
       style="fill:url(#radialGradient4093);fill-opacity:1;stroke:none;stroke-width:1.4807"
       id="rect2801"
       y="116.00149"
       x="103.78947"
       height="4.9999995"
       width="14.210526" />
    <rect
       style="fill:url(#radialGradient4095);fill-opacity:1;stroke:none;stroke-width:1.4807"
       id="rect3696"
       transform="scale(-1)"
       y="-121.00149"
       x="-24.210518"
       height="4.9999995"
       width="14.210526" />
    <rect
       style="fill:url(#linearGradient4097);fill-opacity:1;stroke:none;stroke-width:1.4807"
       id="rect3700"
       y="116.00149"
       x="24.210518"
       height="5"
       width="79.578949" />
  </g>
  <path
     opacity="0.2"
     enable-background="new    "
     d="M 62.741316,26 H 29.5 v 74.4186 h 33.241316 c 3.009391,-0.01 5.446576,-2.44697 5.456358,-5.456358 V 31.456358 C 68.187874,28.446967 65.750707,26.009782 62.741316,26 Z"
     id="path12"
     style="stroke-width:0.0559012" />
  <path
     opacity="0.1"
     enable-background="new    "
     d="M 65.718058,22.5 H 29.5 v 74.41861 h 36.218058 c 3.00939,-0.01 5.44658,-2.446973 5.45636,-5.456363 V 27.956359 c -0.01,-3.009391 -2.44697,-5.446576 -5.45636,-5.456359 z"
     id="path10"
     style="stroke-width:0.0559012" />
  <path
     opacity="0.2"
     enable-background="new    "
     d="M 62.741316,26 H 29.5 v 68.465116 h 33.241316 c 3.009391,-0.0098 5.446576,-2.446968 5.456358,-5.456358 v -57.5524 C 68.187874,28.446967 65.750707,26.009782 62.741316,26 Z"
     id="path14"
     style="stroke-width:0.0559012" />
  <path
     opacity="0.2"
     enable-background="new    "
     d="M 62.741316,26 H 29.5 v 68.465112 h 33.241316 c 3.009391,-0.01 5.446576,-2.44696 5.456358,-5.45635 V 31.456358 C 68.187874,28.446967 65.750707,26.009782 62.741316,26 Z"
     id="path14-6"
     style="stroke-width:0.0559012" />
  <path
     id="rect956"
     style="fill:url(#linearGradient967);fill-opacity:1;stroke-width:2"
     d="m 6,26 h 53 c 3.324,0 6,2.676 6,6 v 53.000004 c 0,3.324 -2.676,6 -6,6 H 6 c -3.324,0 -6,-2.676 -6,-6 V 32 c 0,-3.324 2.676,-6 6,-6 z" />
  <g
     aria-label="M"
     id="text887"
     style="font-weight:bold;font-size:53.3333px;line-height:1.25;font-family:Carlito;-inkscape-font-specification:'Carlito Bold'"
     transform="translate(4.3802105,61.875313)">
    <path
       d="m 26.822904,0.2343838 q 0.885416,1.640624 1.536457,3.4114563 0.364583,-0.9114578 0.729166,-1.7708323 0.364583,-0.88541612 0.807291,-1.6927073 L 40.546854,-18.515605 q 0.208333,-0.390625 0.416666,-0.598958 0.234375,-0.234375 0.494792,-0.3125 0.260416,-0.104166 0.598958,-0.130208 0.338541,-0.02604 0.781249,-0.02604 h 5.156247 V 15 H 41.979145 V -6.6406121 q 0,-0.7031246 0.02604,-1.5104158 0.05208,-0.8333328 0.130209,-1.6927073 L 31.223943,9.47917 q -0.807291,1.510416 -2.369791,1.510416 h -0.963541 q -1.58854,0 -2.395832,-1.510416 L 14.453119,-9.9479018 q 0.104167,0.8854161 0.15625,1.7447906 0.05208,0.8333329 0.05208,1.5624991 V 15 H 8.6197895 v -34.583313 h 5.1822885 q 0.442708,0 0.755208,0.02604 0.338541,0.02604 0.598958,0.130208 0.286458,0.104167 0.494791,0.3125 0.234375,0.208333 0.442708,0.598958 z"
       style="fill:#fafafa"
       id="path889" />
  </g>
</svg>
