<?xml version="1.0" encoding="UTF-8" standalone="no"?>
<svg
   xmlns:dc="http://purl.org/dc/elements/1.1/"
   xmlns:cc="http://creativecommons.org/ns#"
   xmlns:rdf="http://www.w3.org/1999/02/22-rdf-syntax-ns#"
   xmlns:svg="http://www.w3.org/2000/svg"
   xmlns="http://www.w3.org/2000/svg"
   xmlns:xlink="http://www.w3.org/1999/xlink"
   xmlns:sodipodi="http://sodipodi.sourceforge.net/DTD/sodipodi-0.dtd"
   xmlns:inkscape="http://www.inkscape.org/namespaces/inkscape"
   id="svg4379"
   height="128"
   width="128"
   version="1.1"
   sodipodi:docname="mendeleydesktop.svg"
   inkscape:version="1.0.2 (e86c870879, 2021-01-15)">
  <sodipodi:namedview
     pagecolor="#ffffff"
     bordercolor="#666666"
     borderopacity="1"
     objecttolerance="10"
     gridtolerance="10"
     guidetolerance="10"
     inkscape:pageopacity="0"
     inkscape:pageshadow="2"
     inkscape:window-width="1366"
     inkscape:window-height="713"
     id="namedview51"
     showgrid="true"
     inkscape:zoom="7.375"
     inkscape:cx="64.45098"
     inkscape:cy="46.815749"
     inkscape:window-x="0"
     inkscape:window-y="27"
     inkscape:window-maximized="1"
     inkscape:current-layer="svg4379"
     inkscape:document-rotation="0">
    <inkscape:grid
       type="xygrid"
       id="grid864" />
  </sodipodi:namedview>
  <defs
     id="defs4381">
    <linearGradient
       gradientTransform="matrix(0.89553576,0,0,-0.89663265,6.6836208,69.705837)"
       gradientUnits="userSpaceOnUse"
       xlink:href="#linearGradient4113"
       id="linearGradient3149"
       y2="3.4508991"
       x2="76.523361"
       y1="-9.023138"
       x1="76.523361" />
    <linearGradient
       id="linearGradient4113">
      <stop
         offset="0"
         style="stop-color:#000000;stop-opacity:1"
         id="stop4115" />
      <stop
         offset="1"
         style="stop-color:#000000;stop-opacity:0"
         id="stop4117" />
    </linearGradient>
    <linearGradient
       gradientTransform="matrix(2.7297298,0,0,2.7297298,-1.5135124,1.486514)"
       gradientUnits="userSpaceOnUse"
       xlink:href="#linearGradient3924-776"
       id="linearGradient3159"
       y2="43"
       x2="23.99999"
       y1="4.999989"
       x1="23.99999" />
    <linearGradient
       id="linearGradient3924-776">
      <stop
         offset="0"
         style="stop-color:#ffffff;stop-opacity:1"
         id="stop3124" />
      <stop
         offset="0.06316455"
         style="stop-color:#ffffff;stop-opacity:0.23529412"
         id="stop3126" />
      <stop
         offset="0.95056331"
         style="stop-color:#ffffff;stop-opacity:0.15686275"
         id="stop3128" />
      <stop
         offset="1"
         style="stop-color:#ffffff;stop-opacity:0.39215687"
         id="stop3130" />
    </linearGradient>
    <radialGradient
       gradientTransform="matrix(0,25.083279,-30.794253,0,372.81658,-208.0918)"
       gradientUnits="userSpaceOnUse"
       xlink:href="#linearGradient2867-449-88-871-390-598-476-591-434-148-57-177-8-3-3-6-4-8-8-8-5"
       id="radialGradient3395"
       fy="9.9571075"
       fx="6.2001843"
       r="12.671875"
       cy="9.9571075"
       cx="6.7304144" />
    <linearGradient
       id="linearGradient2867-449-88-871-390-598-476-591-434-148-57-177-8-3-3-6-4-8-8-8-5">
      <stop
         offset="0"
         style="stop-color:#ffe16b;stop-opacity:1"
         id="stop3750-1-0-7-6-6-1-3-9-3" />
      <stop
         offset="0.26238"
         style="stop-color:#ffe16b;stop-opacity:1"
         id="stop3752-3-7-4-0-32-8-923-0-7" />
      <stop
         offset="0.704952"
         style="stop-color:#f9c440;stop-opacity:1"
         id="stop3754-1-8-5-2-7-6-7-1-9" />
      <stop
         offset="1"
         style="stop-color:#d48e15;stop-opacity:1"
         id="stop3756-1-6-2-6-6-1-96-6-0" />
    </linearGradient>
    <radialGradient
       gradientTransform="matrix(2.003784,0,0,1.4,27.98813,-17.4)"
       gradientUnits="userSpaceOnUse"
       xlink:href="#linearGradient3688-166-749-5"
       id="radialGradient2455-1"
       fy="43.5"
       fx="4.9929786"
       r="2.5"
       cy="43.5"
       cx="4.9929786" />
    <linearGradient
       id="linearGradient3688-166-749-5">
      <stop
         offset="0"
         style="stop-color:#181818;stop-opacity:1"
         id="stop2883-0" />
      <stop
         offset="1"
         style="stop-color:#181818;stop-opacity:0"
         id="stop2885-5" />
    </linearGradient>
    <radialGradient
       gradientTransform="matrix(2.003784,0,0,1.4,-20.01187,-104.4)"
       gradientUnits="userSpaceOnUse"
       xlink:href="#linearGradient3688-464-309-8"
       id="radialGradient2457-5"
       fy="43.5"
       fx="4.9929786"
       r="2.5"
       cy="43.5"
       cx="4.9929786" />
    <linearGradient
       id="linearGradient3688-464-309-8">
      <stop
         offset="0"
         style="stop-color:#181818;stop-opacity:1"
         id="stop2889-9" />
      <stop
         offset="1"
         style="stop-color:#181818;stop-opacity:0"
         id="stop2891-4" />
    </linearGradient>
    <linearGradient
       gradientUnits="userSpaceOnUse"
       xlink:href="#linearGradient3702-501-757-0"
       id="linearGradient2459-7"
       y2="39.999443"
       x2="25.058096"
       y1="47.027729"
       x1="25.058096" />
    <linearGradient
       id="linearGradient3702-501-757-0">
      <stop
         offset="0"
         style="stop-color:#181818;stop-opacity:0"
         id="stop2895-0" />
      <stop
         offset="0.5"
         style="stop-color:#181818;stop-opacity:1"
         id="stop2897-2" />
      <stop
         offset="1"
         style="stop-color:#181818;stop-opacity:0"
         id="stop2899-6" />
    </linearGradient>
    <linearGradient
       id="linearGradient3811">
      <stop
         offset="0"
         style="stop-color:#000000;stop-opacity:1"
         id="stop3813" />
      <stop
         offset="1"
         style="stop-color:#000000;stop-opacity:0"
         id="stop3815" />
    </linearGradient>
    <radialGradient
       gradientTransform="matrix(1.5563924,0,0,0.16978827,70.270358,102.13029)"
       gradientUnits="userSpaceOnUse"
       xlink:href="#linearGradient3811"
       id="radialGradient4377"
       fy="93.467628"
       fx="-4.0287771"
       r="35.338131"
       cy="93.467628"
       cx="-4.0287771" />
  </defs>
  <metadata
     id="metadata4384">
    <rdf:RDF>
      <cc:Work
         rdf:about="">
        <dc:format>image/svg+xml</dc:format>
        <dc:type
           rdf:resource="http://purl.org/dc/dcmitype/StillImage" />
        <dc:title />
      </cc:Work>
    </rdf:RDF>
  </metadata>
  <path
     d="M 119,118 A 55,6 0 0 1 9.0000016,118 55,6 0 1 1 119,118 Z"
     id="path3041"
     style="color:#000000;display:inline;overflow:visible;visibility:visible;opacity:0.2;fill:url(#radialGradient4377);fill-opacity:1;fill-rule:nonzero;stroke:none;stroke-width:1;marker:none;enable-background:accumulate" />
  <g
     transform="matrix(2.6999989,0,0,0.55555607,-0.8000019,94.888882)"
     id="g2036"
     style="display:inline">
    <g
       transform="matrix(1.052632,0,0,1.285713,-1.263158,-13.42854)"
       id="g3712"
       style="opacity:0.4">
      <rect
         width="5"
         height="7"
         x="38"
         y="40"
         id="rect2801"
         style="fill:url(#radialGradient2455-1);fill-opacity:1;stroke:none" />
      <rect
         width="5"
         height="7"
         x="-10"
         y="-47"
         transform="scale(-1)"
         id="rect3696"
         style="fill:url(#radialGradient2457-5);fill-opacity:1;stroke:none" />
      <rect
         width="28"
         height="7.0000005"
         x="10"
         y="40"
         id="rect3700"
         style="fill:url(#linearGradient2459-7);fill-opacity:1;stroke:none" />
    </g>
  </g>
  <rect
     width="103"
     height="103"
     rx="6.0545406"
     ry="6.0545406"
     x="12.5"
     y="15.5"
     id="rect5505-21-3"
     style="color:#000000;display:inline;overflow:visible;visibility:visible;fill:url(#radialGradient3395);fill-opacity:1;fill-rule:nonzero;stroke:none;stroke-width:1;marker:none;enable-background:accumulate" />
  <rect
     width="101"
     height="101"
     rx="5"
     ry="5"
     x="13.5"
     y="16.5"
     id="rect6741-7"
     style="opacity:0.3;fill:none;stroke:url(#linearGradient3159);stroke-width:1;stroke-linecap:round;stroke-linejoin:round;stroke-miterlimit:4;stroke-dasharray:none;stroke-dashoffset:0;stroke-opacity:1" />
  <rect
     width="103"
     height="103"
     rx="6"
     ry="6"
     x="12.5"
     y="15.5"
     id="rect5505-21-6"
     style="color:#000000;display:inline;overflow:visible;visibility:visible;opacity:0.7;fill:none;stroke:#ad5f00;stroke-width:1;stroke-linecap:round;stroke-linejoin:round;stroke-miterlimit:4;stroke-dasharray:none;stroke-dashoffset:0;stroke-opacity:1;marker:none;enable-background:accumulate" />
  <path
     id="path21-8"
     d="M 47.076922,44 C 41.12923,44 36.307694,48.821551 36.307694,54.769262 v 13.846199 c 0,6.153866 -3.169234,6.153866 -4.615386,6.153866 -4.249232,0 -7.692308,3.443084 -7.692308,7.692326 0,4.249253 3.443076,7.692334 7.692308,7.692334 4.249232,0 7.692306,-3.443081 7.692306,-7.692334 0,-4.615397 -2.224614,-4.615397 -0.926154,-8.618485 0.723078,-2.227699 4.00308,-5.227707 8.618462,-5.227707 4.615386,0 9.23077,3.07693 9.23077,6.153866 0,3.076929 -1.538462,3.076929 -1.538462,7.692326 0,4.249253 4.132308,7.692334 9.23077,7.692334 5.098462,0 9.23077,-3.443081 9.23077,-7.692334 0,-4.615397 -1.846154,-4.615397 -1.846154,-7.692326 0,-3.076936 4.923078,-6.153866 9.538464,-6.153866 4.61538,0 7.98154,2.972318 8.61846,5.227707 1.36923,4.852325 -0.92616,4.003088 -0.92616,8.618485 0,4.249253 3.44308,7.692334 7.69231,7.692334 4.24923,0 7.69231,-3.443081 7.69231,-7.692334 0,-4.249242 -3.44308,-7.692326 -7.69231,-7.692326 -1.44615,0 -4.61538,0 -4.61538,-6.153866 V 54.769262 C 91.69231,48.821551 86.87077,44 80.92308,44 70.153844,44 71.33846,50.153863 64,50.153863 56.661538,50.153863 57.846154,44 47.076922,44 M 64,53.230795 A 9.2307694,9.2307985 0 0 1 73.23077,62.461594 9.2307694,9.2307985 0 0 1 64,71.692391 9.2307694,9.2307985 0 0 1 54.76923,62.461594 9.2307694,9.2307985 0 0 1 64,53.230795 Z"
     style="opacity:0.4;fill:#ffffff;stroke-width:3.07694"
     inkscape:connector-curvature="0" />
  <path
     id="path21"
     d="M 47.076922,42 C 41.12923,42 36.307694,46.821553 36.307694,52.769262 v 13.8462 c 0,6.153865 -3.169234,6.153865 -4.615386,6.153865 -4.249232,0 -7.692308,3.443087 -7.692308,7.692332 0,4.249248 3.443076,7.692328 7.692308,7.692328 4.249232,0 7.692306,-3.44308 7.692306,-7.692328 0,-4.6154 -2.224614,-4.6154 -0.926154,-8.618489 0.723078,-2.227699 4.00308,-5.227708 8.618462,-5.227708 4.615386,0 9.23077,3.076931 9.23077,6.153865 0,3.076932 -1.538462,3.076932 -1.538462,7.692332 0,4.249248 4.132308,7.692328 9.23077,7.692328 5.098462,0 9.23077,-3.44308 9.23077,-7.692328 0,-4.6154 -1.846154,-4.6154 -1.846154,-7.692332 0,-3.076934 4.923078,-6.153865 9.538464,-6.153865 4.61538,0 7.98154,2.972317 8.61846,5.227708 1.36923,4.852323 -0.92616,4.003089 -0.92616,8.618489 0,4.249248 3.44308,7.692328 7.69231,7.692328 4.24923,0 7.69231,-3.44308 7.69231,-7.692328 0,-4.249245 -3.44308,-7.692332 -7.69231,-7.692332 -1.44615,0 -4.61538,0 -4.61538,-6.153865 v -13.8462 C 91.69231,46.821553 86.87077,42 80.92308,42 70.153844,42 71.33846,48.153865 64,48.153865 56.661538,48.153865 57.846154,42 47.076922,42 M 64,51.230795 A 9.2307694,9.2307985 0 0 1 73.23077,60.461594 9.2307694,9.2307985 0 0 1 64,69.692393 9.2307694,9.2307985 0 0 1 54.76923,60.461594 9.2307694,9.2307985 0 0 1 64,51.230795 Z"
     style="opacity:1;fill:#333333;stroke-width:3.07694"
     inkscape:connector-curvature="0" />
</svg>
