<?xml version="1.0" encoding="UTF-8" standalone="no"?>
<svg
   xmlns:dc="http://purl.org/dc/elements/1.1/"
   xmlns:cc="http://creativecommons.org/ns#"
   xmlns:rdf="http://www.w3.org/1999/02/22-rdf-syntax-ns#"
   xmlns:svg="http://www.w3.org/2000/svg"
   xmlns="http://www.w3.org/2000/svg"
   xmlns:xlink="http://www.w3.org/1999/xlink"
   xmlns:sodipodi="http://sodipodi.sourceforge.net/DTD/sodipodi-0.dtd"
   xmlns:inkscape="http://www.inkscape.org/namespaces/inkscape"
   id="svg4379"
   height="128"
   width="128"
   version="1.1"
   sodipodi:docname="org.nicotine_plus.Nicotine.svg"
   inkscape:version="1.0.2 (e86c870879, 2021-01-15)">
  <sodipodi:namedview
     pagecolor="#ffffff"
     bordercolor="#666666"
     borderopacity="1"
     objecttolerance="10"
     gridtolerance="10"
     guidetolerance="10"
     inkscape:pageopacity="0"
     inkscape:pageshadow="2"
     inkscape:window-width="1366"
     inkscape:window-height="713"
     id="namedview51"
     showgrid="true"
     inkscape:zoom="10.429825"
     inkscape:cx="71.4628"
     inkscape:cy="33.834205"
     inkscape:window-x="0"
     inkscape:window-y="27"
     inkscape:window-maximized="1"
     inkscape:current-layer="svg4379"
     inkscape:document-rotation="0">
    <inkscape:grid
       type="xygrid"
       id="grid864" />
  </sodipodi:namedview>
  <defs
     id="defs4381">
    <linearGradient
       gradientTransform="matrix(0.89553576,0,0,-0.89663265,6.6836208,69.705837)"
       gradientUnits="userSpaceOnUse"
       xlink:href="#linearGradient4113"
       id="linearGradient3149"
       y2="3.4508991"
       x2="76.523361"
       y1="-9.023138"
       x1="76.523361" />
    <linearGradient
       id="linearGradient4113">
      <stop
         offset="0"
         style="stop-color:#000000;stop-opacity:1"
         id="stop4115" />
      <stop
         offset="1"
         style="stop-color:#000000;stop-opacity:0"
         id="stop4117" />
    </linearGradient>
    <linearGradient
       gradientTransform="matrix(2.7297298,0,0,2.7297298,-1.5135124,1.486514)"
       gradientUnits="userSpaceOnUse"
       xlink:href="#linearGradient3924-776"
       id="linearGradient3159"
       y2="43"
       x2="23.99999"
       y1="4.999989"
       x1="23.99999" />
    <linearGradient
       id="linearGradient3924-776">
      <stop
         offset="0"
         style="stop-color:#ffffff;stop-opacity:1"
         id="stop3124" />
      <stop
         offset="0.06316455"
         style="stop-color:#ffffff;stop-opacity:0.23529412"
         id="stop3126" />
      <stop
         offset="0.95056331"
         style="stop-color:#ffffff;stop-opacity:0.15686275"
         id="stop3128" />
      <stop
         offset="1"
         style="stop-color:#ffffff;stop-opacity:0.39215687"
         id="stop3130" />
    </linearGradient>
    <radialGradient
       gradientTransform="matrix(0,25.083279,-30.794253,0,372.81658,-208.0918)"
       gradientUnits="userSpaceOnUse"
       xlink:href="#linearGradient2867-449-88-871-390-598-476-591-434-148-57-177-8-3-3-6-4-8-8-8-5"
       id="radialGradient3395"
       fy="9.9571075"
       fx="6.2001843"
       r="12.671875"
       cy="9.9571075"
       cx="6.7304144" />
    <linearGradient
       id="linearGradient2867-449-88-871-390-598-476-591-434-148-57-177-8-3-3-6-4-8-8-8-5">
      <stop
         offset="0"
         style="stop-color:#ffe16b;stop-opacity:1"
         id="stop3750-1-0-7-6-6-1-3-9-3" />
      <stop
         offset="0.26238"
         style="stop-color:#ffe16b;stop-opacity:1"
         id="stop3752-3-7-4-0-32-8-923-0-7" />
      <stop
         offset="0.704952"
         style="stop-color:#f9c440;stop-opacity:1"
         id="stop3754-1-8-5-2-7-6-7-1-9" />
      <stop
         offset="1"
         style="stop-color:#d48e15;stop-opacity:1"
         id="stop3756-1-6-2-6-6-1-96-6-0" />
    </linearGradient>
    <radialGradient
       gradientTransform="matrix(2.003784,0,0,1.4,27.98813,-17.4)"
       gradientUnits="userSpaceOnUse"
       xlink:href="#linearGradient3688-166-749-5"
       id="radialGradient2455-1"
       fy="43.5"
       fx="4.9929786"
       r="2.5"
       cy="43.5"
       cx="4.9929786" />
    <linearGradient
       id="linearGradient3688-166-749-5">
      <stop
         offset="0"
         style="stop-color:#181818;stop-opacity:1"
         id="stop2883-0" />
      <stop
         offset="1"
         style="stop-color:#181818;stop-opacity:0"
         id="stop2885-5" />
    </linearGradient>
    <radialGradient
       gradientTransform="matrix(2.003784,0,0,1.4,-20.01187,-104.4)"
       gradientUnits="userSpaceOnUse"
       xlink:href="#linearGradient3688-464-309-8"
       id="radialGradient2457-5"
       fy="43.5"
       fx="4.9929786"
       r="2.5"
       cy="43.5"
       cx="4.9929786" />
    <linearGradient
       id="linearGradient3688-464-309-8">
      <stop
         offset="0"
         style="stop-color:#181818;stop-opacity:1"
         id="stop2889-9" />
      <stop
         offset="1"
         style="stop-color:#181818;stop-opacity:0"
         id="stop2891-4" />
    </linearGradient>
    <linearGradient
       gradientUnits="userSpaceOnUse"
       xlink:href="#linearGradient3702-501-757-0"
       id="linearGradient2459-7"
       y2="39.999443"
       x2="25.058096"
       y1="47.027729"
       x1="25.058096" />
    <linearGradient
       id="linearGradient3702-501-757-0">
      <stop
         offset="0"
         style="stop-color:#181818;stop-opacity:0"
         id="stop2895-0" />
      <stop
         offset="0.5"
         style="stop-color:#181818;stop-opacity:1"
         id="stop2897-2" />
      <stop
         offset="1"
         style="stop-color:#181818;stop-opacity:0"
         id="stop2899-6" />
    </linearGradient>
    <linearGradient
       id="linearGradient3811">
      <stop
         offset="0"
         style="stop-color:#000000;stop-opacity:1"
         id="stop3813" />
      <stop
         offset="1"
         style="stop-color:#000000;stop-opacity:0"
         id="stop3815" />
    </linearGradient>
    <radialGradient
       gradientTransform="matrix(1.5563924,0,0,0.16978827,70.270358,102.13029)"
       gradientUnits="userSpaceOnUse"
       xlink:href="#linearGradient3811"
       id="radialGradient4377"
       fy="93.467628"
       fx="-4.0287771"
       r="35.338131"
       cy="93.467628"
       cx="-4.0287771" />
  </defs>
  <metadata
     id="metadata4384">
    <rdf:RDF>
      <cc:Work
         rdf:about="">
        <dc:format>image/svg+xml</dc:format>
        <dc:type
           rdf:resource="http://purl.org/dc/dcmitype/StillImage" />
        <dc:title />
      </cc:Work>
    </rdf:RDF>
  </metadata>
  <path
     d="M 119,118 A 55,6 0 0 1 9.0000016,118 55,6 0 1 1 119,118 Z"
     id="path3041"
     style="color:#000000;display:inline;overflow:visible;visibility:visible;opacity:0.2;fill:url(#radialGradient4377);fill-opacity:1;fill-rule:nonzero;stroke:none;stroke-width:1;marker:none;enable-background:accumulate" />
  <g
     transform="matrix(2.6999989,0,0,0.55555607,-0.8000019,94.888882)"
     id="g2036"
     style="display:inline">
    <g
       transform="matrix(1.052632,0,0,1.285713,-1.263158,-13.42854)"
       id="g3712"
       style="opacity:0.4">
      <rect
         width="5"
         height="7"
         x="38"
         y="40"
         id="rect2801"
         style="fill:url(#radialGradient2455-1);fill-opacity:1;stroke:none" />
      <rect
         width="5"
         height="7"
         x="-10"
         y="-47"
         transform="scale(-1)"
         id="rect3696"
         style="fill:url(#radialGradient2457-5);fill-opacity:1;stroke:none" />
      <rect
         width="28"
         height="7.0000005"
         x="10"
         y="40"
         id="rect3700"
         style="fill:url(#linearGradient2459-7);fill-opacity:1;stroke:none" />
    </g>
  </g>
  <rect
     width="103"
     height="103"
     rx="6.0545406"
     ry="6.0545406"
     x="12.5"
     y="15.5"
     id="rect5505-21-3"
     style="color:#000000;display:inline;overflow:visible;visibility:visible;fill:url(#radialGradient3395);fill-opacity:1;fill-rule:nonzero;stroke:none;stroke-width:1;marker:none;enable-background:accumulate" />
  <path
     inkscape:transform-center-x="-5e-06"
     inkscape:transform-center-y="-24.782276"
     inkscape:connector-curvature="0"
     id="path4775-2-0-3"
     d="m 55.999564,34.999998 v 5.999998 h -5.999996 v 2 h 2.999998 v 3.000002 h 2.999998 v 8 h 3.000004 l 4.32e-4,9 H 50 L 49.999568,60 h -11 V 56.999996 H 34 V 53.999998 H 30.999566 V 52.000002 L 29,51.999992 v 8.000006 h 2 v 5 l 3,-4e-6 v 3.000004 h 2.99989 c 0,0 -0.0146,1.088796 2.2e-4,2 h 3.000104 L 39.999998,72.999996 45,73 v 3.999998 h 8 v 2 h 3.000002 l -4e-6,5.999998 h -3.000106 l 2.18e-4,3.000002 h -1.999896 l -3.24e-4,1.999998 h -5.999782 l -3.26e-4,3.000462 -2.999784,-9.24e-4 v 2.000002 l 7.999572,9.2e-4 v 3.99954 h 3.000322 l -6.44e-4,-3.9997 3.00075,9e-5 v -5.00039 h 4.999568 v -3 h 3.000002 V 84.99999 l 3,1.2e-5 V 81.999996 H 69 v -2.999992 l 2.999562,-1.2e-5 v -2 l 6.000006,10e-6 v -3.000008 l 2.00043,4e-6 v -3.999996 l 5.99957,-8e-6 v -1.999996 h 3 v -3.000006 l 2.00043,6e-6 v -3.000002 h 3.00022 l -4.4e-4,-2.999988 2.99979,-2.4e-5 v -1.999988 h 2.00043 v -5 h -5 v 2.000002 h -5 v 2.999998 h -6 v 3.000882 l -8.000432,-8.88e-4 v 3.000008 H 71.999562 V 59.99999 l -4.999994,-3.2e-4 v -5.999672 h 3.00043 v 2.999998 h 4.999568 v -2.999998 h -3.000004 v -5 h -2.999998 v -6.000002 h -1.999996 v -2.999998 h -3 v -3 h -5 v -2 z m 7.999572,11 h 2.999996 l 8.7e-4,3 h -3.000006 z"
     style="opacity:0.5;fill:#fff394;fill-opacity:1;stroke:none;stroke-width:4.37274933px;stroke-linecap:butt;stroke-linejoin:miter;stroke-opacity:1"
     sodipodi:nodetypes="cccccccccccccccccccccccccccccccccccccccccccccccccccccccccccccccccccccccccccccccccccccccccccccccccccccccccc" />
  <rect
     width="101"
     height="101"
     rx="5"
     ry="5"
     x="13.5"
     y="16.5"
     id="rect6741-7"
     style="opacity:0.3;fill:none;stroke:url(#linearGradient3159);stroke-width:1;stroke-linecap:round;stroke-linejoin:round;stroke-miterlimit:4;stroke-dasharray:none;stroke-dashoffset:0;stroke-opacity:1" />
  <rect
     width="103"
     height="103"
     rx="6"
     ry="6"
     x="12.5"
     y="15.5"
     id="rect5505-21-6"
     style="color:#000000;display:inline;overflow:visible;visibility:visible;opacity:0.7;fill:none;stroke:#ad5f00;stroke-width:1;stroke-linecap:round;stroke-linejoin:round;stroke-miterlimit:4;stroke-dasharray:none;stroke-dashoffset:0;stroke-opacity:1;marker:none;enable-background:accumulate" />
  <path
     inkscape:transform-center-x="-5e-06"
     inkscape:transform-center-y="-24.782276"
     inkscape:connector-curvature="0"
     id="path4775-2-0"
     d="M 55.999564,34.000002 V 40 h -5.999996 v 2 h 2.999998 v 3.000002 h 2.999998 v 8 h 3.000004 l 4.32e-4,9 h -9 l -4.32e-4,-2.999998 h -11 V 56 H 34 V 53.000002 H 30.999566 V 51.000006 L 29,50.999996 v 8.000006 h 2 v 5 l 3,-4e-6 v 3.000004 h 2.99989 c 0,0 -0.0146,1.088796 2.2e-4,2 h 3.000104 L 39.999998,72 45,72.000004 v 3.999998 h 8 v 2 h 3.000002 L 55.999998,84 h -3.000106 l 2.18e-4,3.000002 H 51.000214 L 50.99989,89 h -5.999782 l -3.26e-4,3.000462 -2.999784,-9.24e-4 v 2.000002 l 7.999572,9.22e-4 V 98 h 3.000322 l -6.44e-4,-3.9997 3.00075,8.6e-5 V 89 h 4.999568 v -3 h 3.000002 v -2.000006 l 3,1.2e-5 V 81 H 69 v -2.999992 l 2.999562,-1.2e-5 v -2 l 6.000006,1e-5 v -3.000008 l 2.00043,4e-6 v -3.999996 l 5.99957,-8e-6 v -1.999996 h 3 v -3.000006 l 2.00043,6e-6 V 61 h 3.00022 l -4.4e-4,-2.999988 2.99979,-2.4e-5 V 56 h 2.00043 v -5 h -5 v 2.000002 h -5 V 56 h -6 v 3.000882 l -8.000432,-8.88e-4 v 3.000008 h -3.000004 v -3.000008 l -4.999994,-3.2e-4 v -5.999672 h 3.00043 V 56 h 4.999568 v -2.999998 h -3.000004 v -5 H 68.999564 V 42 h -1.999996 v -2.999998 h -3 v -3 h -5 v -2 z m 7.999572,11 h 2.999996 l 8.7e-4,3 h -3.000006 z"
     style="opacity:1;fill:#d48e15;fill-opacity:1;stroke:none;stroke-width:4.37274933px;stroke-linecap:butt;stroke-linejoin:miter;stroke-opacity:1"
     sodipodi:nodetypes="cccccccccccccccccccccccccccccccccccccccccccccccccccccccccccccccccccccccccccccccccccccccccccccccccccccccccc" />
  <g
     style="opacity:0.2;fill:#ad5f00"
     transform="matrix(3.166668,0,0,-3.166668,-528.6669,826.167)"
     id="g4599">
    <path
       style="fill:#ad5f00;fill-opacity:1;fill-rule:evenodd;stroke:none;stroke-width:1px;stroke-linecap:butt;stroke-linejoin:miter;stroke-opacity:1"
       d="m 178,247 -1.2,3 1.2,3 1.2,-3 z"
       id="path4536"
       inkscape:connector-curvature="0" />
    <path
       id="path4538"
       d="m 181,250 -3,-1.2 -3,1.2 3,1.2 z"
       style="fill:#ad5f00;fill-opacity:1;fill-rule:evenodd;stroke:none;stroke-width:1px;stroke-linecap:butt;stroke-linejoin:miter;stroke-opacity:1"
       inkscape:connector-curvature="0" />
  </g>
  <g
     style="opacity:0.2;fill:#ad5f00"
     transform="matrix(-2.1666676,0,0,-2.1666676,484.3335,605.83358)"
     id="g4571">
    <path
       style="fill:#ad5f00;fill-opacity:1;fill-rule:evenodd;stroke:none;stroke-width:1px;stroke-linecap:butt;stroke-linejoin:miter;stroke-opacity:1"
       d="m 182,263 -1.2,3 1.2,3 1.2,-3 z"
       id="path4573"
       inkscape:connector-curvature="0" />
    <path
       id="path4575"
       d="m 185,266 -3,-1.2 -3,1.2 3,1.2 z"
       style="fill:#ad5f00;fill-opacity:1;fill-rule:evenodd;stroke:none;stroke-width:1px;stroke-linecap:butt;stroke-linejoin:miter;stroke-opacity:1"
       inkscape:connector-curvature="0" />
  </g>
  <g
     style="opacity:0.2;fill:#ad5f00"
     id="g4577"
     transform="matrix(2.1666676,0,0,2.1666676,-294.3335,-471.83358)">
    <path
       inkscape:connector-curvature="0"
       id="path4579"
       d="m 182,263 -1.2,3 1.2,3 1.2,-3 z"
       style="fill:#ad5f00;fill-opacity:1;fill-rule:evenodd;stroke:none;stroke-width:1px;stroke-linecap:butt;stroke-linejoin:miter;stroke-opacity:1" />
    <path
       inkscape:connector-curvature="0"
       style="fill:#ad5f00;fill-opacity:1;fill-rule:evenodd;stroke:none;stroke-width:1px;stroke-linecap:butt;stroke-linejoin:miter;stroke-opacity:1"
       d="m 185,266 -3,-1.2 -3,1.2 3,1.2 z"
       id="path4581" />
  </g>
  <g
     id="g4535"
     transform="matrix(-2.1666676,0,0,-2.1666676,423.3335,651.83358)"
     style="opacity:0.2;fill:#ad5f00">
    <path
       id="path4537"
       d="m 182,263 -1.2,3 1.2,3 1.2,-3 z"
       style="fill:#ad5f00;fill-opacity:1;fill-rule:evenodd;stroke:none;stroke-width:1px;stroke-linecap:butt;stroke-linejoin:miter;stroke-opacity:1"
       inkscape:connector-curvature="0" />
    <path
       style="fill:#ad5f00;fill-opacity:1;fill-rule:evenodd;stroke:none;stroke-width:1px;stroke-linecap:butt;stroke-linejoin:miter;stroke-opacity:1"
       d="m 185,266 -3,-1.2 -3,1.2 3,1.2 z"
       id="path4539"
       inkscape:connector-curvature="0" />
  </g>
</svg>
