<?xml version="1.0" encoding="UTF-8" standalone="no"?>
<svg
   xmlns:dc="http://purl.org/dc/elements/1.1/"
   xmlns:cc="http://creativecommons.org/ns#"
   xmlns:rdf="http://www.w3.org/1999/02/22-rdf-syntax-ns#"
   xmlns:svg="http://www.w3.org/2000/svg"
   xmlns="http://www.w3.org/2000/svg"
   xmlns:xlink="http://www.w3.org/1999/xlink"
   xmlns:sodipodi="http://sodipodi.sourceforge.net/DTD/sodipodi-0.dtd"
   xmlns:inkscape="http://www.inkscape.org/namespaces/inkscape"
   version="1.1"
   width="128"
   height="128"
   id="svg4379"
   sodipodi:docname="signal.svg"
   inkscape:version="1.0.1 (3bc2e813f5, 2020-09-07)">
  <sodipodi:namedview
     pagecolor="#ffffff"
     bordercolor="#666666"
     borderopacity="1"
     objecttolerance="10"
     gridtolerance="10"
     guidetolerance="10"
     inkscape:pageopacity="0"
     inkscape:pageshadow="2"
     inkscape:window-width="1366"
     inkscape:window-height="720"
     id="namedview40"
     showgrid="true"
     inkscape:zoom="2.3398438"
     inkscape:cx="110.4753"
     inkscape:cy="85.027646"
     inkscape:window-x="0"
     inkscape:window-y="24"
     inkscape:window-maximized="1"
     inkscape:current-layer="g4217">
    <inkscape:grid
       type="xygrid"
       id="grid865" />
  </sodipodi:namedview>
  <defs
     id="defs4381">
    <linearGradient
       id="linearGradient4113">
      <stop
         id="stop4115"
         style="stop-color:#000000;stop-opacity:1"
         offset="0" />
      <stop
         id="stop4117"
         style="stop-color:#000000;stop-opacity:0"
         offset="1" />
    </linearGradient>
    <radialGradient
       r="18"
       fy="38"
       fx="26"
       cy="38"
       cx="26"
       gradientTransform="matrix(2.8888888,0,0,0.88888886,-19.11111,38.222222)"
       gradientUnits="userSpaceOnUse"
       id="radialGradient3901"
       xlink:href="#linearGradient4113" />
    <radialGradient
       r="26.5"
       fy="19.018763"
       fx="36"
       cy="19.018763"
       cx="36"
       gradientTransform="matrix(-2.2629402e-7,10.263208,12.075472,2.662038e-7,-174.16052,-349.97576)"
       gradientUnits="userSpaceOnUse"
       id="radialGradient3895"
       xlink:href="#linearGradient4223" />
    <linearGradient
       id="linearGradient4223">
      <stop
         id="stop4225"
         style="stop-color:#d1ff82;stop-opacity:1"
         offset="0" />
      <stop
         id="stop4227"
         style="stop-color:#9bdb4d;stop-opacity:1"
         offset="0.26238" />
      <stop
         id="stop4229"
         style="stop-color:#68b723;stop-opacity:1"
         offset="0.66093999" />
      <stop
         id="stop4231"
         style="stop-color:#3a9104;stop-opacity:1"
         offset="1" />
    </linearGradient>
    <linearGradient
       gradientTransform="matrix(2.0287128,0,0,2.034022,-2.5242263,2.087875)"
       y2="56"
       x2="36"
       y1="28"
       x1="36"
       gradientUnits="userSpaceOnUse"
       id="linearGradient3897"
       xlink:href="#linearGradient4546" />
    <linearGradient
       id="linearGradient4546">
      <stop
         id="stop4548"
         style="stop-color:#ffffff;stop-opacity:1"
         offset="0" />
      <stop
         id="stop4550"
         style="stop-color:#ffffff;stop-opacity:0.23529412"
         offset="0.33333334" />
      <stop
         id="stop4552"
         style="stop-color:#ffffff;stop-opacity:0.15686275"
         offset="0.95056331" />
      <stop
         id="stop4554"
         style="stop-color:#ffffff;stop-opacity:0.39215687"
         offset="1" />
    </linearGradient>
    <radialGradient
       r="18"
       fy="38"
       fx="26"
       cy="38"
       cx="26"
       gradientTransform="matrix(2.8888888,0,0,0.88888886,-9.611111,70.222222)"
       gradientUnits="userSpaceOnUse"
       id="radialGradient3997"
       xlink:href="#linearGradient4113" />
    <radialGradient
       r="26.5"
       fy="19.739857"
       fx="34.800907"
       cy="19.739857"
       cx="34.800907"
       gradientTransform="matrix(2.9275666e-7,9.055771,-12.679245,3.085139e-7,312.78646,-263.6486)"
       gradientUnits="userSpaceOnUse"
       id="radialGradient3863"
       xlink:href="#linearGradient4129" />
    <linearGradient
       id="linearGradient4129">
      <stop
         id="stop4131"
         style="stop-color:#8cd5ff;stop-opacity:1"
         offset="0" />
      <stop
         id="stop4133"
         style="stop-color:#64baff;stop-opacity:1"
         offset="0.26238" />
      <stop
         id="stop4135"
         style="stop-color:#3689e6;stop-opacity:1"
         offset="0.704952" />
      <stop
         id="stop4137"
         style="stop-color:#0d52bf;stop-opacity:1"
         offset="1" />
    </linearGradient>
    <linearGradient
       gradientTransform="matrix(-2.0183824,0,0,2.0183824,128.62133,-37.271994)"
       y2="56"
       x2="36"
       y1="28"
       x1="36"
       gradientUnits="userSpaceOnUse"
       id="linearGradient4259"
       xlink:href="#linearGradient4546" />
  </defs>
  <metadata
     id="metadata4384">
    <rdf:RDF>
      <cc:Work
         rdf:about="">
        <dc:format>image/svg+xml</dc:format>
        <dc:type
           rdf:resource="http://purl.org/dc/dcmitype/StillImage" />
        <dc:title></dc:title>
      </cc:Work>
    </rdf:RDF>
  </metadata>
  <g
     id="g4217">
    <path
       style="opacity:0.2;fill:url(#radialGradient3997);fill-opacity:1;stroke:none"
       id="path4564"
       d="m 117.5,104 a 52,16.000001 0 0 1 -104,0 52,16.000001 0 1 1 104,0 z" />
    <g
       id="g4211"
       transform="translate(-6.5,-8)">
      <path
         id="rect3064"
         d="m 44.5,56.5 c -14.958,0 -27,12.040892 -27,26.997518 v 5.999448 c 0,14.956624 12.042,26.997514 27,26.997514 h 50 c 3.016658,0 5.9204,-0.47024 8.625,-1.37487 4.38383,3.7719 10.83284,4.55501 16.125,1.49986 0.36402,-0.21015 0.72478,-0.45059 1.0625,-0.68743 -2.71353,-1.83522 -5.21589,-4.08458 -7.3125,-6.74938 5.2314,-4.91774 8.5,-11.906318 8.5,-19.685694 V 83.497518 C 121.5,68.540892 109.458,56.5 94.5,56.5 Z"
         style="fill:url(#radialGradient3863);fill-opacity:1;stroke:#002e99;stroke-width:1;stroke-opacity:0.498039" />
      <path
         clip-path="none"
         style="fill:none;fill-opacity:1;stroke:url(#linearGradient3897);stroke-width:1;stroke-miterlimit:4;stroke-dasharray:none;stroke-opacity:0.498039"
         d="M 44.136168,57.499406 C 30,57.499406 18.5,69.499406 18.5,83.448756 v 6.102066 c 0,13.948588 11.5,25.948588 25.64109,25.948588 h 50.71782 c 2.82196,0 6.14109,-0.71997 7.95183,-1.32726 l 0.57057,-0.1907 0.38039,0.38138 c 4.11209,3.54768 10.17513,4.13717 14.74907,1.51678 -2.37309,-1.75391 -4.39257,-3.66651 -6.27785,-6.0692 l -0.57058,-0.76276 0.69737,-0.63563 C 117.47043,103.59472 120.5,97.178404 120.5,89.550812 v -6.102066 c 0,-13.94935 -11.5,-25.94935 -25.646012,-25.94935 z"
         id="path3873" />
      <path
         style="opacity:0.4;fill:#002e99;fill-opacity:1;stroke:none"
         d="m 40,96 c -2.209138,0 -4,1.790862 -4,4 0,2.20914 1.790862,4 4,4 2.209138,0 4,-1.79086 4,-4 0,-2.209138 -1.790862,-4 -4,-4 z m 12,0 c -2.209138,0 -4,1.790862 -4,4 0,2.20914 1.790862,4 4,4 2.209138,0 4,-1.79086 4,-4 0,-2.209138 -1.790862,-4 -4,-4 z m 12,0 c -2.209138,0 -4,1.790862 -4,4 0,2.20914 1.790862,4 4,4 2.209138,0 4,-1.79086 4,-4 0,-2.209138 -1.790862,-4 -4,-4 z"
         id="path4038" />
      <path
         style="opacity:0.5;fill:#ffffff;fill-opacity:1;stroke:none"
         d="M 36.050781,100.5 C 36.029918,100.66551 36,100.82883 36,101 c 0,2.20914 1.790862,4 4,4 2.209138,0 4,-1.79086 4,-4 0,-0.17117 -0.02992,-0.33449 -0.05078,-0.5 -0.248412,1.97058 -1.911248,3.5 -3.94922,3.5 -2.037972,0 -3.700808,-1.52942 -3.949219,-3.5 z m 12,0 C 48.029918,100.66551 48,100.82883 48,101 c 0,2.20914 1.790862,4 4,4 2.209138,0 4,-1.79086 4,-4 0,-0.17117 -0.02992,-0.33449 -0.05078,-0.5 -0.248412,1.97058 -1.911248,3.5 -3.94922,3.5 -2.037972,0 -3.700808,-1.52942 -3.949219,-3.5 z m 12,0 C 60.029918,100.66551 60,100.82883 60,101 c 0,2.20914 1.790862,4 4,4 2.209138,0 4,-1.79086 4,-4 0,-0.17117 -0.02992,-0.33449 -0.05078,-0.5 -0.248412,1.97058 -1.911248,3.5 -3.94922,3.5 -2.037972,0 -3.700808,-1.52942 -3.949219,-3.5 z"
         id="path4264" />
    </g>
  </g>
</svg>
